<svg width="16" height="16" viewBox="0 0 16 16" xmlns="http://www.w3.org/2000/svg">
<path d="M12.4444 7.11111C12.7467 7.11111 13.04 7.14667 13.3333 7.19111V2.90667L6.66667 0L0 2.90667V7.27111C0 11.3067 2.84444 15.0844 6.66667 16C7.15556 15.8844 7.62667 15.7156 8.08889 15.5111C7.47556 14.64 7.11111 13.5822 7.11111 12.4444C7.11111 9.50222 9.50222 7.11111 12.4444 7.11111Z"/>
<path d="M12.4444 8.88892C10.48 8.88892 8.88889 10.48 8.88889 12.4445C8.88889 14.4089 10.48 16 12.4444 16C14.4089 16 16 14.4089 16 12.4445C16 10.48 14.4089 8.88892 12.4444 8.88892ZM12.4444 10.1156C12.9956 10.1156 13.44 10.5689 13.44 11.1111C13.44 11.6534 12.9867 12.1067 12.4444 12.1067C11.9022 12.1067 11.4489 11.6534 11.4489 11.1111C11.4489 10.5689 11.8933 10.1156 12.4444 10.1156ZM12.4444 14.8889C11.6178 14.8889 10.8978 14.48 10.4533 13.8489C10.4978 13.2089 11.7956 12.8889 12.4444 12.8889C13.0933 12.8889 14.3911 13.2089 14.4356 13.8489C13.9911 14.48 13.2711 14.8889 12.4444 14.8889Z"/>
</svg>
