<svg width="16" height="16" viewBox="0 0 16 16" xmlns="http://www.w3.org/2000/svg">
<rect width="16" height="16" fill="white"/>
<path d="M11.6 1.00008C10.208 1.00008 8.872 1.64808 8 2.67208C7.128 1.64808 5.792 1.00008 4.4 1.00008C1.936 1.00008 0 2.93608 0 5.40008C0 8.42408 2.72 10.8881 6.84 14.6321L8 15.6801L9.16 14.6241C13.28 10.8881 16 8.42408 16 5.40008C16 2.93608 14.064 1.00008 11.6 1.00008ZM8.08 13.4401L8 13.5201L7.92 13.4401C4.112 9.99208 1.6 7.71208 1.6 5.40008C1.6 3.80008 2.8 2.60008 4.4 2.60008C5.632 2.60008 7.256 4.48808 7.256 4.48808L8 5.40008L8.752 4.48808C8.752 4.48808 10.368 2.60008 11.6 2.60008C13.2 2.60008 14.4 3.80008 14.4 5.40008C14.4 7.71208 11.888 9.99208 8.08 13.4401Z"/>
</svg>
