<svg width="16" height="16" viewBox="0 0 16 16" xmlns="http://www.w3.org/2000/svg">
<path d="M8 2.5C4.36364 2.5 1.25818 4.82213 0 8.1C1.25818 11.3779 4.36364 13.7 8 13.7C11.6364 13.7 14.7418 11.3779 16 8.1C14.7418 4.82213 11.6364 2.5 8 2.5ZM8 11.8333C5.99273 11.8333 4.36364 10.1608 4.36364 8.1C4.36364 6.0392 5.99273 4.36667 8 4.36667C10.0073 4.36667 11.6364 6.0392 11.6364 8.1C11.6364 10.1608 10.0073 11.8333 8 11.8333ZM8 5.86C6.79273 5.86 5.81818 6.86053 5.81818 8.1C5.81818 9.33947 6.79273 10.34 8 10.34C9.20727 10.34 10.1818 9.33947 10.1818 8.1C10.1818 6.86053 9.20727 5.86 8 5.86Z"/>
</svg>
