<svg width="10" height="10" viewBox="0 0 10 10" xmlns="http://www.w3.org/2000/svg">
    <path d="M4.71501 1.98458L4.9386 2.09641L4.93861 2.09639L4.71501 1.98458ZM3.95417 3.50583L4.1777 3.61779L4.17777 3.61766L3.95417 3.50583ZM3.33334 3.95167L3.29798 3.70418L3.29769 3.70422L3.33334 3.95167ZM1.63001 4.19708L1.59435 3.94964L1.59427 3.94965L1.63001 4.19708ZM1.46751 4.33167L1.23028 4.25259L1.22862 4.25794L1.46751 4.33167ZM1.51792 4.52542L1.69113 4.34514L1.69077 4.3448L1.51792 4.52542ZM2.74959 5.70875L2.92289 5.52856L2.92279 5.52847L2.74959 5.70875ZM2.98834 6.43583L2.74209 6.39267L2.74202 6.39308L2.98834 6.43583ZM2.69834 8.10667L2.45202 8.06391L2.45193 8.06445L2.69834 8.10667ZM2.77501 8.29292L2.92592 8.09349L2.92032 8.08948L2.77501 8.29292ZM2.99042 8.30917L2.87535 8.08722L2.87466 8.08759L2.99042 8.30917ZM4.51334 7.51958L4.39877 7.29738L4.39827 7.29764L4.51334 7.51958ZM5.27834 7.51958L5.39339 7.29763L5.39323 7.29755L5.27834 7.51958ZM6.80084 8.30875L6.68579 8.53071L6.68616 8.53089L6.80084 8.30875ZM7.01709 8.29292L6.87178 8.08948L6.87101 8.09003L7.01709 8.29292ZM7.09376 8.10667L7.34017 8.06445L7.34005 8.0638L7.09376 8.10667ZM6.80292 6.43583L7.04922 6.39296L7.04917 6.39267L6.80292 6.43583ZM7.04167 5.70875L6.86847 5.52847L6.86837 5.52856L7.04167 5.70875ZM8.27334 4.52542L8.10097 4.34433L8.10014 4.34514L8.27334 4.52542ZM8.32376 4.33167L8.08575 4.40817L8.086 4.40894L8.32376 4.33167ZM8.16167 4.19708L8.19741 3.94965L8.19732 3.94964L8.16167 4.19708ZM6.45834 3.95167L6.49399 3.70422L6.49375 3.70419L6.45834 3.95167ZM5.83792 3.50542L6.06153 3.39361L6.06146 3.39347L5.83792 3.50542ZM5.07626 1.98458L4.85227 2.09563L4.85272 2.09653L5.07626 1.98458ZM2.40542 8.7975L2.25767 8.99917L2.25811 8.99949L2.40542 8.7975ZM2.08292 7.99958L2.32919 8.04263L2.32924 8.04234L2.08292 7.99958ZM2.37292 6.32875L2.12664 6.28578L2.12661 6.286L2.37292 6.32875ZM2.31667 6.15958L2.49015 5.97956L2.48988 5.9793L2.31667 6.15958ZM1.08501 4.97625L1.25821 4.79597L1.25792 4.7957L1.08501 4.97625ZM0.872922 4.14042L1.11091 4.21697L1.11097 4.2168L0.872922 4.14042ZM1.54084 3.57875L1.57615 3.82624L1.57649 3.82619L1.54084 3.57875ZM3.24417 3.33333L3.20969 3.08572L3.20852 3.08589L3.24417 3.33333ZM3.39501 3.22625L3.17142 3.1144L3.17075 3.11575L3.39501 3.22625ZM4.15626 1.70458L3.93272 1.59265L3.93267 1.59273L4.15626 1.70458ZM5.63542 1.70458L5.85897 1.59266L5.85896 1.59265L5.63542 1.70458ZM6.39709 3.22583L6.62102 3.11467L6.62064 3.11391L6.39709 3.22583ZM6.54751 3.33333L6.58316 3.08589L6.5822 3.08575L6.54751 3.33333ZM8.25084 3.57875L8.21519 3.8262L8.21553 3.82624L8.25084 3.57875ZM8.91876 4.14042L8.68071 4.2168L8.68077 4.21697L8.91876 4.14042ZM8.70626 4.97625L8.53334 4.7957L8.53305 4.79597L8.70626 4.97625ZM7.47459 6.15958L7.30139 5.9793L7.30112 5.97956L7.47459 6.15958ZM7.41876 6.32833L7.66507 6.28553L7.66499 6.28508L7.41876 6.32833ZM7.70917 7.99958L7.95551 7.95692L7.95548 7.95678L7.70917 7.99958ZM7.38584 8.7975L7.23846 8.59556L7.238 8.5959L7.38584 8.7975ZM6.51292 8.86333L6.6285 8.64165L6.62795 8.64137L6.51292 8.86333ZM4.99084 8.07458L5.10586 7.85262L5.10574 7.85255L4.99084 8.07458ZM4.80042 8.07458L4.68552 7.85255L4.68535 7.85264L4.80042 8.07458ZM3.27834 8.86375L3.16327 8.64181L3.16291 8.642L3.27834 8.86375ZM4.89584 1.625C4.82459 1.625 4.60514 1.64529 4.4914 1.87278L4.93861 2.09639C4.93742 2.09876 4.93402 2.1042 4.92757 2.1101C4.92139 2.11575 4.91505 2.11944 4.91004 2.12163C4.90536 2.12368 4.90199 2.12438 4.90047 2.12464C4.89893 2.1249 4.89755 2.125 4.89584 2.125V1.625ZM4.49141 1.87276L3.73058 3.39401L4.17777 3.61766L4.9386 2.09641L4.49141 1.87276ZM3.73064 3.39388C3.64712 3.56064 3.48556 3.67738 3.29798 3.70418L3.36869 4.19915C3.71778 4.14928 4.02039 3.93186 4.1777 3.61779L3.73064 3.39388ZM3.29769 3.70422L1.59435 3.94964L1.66566 4.44453L3.36899 4.19911L3.29769 3.70422ZM1.59427 3.94965C1.34326 3.98591 1.25416 4.18112 1.23033 4.25261L1.70468 4.41072C1.70395 4.4129 1.7019 4.41904 1.69478 4.42677C1.69059 4.43131 1.68494 4.43603 1.67812 4.43973C1.67485 4.44151 1.67188 4.44273 1.66947 4.44353C1.66707 4.44432 1.66572 4.44452 1.66575 4.44452L1.59427 3.94965ZM1.22862 4.25794C1.20739 4.32674 1.1655 4.53419 1.34507 4.70604L1.69077 4.3448C1.69252 4.34647 1.69693 4.35144 1.70103 4.35992C1.70501 4.36817 1.7071 4.37642 1.70794 4.38342C1.7094 4.39553 1.70715 4.40293 1.70639 4.4054L1.22862 4.25794ZM1.34472 4.7057L2.57639 5.88903L2.92279 5.52847L1.69113 4.34514L1.34472 4.7057ZM2.57629 5.88894C2.71296 6.02039 2.7743 6.2089 2.74209 6.39267L3.23459 6.47899C3.29571 6.13026 3.17871 5.77461 2.92289 5.52856L2.57629 5.88894ZM2.74202 6.39308L2.45202 8.06391L2.94466 8.14942L3.23466 6.47859L2.74202 6.39308ZM2.45193 8.06445C2.41003 8.30902 2.56888 8.45291 2.6297 8.49635L2.92032 8.08948C2.92482 8.0927 2.93033 8.09717 2.93574 8.10657C2.93898 8.11222 2.94221 8.1198 2.94398 8.12882C2.94581 8.13817 2.94535 8.14538 2.94475 8.14888L2.45193 8.06445ZM2.62415 8.49227C2.68949 8.54172 2.8795 8.64918 3.10619 8.53075L2.87466 8.08759C2.87463 8.0876 2.87493 8.08744 2.87556 8.08718C2.87619 8.08692 2.87709 8.08658 2.87824 8.08621C2.88063 8.08547 2.88368 8.08475 2.88726 8.08431C2.8947 8.08339 2.90169 8.08393 2.90733 8.08512C2.9126 8.08623 2.91628 8.08778 2.91848 8.08887C2.9206 8.08993 2.92286 8.09129 2.92587 8.09357L2.62415 8.49227ZM3.10549 8.53111L4.62841 7.74153L4.39827 7.29764L2.87535 8.08722L3.10549 8.53111ZM4.62791 7.74178C4.79615 7.65504 4.99646 7.65522 5.16345 7.74162L5.39323 7.29755C5.08188 7.13645 4.71053 7.13663 4.39877 7.29738L4.62791 7.74178ZM5.16329 7.74154L6.68579 8.53071L6.91589 8.08679L5.39339 7.29763L5.16329 7.74154ZM6.68616 8.53089C6.91286 8.64793 7.1015 8.5402 7.16317 8.4958L6.87101 8.09003C6.8724 8.08903 6.87369 8.08823 6.87525 8.08747C6.87682 8.08671 6.87999 8.08535 6.88482 8.08434C6.89 8.08327 6.89658 8.08273 6.90367 8.08359C6.90708 8.08401 6.90998 8.08468 6.91224 8.08538C6.91449 8.08607 6.9156 8.08665 6.91552 8.08661L6.68616 8.53089ZM7.1624 8.49635C7.22322 8.45291 7.38206 8.30902 7.34017 8.06445L6.84735 8.14888C6.84675 8.14538 6.84628 8.13817 6.84812 8.12882C6.84989 8.1198 6.85311 8.11222 6.85636 8.10657C6.86176 8.09717 6.86727 8.0927 6.87178 8.08948L7.1624 8.49635ZM7.34005 8.0638L7.04922 6.39296L6.55663 6.47871L6.84746 8.14954L7.34005 8.0638ZM7.04917 6.39267C7.01696 6.2089 7.0783 6.02039 7.21497 5.88894L6.86837 5.52856C6.61255 5.77461 6.49555 6.13026 6.55668 6.47899L7.04917 6.39267ZM7.21488 5.88903L8.44654 4.7057L8.10014 4.34514L6.86847 5.52847L7.21488 5.88903ZM8.4457 4.7065C8.62604 4.53484 8.58498 4.32658 8.56151 4.2544L8.086 4.40894C8.08432 4.40376 8.08214 4.39563 8.08363 4.38331C8.08449 4.37614 8.08662 4.3678 8.09064 4.35952C8.09477 4.35099 8.09921 4.34601 8.10097 4.34434L8.4457 4.7065ZM8.56176 4.25516C8.53786 4.1808 8.44826 3.98589 8.19741 3.94965L8.12593 4.44452C8.12596 4.44452 8.12461 4.44432 8.1222 4.44353C8.11979 4.44273 8.11681 4.4415 8.11352 4.43971C8.10667 4.43599 8.10095 4.43123 8.09667 4.42658C8.08941 4.41868 8.08702 4.41211 8.08575 4.40817L8.56176 4.25516ZM8.19732 3.94964L6.49399 3.70422L6.42269 4.19911L8.12602 4.44453L8.19732 3.94964ZM6.49375 3.70419C6.30666 3.67742 6.1451 3.56076 6.06153 3.39361L5.61432 3.61722C5.77157 3.93174 6.07419 4.14925 6.42293 4.19915L6.49375 3.70419ZM6.06146 3.39347L5.29979 1.87263L4.85272 2.09653L5.61439 3.61737L6.06146 3.39347ZM5.30024 1.87353C5.18702 1.64519 4.96681 1.625 4.89584 1.625V2.125C4.89413 2.125 4.89275 2.1249 4.89119 2.12464C4.88965 2.12438 4.88622 2.12366 4.88146 2.12157C4.87637 2.11934 4.8699 2.11558 4.8636 2.1098C4.85703 2.10377 4.85353 2.09817 4.85227 2.09563L5.30024 1.87353ZM2.89459 8.70833C2.7754 8.70833 2.65616 8.67095 2.55274 8.59552L2.25811 8.99949C2.44718 9.13739 2.66961 9.20833 2.89459 9.20833V8.70833ZM2.55318 8.59584C2.37686 8.46666 2.29192 8.25583 2.32919 8.04263L1.83666 7.95654C1.76642 8.35833 1.92898 8.75834 2.25767 8.99917L2.55318 8.59584ZM2.32924 8.04234L2.61924 6.3715L2.12661 6.286L1.83661 7.95683L2.32924 8.04234ZM2.6192 6.37172C2.64474 6.22535 2.59394 6.07959 2.49015 5.97956L2.1432 6.3396C2.13107 6.32791 2.12277 6.30798 2.12664 6.28578L2.6192 6.37172ZM2.48988 5.9793L1.25821 4.79597L0.911802 5.15653L2.14347 6.33986L2.48988 5.9793ZM1.25792 4.7957C1.10023 4.64467 1.04444 4.42362 1.11091 4.21697L0.634933 4.06386C0.509738 4.45305 0.616449 4.87366 0.912087 5.1568L1.25792 4.7957ZM1.11097 4.2168C1.17819 4.0073 1.35486 3.85781 1.57615 3.82624L1.50553 3.33126C1.09598 3.38969 0.760986 3.67103 0.634878 4.06403L1.11097 4.2168ZM1.57649 3.82619L3.27982 3.58078L3.20852 3.08589L1.50519 3.33131L1.57649 3.82619ZM3.27865 3.58094C3.42366 3.56075 3.55303 3.47116 3.61926 3.33675L3.17075 3.11575C3.18032 3.09634 3.19635 3.08758 3.2097 3.08572L3.27865 3.58094ZM3.61859 3.3381L4.37984 1.81644L3.93267 1.59273L3.17142 3.1144L3.61859 3.3381ZM4.3798 1.81652C4.47746 1.62148 4.6738 1.5 4.89584 1.5V1C4.48621 1 4.11588 1.22686 3.93272 1.59265L4.3798 1.81652ZM4.89584 1.5C5.11788 1.5 5.31422 1.62148 5.41188 1.81652L5.85896 1.59265C5.6758 1.22686 5.30547 1 4.89584 1V1.5ZM5.41188 1.81651L6.17354 3.33776L6.62064 3.11391L5.85897 1.59266L5.41188 1.81651ZM6.17316 3.33699C6.23918 3.46998 6.36695 3.56048 6.51281 3.58091L6.5822 3.08575C6.59723 3.08786 6.6125 3.09752 6.62102 3.11467L6.17316 3.33699ZM6.51185 3.58078L8.21519 3.82619L8.28649 3.33131L6.58316 3.08589L6.51185 3.58078ZM8.21553 3.82624C8.43682 3.85781 8.61349 4.0073 8.68071 4.2168L9.1568 4.06403C9.03069 3.67103 8.6957 3.38969 8.28615 3.33126L8.21553 3.82624ZM8.68077 4.21697C8.74716 4.42336 8.69123 4.64449 8.53334 4.7957L8.87918 5.1568C9.17462 4.87385 9.28202 4.4533 9.15675 4.06386L8.68077 4.21697ZM8.53305 4.79597L7.30139 5.9793L7.64779 6.33986L8.87946 5.15653L8.53305 4.79597ZM7.30112 5.97956C7.19666 6.08022 7.14701 6.22633 7.17253 6.37159L7.66499 6.28508C7.66884 6.307 7.66085 6.32728 7.64806 6.3396L7.30112 5.97956ZM7.17245 6.37114L7.46286 8.04238L7.95548 7.95678L7.66507 6.28553L7.17245 6.37114ZM7.46284 8.04225C7.4999 8.25622 7.41473 8.46692 7.23846 8.59556L7.53322 8.99944C7.86278 8.75892 8.02511 8.35878 7.95551 7.95692L7.46284 8.04225ZM7.238 8.5959C7.05875 8.72735 6.82716 8.74523 6.6285 8.64165L6.39735 9.08501C6.76451 9.27644 7.20043 9.24349 7.53368 8.9991L7.238 8.5959ZM6.62795 8.64137L5.10586 7.85262L4.87582 8.29655L6.3979 9.0853L6.62795 8.64137ZM5.10574 7.85255C4.97409 7.78443 4.81717 7.78443 4.68552 7.85255L4.91532 8.29662C4.90284 8.30307 4.88842 8.30307 4.87594 8.29662L5.10574 7.85255ZM4.68535 7.85264L3.16327 8.64181L3.39341 9.08569L4.9155 8.29653L4.68535 7.85264ZM3.16291 8.642C3.07699 8.68672 2.98535 8.70833 2.89459 8.70833V9.20833C3.0655 9.20833 3.23636 9.16745 3.39377 9.0855L3.16291 8.642Z"/>
</svg>
