<svg width="16" height="16" viewBox="0 0 16 16" xmlns="http://www.w3.org/2000/svg">
<path d="M7.13313 0.941162L2.77399 7.71763H11.4923L7.13313 0.941162ZM7.13313 3.83246L8.66279 6.21175H5.59554L7.13313 3.83246ZM11.4923 9.22352C9.51876 9.22352 7.9257 10.7369 7.9257 12.6118C7.9257 14.4866 9.51876 16 11.4923 16C13.4658 16 15.0588 14.4866 15.0588 12.6118C15.0588 10.7369 13.4658 9.22352 11.4923 9.22352ZM11.4923 14.4941C10.3985 14.4941 9.51084 13.6508 9.51084 12.6118C9.51084 11.5727 10.3985 10.7294 11.4923 10.7294C12.586 10.7294 13.4737 11.5727 13.4737 12.6118C13.4737 13.6508 12.586 14.4941 11.4923 14.4941ZM0 15.6235H6.34056V9.59999H0V15.6235ZM1.58514 11.1059H4.75542V14.1176H1.58514V11.1059Z"/>
<path d="M16 2.88908H16.2V2.68908V2.01681V1.81681H16H14.1832V0V-0.2H13.9832H13.3109H13.1109V0V1.81681H11.2941H11.0941V2.01681V2.68908V2.88908H11.2941H13.1109V4.70588V4.90588H13.3109H13.9832H14.1832V4.70588V2.88908H16Z" stroke="#333333" stroke-width="0.4"/>
</svg>
