<svg width="16" height="16" viewBox="0 0 16 16" xmlns="http://www.w3.org/2000/svg">
<path d="M7.11111 4.55566C3.87879 4.55566 1.11838 6.61978 0 9.53344C1.11838 12.4471 3.87879 14.5112 7.11111 14.5112C10.3434 14.5112 13.1038 12.4471 14.2222 9.53344C13.1038 6.61978 10.3434 4.55566 7.11111 4.55566ZM7.11111 12.852C5.32687 12.852 3.87879 11.3653 3.87879 9.53344C3.87879 7.70162 5.32687 6.21492 7.11111 6.21492C8.89535 6.21492 10.3434 7.70162 10.3434 9.53344C10.3434 11.3653 8.89535 12.852 7.11111 12.852ZM7.11111 7.54233C6.03798 7.54233 5.17172 8.43169 5.17172 9.53344C5.17172 10.6352 6.03798 11.5246 7.11111 11.5246C8.18424 11.5246 9.05051 10.6352 9.05051 9.53344C9.05051 8.43169 8.18424 7.54233 7.11111 7.54233Z"/>
<path d="M16 3.73968H16.2V3.53968V2.90476V2.70476H16H14.2952V1V0.8H14.0952H13.4603H13.2603V1V2.70476H11.5555H11.3555V2.90476V3.53968V3.73968H11.5555H13.2603V5.44444V5.64444H13.4603H14.0952H14.2952V5.44444V3.73968H16Z" stroke="#333333" stroke-width="0.4"/>
</svg>
