<svg width="16" height="16" viewBox="0 0 16 16" fill="none" xmlns="http://www.w3.org/2000/svg">
<path fill-rule="evenodd" clip-rule="evenodd" d="M7.62048 2.75C6.04457 2.75 4.76704 4.02753 4.76704 5.60345C4.76704 7.17936 6.04457 8.4569 7.62048 8.4569C9.1964 8.4569 10.4739 7.17936 10.4739 5.60345C10.4739 4.02753 9.1964 2.75 7.62048 2.75ZM3.26704 5.60345C3.26704 3.1991 5.21614 1.25 7.62048 1.25C10.0248 1.25 11.9739 3.1991 11.9739 5.60345C11.9739 8.00779 10.0248 9.9569 7.62048 9.9569C5.21614 9.9569 3.26704 8.00779 3.26704 5.60345Z" fill="black"/>
<path fill-rule="evenodd" clip-rule="evenodd" d="M7.99995 9.96105C6.7588 10.0087 5.57835 10.5226 4.69679 11.4042C3.77043 12.3306 3.25 13.587 3.25 14.8971H1.75C1.75 13.1892 2.42846 11.5512 3.63613 10.3435C4.75409 9.22558 6.24078 8.56113 7.81034 8.46858V8.45741C7.8736 8.45741 7.93681 8.45834 7.99995 8.4602C8.06308 8.45834 8.12632 8.45741 8.18966 8.45741V8.46859C8.90563 8.51084 9.61043 8.67245 10.2747 8.9476C11.056 9.27122 11.7659 9.74556 12.3639 10.3435C12.9618 10.9415 13.4362 11.6514 13.7598 12.4327C14.0834 13.214 14.25 14.0514 14.25 14.8971H12.75C12.75 14.2484 12.6222 13.606 12.374 13.0067C12.1257 12.4074 11.7619 11.8629 11.3032 11.4042C10.8445 10.9455 10.3 10.5817 9.70067 10.3334C9.15982 10.1094 8.58393 9.98348 7.99995 9.96105Z" fill="black"/>
</svg>
