<svg width="16" height="16" viewBox="0 0 16 16" xmlns="http://www.w3.org/2000/svg">
<path d="M13.3337 6.00033V4.00033H12.0003V6.00033H10.0003V7.33366H12.0003V9.33366H13.3337V7.33366H15.3337V6.00033H13.3337ZM6.00032 8.00033C7.47366 8.00033 8.66699 6.80699 8.66699 5.33366C8.66699 3.86033 7.47366 2.66699 6.00032 2.66699C4.52699 2.66699 3.33366 3.86033 3.33366 5.33366C3.33366 6.80699 4.52699 8.00033 6.00032 8.00033ZM6.00032 4.00033C6.73366 4.00033 7.33366 4.60033 7.33366 5.33366C7.33366 6.06699 6.73366 6.66699 6.00032 6.66699C5.26699 6.66699 4.66699 6.06699 4.66699 5.33366C4.66699 4.60033 5.26699 4.00033 6.00032 4.00033ZM10.2603 9.70699C9.14032 9.13366 7.68699 8.66699 6.00032 8.66699C4.31366 8.66699 2.86033 9.13366 1.74033 9.70699C1.07366 10.047 0.666992 10.7337 0.666992 11.4803V13.3337H11.3337V11.4803C11.3337 10.7337 10.927 10.047 10.2603 9.70699ZM10.0003 12.0003H2.00033V11.4803C2.00033 11.227 2.13366 11.0003 2.34699 10.8937C3.14033 10.487 4.42033 10.0003 6.00032 10.0003C7.58032 10.0003 8.86032 10.487 9.65366 10.8937C9.86699 11.0003 10.0003 11.227 10.0003 11.4803V12.0003Z"/>
</svg>
