<svg width="16" height="16" viewBox="0 0 16 16" xmlns="http://www.w3.org/2000/svg">
<path d="M12.6667 2H3.33333C2.6 2 2 2.6 2 3.33333V12.6667C2 13.4 2.6 14 3.33333 14H12.6667C13.4 14 14 13.4 14 12.6667V3.33333C14 2.6 13.4 2 12.6667 2ZM12.6667 12.6667H3.33333V3.33333H12.6667V12.6667Z"/>
<path d="M5.99999 8H4.66666V11.3333H5.99999V8Z"/>
<path d="M11.3333 4.66669H10V11.3334H11.3333V4.66669Z"/>
<path d="M8.66668 9.33331H7.33334V11.3333H8.66668V9.33331Z"/>
<path d="M8.66668 6.66669H7.33334V8.00002H8.66668V6.66669Z"/>
</svg>
