<svg width="16" height="16" viewBox="0 0 16 16" fill="none" xmlns="http://www.w3.org/2000/svg">
<path d="M10.1819 7.52118C11.0872 7.52118 11.8128 6.77714 11.8128 5.85581C11.8128 4.93396 11.0872 4.19043 10.1819 4.19043C9.27664 4.19043 8.54555 4.93396 8.54555 5.85581C8.54555 6.77714 9.27664 7.52118 10.1819 7.52118ZM5.81806 7.52118C6.72386 7.52118 7.44942 6.77714 7.44942 5.85581C7.44942 4.93396 6.72386 4.19043 5.81806 4.19043C4.91276 4.19043 4.18167 4.93396 4.18167 5.85581C4.18167 6.77714 4.91276 7.52118 5.81806 7.52118ZM5.81806 8.6311C4.54722 8.6311 2 9.28085 2 10.5742V11.9619H9.63664V10.5742C9.63664 9.28085 7.08941 8.6311 5.81806 8.6311ZM10.1819 8.6311C10.0238 8.6311 9.84359 8.64237 9.65276 8.65928C10.2857 9.12559 10.7272 9.75279 10.7272 10.5742V11.9619H14V10.5742C14 9.28085 11.4528 8.6311 10.1819 8.6311Z" fill="black"/>
</svg>
