<svg width="16" height="16" viewBox="0 0 16 16" xmlns="http://www.w3.org/2000/svg">
    <path d="M10 7.33333V3.33333L8 1.33333L6 3.33333V4.66666H2V14H14V7.33333H10ZM4.66667 12.6667H3.33333V11.3333H4.66667V12.6667ZM4.66667 10H3.33333V8.66666H4.66667V10ZM4.66667 7.33333H3.33333V6H4.66667V7.33333ZM8.66667 12.6667H7.33333V11.3333H8.66667V12.6667ZM8.66667 10H7.33333V8.66666H8.66667V10ZM8.66667 7.33333H7.33333V6H8.66667V7.33333ZM8.66667 4.66666H7.33333V3.33333H8.66667V4.66666ZM12.6667 12.6667H11.3333V11.3333H12.6667V12.6667ZM12.6667 10H11.3333V8.66666H12.6667V10Z"/>
</svg>
