<svg width="16" height="16" viewBox="0 0 16 16" xmlns="http://www.w3.org/2000/svg">
<path fill-rule="evenodd" clip-rule="evenodd" d="M3.29246 3.28841C3.68274 2.89765 4.31591 2.89726 4.70667 3.28755L8 6.57682L11.2933 3.28755C11.6841 2.89726 12.3173 2.89765 12.7075 3.28841C13.0978 3.67918 13.0974 4.31234 12.7067 4.70263L9.41508 7.99017L12.7067 11.2777C13.0974 11.668 13.0978 12.3012 12.7075 12.6919C12.3173 13.0827 11.6841 13.0831 11.2933 12.6928L8 9.40351L4.70667 12.6928C4.31591 13.0831 3.68274 13.0827 3.29246 12.6919C2.90217 12.3012 2.90256 11.668 3.29333 11.2777L6.58492 7.99017L3.29333 4.70263C2.90256 4.31234 2.90217 3.67918 3.29246 3.28841Z"/>
</svg>
