<svg width="16" height="16" viewBox="0 0 16 16" xmlns="http://www.w3.org/2000/svg">
<path d="M14.9 5H6.1C5.80826 5 5.52847 5.11589 5.32218 5.32218C5.11589 5.52847 5 5.80826 5 6.1V14.9C5 15.1917 5.11589 15.4715 5.32218 15.6778C5.52847 15.8841 5.80826 16 6.1 16H14.9C15.1917 16 15.4715 15.8841 15.6778 15.6778C15.8841 15.4715 16 15.1917 16 14.9V6.1C16 5.80826 15.8841 5.52847 15.6778 5.32218C15.4715 5.11589 15.1917 5 14.9 5ZM6.1 14.9V6.1H14.9V14.9H6.1Z"/>
<path d="M2.75 9.9H1.1V1.1H9.9V2.75C9.9 2.89587 9.95795 3.03576 10.0611 3.13891C10.1642 3.24205 10.3041 3.3 10.45 3.3C10.5959 3.3 10.7358 3.24205 10.8389 3.13891C10.9421 3.03576 11 2.89587 11 2.75V1.1C11 0.808262 10.8841 0.528473 10.6778 0.322182C10.4715 0.115892 10.1917 0 9.9 0H1.1C0.808262 0 0.528473 0.115892 0.322182 0.322182C0.115892 0.528473 0 0.808262 0 1.1V9.9C0 10.1917 0.115892 10.4715 0.322182 10.6778C0.528473 10.8841 0.808262 11 1.1 11H2.75C2.89587 11 3.03576 10.9421 3.13891 10.8389C3.24205 10.7358 3.3 10.5959 3.3 10.45C3.3 10.3041 3.24205 10.1642 3.13891 10.0611C3.03576 9.95795 2.89587 9.9 2.75 9.9Z"/>
</svg>
