<svg width="16" height="16" viewBox="0 0 16 16" fill="none" xmlns="http://www.w3.org/2000/svg">
<rect width="16" height="16" fill="white"/>
<path d="M13.0914 8.70153C13.1195 8.49656 13.1336 8.28475 13.1336 8.05927C13.1336 7.84063 13.1195 7.62199 13.0844 7.41701L14.5124 6.33746C14.639 6.24181 14.6741 6.05733 14.5968 5.92068L13.2461 3.65226C13.1617 3.50194 12.9859 3.45412 12.8311 3.50194L11.1499 4.15787C10.7982 3.89823 10.4253 3.67959 10.0103 3.51561L9.75705 1.78014C9.72892 1.61615 9.58823 1.5 9.4194 1.5H6.71817C6.54934 1.5 6.41568 1.61615 6.38755 1.78014L6.13431 3.51561C5.71927 3.67959 5.33941 3.90507 4.99472 4.15787L3.31348 3.50194C3.15873 3.44728 2.98287 3.50194 2.89845 3.65226L1.55487 5.92068C1.47046 6.06416 1.49859 6.24181 1.63928 6.33746L3.06728 7.41701C3.03211 7.62199 3.00397 7.84746 3.00397 8.05927C3.00397 8.27108 3.01804 8.49656 3.05321 8.70153L1.62521 9.78108C1.49859 9.87674 1.46342 10.0612 1.5408 10.1979L2.89142 12.4663C2.97583 12.6166 3.15169 12.6644 3.30645 12.6166L4.98769 11.9607C5.33941 12.2203 5.71224 12.439 6.12727 12.6029L6.38051 14.3384C6.41568 14.5024 6.54934 14.6185 6.71817 14.6185H9.4194C9.58823 14.6185 9.72892 14.5024 9.75002 14.3384L10.0033 12.6029C10.4183 12.439 10.7982 12.2203 11.1428 11.9607L12.8241 12.6166C12.9788 12.6713 13.1547 12.6166 13.2391 12.4663L14.5897 10.1979C14.6741 10.0476 14.639 9.87674 14.5053 9.78108L13.0914 8.70153ZM8.06878 10.519C6.67596 10.519 5.53638 9.41212 5.53638 8.05927C5.53638 6.70642 6.67596 5.59955 8.06878 5.59955C9.46161 5.59955 10.6012 6.70642 10.6012 8.05927C10.6012 9.41212 9.46161 10.519 8.06878 10.519Z" fill="black"/>
</svg>
