<svg width="16" height="16" viewBox="0 0 16 16" xmlns="http://www.w3.org/2000/svg">
<path d="M11.2727 8.87682C10.4 8.87682 9.04 9.12659 8 9.61143C6.96 9.11924 5.6 8.87682 4.72727 8.87682C3.14909 8.87682 0 9.6702 0 11.2643V13.2844H16V11.2643C16 9.6702 12.8509 8.87682 11.2727 8.87682ZM8.36364 12.1825H1.09091V11.2643C1.09091 10.8676 2.95273 9.97873 4.72727 9.97873C6.50182 9.97873 8.36364 10.8676 8.36364 11.2643V12.1825ZM14.9091 12.1825H9.45455V11.2643C9.45455 10.9264 9.30909 10.6325 9.07636 10.3681C9.71636 10.1477 10.5018 9.97873 11.2727 9.97873C13.0473 9.97873 14.9091 10.8676 14.9091 11.2643V12.1825ZM4.72727 8.14222C6.13091 8.14222 7.27273 6.98889 7.27273 5.57111C7.27273 4.15333 6.13091 3 4.72727 3C3.32364 3 2.18182 4.15333 2.18182 5.57111C2.18182 6.98889 3.32364 8.14222 4.72727 8.14222ZM4.72727 4.1019C5.52727 4.1019 6.18182 4.76305 6.18182 5.57111C6.18182 6.37917 5.52727 7.04032 4.72727 7.04032C3.92727 7.04032 3.27273 6.37917 3.27273 5.57111C3.27273 4.76305 3.92727 4.1019 4.72727 4.1019ZM11.2727 8.14222C12.6764 8.14222 13.8182 6.98889 13.8182 5.57111C13.8182 4.15333 12.6764 3 11.2727 3C9.86909 3 8.72727 4.15333 8.72727 5.57111C8.72727 6.98889 9.86909 8.14222 11.2727 8.14222ZM11.2727 4.1019C12.0727 4.1019 12.7273 4.76305 12.7273 5.57111C12.7273 6.37917 12.0727 7.04032 11.2727 7.04032C10.4727 7.04032 9.81818 6.37917 9.81818 5.57111C9.81818 4.76305 10.4727 4.1019 11.2727 4.1019Z"/>
</svg>
