<svg width="16" height="16" viewBox="0 0 16 16" xmlns="http://www.w3.org/2000/svg">
<path fill-rule="evenodd" clip-rule="evenodd" d="M14.6923 6.6504C14.6923 6.7984 14.6483 6.9474 14.5573 7.0784C14.3213 7.4184 13.8543 7.5024 13.5133 7.2654C10.0733 4.8724 5.62432 4.8724 2.17832 7.2654C1.83832 7.5024 1.37132 7.4184 1.13432 7.0774C0.897319 6.7374 0.982319 6.2714 1.32332 6.0344C5.22732 3.3214 10.4703 3.3214 14.3713 6.0344C14.5803 6.1804 14.6923 6.4134 14.6923 6.6504"/>
<path fill-rule="evenodd" clip-rule="evenodd" d="M12.2832 9.1534C12.2832 9.2804 12.2512 9.4084 12.1832 9.5264C11.9772 9.8854 11.5182 10.0094 11.1602 9.8034C9.11922 8.6324 6.58122 8.6324 4.53422 9.8034C4.17422 10.0094 3.71622 9.8844 3.51022 9.5254C3.30822 9.1654 3.42922 8.7084 3.78822 8.5024C6.29622 7.0674 9.40622 7.0674 11.9062 8.5024C12.1482 8.6414 12.2832 8.8934 12.2832 9.1534"/>
<path fill-rule="evenodd" clip-rule="evenodd" d="M10.5964 11.8787C10.5964 11.9813 10.5766 12.0847 10.5344 12.1799C10.4067 12.4698 10.1221 12.57 9.90014 12.4036C8.63466 11.458 7.06102 11.458 5.79181 12.4036C5.5686 12.57 5.28463 12.469 5.1569 12.1791C5.03165 11.8884 5.10668 11.5194 5.32927 11.3531C6.88431 10.1943 8.81261 10.1943 10.3627 11.3531C10.5127 11.4653 10.5964 11.6688 10.5964 11.8787Z"/>
</svg>
