<svg xmlns="http://www.w3.org/2000/svg" width="16" height="16" viewBox="0 0 16 16">
    <path fill-rule="evenodd" d="M10.3709,1.125 C10.6297,1.125 10.8397,1.335 10.8397,1.59375 L10.8406629,2.12368163 C11.7529149,2.18635814 12.5106364,2.49891712 13.0469,3.03631 C13.6325,3.62444 13.9406,4.47006 13.9375232,5.48444 L13.9375232,11.1863 C13.9375232,13.2688 12.615,14.5626 10.4869,14.5626 L5.20062,14.5626 C3.0725,14.5626 1.75,13.2507 1.75,11.1388 L1.75,5.48319 C1.75,3.51885829 2.92950195,2.25799136 4.85315019,2.12383294 L4.85332,1.59375 C4.85332,1.335 5.06332,1.125 5.32207,1.125 C5.58082,1.125 5.79082,1.335 5.79082,1.59375 L5.79,2.111 L9.902,2.111 L9.90219,1.59375 C9.90219,1.335 10.1122,1.125 10.3709,1.125 Z M13,6.69 L2.687,6.69 L2.6875,11.1388 C2.6875,12.7426 3.58,13.6251 5.20062,13.6251 L10.4869,13.6251 C12.1075,13.6251 13.0000223,12.7588 13.0000223,11.1863 L13,6.69 Z M10.6257,10.6227 C10.8845,10.6227 11.0945,10.8327 11.0945,11.0914 C11.0945,11.3502 10.8845,11.5602 10.6257,11.5602 C10.367,11.5602 10.1545,11.3502 10.1545,11.0914 C10.1545,10.8327 10.3614,10.6227 10.6201,10.6227 L10.6257,10.6227 Z M7.85231,10.6227 C8.11106,10.6227 8.32106,10.8327 8.32106,11.0914 C8.32106,11.3502 8.11106,11.5602 7.85231,11.5602 C7.59356,11.5602 7.38106,11.3502 7.38106,11.0914 C7.38106,10.8327 7.58793,10.6227 7.84668,10.6227 L7.85231,10.6227 Z M5.07306,10.6227 C5.33181,10.6227 5.54181,10.8327 5.54181,11.0914 C5.54181,11.3502 5.33181,11.5602 5.07306,11.5602 C4.81431,11.5602 4.60118,11.3502 4.60118,11.0914 C4.60118,10.8327 4.80868,10.6227 5.06743,10.6227 L5.07306,10.6227 Z M10.6257,8.19351 C10.8845,8.19351 11.0945,8.40351 11.0945,8.66226 C11.0945,8.92101 10.8845,9.13101 10.6257,9.13101 C10.367,9.13101 10.1545,8.92101 10.1545,8.66226 C10.1545,8.40351 10.3614,8.19351 10.6201,8.19351 L10.6257,8.19351 Z M7.85231,8.19351 C8.11106,8.19351 8.32106,8.40351 8.32106,8.66226 C8.32106,8.92101 8.11106,9.13101 7.85231,9.13101 C7.59356,9.13101 7.38106,8.92101 7.38106,8.66226 C7.38106,8.40351 7.58793,8.19351 7.84668,8.19351 L7.85231,8.19351 Z M5.07306,8.19351 C5.33181,8.19351 5.54181,8.40351 5.54181,8.66226 C5.54181,8.92101 5.33181,9.13101 5.07306,9.13101 C4.81431,9.13101 4.60118,8.92101 4.60118,8.66226 C4.60118,8.40351 4.80868,8.19351 5.06743,8.19351 L5.07306,8.19351 Z M9.902,3.049 L5.79,3.049 L5.79082,3.65062 C5.79082,3.90937 5.58082,4.11937 5.32207,4.11937 C5.06332,4.11937 4.85332,3.90937 4.85332,3.65062 L4.85326497,3.06354217 C3.45294107,3.181068 2.6875,4.02980765 2.6875,5.48319 L2.687,5.752 L13,5.752 L13.0000223,5.48319 C13.0025,4.71131 12.795,4.11131 12.3831,3.69881 C12.0215794,3.33618013 11.4929758,3.11961492 10.8401514,3.06386141 L10.8397,3.65062 C10.8397,3.90937 10.6297,4.11937 10.3709,4.11937 C10.1122,4.11937 9.90219,3.90937 9.90219,3.65062 L9.902,3.049 Z"/>
</svg>
