<svg width="16" height="16" viewBox="0 0 16 16" xmlns="http://www.w3.org/2000/svg">
<path d="M14.9999 5.6619C15.0004 5.8113 14.9674 5.95891 14.9034 6.09389C14.8394 6.22887 14.7459 6.34778 14.6299 6.4419L8.62991 11.2719C8.45098 11.419 8.22653 11.4994 7.99491 11.4994C7.76328 11.4994 7.53884 11.419 7.35991 11.2719L1.35991 6.2719C1.15569 6.10216 1.02727 5.85825 1.00289 5.59383C0.978509 5.3294 1.06017 5.06612 1.22991 4.8619C1.39965 4.65769 1.64356 4.52926 1.90799 4.50488C2.17241 4.4805 2.43569 4.56216 2.63991 4.7319L7.99991 9.2019L13.3599 4.8819C13.5067 4.75962 13.6854 4.68194 13.875 4.65806C14.0645 4.63418 14.257 4.6651 14.4295 4.74716C14.602 4.82921 14.7474 4.95897 14.8485 5.12108C14.9496 5.28319 15.0021 5.47087 14.9999 5.6619Z"/>
</svg>
