<svg width="16" height="16" viewBox="0 0 16 16" xmlns="http://www.w3.org/2000/svg">
<path fill-rule="evenodd" clip-rule="evenodd" d="M8.00001 9.33817C7.67226 9.33817 7.40626 9.07217 7.40626 8.74442V6.29025C7.40626 5.9625 7.67226 5.6965 8.00001 5.6965C8.32776 5.6965 8.59376 5.9625 8.59376 6.29025V8.74442C8.59376 9.07217 8.32776 9.33817 8.00001 9.33817"/>
<path fill-rule="evenodd" clip-rule="evenodd" d="M8.00159 11.9784C7.5638 11.9784 7.20596 11.6245 7.20596 11.1867C7.20596 10.7489 7.55667 10.395 7.99367 10.395H8.00159C8.43938 10.395 8.79325 10.7489 8.79325 11.1867C8.79325 11.6245 8.43938 11.9784 8.00159 11.9784"/>
<path fill-rule="evenodd" clip-rule="evenodd" d="M8.00697 1.6875C7.63014 1.6875 7.29447 1.88225 7.10605 2.20921L1.40764 12.1565C1.22239 12.4811 1.22397 12.8682 1.4116 13.192C1.59922 13.5158 1.93489 13.7098 2.30935 13.7098H13.6959C14.0696 13.7098 14.4052 13.5158 14.5928 13.192C14.7813 12.8682 14.7828 12.4811 14.596 12.1565L8.90789 2.20921C8.72026 1.88225 8.3846 1.6875 8.00697 1.6875M13.6959 14.8973H2.30935C1.5066 14.8973 0.786971 14.4824 0.384012 13.7873C-0.0189459 13.093 -0.021321 12.2626 0.376887 11.5667L6.07689 1.61863C6.47747 0.918 7.19868 0.5 8.00697 0.5H8.00776C8.81526 0.5 9.53805 0.918792 9.93864 1.62021L15.6276 11.5667C16.0258 12.2626 16.0234 13.093 15.6204 13.7873C15.2175 14.4824 14.4978 14.8973 13.6959 14.8973"/>
</svg>
