<svg width="16" height="16" viewBox="0 0 16 16" xmlns="http://www.w3.org/2000/svg">
<path fill-rule="evenodd" clip-rule="evenodd" d="M4.17108 4.17033C4.46397 3.87744 4.93884 3.87744 5.23174 4.17033L11.8314 10.77C12.1243 11.0629 12.1243 11.5378 11.8314 11.8307C11.5385 12.1235 11.0636 12.1235 10.7707 11.8307L4.17108 5.23099C3.87818 4.9381 3.87818 4.46322 4.17108 4.17033Z"/>
<path fill-rule="evenodd" clip-rule="evenodd" d="M4.17034 11.8318C3.87745 11.5389 3.87745 11.0641 4.17034 10.7712L10.77 4.1715C11.0629 3.8786 11.5378 3.8786 11.8307 4.1715C12.1236 4.46439 12.1236 4.93926 11.8307 5.23216L5.231 11.8318C4.93811 12.1247 4.46324 12.1247 4.17034 11.8318Z"/>
</svg>
