<svg width="16" height="16" viewBox="0 0 16 16" fill="none" xmlns="http://www.w3.org/2000/svg">
<rect width="16" height="16" fill="white"/>
<path d="M8.00007 3.62399C5.0834 3.62399 2.59257 5.43816 1.5834 7.99899C2.59257 10.5598 5.0834 12.374 8.00007 12.374C10.9167 12.374 13.4076 10.5598 14.4167 7.99899C13.4076 5.43816 10.9167 3.62399 8.00007 3.62399ZM8.00007 10.9157C6.39007 10.9157 5.0834 9.60899 5.0834 7.99899C5.0834 6.38899 6.39007 5.08233 8.00007 5.08233C9.61007 5.08233 10.9167 6.38899 10.9167 7.99899C10.9167 9.60899 9.61007 10.9157 8.00007 10.9157ZM8.00007 6.24899C7.03174 6.24899 6.25007 7.03066 6.25007 7.99899C6.25007 8.96733 7.03174 9.74899 8.00007 9.74899C8.9684 9.74899 9.75007 8.96733 9.75007 7.99899C9.75007 7.03066 8.9684 6.24899 8.00007 6.24899Z" fill="black"/>
</svg>
