<svg width="16" height="16" viewBox="0 0 16 16" fill="none" xmlns="http://www.w3.org/2000/svg">
<rect width="16" height="16" fill="white"/>
<path d="M8 1.5C4.412 1.5 1.5 4.412 1.5 8C1.5 11.588 4.412 14.5 8 14.5C11.588 14.5 14.5 11.588 14.5 8C14.5 4.412 11.588 1.5 8 1.5ZM8.65 12.55H7.35V11.25H8.65V12.55ZM9.9955 7.5125L9.4105 8.1105C8.9425 8.585 8.65 8.975 8.65 9.95H7.35V9.625C7.35 8.91 7.6425 8.26 8.1105 7.7855L8.9165 6.9665C9.157 6.7325 9.3 6.4075 9.3 6.05C9.3 5.335 8.715 4.75 8 4.75C7.285 4.75 6.7 5.335 6.7 6.05H5.4C5.4 4.6135 6.5635 3.45 8 3.45C9.4365 3.45 10.6 4.6135 10.6 6.05C10.6 6.622 10.366 7.142 9.9955 7.5125Z" fill="black"/>
</svg>
