<svg width="16" height="16" viewBox="0 0 16 16" xmlns="http://www.w3.org/2000/svg">
<path d="M8 1.5C4.412 1.5 1.5 4.412 1.5 8C1.5 11.588 4.412 14.5 8 14.5C11.588 14.5 14.5 11.588 14.5 8C14.5 4.412 11.588 1.5 8 1.5ZM7.35 13.1545C4.7825 12.836 2.8 10.652 2.8 8C2.8 7.597 2.852 7.2135 2.9365 6.8365L6.05 9.95V10.6C6.05 11.315 6.635 11.9 7.35 11.9V13.1545ZM11.835 11.5035C11.666 10.977 11.185 10.6 10.6 10.6H9.95V8.65C9.95 8.2925 9.6575 8 9.3 8H5.4V6.7H6.7C7.0575 6.7 7.35 6.4075 7.35 6.05V4.75H8.65C9.365 4.75 9.95 4.165 9.95 3.45V3.1835C11.8545 3.957 13.2 5.8225 13.2 8C13.2 9.352 12.68 10.5805 11.835 11.5035Z"/>
</svg>
