<svg width="16" height="16" viewBox="0 0 16 16" xmlns="http://www.w3.org/2000/svg">
<path d="M8 3C5.24 3 3 5.24 3 8C3 10.76 5.24 13 8 13C10.76 13 13 10.76 13 8C13 5.24 10.76 3 8 3ZM7.5 11.965C5.525 11.72 4 10.04 4 8C4 7.69 4.04 7.395 4.105 7.105L6.5 9.5V10C6.5 10.55 6.95 11 7.5 11V11.965ZM10.95 10.695C10.82 10.29 10.45 10 10 10H9.5V8.5C9.5 8.225 9.275 8 9 8H6V7H7C7.275 7 7.5 6.775 7.5 6.5V5.5H8.5C9.05 5.5 9.5 5.05 9.5 4.5V4.295C10.965 4.89 12 6.325 12 8C12 9.04 11.6 9.985 10.95 10.695Z"/>
</svg>
