<svg width="16" height="16" viewBox="0 0 16 16" xmlns="http://www.w3.org/2000/svg">
<path fill-rule="evenodd" clip-rule="evenodd" d="M7.99668 3.08C5.28128 3.08 3.08002 5.28127 3.08002 7.99667C3.08002 10.7121 5.28128 12.9133 7.99668 12.9133C10.7121 12.9133 12.9133 10.7121 12.9133 7.99667C12.9133 5.28127 10.7121 3.08 7.99668 3.08ZM2.08002 7.99667C2.08002 4.72898 4.729 2.08 7.99668 2.08C11.2644 2.08 13.9133 4.72898 13.9133 7.99667C13.9133 11.2644 11.2644 13.9133 7.99668 13.9133C4.729 13.9133 2.08002 11.2644 2.08002 7.99667Z"/>
<path fill-rule="evenodd" clip-rule="evenodd" d="M2.08002 7.99667C2.08002 7.72053 2.30387 7.49667 2.58002 7.49667H13.4133C13.6895 7.49667 13.9133 7.72053 13.9133 7.99667C13.9133 8.27281 13.6895 8.49667 13.4133 8.49667H2.58002C2.30387 8.49667 2.08002 8.27281 2.08002 7.99667Z"/>
<path fill-rule="evenodd" clip-rule="evenodd" d="M7.99668 2.08C8.13714 2.08 8.27113 2.13908 8.36586 2.24279C9.80246 3.81555 10.6189 5.8566 10.6632 7.98625C10.6634 7.9932 10.6634 8.00014 10.6632 8.00708C10.6189 10.1367 9.80246 12.1778 8.36586 13.7505C8.27113 13.8543 8.13714 13.9133 7.99668 13.9133C7.85622 13.9133 7.72224 13.8543 7.62751 13.7505C6.19091 12.1778 5.37449 10.1367 5.33013 8.00708C5.32998 8.00014 5.32998 7.9932 5.33013 7.98625C5.37449 5.8566 6.19091 3.81555 7.62751 2.24279C7.72224 2.13908 7.85622 2.08 7.99668 2.08ZM6.33013 7.99667C6.36766 9.68942 6.95556 11.3185 7.99668 12.641C9.03781 11.3185 9.62571 9.68942 9.66324 7.99667C9.62571 6.30392 9.03781 4.67485 7.99668 3.35236C6.95556 4.67485 6.36766 6.30392 6.33013 7.99667Z"/>
</svg>
