<svg width="16" height="16" viewBox="0 0 16 16" xmlns="http://www.w3.org/2000/svg">
<path d="M11.375 1C10.07 1 8.8175 1.61798 8 2.59455C7.1825 1.61798 5.93 1 4.625 1C2.315 1 0.5 2.84632 0.5 5.19619C0.5 8.08011 3.05 10.43 6.9125 14.0005L8 15L9.0875 13.9929C12.95 10.43 15.5 8.08011 15.5 5.19619C15.5 2.84632 13.685 1 11.375 1ZM8.075 12.8638L8 12.9401L7.925 12.8638C4.355 9.57548 2 7.40109 2 5.19619C2 3.6703 3.125 2.52589 4.625 2.52589C5.78 2.52589 6.905 3.2812 7.3025 4.32643H8.705C9.095 3.2812 10.22 2.52589 11.375 2.52589C12.875 2.52589 14 3.6703 14 5.19619C14 7.40109 11.645 9.57548 8.075 12.8638Z"/>
</svg>
