<svg width="16" height="16" viewBox="0 0 16 16" fill="none" xmlns="http://www.w3.org/2000/svg">
<path fill-rule="evenodd" clip-rule="evenodd" d="M7.99625 10.9688C7.7375 10.9688 7.5275 10.7587 7.5275 10.5V8C7.5275 7.74125 7.7375 7.53125 7.99625 7.53125C8.255 7.53125 8.465 7.74125 8.465 8V10.5C8.465 10.7587 8.255 10.9688 7.99625 10.9688Z" fill="#545454"/>
<path fill-rule="evenodd" clip-rule="evenodd" d="M7.99931 6.25256C7.65369 6.25256 7.37119 5.97319 7.37119 5.62756C7.37119 5.28194 7.64806 5.00256 7.99306 5.00256H7.99931C8.34494 5.00256 8.62431 5.28194 8.62431 5.62756C8.62431 5.97319 8.34494 6.25256 7.99931 6.25256Z" fill="#545454"/>
<path fill-rule="evenodd" clip-rule="evenodd" d="M5.29 2.6875C3.70938 2.6875 2.6875 3.77062 2.6875 5.4475V10.5525C2.6875 12.2294 3.70938 13.3125 5.29 13.3125H10.7075C12.29 13.3125 13.3125 12.2294 13.3125 10.5525V5.4475C13.3125 3.77062 12.29 2.6875 10.7087 2.6875H5.29ZM10.7075 14.25H5.29C3.1725 14.25 1.75 12.7638 1.75 10.5525V5.4475C1.75 3.23625 3.1725 1.75 5.29 1.75H10.7087C12.8269 1.75 14.25 3.23625 14.25 5.4475V10.5525C14.25 12.7638 12.8269 14.25 10.7075 14.25Z" fill="#545454"/>
</svg>
