<svg width="16" height="16" viewBox="0 0 16 16" xmlns="http://www.w3.org/2000/svg">
<path d="M11.2321 10.0319C11.0872 9.88665 10.8904 9.80503 10.6852 9.80503H10.4666C10.4068 9.80503 10.3493 9.78184 10.3063 9.74032V9.74032C10.2181 9.65534 10.2121 9.51667 10.2879 9.42058C10.989 8.53287 11.4059 7.41385 11.4059 6.20297C11.4059 3.32933 9.07662 1 6.20297 1C3.32933 1 1 3.32933 1 6.20297C1 9.07662 3.32933 11.4059 6.20297 11.4059C7.41385 11.4059 8.53287 10.989 9.42058 10.2879C9.51667 10.2121 9.65534 10.2181 9.74032 10.3063V10.3063C9.78184 10.3493 9.80503 10.4068 9.80503 10.4666V10.6852C9.80503 10.8904 9.88665 11.0872 10.0319 11.2321L13.2104 14.4043C13.5402 14.7334 14.0742 14.7331 14.4037 14.4037V14.4037C14.7331 14.0742 14.7334 13.5402 14.4043 13.2104L11.2321 10.0319ZM6.20297 9.80503C4.20983 9.80503 2.60091 8.19611 2.60091 6.20297C2.60091 4.20983 4.20983 2.60091 6.20297 2.60091C8.19611 2.60091 9.80503 4.20983 9.80503 6.20297C9.80503 8.19611 8.19611 9.80503 6.20297 9.80503Z"/>
</svg>
