<svg width="16" height="16" viewBox="0 0 16 16" xmlns="http://www.w3.org/2000/svg">
<path fill-rule="evenodd" clip-rule="evenodd" d="M5.40659 2.625C3.89321 2.625 2.66638 3.85183 2.66638 5.36521C2.66638 6.87858 3.89321 8.10541 5.40659 8.10541C6.91996 8.10541 8.14679 6.87858 8.14679 5.36521C8.14679 3.85183 6.91996 2.625 5.40659 2.625ZM1.41638 5.36521C1.41638 3.16148 3.20286 1.375 5.40659 1.375C7.61032 1.375 9.39679 3.16148 9.39679 5.36521C9.39679 7.56894 7.61032 9.35541 5.40659 9.35541C3.20286 9.35541 1.41638 7.56894 1.41638 5.36521Z"/>
<path fill-rule="evenodd" clip-rule="evenodd" d="M5.76132 9.35924C4.58222 9.40379 3.46064 9.89171 2.62323 10.7291C1.74396 11.6084 1.25 12.8009 1.25 14.0444H0C0 12.4694 0.62566 10.9589 1.73934 9.84524C2.76924 8.81534 4.13847 8.2028 5.58425 8.11646V8.1059C5.64332 8.1059 5.70235 8.10678 5.76132 8.10854C5.82027 8.10678 5.87933 8.1059 5.93848 8.1059V8.11647C6.59721 8.15583 7.24562 8.30477 7.85681 8.55794C8.5773 8.85637 9.23195 9.2938 9.78339 9.84524C10.3348 10.3967 10.7723 11.0513 11.0707 11.7718C11.3691 12.4923 11.5227 13.2645 11.5227 14.0444H10.2727C10.2727 13.4287 10.1515 12.819 9.91585 12.2502C9.68023 11.6813 9.33488 11.1645 8.89951 10.7291C8.46414 10.2938 7.94729 9.9484 7.37846 9.71279C6.86421 9.49978 6.3166 9.38023 5.76132 9.35924Z"/>
<path fill-rule="evenodd" clip-rule="evenodd" d="M15.43 6.56787H12.3625C12.052 6.56787 11.8 6.31587 11.8 6.00537C11.8 5.69487 12.052 5.44287 12.3625 5.44287H15.43C15.7405 5.44287 15.9925 5.69487 15.9925 6.00537C15.9925 6.31587 15.7405 6.56787 15.43 6.56787"/>
</svg>
