<svg width="16" height="16" viewBox="0 0 16 16" fill="none" xmlns="http://www.w3.org/2000/svg">
<rect width="16" height="16" fill="white"/>
<path d="M10.34 2.79999C9.4352 2.79999 8.5668 3.25906 8 3.98451C7.4332 3.25906 6.5648 2.79999 5.66 2.79999C4.0584 2.79999 2.8 4.17154 2.8 5.91715C2.8 8.0595 4.568 9.80511 7.246 12.4575L8 13.2L8.754 12.4519C11.432 9.80511 13.2 8.0595 13.2 5.91715C13.2 4.17154 11.9416 2.79999 10.34 2.79999ZM8.052 11.6131L8 11.6697L7.948 11.6131C5.4728 9.17034 3.84 7.55508 3.84 5.91715C3.84 4.78364 4.62 3.9335 5.66 3.9335C6.4608 3.9335 7.2408 4.49459 7.5164 5.27105H8.4888C8.7592 4.49459 9.5392 3.9335 10.34 3.9335C11.38 3.9335 12.16 4.78364 12.16 5.91715C12.16 7.55508 10.5272 9.17034 8.052 11.6131Z" fill="black"/>
</svg>
