<svg width="16" height="16" viewBox="0 0 16 16" fill="none" xmlns="http://www.w3.org/2000/svg">
<rect width="16" height="16" fill="white"/>
<path d="M11.75 3.31L9.25 5.81H11.125V10.185C11.125 10.8725 10.5625 11.435 9.875 11.435C9.1875 11.435 8.625 10.8725 8.625 10.185V5.81C8.625 4.42875 7.50625 3.31 6.125 3.31C4.74375 3.31 3.625 4.42875 3.625 5.81V10.185H1.75L4.25 12.685L6.75 10.185H4.875V5.81C4.875 5.1225 5.4375 4.56 6.125 4.56C6.8125 4.56 7.375 5.1225 7.375 5.81V10.185C7.375 11.5662 8.49375 12.685 9.875 12.685C11.2563 12.685 12.375 11.5662 12.375 10.185V5.81H14.25L11.75 3.31Z" fill="black"/>
</svg>
