<svg width="16" height="16" viewBox="0 0 16 16" xmlns="http://www.w3.org/2000/svg">
<path fill-rule="evenodd" clip-rule="evenodd" d="M4.91225 5.86285C5.18825 5.86285 5.41225 6.08685 5.41225 6.36285C5.41225 6.63885 5.18825 6.86285 4.91225 6.86285H4.29025C3.21092 6.86285 2.33359 7.74019 2.33359 8.81885V12.0689C2.33359 13.1482 3.21092 14.0255 4.29025 14.0255H11.7103C12.7889 14.0255 13.6669 13.1482 13.6669 12.0689V8.81285C13.6669 7.73752 12.7923 6.86285 11.7176 6.86285H11.0889C10.8129 6.86285 10.5889 6.63885 10.5889 6.36285C10.5889 6.08685 10.8129 5.86285 11.0889 5.86285H11.7176C13.3436 5.86285 14.6669 7.18619 14.6669 8.81285V12.0689C14.6669 13.6995 13.3403 15.0255 11.7103 15.0255H4.29025C2.66025 15.0255 1.33359 13.6995 1.33359 12.0689V8.81885C1.33359 7.18885 2.66025 5.86285 4.29025 5.86285H4.91225ZM8.35399 1.48125L10.298 3.43325C10.4927 3.62925 10.492 3.94525 10.2967 4.13992C10.1007 4.33459 9.78465 4.33459 9.58999 4.13859L8.49959 3.04442L8.49999 10.3608H7.49999L7.49959 3.04442L6.41065 4.13859C6.31332 4.23725 6.18465 4.28592 6.05665 4.28592C5.92932 4.28592 5.80132 4.23725 5.70399 4.13992C5.50865 3.94525 5.50732 3.62925 5.70265 3.43325L7.64599 1.48125C7.83332 1.29259 8.16665 1.29259 8.35399 1.48125Z"/>
</svg>
