<svg width="16" height="16" viewBox="0 0 16 16" xmlns="http://www.w3.org/2000/svg">
<path d="M8.08854 9.5018L8.36693 15.0665H7.63512L7.91351 9.5018H8.08854ZM6.50025 7.91351L0.934998 7.63512V8.36693L6.50025 8.08854V7.91351ZM8.08854 6.50025L8.36641 0.934998H7.63512L7.91351 6.50025H8.08854ZM9.5018 7.91351V8.08854L15.0665 8.36693V7.63512L9.5018 7.91351ZM4.91248 10.6767L5.31085 11.0745L7.36192 8.7492L7.2383 8.62559L4.91248 10.6767ZM4.91248 5.29786L7.2383 7.34893L7.36192 7.22532L5.31033 4.89845L4.91248 5.29786ZM11.0891 5.29786L10.6912 4.90001L8.63961 7.22532L8.76375 7.34945L11.0891 5.29786ZM8.63961 8.75076L10.6912 11.0766L11.0891 10.6782L8.76323 8.62715L8.63961 8.75076Z"/>
</svg>
