<svg width="16" height="16" viewBox="0 0 16 16" xmlns="http://www.w3.org/2000/svg">
    <path fill-rule="evenodd" clip-rule="evenodd" d="M7.82568 2.33337C4.79701 2.33337 2.33301 4.79671 2.33301 7.82537C2.33301 10.854 4.79701 13.318 7.82568 13.318C10.8537 13.318 13.3177 10.854 13.3177 7.82537C13.3177 4.79671 10.8537 2.33337 7.82568 2.33337ZM7.82568 14.318C4.24567 14.318 1.33301 11.4054 1.33301 7.82537C1.33301 4.24537 4.24567 1.33337 7.82568 1.33337C11.4057 1.33337 14.3177 4.24537 14.3177 7.82537C14.3177 11.4054 11.4057 14.318 7.82568 14.318Z"/>
    <path fill-rule="evenodd" clip-rule="evenodd" d="M14.3427 15.1479C14.2153 15.1479 14.0873 15.0992 13.9893 15.0019L11.64 12.6592C11.4447 12.4639 11.444 12.1472 11.6393 11.9519C11.834 11.7552 12.1507 11.7565 12.3467 11.9505L14.696 14.2939C14.8913 14.4892 14.892 14.8052 14.6967 15.0005C14.5993 15.0992 14.4707 15.1479 14.3427 15.1479Z"/>
</svg>
