<svg width="16" height="16" viewBox="0 0 16 16" xmlns="http://www.w3.org/2000/svg">
<path fill-rule="evenodd" clip-rule="evenodd" d="M5.75 9.75V7.71903L10.1054 3.36359L11.74 1.72903L13.771 3.76L12.764 4.767L7.78097 9.75H5.75ZM15.3416 1.42574C15.5528 1.63696 15.5528 1.97816 15.3416 2.18938L14.3505 3.1805L12.3195 1.14953L13.3106 0.158415C13.5218 -0.0528052 13.863 -0.0528052 14.0743 0.158415L15.3416 1.42574ZM12.8545 11V7.50493L14.8545 5.50493V11C14.8545 13.2091 13.0636 15 10.8545 15H5.25C3.04086 15 1.25 13.2091 1.25 11V5.36359C1.25 3.15445 3.04086 1.36359 5.25 1.36359H9.27702L7.27702 3.36359H5.25C4.14543 3.36359 3.25 4.25902 3.25 5.36359V11C3.25 12.1045 4.14543 13 5.25 13H10.8545C11.959 13 12.8545 12.1045 12.8545 11Z"/>
</svg>
