<svg width="18" height="18" viewBox="0 0 18 18" xmlns="http://www.w3.org/2000/svg">
<path fill-rule="evenodd" clip-rule="evenodd" d="M10.6355 6C10.6355 8.20914 8.8446 10 6.63546 10C4.42632 10 2.63546 8.20914 2.63546 6C2.63546 3.79086 4.42632 2 6.63546 2C8.8446 2 10.6355 3.79086 10.6355 6ZM6.63546 8.66667C8.10822 8.66667 9.30213 7.47276 9.30213 6C9.30213 4.52724 8.10822 3.33333 6.63546 3.33333C5.1627 3.33333 3.96879 4.52724 3.96879 6C3.96879 7.47276 5.1627 8.66667 6.63546 8.66667ZM3.98543 12.4586C3.37265 12.7438 3.33333 12.9927 3.33333 13V14.6659C3.33333 15.0341 3.03486 15.3333 2.66667 15.3333C2.29848 15.3333 2 15.0349 2 14.6667V13C2 12.1739 2.69285 11.5895 3.42275 11.2498C4.2056 10.8854 5.28444 10.6667 6.57305 10.6667C7.86165 10.6667 8.94049 10.8854 9.72334 11.2498C10.4532 11.5895 11.1461 12.1739 11.1461 13L11.1461 14.6666C11.1461 15.0348 10.8476 15.3333 10.4794 15.3333C10.1112 15.3333 9.81275 15.0349 9.81275 14.6667L9.81275 13C9.81275 12.9927 9.77344 12.7438 9.16066 12.4586C8.60084 12.198 7.72649 12 6.57305 12C5.41961 12 4.54525 12.198 3.98543 12.4586ZM11.148 3.58814C11.148 3.21995 11.4465 2.92147 11.8147 2.92147C13.6556 2.92147 15.148 4.41385 15.148 6.2548C15.148 8.09575 13.6556 9.58814 11.8147 9.58814C11.4465 9.58814 11.148 9.28966 11.148 8.92147C11.148 8.55328 11.4465 8.2548 11.8147 8.2548C12.9193 8.2548 13.8147 7.35937 13.8147 6.2548C13.8147 5.15023 12.9193 4.2548 11.8147 4.2548C11.4465 4.2548 11.148 3.95632 11.148 3.58814ZM11.3333 11.3333C11.3333 10.9651 11.6318 10.6667 12 10.6667C13.125 10.6667 13.9618 10.9812 14.5265 11.4832C15.0849 11.9797 15.3333 12.6238 15.3333 13.1852V14.6663C15.3333 15.0345 15.0349 15.3333 14.6667 15.3333C14.2985 15.3333 14 15.0349 14 14.6667V13.1852C14 13.0059 13.9154 12.724 13.6406 12.4797C13.372 12.241 12.8755 12 12 12C11.6318 12 11.3333 11.7015 11.3333 11.3333Z"/>
</svg>
