<svg width="18" height="18" viewBox="0 0 18 18" xmlns="http://www.w3.org/2000/svg">
<path fill-rule="evenodd" clip-rule="evenodd" d="M5.73781 2.625C3.84706 2.625 2.62531 3.92025 2.62531 5.92425V12.0382C2.62531 14.043 3.84706 15.3375 5.73781 15.3375H12.2253C14.1206 15.3375 15.3453 14.043 15.3453 12.0382V5.92425C15.3453 3.92025 14.1206 2.625 12.2253 2.625H5.73781ZM12.2253 16.4625H5.7378C3.20281 16.4625 1.50031 14.6843 1.50031 12.0383V5.92425C1.50031 3.27825 3.20281 1.5 5.7378 1.5H12.2253C14.7641 1.5 16.4703 3.27825 16.4703 5.92425V12.0383C16.4703 14.6843 14.7641 16.4625 12.2253 16.4625V16.4625Z"/>
<path fill-rule="evenodd" clip-rule="evenodd" d="M3.96106 12.8853C3.82156 12.8853 3.68281 12.8343 3.57406 12.7308C3.34831 12.5178 3.33931 12.1608 3.55306 11.9366L4.69906 10.7268C5.30581 10.0826 6.32956 10.0511 6.97681 10.6586L7.69531 11.3876C7.89556 11.5901 8.22106 11.5938 8.42206 11.3958C8.49781 11.3066 10.1313 9.3228 10.1313 9.3228C10.4418 8.9463 10.8798 8.7138 11.3666 8.6658C11.8541 8.62305 12.3273 8.7648 12.7046 9.07455C12.7368 9.1008 12.7661 9.1263 14.4131 10.8176C14.6298 11.0396 14.6261 11.3958 14.4033 11.6126C14.1813 11.8308 13.8243 11.8241 13.6076 11.6021C13.6076 11.6021 12.0708 10.0248 11.9613 9.9183C11.8451 9.82305 11.6583 9.76755 11.4746 9.78555C11.2878 9.8043 11.1198 9.89355 11.0006 10.0383C9.25756 12.1526 9.23656 12.1728 9.20806 12.2006C8.56456 12.8321 7.52581 12.8216 6.89356 12.1766C6.89356 12.1766 6.19606 11.4686 6.18406 11.4543C6.01081 11.2938 5.70181 11.3043 5.51656 11.5001L4.36906 12.7098C4.25806 12.8268 4.10956 12.8853 3.96106 12.8853V12.8853Z"/>
<path fill-rule="evenodd" clip-rule="evenodd" d="M6.4182 6.09668C6.00345 6.09668 5.66595 6.43418 5.66595 6.84968C5.66595 7.26518 6.00345 7.60343 6.41895 7.60343C6.83445 7.60343 7.1727 7.26518 7.1727 6.84968C7.1727 6.43493 6.83445 6.09743 6.4182 6.09668M6.41895 8.72843C5.3832 8.72843 4.54095 7.88543 4.54095 6.84968C4.54095 5.81393 5.3832 4.97168 6.41895 4.97168C7.45545 4.97243 8.2977 5.81543 8.2977 6.84968C8.2977 7.88543 7.4547 8.72843 6.41895 8.72843"/>
</svg>
