<svg width="18" height="18" viewBox="0 0 18 18" xmlns="http://www.w3.org/2000/svg">
<path fill-rule="evenodd" clip-rule="evenodd" d="M8.10355 11.1134L10.8463 15.5631C10.9663 15.7581 11.1538 15.7559 11.2296 15.7454C11.3053 15.7349 11.4876 15.6884 11.5536 15.4671L14.9833 3.88338C15.0433 3.67863 14.9331 3.53913 14.8836 3.48963C14.8356 3.44013 14.6983 3.33438 14.4996 3.39063L2.90755 6.78513C2.6878 6.84963 2.6398 7.03413 2.6293 7.10988C2.6188 7.18713 2.6158 7.37838 2.81005 7.50063L7.3108 10.3154L11.2873 6.29688C11.5056 6.07638 11.8618 6.07413 12.0831 6.29238C12.3043 6.51063 12.3058 6.86763 12.0876 7.08813L8.10355 11.1134ZM11.1712 16.8749C10.6492 16.8749 10.1707 16.6094 9.88871 16.1534L6.98096 11.4351L2.21396 8.45385C1.70021 8.1321 1.43171 7.5591 1.51496 6.95685C1.59746 6.3546 2.01071 5.8761 2.59121 5.70585L14.1832 2.31135C14.7165 2.15535 15.288 2.3031 15.681 2.6946C16.074 3.08985 16.2202 3.66735 16.0612 4.20285L12.6315 15.7859C12.4597 16.3686 11.9797 16.7804 11.379 16.8606C11.3085 16.8696 11.2402 16.8749 11.1712 16.8749V16.8749Z"/>
</svg>
