<svg width="18" height="18" viewBox="0 0 18 18" xmlns="http://www.w3.org/2000/svg">
<path fill-rule="evenodd" clip-rule="evenodd" d="M5.10553 1.5H3.55556C3.01039 1.5 2.48755 1.71657 2.10206 2.10206C1.71657 2.48755 1.5 3.01039 1.5 3.55556V14.4444C1.5 14.9896 1.71657 15.5125 2.10206 15.8979C2.48755 16.2834 3.01039 16.5 3.55556 16.5H14.4444C14.9896 16.5 15.5125 16.2834 15.8979 15.8979C16.2834 15.5125 16.5 14.9896 16.5 14.4444V5.88889C16.5 5.75628 16.4473 5.6291 16.3536 5.53534L12.4647 1.64645C12.3709 1.55268 12.2437 1.5 12.1111 1.5H5.1167C5.11484 1.49998 5.11298 1.49997 5.11111 1.49997C5.10925 1.49997 5.10739 1.49998 5.10553 1.5ZM4.61111 2.5H3.55556C3.2756 2.5 3.00712 2.61121 2.80917 2.80917C2.61121 3.00712 2.5 3.2756 2.5 3.55556V14.4444C2.5 14.7244 2.61121 14.9929 2.80917 15.1908C3.00712 15.3888 3.27561 15.5 3.55556 15.5H4.61111V9.77775C4.61111 9.50161 4.83497 9.27775 5.11111 9.27775H12.8889C13.165 9.27775 13.3889 9.50161 13.3889 9.77775V15.5H14.4444C14.7244 15.5 14.9929 15.3888 15.1908 15.1908C15.3888 14.9929 15.5 14.7244 15.5 14.4444V6.096L11.904 2.5H5.61111V5.38886H11.3333C11.6095 5.38886 11.8333 5.61272 11.8333 5.88886C11.8333 6.165 11.6095 6.38886 11.3333 6.38886H5.11111C4.83497 6.38886 4.61111 6.165 4.61111 5.88886V2.5ZM12.3889 15.5V10.2777H5.61111V15.5H12.3889Z"/>
</svg>
