<svg width="20" height="20" viewBox="0 0 20 20" fill="none" xmlns="http://www.w3.org/2000/svg">
<path d="M17.545 14.8778C17.2757 15.5 16.9569 16.0727 16.5876 16.5992C16.0841 17.317 15.6719 17.8138 15.3542 18.0897C14.8618 18.5426 14.3342 18.7746 13.7692 18.7877C13.3636 18.7877 12.8744 18.6723 12.305 18.4382C11.7337 18.2052 11.2087 18.0897 10.7287 18.0897C10.2253 18.0897 9.68533 18.2052 9.1078 18.4382C8.52939 18.6723 8.06343 18.7943 7.70717 18.8064C7.16536 18.8295 6.62531 18.591 6.08625 18.0897C5.7422 17.7896 5.31185 17.2752 4.79632 16.5464C4.24319 15.7682 3.78844 14.8657 3.43218 13.8368C3.05064 12.7255 2.85938 11.6494 2.85938 10.6075C2.85938 9.41412 3.11725 8.3848 3.63378 7.52224C4.03972 6.8294 4.57977 6.28287 5.25568 5.88165C5.93159 5.48043 6.66192 5.27598 7.44841 5.2629C7.87876 5.2629 8.4431 5.39601 9.1444 5.65763C9.84373 5.92012 10.2928 6.05324 10.4896 6.05324C10.6368 6.05324 11.1356 5.89759 11.9813 5.58728C12.781 5.2995 13.4559 5.18035 14.0088 5.22728C15.507 5.3482 16.6326 5.93881 17.3812 7.00286C16.0413 7.81475 15.3784 8.95189 15.3916 10.4107C15.4037 11.5469 15.8159 12.4925 16.626 13.2433C16.9932 13.5917 17.4032 13.861 17.8594 14.0523C17.7604 14.3392 17.656 14.614 17.545 14.8778ZM14.1088 1.35626C14.1088 2.24686 13.7835 3.07841 13.1349 3.84809C12.3523 4.76308 11.4056 5.29181 10.3791 5.20838C10.366 5.10153 10.3584 4.98908 10.3584 4.87092C10.3584 4.01594 10.7306 3.10095 11.3915 2.35281C11.7215 1.97402 12.1412 1.65906 12.6502 1.40781C13.158 1.16031 13.6384 1.02344 14.0901 1C14.1033 1.11906 14.1088 1.23814 14.1088 1.35626Z" fill="black"/>
</svg>
