<svg width="20" height="20" viewBox="0 0 20 20" fill="none" xmlns="http://www.w3.org/2000/svg">
<path d="M13.6364 9.14286C15.1455 9.14286 16.3545 7.99429 16.3545 6.57143C16.3545 5.14857 15.1455 4 13.6364 4C12.1273 4 10.9091 5.14857 10.9091 6.57143C10.9091 7.99429 12.1273 9.14286 13.6364 9.14286ZM6.36364 9.14286C7.87273 9.14286 9.08182 7.99429 9.08182 6.57143C9.08182 5.14857 7.87273 4 6.36364 4C4.85455 4 3.63636 5.14857 3.63636 6.57143C3.63636 7.99429 4.85455 9.14286 6.36364 9.14286ZM6.36364 10.8571C4.24545 10.8571 0 11.86 0 13.8571V16H12.7273V13.8571C12.7273 11.86 8.48182 10.8571 6.36364 10.8571ZM13.6364 10.8571C13.3727 10.8571 13.0727 10.8743 12.7545 10.9C13.8091 11.62 14.5455 12.5886 14.5455 13.8571V16H20V13.8571C20 11.86 15.7545 10.8571 13.6364 10.8571Z" fill="black"/>
</svg>
