<svg width="20" height="20" viewBox="0 0 20 20" xmlns="http://www.w3.org/2000/svg">
<path d="M13.6366 9.00026C15.1454 9.00026 16.3546 7.65989 16.3546 6.00013C16.3546 4.33944 15.1454 3 13.6366 3C12.1277 3 10.9093 4.33944 10.9093 6.00013C10.9093 7.65989 12.1277 9.00026 13.6366 9.00026ZM6.36343 9.00026C7.87311 9.00026 9.08237 7.65989 9.08237 6.00013C9.08237 4.33944 7.87311 3 6.36343 3C4.8546 3 3.63612 4.33944 3.63612 6.00013C3.63612 7.65989 4.8546 9.00026 6.36343 9.00026ZM6.36343 10.9997C4.24536 10.9997 0 12.1702 0 14.5002V17H12.7277V14.5002C12.7277 12.1702 8.48235 10.9997 6.36343 10.9997ZM13.6366 10.9997C13.3731 10.9997 13.0726 11.02 12.7546 11.0505C13.8094 11.8905 14.5454 13.0204 14.5454 14.5002V17H20V14.5002C20 12.1702 15.7546 10.9997 13.6366 10.9997Z"/>
</svg>
