<svg width="20" height="20" viewBox="0 0 20 20" xmlns="http://www.w3.org/2000/svg">
<path fill-rule="evenodd" clip-rule="evenodd" d="M3.21812 3.82169C3.21984 3.82169 3.17685 3.86639 3.12269 3.91969C2.91464 4.12172 2.48393 4.54212 2.47963 5.4216C2.47275 6.65184 3.28173 8.93607 7.17706 12.8305C11.0543 16.7061 13.3351 17.5245 14.5679 17.5245H14.586C15.4655 17.5202 15.885 17.0886 16.0879 16.8815C16.1498 16.8178 16.1997 16.7714 16.2349 16.7422C17.0912 15.8808 17.5296 15.2394 17.5253 14.8285C17.5193 14.409 16.9975 13.9129 16.2762 13.2269C16.0466 13.0085 15.7973 12.7712 15.5342 12.5081C14.8525 11.8281 14.5146 11.9442 13.7718 12.2055C12.7445 12.5657 11.3346 13.0558 9.14406 10.8644C6.95009 8.67214 7.44098 7.26394 7.80034 6.2366C8.05997 5.49381 8.17861 5.15509 7.49601 4.47248C7.22864 4.20598 6.98878 3.95322 6.76784 3.7211C6.08609 3.00411 5.59434 2.48571 5.17738 2.47969H5.1705C4.75871 2.47969 4.11909 2.91986 3.21382 3.82513C3.2164 3.82255 3.21726 3.82169 3.21812 3.82169V3.82169ZM14.5688 18.8141C12.4264 18.8141 9.63323 17.1084 6.26577 13.7427C2.88541 10.3632 1.17718 7.5614 1.19007 5.41472C1.19781 3.99621 1.94145 3.26976 2.22086 2.99723C2.23547 2.97918 2.28533 2.93017 2.30253 2.91298C3.53535 1.6793 4.36668 1.18068 5.19372 1.19013C6.15401 1.20303 6.83747 1.92174 7.70233 2.83217C7.9164 3.05741 8.14852 3.30243 8.40729 3.56034C9.66246 4.81551 9.30482 5.83941 9.01768 6.66129C8.70475 7.55796 8.43394 8.3317 10.0553 9.9531C11.6785 11.5745 12.4522 11.3037 13.3454 10.9882C14.1682 10.701 15.1895 10.3417 16.4464 11.5969C16.7009 11.8513 16.9424 12.0809 17.1651 12.2932C18.0798 13.1624 18.802 13.8493 18.814 14.8122C18.8243 15.6332 18.3257 16.4697 17.0946 17.7016L16.5496 17.3319L17.0104 17.7824C16.7378 18.0618 16.0122 18.8063 14.5929 18.8141H14.5688Z"/>
</svg>
