<svg width="20" height="20" viewBox="0 0 20 20" fill="none" xmlns="http://www.w3.org/2000/svg">
<path d="M10 4.5C6.36364 4.5 3.25818 6.78067 2 10C3.25818 13.2193 6.36364 15.5 10 15.5C13.6364 15.5 16.7418 13.2193 18 10C16.7418 6.78067 13.6364 4.5 10 4.5ZM10 13.6667C7.99273 13.6667 6.36364 12.024 6.36364 10C6.36364 7.976 7.99273 6.33333 10 6.33333C12.0073 6.33333 13.6364 7.976 13.6364 10C13.6364 12.024 12.0073 13.6667 10 13.6667ZM10 7.8C8.79273 7.8 7.81818 8.78267 7.81818 10C7.81818 11.2173 8.79273 12.2 10 12.2C11.2073 12.2 12.1818 11.2173 12.1818 10C12.1818 8.78267 11.2073 7.8 10 7.8Z" fill="black"/>
</svg>
