<svg width="20" height="20" viewBox="0 0 20 20" fill="none" xmlns="http://www.w3.org/2000/svg">
<path d="M12.3333 9.10526V4.36842L10 2L7.66667 4.36842V5.94737H3V17H17V9.10526H12.3333ZM6.11111 15.4211H4.55556V13.8421H6.11111V15.4211ZM6.11111 12.2632H4.55556V10.6842H6.11111V12.2632ZM6.11111 9.10526H4.55556V7.52632H6.11111V9.10526ZM10.7778 15.4211H9.22222V13.8421H10.7778V15.4211ZM10.7778 12.2632H9.22222V10.6842H10.7778V12.2632ZM10.7778 9.10526H9.22222V7.52632H10.7778V9.10526ZM10.7778 5.94737H9.22222V4.36842H10.7778V5.94737ZM15.4444 15.4211H13.8889V13.8421H15.4444V15.4211ZM15.4444 12.2632H13.8889V10.6842H15.4444V12.2632Z" fill="black"/>
</svg>
