<svg width="20" height="20" viewBox="0 0 20 20" fill="none" xmlns="http://www.w3.org/2000/svg">
<path fill-rule="evenodd" clip-rule="evenodd" d="M16.72 10.1587C16.72 9.66235 16.6755 9.18508 16.5927 8.7269H10V11.4346H13.7673C13.605 12.3096 13.1118 13.051 12.3705 13.5474V15.3037H14.6327C15.9564 14.0851 16.72 12.2905 16.72 10.1587Z" fill="#4285F4"/>
<path fill-rule="evenodd" clip-rule="evenodd" d="M9.99976 16.9994C11.8898 16.9994 13.4743 16.3726 14.6325 15.3035L12.3702 13.5471C11.7434 13.9671 10.9416 14.2153 9.99976 14.2153C8.17658 14.2153 6.6334 12.9839 6.08294 11.3294H3.74431V13.143C4.89613 15.4307 7.2634 16.9994 9.99976 16.9994Z" fill="#34A853"/>
<path fill-rule="evenodd" clip-rule="evenodd" d="M6.08318 11.3299C5.94318 10.9099 5.86364 10.4613 5.86364 9.9999C5.86364 9.53853 5.94318 9.0899 6.08318 8.6699V6.85626H3.74455C3.27045 7.80126 3 8.87035 3 9.9999C3 11.1294 3.27045 12.1985 3.74455 13.1435L6.08318 11.3299Z" fill="#FBBC05"/>
<path fill-rule="evenodd" clip-rule="evenodd" d="M9.99976 5.78409C11.0275 5.78409 11.9502 6.13727 12.6757 6.83091L14.6834 4.82318C13.4711 3.69364 11.8866 3 9.99976 3C7.2634 3 4.89613 4.56864 3.74431 6.85636L6.08294 8.67C6.6334 7.01545 8.17658 5.78409 9.99976 5.78409Z" fill="#EA4335"/>
</svg>
