<svg width="20" height="20" viewBox="0 0 20 20" xmlns="http://www.w3.org/2000/svg">
<path d="M12.1583 6.66669L9.99999 8.82502L7.84166 6.66669L6.66666 7.84169L8.82499 10L6.66666 12.1584L7.84166 13.3334L9.99999 11.175L12.1583 13.3334L13.3333 12.1584L11.175 10L13.3333 7.84169L12.1583 6.66669ZM9.99999 1.66669C5.39166 1.66669 1.66666 5.39169 1.66666 10C1.66666 14.6084 5.39166 18.3334 9.99999 18.3334C14.6083 18.3334 18.3333 14.6084 18.3333 10C18.3333 5.39169 14.6083 1.66669 9.99999 1.66669ZM9.99999 16.6667C6.32499 16.6667 3.33332 13.675 3.33332 10C3.33332 6.32502 6.32499 3.33335 9.99999 3.33335C13.675 3.33335 16.6667 6.32502 16.6667 10C16.6667 13.675 13.675 16.6667 9.99999 16.6667Z"/>
</svg>
