<svg width="20" height="20" viewBox="0 0 20 20" fill="none" xmlns="http://www.w3.org/2000/svg">
<g clip-path="url(#clip0_1405_89)">
<path d="M10.7055 12.0967H9.43661L9.05741 4.67301H11.0774L10.7055 12.0967ZM8.96991 14.4229C8.96991 14.0632 9.06471 13.7909 9.25431 13.6062C9.44391 13.4166 9.71371 13.3218 10.0638 13.3218C10.4089 13.3218 10.6739 13.419 10.8586 13.6135C11.0434 13.808 11.1357 14.0778 11.1357 14.4229C11.1357 14.7681 11.0409 15.0428 10.8513 15.247C10.6666 15.4463 10.4041 15.546 10.0638 15.546C9.71861 15.546 9.44881 15.4487 9.25431 15.2543C9.06471 15.0598 8.96991 14.7827 8.96991 14.4229Z" fill="black"/>
<path fill-rule="evenodd" clip-rule="evenodd" d="M9.99997 2.00111C5.58169 2.00111 1.99996 5.58283 1.99996 10.0011C1.99996 14.4194 5.58169 18.0011 9.99997 18.0011C14.4183 18.0011 18 14.4194 18 10.0011C18 5.58283 14.4183 2.00111 9.99997 2.00111ZM0.888855 10.0011C0.888855 4.96918 4.96804 0.889999 9.99997 0.889999C15.0319 0.889999 19.1111 4.96918 19.1111 10.0011C19.1111 15.033 15.0319 19.1122 9.99997 19.1122C4.96804 19.1122 0.888855 15.033 0.888855 10.0011Z" fill="#181818"/>
</g>
<defs>
<clipPath id="clip0_1405_89">
<rect width="20" height="20" fill="white"/>
</clipPath>
</defs>
</svg>
