<svg width="20" height="20" viewBox="0 0 20 20" xmlns="http://www.w3.org/2000/svg">
<path d="M16.389 9.1435C16.0029 8.2651 15.4433 7.4761 14.7446 6.8251L14.1633 6.292C14.1439 6.2738 14.1204 6.2608 14.0948 6.2542C14.0692 6.2475 14.0423 6.2474 14.0167 6.2539C13.991 6.2604 13.9674 6.2733 13.9479 6.2913C13.9284 6.3094 13.9136 6.3321 13.905 6.3574L13.6467 7.1067C13.4515 7.6352 13.1543 8.1191 12.7723 8.5299C12.7519 8.5532 12.7234 8.5676 12.6928 8.5702C12.6766 8.573 12.6599 8.5718 12.6443 8.5665C12.6287 8.5612 12.6147 8.5521 12.6034 8.54C12.5782 8.5147 12.5639 8.4804 12.5636 8.4444C12.578 7.015 12.2033 5.6091 11.4806 4.38101C10.8709 3.19078 9.9453 2.19632 8.8079 1.50945L8.0031 1.02164C7.9784 1.0072 7.9504 0.999731 7.9219 1.00001C7.8935 1.00028 7.8656 1.00829 7.8412 1.02319C7.8169 1.03809 7.7969 1.05934 7.7834 1.08472C7.7699 1.1101 7.7634 1.13868 7.7646 1.16748L7.8093 2.13305C7.8493 2.71902 7.7733 3.30719 7.5858 3.86302C7.2087 4.87872 6.5582 5.7672 5.7079 6.4278C4.87272 7.0813 4.19355 7.9166 3.72068 8.8719C3.24788 9.8363 3.00137 10.8982 3.00033 11.9748C2.9912 12.9139 3.1721 13.8449 3.5319 14.7106C4.26985 16.4299 5.6469 17.786 7.3651 18.4853C9.0833 19.1846 11.0044 19.1709 12.7127 18.4471C14.3883 17.7399 15.7276 16.4022 16.4486 14.7156C16.8198 13.8336 17.0075 12.8835 16.9998 11.9248C16.9921 10.9661 16.7892 10.0193 16.4039 9.1435H16.389ZM13.9646 15.9678C12.9008 17.0317 11.4657 17.6282 9.9704 17.6282C8.475 17.6282 7.0399 17.0317 5.9761 15.9678C5.1516 15.1375 4.60611 14.0655 4.41708 12.9038C4.22804 11.7421 4.40502 10.5497 4.92293 9.4955C5.2999 8.723 5.8431 8.046 6.5127 7.5141C6.9429 7.1809 7.3331 6.7977 7.6752 6.3725C8.1662 5.7699 8.5572 5.0905 8.8327 4.36089C8.9424 4.05781 9.0223 3.74449 9.0712 3.4255C9.5639 3.89217 9.9754 4.43963 10.2883 5.0448C10.887 6.0493 11.2015 7.2009 11.1975 8.374C11.187 8.5832 11.2196 8.7922 11.2933 8.9879C11.3669 9.1835 11.48 9.3615 11.6253 9.5105C11.7707 9.6595 11.9451 9.7763 12.1374 9.8534C12.3297 9.9304 12.5358 9.9661 12.7425 9.9582C12.9327 9.9451 13.1185 9.8939 13.2891 9.8076C13.4597 9.7212 13.6116 9.6015 13.7361 9.4553C14.0072 9.1716 14.2501 8.8616 14.4614 8.5299C14.7412 8.8892 14.9749 9.2829 15.1569 9.7017C15.6117 10.7449 15.7413 11.9037 15.5282 13.0234C15.3152 14.1431 14.7697 15.1703 13.9646 15.9678Z"/>
</svg>
