<svg width="20" height="20" viewBox="0 0 20 20" xmlns="http://www.w3.org/2000/svg">
<path fill-rule="evenodd" clip-rule="evenodd" d="M9.34724 18.827C9.74997 19.3181 10 19.6 10 19.6C10 19.6 10.25 19.3181 10.6528 18.827C12.3192 16.7947 16.6 11.179 16.6 7.12C16.6 3.4048 13.6489 0.4 10 0.4C6.35114 0.4 3.4 3.4048 3.4 7.12C3.4 11.179 7.68083 16.7947 9.34724 18.827ZM10 18.0453C10.0784 17.9487 10.1617 17.8453 10.2493 17.7354C10.8553 16.9751 11.6618 15.9118 12.4664 14.6976C13.2728 13.4806 14.0654 12.1299 14.6534 10.7935C15.2471 9.44433 15.6 8.18126 15.6 7.12C15.6 3.94002 13.0797 1.4 10 1.4C6.92034 1.4 4.4 3.94002 4.4 7.12C4.4 8.18126 4.75293 9.44433 5.34657 10.7935C5.93459 12.1299 6.72716 13.4806 7.53359 14.6976C8.33818 15.9118 9.14468 16.9751 9.75072 17.7354C9.8383 17.8453 9.9216 17.9487 10 18.0453ZM10 10.52C8.12966 10.52 6.64286 8.98002 6.64286 7.12C6.64286 5.25998 8.12966 3.72 10 3.72C11.8703 3.72 13.3571 5.25998 13.3571 7.12C13.3571 8.98002 11.8703 10.52 10 10.52ZM7.64286 7.12C7.64286 8.4448 8.69886 9.52 10 9.52C11.3011 9.52 12.3571 8.4448 12.3571 7.12C12.3571 5.7952 11.3011 4.72 10 4.72C8.69886 4.72 7.64286 5.7952 7.64286 7.12Z"/>
</svg>
