<svg width="20" height="20" viewBox="0 0 20 20" xmlns="http://www.w3.org/2000/svg">
<path fill-rule="evenodd" clip-rule="evenodd" d="M10 2.06931C5.62 2.06931 2.06931 5.62 2.06931 10C2.06931 14.38 5.62 17.9307 10 17.9307C14.38 17.9307 17.9307 14.38 17.9307 10C17.9307 5.62 14.38 2.06931 10 2.06931ZM1 10C1 5.02944 5.02944 1 10 1C14.9706 1 19 5.02944 19 10C19 14.9706 14.9706 19 10 19C5.02944 19 1 14.9706 1 10Z"/>
<path fill-rule="evenodd" clip-rule="evenodd" d="M1 10.5C1 10.2239 1.23937 10 1.53465 10H18.4653C18.7606 10 19 10.2239 19 10.5C19 10.7761 18.7606 11 18.4653 11H1.53465C1.23937 11 1 10.7761 1 10.5Z"/>
<path fill-rule="evenodd" clip-rule="evenodd" d="M7.09103 9.91212C7.1532 12.744 8.18194 15.4654 10 17.6378C11.8181 15.4654 12.8468 12.744 12.909 9.91212C12.8468 7.08027 11.8181 4.35884 10 2.1864C8.18194 4.35884 7.1532 7.08027 7.09103 9.91212ZM10 1.3641L9.59727 1C7.3479 3.43737 6.06959 6.60046 6.00012 9.90087C5.99996 9.90837 5.99996 9.91586 6.00012 9.92336C6.06959 13.2238 7.3479 16.3869 9.59727 18.8242C9.70061 18.9362 9.84677 19 10 19C10.1532 19 10.2994 18.9362 10.4027 18.8242C12.6521 16.3869 13.9304 13.2238 13.9999 9.92336C14 9.91586 14 9.90837 13.9999 9.90087C13.9304 6.60046 12.6521 3.43737 10.4027 1L10 1.3641Z"/>
</svg>
