<svg width="20" height="20" viewBox="0 0 20 20" fill="none" xmlns="http://www.w3.org/2000/svg">
<g clip-path="url(#clip0_1405_102)">
<path d="M5.04478 5.381L5.13268 5.9548C5.16608 6.1729 5.18898 6.3572 5.20138 6.5076C5.21528 6.6561 5.22388 6.7699 5.22718 6.8491L5.27388 6.842C5.32228 6.73 5.38258 6.6375 5.45458 6.5645C5.52668 6.4914 5.61008 6.4344 5.70478 6.3933C5.79918 6.3505 5.90438 6.3202 6.02028 6.3024C6.21418 6.2727 6.39468 6.2832 6.56188 6.3337C6.73078 6.384 6.87418 6.4816 6.99208 6.6265C7.10968 6.7697 7.18798 6.9686 7.22688 7.223L7.52008 9.1365L6.49978 9.2928L6.25388 7.6883C6.22398 7.4927 6.17288 7.3499 6.10058 7.26C6.02808 7.1684 5.93218 7.1317 5.81268 7.15C5.68978 7.1689 5.59828 7.2192 5.53818 7.301C5.47788 7.3811 5.44328 7.4909 5.43458 7.6305C5.42558 7.7683 5.43588 7.9341 5.46558 8.1279L5.66368 9.4209L4.64856 9.5764L4.0296 5.5366L5.04478 5.381ZM9.08148 5.8334C9.45358 5.7764 9.75858 5.8245 9.99638 5.9776C10.234 6.129 10.3789 6.3751 10.4311 6.7161L10.7267 8.6452L10.0231 8.753L9.76868 8.3934L9.74788 8.3966C9.68068 8.5131 9.60798 8.6111 9.52978 8.6904C9.45308 8.7677 9.36068 8.8297 9.25268 8.8763C9.14498 8.9247 9.00978 8.9614 8.84708 8.9863C8.67748 9.0123 8.51978 9.001 8.37418 8.9525C8.22858 8.9039 8.10608 8.8155 8.00678 8.6872C7.90738 8.559 7.84128 8.3875 7.80838 8.1729C7.76008 7.8579 7.83338 7.6075 8.02808 7.4218C8.22288 7.236 8.52558 7.102 8.93638 7.0195L9.42468 6.9288L9.41828 6.8872C9.39818 6.7557 9.35098 6.6673 9.27668 6.622C9.20418 6.5764 9.11338 6.5619 9.00428 6.5787C8.88838 6.5964 8.76168 6.6371 8.62438 6.7006C8.48858 6.7622 8.35378 6.836 8.21988 6.922L7.82388 6.2971C7.98028 6.1846 8.16228 6.0894 8.37008 6.0115C8.57778 5.9336 8.81488 5.8743 9.08148 5.8334ZM9.51538 7.4862L9.28328 7.5324C9.09748 7.5679 8.97098 7.621 8.90378 7.6915C8.83808 7.76 8.81348 7.8479 8.82998 7.9553C8.84528 8.0557 8.88358 8.126 8.94468 8.1662C9.00548 8.2047 9.07998 8.2172 9.16828 8.2037C9.29118 8.1849 9.38988 8.1299 9.46448 8.0387C9.54088 7.9473 9.56948 7.8393 9.55038 7.7147L9.51538 7.4862Z" fill="black"/>
<path d="M11.3506 9.5007L11.2161 10.0653C11.165 10.28 11.1168 10.4593 11.0717 10.6034C11.0287 10.7461 10.9938 10.8548 10.967 10.9295L11.013 10.9404C11.1 10.8549 11.1906 10.7919 11.2849 10.7514C11.3791 10.7108 11.4779 10.6893 11.581 10.6869C11.6846 10.6828 11.7935 10.6943 11.9076 10.7215C12.0984 10.767 12.2617 10.8446 12.3976 10.9543C12.5351 11.0645 12.6312 11.2089 12.6859 11.3875C12.7409 11.5645 12.7386 11.7781 12.679 12.0285L12.2304 13.9116L11.2262 13.6724L11.6024 12.0934C11.6483 11.9009 11.6546 11.7494 11.6216 11.6389C11.5889 11.5267 11.5138 11.4566 11.3962 11.4286C11.2753 11.3998 11.1716 11.412 11.0851 11.4652C10.999 11.5167 10.9257 11.6054 10.8651 11.7314C10.8049 11.8557 10.7521 12.0132 10.7066 12.204L10.4035 13.4764L9.40439 13.2384L10.3516 9.2627L11.3506 9.5007ZM14.9202 11.4392C15.2864 11.5264 15.5509 11.6857 15.7136 11.9171C15.8767 12.1468 15.9183 12.4294 15.8383 12.765L15.386 14.6634L14.6936 14.4984L14.5933 14.0695L14.5728 14.0647C14.4667 14.1474 14.3625 14.2108 14.2602 14.2548C14.1601 14.2975 14.0512 14.3202 13.9335 14.3228C13.8155 14.3271 13.6764 14.3101 13.5163 14.272C13.3494 14.2322 13.2076 14.1624 13.091 14.0626C12.9743 13.9629 12.8941 13.8348 12.8503 13.6786C12.8066 13.5224 12.8098 13.3386 12.8601 13.1274C12.934 12.8174 13.0961 12.613 13.3464 12.5142C13.5968 12.4155 13.9277 12.4052 14.3393 12.4835L14.8259 12.5832L14.8356 12.5423C14.8665 12.4128 14.856 12.3131 14.8043 12.2432C14.7542 12.1737 14.6755 12.1261 14.5682 12.1006C14.4541 12.0734 14.3215 12.0634 14.1703 12.0706C14.0213 12.0765 13.8686 12.0941 13.7122 12.1235L13.5806 11.3955C13.7678 11.3501 13.9723 11.3304 14.194 11.3364C14.4158 11.3424 14.6579 11.3767 14.9202 11.4392ZM14.7001 13.1337L14.4677 13.0892C14.2821 13.0522 14.145 13.0537 14.0562 13.0937C13.9696 13.1325 13.9137 13.2047 13.8885 13.3103C13.865 13.4091 13.8739 13.4886 13.9154 13.5489C13.9572 13.6075 14.0216 13.6471 14.1085 13.6678C14.2294 13.6966 14.3416 13.6828 14.445 13.6265C14.5502 13.5705 14.6173 13.4812 14.6465 13.3586L14.7001 13.1337Z" fill="black"/>
<path fill-rule="evenodd" clip-rule="evenodd" d="M10 2C5.58175 2 2.00003 5.58172 2.00003 10C2.00003 14.4183 5.58175 18 10 18C14.4183 18 18 14.4183 18 10C18 5.58172 14.4183 2 10 2ZM0.888916 10C0.888916 4.96807 4.9681 0.888885 10 0.888885C15.032 0.888885 19.1111 4.96807 19.1111 10C19.1111 15.0319 15.032 19.1111 10 19.1111C4.9681 19.1111 0.888916 15.0319 0.888916 10Z" fill="#181818"/>
</g>
<defs>
<clipPath id="clip0_1405_102">
<rect width="20" height="20" fill="white"/>
</clipPath>
</defs>
</svg>
