<svg width="20" height="20" viewBox="0 0 20 20" fill="none" xmlns="http://www.w3.org/2000/svg">
<g clip-path="url(#clip0_1914_42)">
<rect width="20" height="20" fill="white"/>
<path d="M10 19.5C15.2375 19.5 19.5 15.2375 19.5 10C19.5 4.76246 15.2375 0.5 10 0.5C4.76246 0.5 0.5 4.76246 0.5 10C0.5 15.2375 4.76246 19.5 10 19.5ZM10 1.83724C14.4853 1.83724 18.1628 5.4868 18.1628 10C18.1628 14.5132 14.4853 18.1628 10 18.1628C5.51466 18.1628 1.83724 14.4853 1.83724 10C1.83724 5.51466 5.51466 1.83724 10 1.83724V1.83724Z" fill="black"/>
<path d="M8.41197 14.1795C8.0498 14.1795 7.74335 14.4859 7.74335 14.8481C7.74335 15.2103 8.0498 15.5167 8.41197 15.5167H12.8137C13.1759 15.5167 13.4823 15.2103 13.4823 14.8481C13.4823 14.4859 13.1759 14.1795 12.8137 14.1795H11.2815V8.2733C11.2815 7.91113 10.975 7.60468 10.6128 7.60468H8.41197C8.0498 7.60468 7.74335 7.91113 7.74335 8.2733C7.74335 8.63547 8.0498 8.94192 8.41197 8.94192H9.94423V14.1795H8.41197Z" fill="black"/>
<path d="M9.69387 6.4891C10.2939 6.4891 10.7804 6.00266 10.7804 5.40259C10.7804 4.80253 10.2939 4.31608 9.69387 4.31608C9.09381 4.31608 8.60736 4.80253 8.60736 5.40259C8.60736 6.00266 9.09381 6.4891 9.69387 6.4891Z" fill="black"/>
</g>
<defs>
<clipPath id="clip0_1914_42">
<rect width="20" height="20" fill="white"/>
</clipPath>
</defs>
</svg>
