<svg width="20" height="20" viewBox="0 0 20 20" xmlns="http://www.w3.org/2000/svg">
<path fill-rule="evenodd" clip-rule="evenodd" d="M14.9316 8.8541C14.6091 8.8541 14.3358 8.6066 14.3091 8.2799C14.2541 7.5949 13.7958 7.0166 13.1433 6.8058C12.8141 6.6991 12.6341 6.3466 12.7399 6.0191C12.8474 5.6908 13.1966 5.5124 13.5266 5.6158C14.6624 5.9833 15.4583 6.9891 15.5558 8.1783C15.5833 8.5224 15.3274 8.8241 14.9833 8.8516C14.9658 8.8533 14.9491 8.8541 14.9316 8.8541Z"/>
<path fill-rule="evenodd" clip-rule="evenodd" d="M2.98994 10.1025C4.15827 13.7375 8.77409 16.6767 10.0008 17.4042C11.2316 16.6692 15.8808 13.6975 17.0116 10.1058C17.7541 7.7842 17.0649 4.84334 14.3266 3.96084C12.9999 3.53501 11.4524 3.79417 10.3841 4.62084C10.1608 4.79251 9.85079 4.79584 9.62579 4.62584C8.49409 3.77501 7.01579 3.52584 5.66829 3.96084C2.9341 4.84251 2.24744 7.7833 2.98994 10.1025ZM10.0016 18.7508C9.89829 18.7508 9.79579 18.7258 9.70239 18.675C9.44159 18.5325 3.29744 15.1458 1.79994 10.4842L1.7991 10.4833C0.859101 7.5483 1.90577 3.86001 5.28489 2.77084C6.87159 2.25751 8.60079 2.48334 9.99909 3.36584C11.3541 2.50917 13.1541 2.27251 14.7091 2.77084C18.0916 3.86167 19.1416 7.5492 18.2024 10.4833C16.7533 15.0917 10.5641 18.5292 10.3016 18.6733C10.2083 18.725 10.1049 18.7508 10.0016 18.7508Z"/>
</svg>
