<svg width="20" height="20" viewBox="0 0 20 20" xmlns="http://www.w3.org/2000/svg">
<path d="M15.25 7H14.375V5.28571C14.375 2.92 12.415 1 10 1C7.585 1 5.625 2.92 5.625 5.28571V7H4.75C3.7875 7 3 7.77143 3 8.71429V17.2857C3 18.2286 3.7875 19 4.75 19H15.25C16.2125 19 17 18.2286 17 17.2857V8.71429C17 7.77143 16.2125 7 15.25 7ZM10 14.7143C9.0375 14.7143 8.25 13.9429 8.25 13C8.25 12.0571 9.0375 11.2857 10 11.2857C10.9625 11.2857 11.75 12.0571 11.75 13C11.75 13.9429 10.9625 14.7143 10 14.7143ZM12.7125 7H7.2875V5.28571C7.2875 3.82 8.50375 2.62857 10 2.62857C11.4963 2.62857 12.7125 3.82 12.7125 5.28571V7Z"/>
</svg>
