<svg width="20" height="20" viewBox="0 0 20 20" fill="none" xmlns="http://www.w3.org/2000/svg">
<path d="M9.57895 2L4.94737 9.2H14.2105L9.57895 2ZM9.57895 5.072L11.2042 7.6H7.94526L9.57895 5.072ZM14.2105 10.8C12.1137 10.8 10.4211 12.408 10.4211 14.4C10.4211 16.392 12.1137 18 14.2105 18C16.3074 18 18 16.392 18 14.4C18 12.408 16.3074 10.8 14.2105 10.8ZM14.2105 16.4C13.0484 16.4 12.1053 15.504 12.1053 14.4C12.1053 13.296 13.0484 12.4 14.2105 12.4C15.3726 12.4 16.3158 13.296 16.3158 14.4C16.3158 15.504 15.3726 16.4 14.2105 16.4ZM2 17.6H8.73684V11.2H2V17.6ZM3.68421 12.8H7.05263V16H3.68421V12.8Z" fill="black"/>
</svg>
