<svg width="20" height="20" viewBox="0 0 20 20" xmlns="http://www.w3.org/2000/svg">
<path d="M12.6118 9.85714C13.6748 9.85714 14.5265 8.99571 14.5265 7.92857C14.5265 6.86143 13.6748 6 12.6118 6C11.5488 6 10.6907 6.86143 10.6907 7.92857C10.6907 8.99571 11.5488 9.85714 12.6118 9.85714ZM7.48885 9.85714C8.55185 9.85714 9.40354 8.99571 9.40354 7.92857C9.40354 6.86143 8.55185 6 7.48885 6C6.42584 6 5.56775 6.86143 5.56775 7.92857C5.56775 8.99571 6.42584 9.85714 7.48885 9.85714ZM7.48885 11.1429C5.9968 11.1429 3.00629 11.895 3.00629 13.3929V15H11.9714V13.3929C11.9714 11.895 8.9809 11.1429 7.48885 11.1429ZM12.6118 11.1429C12.4261 11.1429 12.2147 11.1557 11.9906 11.175C12.7334 11.715 13.2521 12.4414 13.2521 13.3929V15H17.0943V13.3929C17.0943 11.895 14.1038 11.1429 12.6118 11.1429Z"/>
</svg>
