<svg width="20" height="20" viewBox="0 0 20 20" xmlns="http://www.w3.org/2000/svg">
<path d="M10.044 3C6.15572 3 3 6.136 3 10C3 13.864 6.15572 17 10.044 17C13.9323 17 17.088 13.864 17.088 10C17.088 6.136 13.9323 3 10.044 3ZM9.33962 15.551C6.55723 15.208 4.4088 12.856 4.4088 10C4.4088 9.566 4.46516 9.153 4.55673 8.747L7.93082 12.1V12.8C7.93082 13.57 8.56478 14.2 9.33962 14.2V15.551ZM14.2 13.773C14.0169 13.206 13.4956 12.8 12.8616 12.8H12.1572V10.7C12.1572 10.315 11.8403 10 11.4528 10H7.22641V8.6H8.63522C9.02264 8.6 9.33962 8.285 9.33962 7.9V6.5H10.7484C11.5233 6.5 12.1572 5.87 12.1572 5.1V4.813C14.2211 5.646 15.6792 7.655 15.6792 10C15.6792 11.456 15.1157 12.779 14.2 13.773Z"/>
</svg>
