<svg width="20" height="20" viewBox="0 0 20 20" xmlns="http://www.w3.org/2000/svg">
<path fill-rule="evenodd" clip-rule="evenodd" d="M6.8388 8.89841C6.2288 8.89841 5.7348 9.39241 5.7348 10.0004C5.7348 10.6084 6.2288 11.1024 6.8368 11.1024C7.4438 11.1024 7.9388 10.6084 7.9388 10.0004C7.9388 9.39341 7.4448 8.89941 6.8388 8.89841ZM6.8368 12.6024C5.4018 12.6024 4.2348 11.4344 4.2348 10.0004C4.2348 8.56541 5.4018 7.39841 6.8368 7.39841C8.2738 7.39941 9.4388 8.56641 9.4388 10.0004C9.4388 11.4344 8.2718 12.6024 6.8368 12.6024Z"/>
<path fill-rule="evenodd" clip-rule="evenodd" d="M15.0097 12.6025C14.5957 12.6025 14.2597 12.2665 14.2597 11.8525V10.7495H8.6917C8.2777 10.7495 7.9417 10.4145 7.9417 9.99951C7.9417 9.58551 8.2777 9.24951 8.6917 9.24951H15.0097C15.4237 9.24951 15.7597 9.58551 15.7597 9.99951V11.8525C15.7597 12.2665 15.4237 12.6025 15.0097 12.6025Z"/>
<path fill-rule="evenodd" clip-rule="evenodd" d="M12.1815 12.6025C11.7675 12.6025 11.4315 12.2665 11.4315 11.8525V9.99951C11.4315 9.58551 11.7675 9.24951 12.1815 9.24951C12.5955 9.24951 12.9315 9.58551 12.9315 9.99951V11.8525C12.9315 12.2665 12.5955 12.6025 12.1815 12.6025Z"/>
<path fill-rule="evenodd" clip-rule="evenodd" d="M5.664 1.5C3.135 1.5 1.5 3.233 1.5 5.916V14.084C1.5 16.767 3.135 18.5 5.664 18.5H14.332C16.864 18.5 18.5 16.767 18.5 14.084V5.916C18.5 3.233 16.864 1.5 14.334 1.5H5.664ZM14.332 20H5.664C2.276 20 0 17.622 0 14.084V5.916C0 2.378 2.276 0 5.664 0H14.334C17.723 0 20 2.378 20 5.916V14.084C20 17.622 17.723 20 14.332 20Z"/>
</svg>
