<svg width="20" height="20" viewBox="0 0 20 20" xmlns="http://www.w3.org/2000/svg">
<path d="M12.1583 6.66663L9.99996 8.82496L7.84163 6.66663L6.66663 7.84163L8.82496 9.99996L6.66663 12.1583L7.84163 13.3333L9.99996 11.175L12.1583 13.3333L13.3333 12.1583L11.175 9.99996L13.3333 7.84163L12.1583 6.66663ZM9.99996 1.66663C5.39163 1.66663 1.66663 5.39163 1.66663 9.99996C1.66663 14.6083 5.39163 18.3333 9.99996 18.3333C14.6083 18.3333 18.3333 14.6083 18.3333 9.99996C18.3333 5.39163 14.6083 1.66663 9.99996 1.66663ZM9.99996 16.6666C6.32496 16.6666 3.33329 13.675 3.33329 9.99996C3.33329 6.32496 6.32496 3.33329 9.99996 3.33329C13.675 3.33329 16.6666 6.32496 16.6666 9.99996C16.6666 13.675 13.675 16.6666 9.99996 16.6666Z"/>
</svg>
