<svg width="20" height="20" viewBox="0 0 20 20" fill="none" xmlns="http://www.w3.org/2000/svg">
<path d="M11.5528 8.38269H4.9511L8.15828 5.17568C8.28743 5.04652 8.35999 4.87135 8.35999 4.6887C8.35999 4.50604 8.28743 4.33087 8.15828 4.20171C8.02912 4.07256 7.85395 4 7.6713 4C7.48864 4 7.31347 4.07256 7.18431 4.20171L2.80173 8.5843C2.73777 8.64825 2.68704 8.72417 2.65243 8.80773C2.61782 8.89129 2.60001 8.98084 2.60001 9.07128C2.60001 9.16172 2.61782 9.25128 2.65243 9.33484C2.68704 9.41839 2.73777 9.49431 2.80173 9.55826L7.18431 13.941C7.24827 14.005 7.32419 14.0557 7.40774 14.0903C7.4913 14.1249 7.58086 14.1427 7.6713 14.1427C7.76174 14.1427 7.85129 14.1249 7.93485 14.0903C8.01841 14.0557 8.09433 14.005 8.15828 13.941C8.22223 13.8771 8.27296 13.8012 8.30757 13.7176C8.34218 13.634 8.35999 13.5445 8.35999 13.454C8.35999 13.3636 8.34218 13.274 8.30757 13.1905C8.27296 13.1069 8.22223 13.031 8.15828 12.9671L4.95144 9.76005H11.5528C14.2152 9.76005 16.3735 11.9184 16.3735 14.5808V15.2695C16.3735 15.4521 16.4461 15.6273 16.5752 15.7565C16.7044 15.8856 16.8796 15.9582 17.0622 15.9582C17.2449 15.9582 17.42 15.8856 17.5492 15.7565C17.6783 15.6273 17.7509 15.4521 17.7509 15.2695V14.5808C17.7509 11.1576 14.9759 8.38269 11.5528 8.38269Z" fill="#181818"/>
</svg>
