<svg width="20" height="20" viewBox="0 0 20 20" xmlns="http://www.w3.org/2000/svg">
<path fill-rule="evenodd" clip-rule="evenodd" d="M7.625 13.5C10.8697 13.5 13.5 10.8697 13.5 7.625C13.5 4.38033 10.8697 1.75 7.625 1.75C4.38033 1.75 1.75 4.38033 1.75 7.625C1.75 10.8697 4.38033 13.5 7.625 13.5ZM7.625 14.75C11.56 14.75 14.75 11.56 14.75 7.625C14.75 3.68997 11.56 0.5 7.625 0.5C3.68997 0.5 0.5 3.68997 0.5 7.625C0.5 11.56 3.68997 14.75 7.625 14.75Z"/>
<path fill-rule="evenodd" clip-rule="evenodd" d="M12.375 18.25C15.6197 18.25 18.25 15.6197 18.25 12.375C18.25 9.13033 15.6197 6.5 12.375 6.5C9.13033 6.5 6.5 9.13033 6.5 12.375C6.5 15.6197 9.13033 18.25 12.375 18.25ZM12.375 19.5C16.31 19.5 19.5 16.31 19.5 12.375C19.5 8.43997 16.31 5.25 12.375 5.25C8.43997 5.25 5.25 8.43997 5.25 12.375C5.25 16.31 8.43997 19.5 12.375 19.5Z"/>
</svg>
