<svg width="20" height="20" viewBox="0 0 20 20" xmlns="http://www.w3.org/2000/svg">
<path fill-rule="evenodd" clip-rule="evenodd" d="M8.05817 12.1464C10.5811 12.1464 12.6264 10.1011 12.6264 7.57818C12.6264 5.05525 10.5811 3.01 8.05817 3.01C5.53523 3.01 3.48999 5.05525 3.48999 7.57818C3.48999 10.1011 5.53523 12.1464 8.05817 12.1464ZM8.05817 13.3964C11.2715 13.3964 13.8764 10.7915 13.8764 7.57818C13.8764 4.36489 11.2715 1.76 8.05817 1.76C4.84488 1.76 2.23999 4.36489 2.23999 7.57818C2.23999 10.7915 4.84488 13.3964 8.05817 13.3964Z"/>
<path fill-rule="evenodd" clip-rule="evenodd" d="M11.9371 16.9945C14.46 16.9945 16.5053 14.9493 16.5053 12.4263C16.5053 9.90339 14.46 7.85815 11.9371 7.85815C9.41414 7.85815 7.3689 9.90339 7.3689 12.4263C7.3689 14.9493 9.41414 16.9945 11.9371 16.9945ZM11.9371 18.2445C15.1504 18.2445 17.7553 15.6396 17.7553 12.4263C17.7553 9.21304 15.1504 6.60815 11.9371 6.60815C8.72379 6.60815 6.1189 9.21304 6.1189 12.4263C6.1189 15.6396 8.72379 18.2445 11.9371 18.2445Z"/>
</svg>
