<svg width="20" height="20" viewBox="0 0 20 20" xmlns="http://www.w3.org/2000/svg">
<path fill-rule="evenodd" clip-rule="evenodd" d="M8.10709 1.63878C8.27896 1.1089 8.77259 0.75 9.3297 0.75C11.6695 0.75 13.4057 2.91936 12.8932 5.2023L12.7577 5.8056H14.6789C16.7981 5.8056 18.3505 7.80103 17.8291 9.85516L16.3827 15.5536C16.1294 16.5513 15.2312 17.25 14.2018 17.25H4.25C3.00737 17.25 2 16.2427 2 15V10C2 8.75747 3.00721 7.75 4.24995 7.75H6.12506L8.10709 1.63878ZM9.29611 2.02444L7.25801 8.30852C7.12428 8.72062 6.7409 9 6.3075 9H4.24995C3.69767 9 3.25 9.44773 3.25 10V15C3.25 15.5523 3.69771 16 4.25 16H14.2018C14.6594 16 15.0586 15.6895 15.1711 15.246L16.6175 9.54764C16.9383 8.28357 15.9831 7.0556 14.6789 7.0556H11.9768C11.787 7.0556 11.6074 6.96933 11.4888 6.82113C11.3702 6.67293 11.3254 6.47886 11.367 6.29365L11.6736 4.9285C12.0106 3.42688 10.8687 2 9.3297 2C9.31442 2 9.30085 2.00985 9.29611 2.02444Z"/>
<path fill-rule="evenodd" clip-rule="evenodd" d="M6.25 8.375C6.59518 8.375 6.875 8.65482 6.875 9V16C6.875 16.3452 6.59518 16.625 6.25 16.625C5.90482 16.625 5.625 16.3452 5.625 16V9C5.625 8.65482 5.90482 8.375 6.25 8.375Z"/>
</svg>
