<svg width="20" height="20" viewBox="0 0 20 20" xmlns="http://www.w3.org/2000/svg">
<path d="M8.59042 16.3821C8.59042 17.1612 9.22083 17.7917 10 17.7917C10.7792 17.7917 11.4096 17.1612 11.4096 16.3821H8.59042ZM10 5.75C11.955 5.75 13.5417 7.33667 13.5417 9.29167V14.25H6.45833V9.29167C6.45833 7.33667 8.045 5.75 10 5.75ZM10 2.5625C9.41208 2.5625 8.9375 3.03708 8.9375 3.625V4.45375C6.71333 4.93542 5.04167 6.91875 5.04167 9.29167V13.5417L3.625 14.9583V15.6667H16.375V14.9583L14.9583 13.5417V9.29167C14.9583 6.91875 13.2867 4.93542 11.0625 4.45375V3.625C11.0625 3.03708 10.5879 2.5625 10 2.5625ZM9.29167 7.16667H10.7083V10H9.29167V7.16667ZM9.29167 11.4167H10.7083V12.8333H9.29167V11.4167Z"/>
</svg>
