<svg width="20" height="20" viewBox="0 0 20 20" xmlns="http://www.w3.org/2000/svg">
<path fill-rule="evenodd" clip-rule="evenodd" d="M5.68363 17.5313C3.57371 17.5313 1.86279 15.8207 1.86279 13.7113L1.86279 9.64881C1.86279 7.53876 3.57358 5.82798 5.68363 5.82798H6.46113C6.87534 5.82798 7.21113 6.16376 7.21113 6.57798C7.21113 6.99219 6.87534 7.32798 6.46113 7.32798H5.68363C4.40201 7.32798 3.36279 8.36719 3.36279 9.64881L3.36279 13.7113C3.36279 14.992 4.40187 16.0313 5.68363 16.0313H14.9586C16.2404 16.0313 17.2795 14.992 17.2795 13.7113V9.64048C17.2795 8.36359 16.2441 7.32798 14.9678 7.32798H14.182C13.7677 7.32798 13.432 6.99219 13.432 6.57798C13.432 6.16376 13.7677 5.82798 14.182 5.82798H14.9678C17.0731 5.82798 18.7795 7.5357 18.7795 9.64048V13.7113C18.7795 15.8207 17.0685 17.5313 14.9586 17.5313H5.68363ZM10.321 11.7009C9.90683 11.7009 9.57104 11.3651 9.57104 10.9509V2.73326L8.42329 3.88613C8.13105 4.17967 7.65618 4.18073 7.36264 3.88849C7.06909 3.59625 7.06804 3.12137 7.36028 2.82783L9.78049 0.39682C9.91694 0.254986 10.1087 0.166729 10.321 0.166729C10.5356 0.166729 10.7291 0.256815 10.8658 0.401226L13.2824 2.82774C13.5747 3.12123 13.5737 3.59611 13.2802 3.8884C12.9867 4.18069 12.5118 4.17971 12.2195 3.88622L11.071 2.733L11.071 10.9509C11.071 11.3651 10.7353 11.7009 10.321 11.7009Z"/>
</svg>
