<svg width="20" height="20" viewBox="0 0 20 20" xmlns="http://www.w3.org/2000/svg">
<path d="M8 11V8.70865L14.0723 2.63635L14.7579 1.9507L17.0493 4.24205L16.8643 4.42708L10.2913 11H8ZM18.8213 1.60853C19.0596 1.84683 19.0596 2.23177 18.8213 2.47007L17.7031 3.58825L17.1936 3.07876L16.6756 2.56072L15.4117 1.2969L16.5299 0.178725C16.7682 -0.0595751 17.1532 -0.0595751 17.3915 0.178725L18.8213 1.60853ZM17.118 14V7.00181L18.118 6.00181V14C18.118 16.2091 16.3271 18 14.118 18H5.75433C3.54519 18 1.75433 16.2091 1.75433 14V5.63635C1.75433 3.42721 3.54519 1.63635 5.75433 1.63635H12.2439L11.2439 2.63635H5.75433C4.09748 2.63635 2.75433 3.9795 2.75433 5.63635V14C2.75433 15.6568 4.09748 17 5.75433 17H14.118C15.7748 17 17.118 15.6568 17.118 14Z"/>
</svg>
