<svg width="22" height="22" viewBox="0 0 22 22" xmlns="http://www.w3.org/2000/svg">
    <path d="M5.80878 9.83234C7.19825 12.563 9.43685 14.792 12.1675 16.1911L14.2904 14.0683C14.5509 13.8078 14.9368 13.7209 15.2746 13.8367C16.3553 14.1937 17.5228 14.3867 18.7193 14.3867C19.25 14.3867 19.6842 14.8209 19.6842 15.3516V18.7192C19.6842 19.2499 19.25 19.6841 18.7193 19.6841C9.65878 19.6841 2.3158 12.3411 2.3158 3.28059C2.3158 2.74988 2.75001 2.31567 3.28071 2.31567H6.6579C7.1886 2.31567 7.62281 2.74988 7.62281 3.28059C7.62281 4.48673 7.81579 5.64462 8.17281 6.72532C8.27895 7.06304 8.20176 7.43936 7.93158 7.70953L5.80878 9.83234Z"/>
</svg>
