<svg width="22" height="22" viewBox="0 0 22 22" xmlns="http://www.w3.org/2000/svg">
    <path d="M3.96592 13.0525C3.96592 11.4685 5.17302 10.1809 6.65802 10.1809H10.1317V8.4209H6.65802C4.26118 8.4209 2.31592 10.4958 2.31592 13.0525C2.31592 15.6091 4.26118 17.6841 6.65802 17.6841H10.1317V15.9241H6.65802C5.17302 15.9241 3.96592 14.6365 3.96592 13.0525ZM7.52644 13.9788H14.4738V12.1262H7.52644V13.9788ZM15.3422 8.4209H11.8685V10.1809H15.3422C16.8272 10.1809 18.0343 11.4685 18.0343 13.0525C18.0343 14.6365 16.8272 15.9241 15.3422 15.9241H11.8685V17.6841H15.3422C17.7391 17.6841 19.6843 15.6091 19.6843 13.0525C19.6843 10.4958 17.7391 8.4209 15.3422 8.4209Z"/>
</svg>
