<svg width="22" height="22" viewBox="0 0 22 22" xmlns="http://www.w3.org/2000/svg">
    <path d="M14.1581 13.0678C15.4684 13.0678 16.5185 11.9593 16.5185 10.5865C16.5185 9.21303 15.4684 8.10522 14.1581 8.10522C12.8478 8.10522 11.7896 9.21303 11.7896 10.5865C11.7896 11.9593 12.8478 13.0678 14.1581 13.0678ZM7.84193 13.0678C9.15297 13.0678 10.2031 11.9593 10.2031 10.5865C10.2031 9.21303 9.15297 8.10522 7.84193 8.10522C6.53163 8.10522 5.47348 9.21303 5.47348 10.5865C5.47348 11.9593 6.53163 13.0678 7.84193 13.0678ZM7.84193 14.7216C6.00255 14.7216 2.3158 15.6896 2.3158 17.6167V19.6842H13.3688V17.6167C13.3688 15.6896 9.68204 14.7216 7.84193 14.7216ZM14.1581 14.7216C13.9292 14.7216 13.6684 14.7383 13.3922 14.7635C14.3082 15.4583 14.9473 16.3928 14.9473 17.6167V19.6842H19.6842V17.6167C19.6842 15.6896 15.9975 14.7216 14.1581 14.7216Z"/>
</svg>
