<svg width="22" height="22" viewBox="0 0 22 22" xmlns="http://www.w3.org/2000/svg">
    <path d="M13.8947 10.5272V5.04243L11 2.30005L8.10527 5.04243V6.87069H2.3158V19.6685H19.6842V10.5272H13.8947ZM6.17544 17.8402H4.24562V16.012H6.17544V17.8402ZM6.17544 14.1837H4.24562V12.3555H6.17544V14.1837ZM6.17544 10.5272H4.24562V8.69894H6.17544V10.5272ZM11.9649 17.8402H10.0351V16.012H11.9649V17.8402ZM11.9649 14.1837H10.0351V12.3555H11.9649V14.1837ZM11.9649 10.5272H10.0351V8.69894H11.9649V10.5272ZM11.9649 6.87069H10.0351V5.04243H11.9649V6.87069ZM17.7544 17.8402H15.8246V16.012H17.7544V17.8402ZM17.7544 14.1837H15.8246V12.3555H17.7544V14.1837Z"/>
</svg>
