<svg width="22" height="22" viewBox="0 0 22 22" xmlns="http://www.w3.org/2000/svg">
<path fill-rule="evenodd" clip-rule="evenodd" d="M8.25 15.25C12.116 15.25 15.25 12.116 15.25 8.25C15.25 4.38401 12.116 1.25 8.25 1.25C4.38401 1.25 1.25 4.38401 1.25 8.25C1.25 12.116 4.38401 15.25 8.25 15.25ZM8.25 16.5C12.8063 16.5 16.5 12.8063 16.5 8.25C16.5 3.69365 12.8063 0 8.25 0C3.69365 0 0 3.69365 0 8.25C0 12.8063 3.69365 16.5 8.25 16.5Z"/>
<path fill-rule="evenodd" clip-rule="evenodd" d="M13.75 20.75C17.616 20.75 20.75 17.616 20.75 13.75C20.75 9.88401 17.616 6.75 13.75 6.75C9.88401 6.75 6.75 9.88401 6.75 13.75C6.75 17.616 9.88401 20.75 13.75 20.75ZM13.75 22C18.3063 22 22 18.3063 22 13.75C22 9.19365 18.3063 5.5 13.75 5.5C9.19365 5.5 5.5 9.19365 5.5 13.75C5.5 18.3063 9.19365 22 13.75 22Z"/>
</svg>
