<svg width="16" height="16" viewBox="0 0 16 16" xmlns="http://www.w3.org/2000/svg">
<path d="M7.57895 0L2.94737 7.2H12.2105L7.57895 0ZM7.57895 3.072L9.20421 5.6H5.94526L7.57895 3.072ZM12.2105 8.8C10.1137 8.8 8.42105 10.408 8.42105 12.4C8.42105 14.392 10.1137 16 12.2105 16C14.3074 16 16 14.392 16 12.4C16 10.408 14.3074 8.8 12.2105 8.8ZM12.2105 14.4C11.0484 14.4 10.1053 13.504 10.1053 12.4C10.1053 11.296 11.0484 10.4 12.2105 10.4C13.3726 10.4 14.3158 11.296 14.3158 12.4C14.3158 13.504 13.3726 14.4 12.2105 14.4ZM0 15.6H6.73684V9.2H0V15.6ZM1.68421 10.8H5.05263V14H1.68421V10.8Z"/>
</svg>
