<svg width="24" height="24" viewBox="0 0 24 24" xmlns="http://www.w3.org/2000/svg">
<path fill-rule="evenodd" clip-rule="evenodd" d="M5.95508 7.635C5.95508 5.631 7.58608 4 9.59108 4C11.5951 4 13.2261 5.631 13.2261 7.638C13.2301 8.604 12.8571 9.515 12.1751 10.2C11.4941 10.887 10.5861 11.266 9.62208 11.27H9.59108C7.58608 11.27 5.95508 9.639 5.95508 7.635ZM4.45508 7.635C4.45508 10.466 6.75908 12.77 9.59108 12.77H9.62508C10.9921 12.765 12.2771 12.228 13.2391 11.257C14.2031 10.287 14.7321 8.999 14.7261 7.635C14.7261 4.804 12.4221 2.5 9.59108 2.5C6.75908 2.5 4.45508 4.804 4.45508 7.635ZM3.5 18.019C3.5 16.314 6.813 15.957 9.592 15.957C13.634 15.957 15.684 16.644 15.684 17.999C15.684 19.364 13.634 20.057 9.592 20.057C5.55 20.057 3.5 19.371 3.5 18.019ZM2 18.019C2 21.557 7.516 21.557 9.592 21.557C11.47 21.557 17.184 21.557 17.184 17.999C17.184 14.824 12.851 14.457 9.592 14.457C7.714 14.457 2 14.457 2 18.019ZM16.4817 11.6318C16.1137 11.6318 15.7927 11.3608 15.7397 10.9858C15.6827 10.5758 15.9677 10.1958 16.3777 10.1388C17.6257 9.96377 18.5677 8.88077 18.5697 7.61877C18.5697 6.36477 17.6717 5.30677 16.4367 5.10477C16.0277 5.03677 15.7507 4.65177 15.8177 4.24277C15.8847 3.83377 16.2717 3.55877 16.6787 3.62377C18.6437 3.94577 20.0697 5.62677 20.0697 7.61977C20.0657 9.62477 18.5687 11.3468 16.5867 11.6248C16.5517 11.6298 16.5167 11.6318 16.4817 11.6318ZM19.195 18.4769C19.308 18.7759 19.593 18.9609 19.896 18.9609C19.985 18.9609 20.075 18.9449 20.162 18.9119C21.665 18.3429 21.98 17.3559 21.98 16.6269C21.98 15.6479 21.413 14.3949 18.707 13.9899C18.305 13.9369 17.916 14.2119 17.854 14.6219C17.793 15.0309 18.076 15.4129 18.486 15.4749C19.809 15.6719 20.48 16.0599 20.48 16.6269C20.48 16.7949 20.48 17.1879 19.63 17.5099C19.243 17.6559 19.048 18.0899 19.195 18.4769Z"/>
</svg>
