<svg width="24" height="24" viewBox="0 0 24 24" xmlns="http://www.w3.org/2000/svg">
<path fill-rule="evenodd" clip-rule="evenodd" d="M8.22493 10.6802C6.76651 10.6802 5.58422 11.8947 5.58422 13.3928C5.58422 14.8909 6.76651 16.1054 8.22493 16.1054C9.68335 16.1054 10.8656 14.8909 10.8656 13.3928C10.8656 11.8947 9.68335 10.6802 8.22493 10.6802ZM4.36788 13.3928C4.36788 11.2046 6.09474 9.43075 8.22493 9.43075C10.3551 9.43075 12.082 11.2046 12.082 13.3928C12.082 15.581 10.3551 17.3548 8.22493 17.3548C6.09474 17.3548 4.36788 15.581 4.36788 13.3928Z"/>
<path fill-rule="evenodd" clip-rule="evenodd" d="M8.56693 17.3586C7.42986 17.4028 6.34827 17.8861 5.5407 18.7157C4.69272 19.5867 4.21634 20.7681 4.21634 22H3C3 20.4368 3.60453 18.9376 4.68061 17.8322C5.6758 16.8099 6.99892 16.2019 8.39598 16.1163V16.1058C8.45301 16.1058 8.51 16.1067 8.56693 16.1084C8.62384 16.1067 8.68086 16.1058 8.73797 16.1058V16.1163C9.37455 16.1553 10.0012 16.3032 10.5918 16.5545C11.288 16.8507 11.9205 17.2849 12.4533 17.8322C12.9862 18.3795 13.4088 19.0293 13.6972 19.7444C13.9855 20.4595 14.134 21.226 14.134 22H12.9176C12.9176 21.39 12.8007 20.7861 12.5734 20.2225C12.3462 19.659 12.0131 19.147 11.5933 18.7157C11.1734 18.2844 10.6749 17.9423 10.1263 17.7088C9.63045 17.4978 9.10238 17.3794 8.56693 17.3586Z"/>
<path fill-rule="evenodd" clip-rule="evenodd" d="M16.091 2.24945C14.6326 2.24945 13.4503 3.46392 13.4503 4.96205C13.4503 6.46017 14.6326 7.67464 16.091 7.67464C17.5494 7.67464 18.7317 6.46017 18.7317 4.96205C18.7317 3.46392 17.5494 2.24945 16.091 2.24945ZM12.2339 4.96205C12.2339 2.77387 13.9608 1 16.091 1C18.2212 1 19.948 2.77387 19.948 4.96205C19.948 7.15023 18.2212 8.9241 16.091 8.9241C13.9608 8.9241 12.2339 7.15023 12.2339 4.96205Z"/>
<path fill-rule="evenodd" clip-rule="evenodd" d="M16.433 8.92691C13.9761 9.01253 12.0824 10.936 12.0824 13.2174H10.866C10.866 10.2271 13.2857 7.85414 16.262 7.68423V7.67449C16.3192 7.67449 16.3762 7.6753 16.433 7.67692C16.4898 7.6753 16.5468 7.67449 16.604 7.67449V7.68423C19.5803 7.85414 22 10.2271 22 13.2174H20.7837C20.7837 10.936 18.8899 9.01253 16.433 8.92691Z"/>
</svg>
