<svg width="24" height="24" viewBox="0 0 24 24" xmlns="http://www.w3.org/2000/svg">
<path fill-rule="evenodd" clip-rule="evenodd" d="M18.6145 11.98C18.2089 11.98 17.855 11.6813 17.7966 11.2679C17.7338 10.8149 18.0479 10.3971 18.501 10.3343C19.6474 10.1733 20.5127 9.17904 20.5149 8.0194C20.5149 6.86969 19.6904 5.89744 18.5539 5.71115C18.1041 5.63729 17.7988 5.2118 17.8727 4.76095C17.9476 4.3101 18.3698 4.00807 18.8229 4.07972C20.7607 4.39829 22.1684 6.05617 22.1684 8.02161C22.164 10.0003 20.6858 11.6978 18.7292 11.9723C18.6906 11.9778 18.652 11.98 18.6145 11.98"/>
<path fill-rule="evenodd" clip-rule="evenodd" d="M21.8935 19.018C21.5606 19.018 21.2464 18.8152 21.1207 18.4856C20.9576 18.059 21.1726 17.5806 21.5992 17.4185C22.3465 17.1341 22.3465 16.82 22.3465 16.669C22.3465 16.1861 21.7325 15.8488 20.5222 15.6681C20.0713 15.5997 19.7594 15.1797 19.8266 14.7267C19.8939 14.2747 20.3127 13.9738 20.768 14.0322C23.4389 14.4324 24 15.6868 24 16.669C24 17.2686 23.7641 18.3632 22.1878 18.964C22.0908 19.0004 21.9916 19.018 21.8935 19.018"/>
<path fill-rule="evenodd" clip-rule="evenodd" d="M12.0005 16.133C9.3814 16.133 6.25853 16.4549 6.25853 17.9871C6.25853 19.5315 9.3814 19.8555 12.0005 19.8555C14.6196 19.8555 17.7414 19.5348 17.7414 18.0059C17.7414 16.4582 14.6196 16.133 12.0005 16.133M12.0005 21.509C10.1718 21.509 4.60507 21.509 4.60507 17.9871C4.60507 14.4795 10.1718 14.4795 12.0005 14.4795C13.8293 14.4795 19.3949 14.4795 19.3949 18.0059C19.3949 21.509 14.0233 21.509 12.0005 21.509"/>
<path fill-rule="evenodd" clip-rule="evenodd" d="M12.0005 4.65348C10.1354 4.65348 8.61861 6.17137 8.61861 8.03649C8.6153 8.94039 8.96143 9.78587 9.59526 10.4241C10.2291 11.0624 11.0735 11.4162 11.973 11.4195L12.0005 12.2462V11.4195C13.8656 11.4195 15.3835 9.90272 15.3835 8.03649C15.3835 6.17137 13.8656 4.65348 12.0005 4.65348M12.0005 13.073H11.9708C10.6259 13.0686 9.36598 12.5417 8.4224 11.5893C7.47661 10.638 6.95962 9.37471 6.96513 8.03318C6.96513 5.25975 9.22378 3 12.0005 3C14.7784 3 17.037 5.25975 17.037 8.03649C17.037 10.8132 14.7784 13.073 12.0005 13.073"/>
<path fill-rule="evenodd" clip-rule="evenodd" d="M5.38547 11.98C5.34799 11.98 5.30941 11.9778 5.27083 11.9723C3.31422 11.6978 1.83711 10.0003 1.8327 8.02381C1.8327 6.05618 3.24036 4.39829 5.17824 4.07972C5.64231 4.00697 6.05348 4.31231 6.12844 4.76095C6.20229 5.2118 5.89695 5.6373 5.4472 5.71115C4.31071 5.89744 3.48618 6.86969 3.48618 8.02161C3.48838 9.17904 4.3537 10.1744 5.49901 10.3343C5.95206 10.3971 6.26623 10.8149 6.20339 11.2679C6.14497 11.6813 5.79113 11.98 5.38547 11.98"/>
<path fill-rule="evenodd" clip-rule="evenodd" d="M2.10763 19.018C2.00953 19.018 1.91032 19.0004 1.81331 18.964C0.235896 18.3621 0 17.2675 0 16.669C0 15.6879 0.56108 14.4324 3.2331 14.0322C3.68836 13.9749 4.10503 14.2747 4.17338 14.7267C4.24062 15.1797 3.92866 15.5997 3.47781 15.6681C2.26747 15.8488 1.65348 16.1861 1.65348 16.669C1.65348 16.82 1.65348 17.133 2.40195 17.4185C2.82855 17.5806 3.0435 18.059 2.88036 18.4856C2.75469 18.8152 2.44053 19.018 2.10763 19.018"/>
</svg>
