<svg width="24" height="24" viewBox="0 0 24 24" xmlns="http://www.w3.org/2000/svg">
<path d="M5.70402 14.0331C5.73252 14.4464 5.42063 14.8045 5.0074 14.833C4.56521 14.8635 4.12733 14.926 3.6978 15.0227L3.67723 15.027C3.38533 15.0842 3.09989 15.1664 2.87243 15.2799C2.64025 15.3958 2.53821 15.5088 2.499 15.5912L2.4984 15.5925C2.41752 15.7617 2.41718 15.9596 2.49871 16.1306L2.49941 16.1321C2.53805 16.2136 2.63941 16.3264 2.87298 16.4434C3.10176 16.5579 3.38878 16.6416 3.6842 16.7024C4.08992 16.7858 4.35119 17.1823 4.26776 17.5881C4.18433 17.9938 3.78779 18.2551 3.38207 18.1716C3.02665 18.0985 2.59637 17.9824 2.20137 17.7846C1.81133 17.5893 1.38263 17.2774 1.14437 16.7754C0.86885 16.197 0.868525 15.5247 1.14473 14.9463C1.38332 14.4452 1.81139 14.133 2.2026 13.9378C2.59488 13.742 3.02178 13.6275 3.37862 13.557C3.88262 13.4442 4.39282 13.3718 4.9042 13.3365C5.31743 13.308 5.67552 13.6199 5.70402 14.0331ZM18.1809 14.0331C18.2094 13.6199 18.5675 13.308 18.9807 13.3365C19.4921 13.3718 20.0023 13.4442 20.5063 13.557C20.8631 13.6275 21.29 13.742 21.6823 13.9377C22.0738 14.133 22.5019 14.4451 22.741 14.9461L22.7414 14.947C23.0163 15.525 23.0159 16.1967 22.7417 16.7748L22.7414 16.7756C22.5027 17.2774 22.0739 17.5893 21.6836 17.7847C21.2885 17.9824 20.8583 18.0985 20.5028 18.1716C20.0971 18.2551 19.7006 17.9938 19.6171 17.5881C19.5337 17.1823 19.795 16.7858 20.2007 16.7024C20.4961 16.6416 20.7832 16.5579 21.0121 16.4433C21.2455 16.3265 21.3475 16.2137 21.3866 16.1316C21.4679 15.9601 21.4675 15.7614 21.387 15.5916L21.3872 15.5921L22.0641 15.2691L21.3868 15.5911L21.387 15.5916C21.3472 15.5086 21.2445 15.3956 21.0127 15.28C20.7851 15.1664 20.4996 15.0842 20.2077 15.027L20.1871 15.0227C19.7576 14.926 19.3197 14.8635 18.8775 14.833C18.4643 14.8045 18.1524 14.4464 18.1809 14.0331ZM6.66711 17.1845C6.66711 16.8894 6.76259 16.6734 6.94129 16.4861C7.13728 16.2807 7.46071 16.0842 7.94443 15.9198C8.91973 15.5882 10.3223 15.4595 11.9378 15.4595C13.5453 15.4595 14.9487 15.584 15.9272 15.9121C16.4127 16.0749 16.7375 16.2698 16.9342 16.474C17.1131 16.6597 17.2084 16.8736 17.2084 17.1671C17.2084 17.462 17.113 17.6779 16.9343 17.8652C16.7383 18.0706 16.4148 18.2671 15.9311 18.4316C14.9558 18.7633 13.5531 18.8921 11.9378 18.8921C10.3298 18.8921 8.9264 18.7677 7.948 18.4396C7.4626 18.2768 7.13792 18.0819 6.9413 17.8778C6.76246 17.6921 6.66711 17.4781 6.66711 17.1845ZM11.9378 13.9595C10.2881 13.9595 8.68034 14.0853 7.46159 14.4996C6.84829 14.7081 6.27877 15.0076 5.85607 15.4506C5.41607 15.9117 5.16711 16.4966 5.16711 17.1845C5.16711 17.8741 5.41838 18.4589 5.86096 18.9184C6.28575 19.3594 6.85728 19.6559 7.47108 19.8618C8.69108 20.2709 10.298 20.3921 11.9378 20.3921C13.5876 20.3921 15.1953 20.2662 16.414 19.8517C17.0273 19.6431 17.5968 19.3437 18.0195 18.9008C18.4594 18.4397 18.7084 17.8549 18.7084 17.1671C18.7084 16.4775 18.4571 15.8927 18.0144 15.4333C17.5896 14.9923 17.018 14.6957 16.4041 14.4899C15.184 14.0808 13.5771 13.9595 11.9378 13.9595Z"/>
<path fill="#545454" opacity="0.4" fill-rule="evenodd" clip-rule="evenodd" d="M8.82953 8.04575C8.82953 6.31863 10.2107 4.9375 11.9378 4.9375C13.6649 4.9375 15.046 6.31863 15.046 8.04575C15.046 9.7739 13.6648 11.1549 11.9378 11.1549C10.2108 11.1549 8.82953 9.7739 8.82953 8.04575ZM11.9378 3.4375C9.38223 3.4375 7.32953 5.4902 7.32953 8.04575C7.32953 10.6021 9.38212 12.6549 11.9378 12.6549C14.4934 12.6549 16.546 10.6021 16.546 8.04575C16.546 5.4902 14.4933 3.4375 11.9378 3.4375ZM6.29001 5.87937C5.10159 5.87937 4.13785 6.84281 4.13785 8.03062C4.13785 9.21843 5.10159 10.1819 6.29001 10.1819C6.70423 10.1819 7.04001 10.5177 7.04001 10.9319C7.04001 11.3461 6.70423 11.6819 6.29001 11.6819C4.27378 11.6819 2.63785 10.0475 2.63785 8.03062C2.63785 6.01377 4.27378 4.37937 6.29001 4.37937C6.70423 4.37937 7.04001 4.71516 7.04001 5.12937C7.04001 5.54359 6.70423 5.87937 6.29001 5.87937ZM16.8449 5.12937C16.8449 4.71516 17.1807 4.37937 17.5949 4.37937C19.6111 4.37937 21.247 6.01377 21.247 8.03062C21.247 10.0475 19.6111 11.6819 17.5949 11.6819C17.1807 11.6819 16.8449 11.3461 16.8449 10.9319C16.8449 10.5177 17.1807 10.1819 17.5949 10.1819C18.7833 10.1819 19.747 9.21843 19.747 8.03062C19.747 6.84281 18.7833 5.87937 17.5949 5.87937C17.1807 5.87937 16.8449 5.54359 16.8449 5.12937Z"/>
</svg>
