<svg width="24" height="24" viewBox="0 0 24 24" xmlns="http://www.w3.org/2000/svg">
<path fill-rule="evenodd" clip-rule="evenodd" d="M17.8868 12.1465C17.5188 12.1465 17.1978 11.8755 17.1448 11.5005C17.0878 11.0895 17.3728 10.7105 17.7838 10.6535C18.8238 10.5075 19.6088 9.6055 19.6108 8.5535C19.6108 7.5105 18.8628 6.6285 17.8318 6.4595C17.4238 6.3925 17.1468 6.0065 17.2138 5.5975C17.2818 5.1885 17.6648 4.9145 18.0758 4.9795C19.8338 5.2685 21.1108 6.7725 21.1108 8.5555C21.1068 10.3505 19.7658 11.8905 17.9908 12.1395C17.9558 12.1445 17.9208 12.1465 17.8868 12.1465"/>
<path fill-rule="evenodd" clip-rule="evenodd" d="M20.8614 18.5312C20.5594 18.5312 20.2744 18.3472 20.1604 18.0482C20.0124 17.6612 20.2074 17.2272 20.5944 17.0802C21.2724 16.8222 21.2724 16.5372 21.2724 16.4002C21.2724 15.9622 20.7154 15.6562 19.6174 15.4922C19.2084 15.4302 18.9254 15.0492 18.9864 14.6382C19.0474 14.2282 19.4274 13.9552 19.8404 14.0082C22.2634 14.3712 22.7724 15.5092 22.7724 16.4002C22.7724 16.9442 22.5584 17.9372 21.1284 18.4822C21.0404 18.5152 20.9504 18.5312 20.8614 18.5312"/>
<path fill-rule="evenodd" clip-rule="evenodd" d="M11.8867 15.914C9.5107 15.914 6.6777 16.206 6.6777 17.596C6.6777 18.997 9.5107 19.291 11.8867 19.291C14.2627 19.291 17.0947 19 17.0947 17.613C17.0947 16.209 14.2627 15.914 11.8867 15.914M11.8867 20.791C10.2277 20.791 5.1777 20.791 5.1777 17.596C5.1777 14.414 10.2277 14.414 11.8867 14.414C13.5457 14.414 18.5947 14.414 18.5947 17.613C18.5947 20.791 13.7217 20.791 11.8867 20.791"/>
<path fill-rule="evenodd" clip-rule="evenodd" d="M11.8867 5.5C10.1947 5.5 8.8187 6.877 8.8187 8.569C8.8157 9.389 9.1297 10.156 9.7047 10.735C10.2797 11.314 11.0457 11.635 11.8617 11.638L11.8867 12.388V11.638C13.5787 11.638 14.9557 10.262 14.9557 8.569C14.9557 6.877 13.5787 5.5 11.8867 5.5M11.8867 13.138H11.8597C10.6397 13.134 9.4967 12.656 8.6407 11.792C7.7827 10.929 7.3137 9.783 7.3187 8.566C7.3187 6.05 9.3677 4 11.8867 4C14.4067 4 16.4557 6.05 16.4557 8.569C16.4557 11.088 14.4067 13.138 11.8867 13.138"/>
<path fill-rule="evenodd" clip-rule="evenodd" d="M5.88569 12.1465C5.85169 12.1465 5.81669 12.1445 5.78169 12.1395C4.00669 11.8905 2.66669 10.3505 2.66269 8.5575C2.66269 6.7725 3.93969 5.2685 5.69769 4.9795C6.11869 4.9135 6.49169 5.1905 6.55969 5.5975C6.62669 6.0065 6.34969 6.3925 5.94169 6.4595C4.91069 6.6285 4.16269 7.5105 4.16269 8.5555C4.16469 9.6055 4.94969 10.5085 5.98869 10.6535C6.39969 10.7105 6.68469 11.0895 6.62769 11.5005C6.57469 11.8755 6.25369 12.1465 5.88569 12.1465"/>
<path fill-rule="evenodd" clip-rule="evenodd" d="M2.91209 18.5312C2.82309 18.5312 2.73309 18.5152 2.64509 18.4822C1.21409 17.9362 1.00009 16.9432 1.00009 16.4002C1.00009 15.5102 1.50909 14.3712 3.93309 14.0082C4.34609 13.9562 4.72409 14.2282 4.78609 14.6382C4.84709 15.0492 4.56409 15.4302 4.15509 15.4922C3.05709 15.6562 2.50009 15.9622 2.50009 16.4002C2.50009 16.5372 2.50009 16.8212 3.17909 17.0802C3.56609 17.2272 3.76109 17.6612 3.61309 18.0482C3.49909 18.3472 3.21409 18.5312 2.91209 18.5312"/>
</svg>
