<svg width="24" height="24" viewBox="0 0 24 24" xmlns="http://www.w3.org/2000/svg">
<path fill-rule="evenodd" clip-rule="evenodd" d="M7.54925 15.1745C7.40971 15.1745 7.26929 15.1302 7.15069 15.0398C6.86463 14.8198 6.81056 14.4103 7.03121 14.1251L9.64147 10.743C9.74787 10.6048 9.90572 10.5152 10.0784 10.4935C10.2546 10.4709 10.4273 10.5196 10.5642 10.6282L13.0236 12.554L15.1751 9.78662C15.3966 9.50058 15.8065 9.44754 16.0926 9.67012C16.3786 9.89096 16.4309 10.3005 16.2094 10.5848L13.6541 13.8712C13.5477 14.0086 13.3907 14.0982 13.218 14.119C13.0436 14.1425 12.8709 14.0921 12.7331 13.9851L10.2755 12.0602L8.06816 14.9198C7.93908 15.0867 7.74547 15.1745 7.54925 15.1745"/>
<path fill-rule="evenodd" clip-rule="evenodd" d="M18.6698 4.30417C18.1064 4.30417 17.6477 4.76063 17.6477 5.32316C17.6477 5.88482 18.1064 6.34301 18.6698 6.34301C19.2332 6.34301 19.6919 5.88482 19.6919 5.32316C19.6919 4.76063 19.2332 4.30417 18.6698 4.30417M18.6698 7.64715C17.3852 7.64715 16.3395 6.6047 16.3395 5.32314C16.3395 4.04159 17.3852 3 18.6698 3C19.9553 3 21.0001 4.04159 21.0001 5.32314C21.0001 6.6047 19.9553 7.64715 18.6698 7.64715"/>
<path fill-rule="evenodd" clip-rule="evenodd" d="M15.4129 21.0001H7.90918C4.97274 21.0001 3 18.9439 3 15.8835V8.85668C3 5.7919 4.97274 3.7322 7.90918 3.7322H14.2478C14.6088 3.7322 14.9019 4.02433 14.9019 4.38428C14.9019 4.74423 14.6088 5.03636 14.2478 5.03636H7.90918C5.7219 5.03636 4.30818 6.53527 4.30818 8.85668V15.8835C4.30818 18.2353 5.68788 19.696 7.90918 19.696H15.4129C17.6002 19.696 19.0139 18.1997 19.0139 15.8835V9.7635C19.0139 9.40355 19.3069 9.11142 19.668 9.11142C20.0291 9.11142 20.3221 9.40355 20.3221 9.7635V15.8835C20.3221 18.9439 18.3494 21.0001 15.4129 21.0001"/>
</svg>
