<svg width="24" height="24" viewBox="0 0 24 24" xmlns="http://www.w3.org/2000/svg">
<path fill-rule="evenodd" clip-rule="evenodd" d="M5.41 7.76588C5.41 7.37603 5.72604 7.06 6.11589 7.06H17.8806C18.2704 7.06 18.5865 7.37603 18.5865 7.76588C18.5865 8.15573 18.2704 8.47176 17.8806 8.47176H6.11589C5.72604 8.47176 5.41 8.15573 5.41 7.76588ZM5.41 16.2365C5.41 15.8466 5.72604 15.5306 6.11589 15.5306H17.8806C18.2704 15.5306 18.5865 15.8466 18.5865 16.2365C18.5865 16.6263 18.2704 16.9423 17.8806 16.9423H6.11589C5.72604 16.9423 5.41 16.6263 5.41 16.2365ZM6.11589 11.2953C5.72604 11.2953 5.41 11.6113 5.41 12.0012C5.41 12.391 5.72604 12.7071 6.11589 12.7071H17.8806C18.2704 12.7071 18.5865 12.391 18.5865 12.0012C18.5865 11.6113 18.2704 11.2953 17.8806 11.2953H6.11589Z"/>
</svg>
