<svg width="24" height="24" viewBox="0 0 24 24" xmlns="http://www.w3.org/2000/svg">
<path fill-rule="evenodd" clip-rule="evenodd" d="M14.7729 9.55551C14.7729 9.96951 15.1089 10.3055 15.5229 10.3055C15.9369 10.3055 16.2729 9.96951 16.2729 9.55551V7.97461H16.492C18.426 7.97461 20 9.54661 20 11.4796V16.9956C20 18.9276 18.426 20.4996 16.492 20.4996H7.008C5.074 20.4996 3.5 18.9276 3.5 16.9956V11.4796C3.5 9.54661 5.074 7.97461 7.008 7.97461H7.21094V9.55551C7.21094 9.96951 7.54694 10.3055 7.96094 10.3055C8.37494 10.3055 8.71094 9.96951 8.71094 9.55551V7.97461H14.7729V9.55551ZM16.2726 6.47461C16.2463 4.00303 14.2286 1.99951 11.7539 1.99951C10.5599 2.03451 9.40794 2.45951 8.54994 3.31051C7.70234 4.14923 7.22862 5.26445 7.21139 6.47461H7.008C4.247 6.47461 2 8.71961 2 11.4796V16.9956C2 19.7546 4.247 21.9996 7.008 21.9996H16.492C19.254 21.9996 21.5 19.7546 21.5 16.9956V11.4796C21.5 8.71961 19.254 6.47461 16.492 6.47461H16.2726ZM8.71125 6.47461H14.7725C14.7463 4.83005 13.4016 3.49951 11.7509 3.49951C10.9399 3.52751 10.1799 3.80751 9.60594 4.37551C9.03998 4.93654 8.7229 5.68033 8.71125 6.47461Z"/>
</svg>
