<svg width="24" height="24" viewBox="0 0 24 24" fill="none" xmlns="http://www.w3.org/2000/svg">
<rect width="24" height="24" fill="white"/>
<path fill-rule="evenodd" clip-rule="evenodd" d="M3.5 6.25C3.5 3.708 3.5 3.5 6.25 3.5C9 3.5 9 3.708 9 6.274C9 7.382 9 8.182 8.729 8.519C8.464 8.847 7.677 9 6.25 9C4.823 9 4.036 8.848 3.771 8.52C3.5 8.182 3.5 7.382 3.5 6.275V6.25ZM2.604 9.46C3.299 10.323 4.564 10.5 6.25 10.5C7.936 10.5 9.201 10.323 9.896 9.46C10.5 8.711 10.5 7.688 10.5 6.25C10.5 3.38 10.319 2 6.25 2C2.181 2 2 3.38 2 6.25H2.75L2 6.275C2 7.689 2 8.711 2.604 9.46ZM14.5 6.25C14.5 3.708 14.5 3.5 17.25 3.5C20 3.5 20 3.708 20 6.274C20 7.382 20 8.182 19.729 8.519C19.464 8.847 18.677 9 17.25 9C15.823 9 15.036 8.848 14.771 8.52C14.5 8.182 14.5 7.382 14.5 6.275V6.25ZM13.604 9.46C14.299 10.323 15.564 10.5 17.25 10.5C18.936 10.5 20.201 10.323 20.896 9.46C21.5 8.711 21.5 7.688 21.5 6.25C21.5 3.38 21.319 2 17.25 2C13.181 2 13 3.38 13 6.25H13.75L13 6.275C13 7.689 13 8.711 13.604 9.46ZM6.25 14.5C3.5 14.5 3.5 14.708 3.5 17.25V17.275C3.5 18.382 3.5 19.182 3.771 19.52C4.036 19.848 4.823 20 6.25 20C7.677 20 8.464 19.847 8.729 19.519C9 19.182 9 18.382 9 17.274C9 14.708 9 14.5 6.25 14.5ZM6.25 21.5C4.564 21.5 3.299 21.323 2.604 20.46C2 19.711 2 18.689 2 17.275L2.75 17.25H2C2 14.38 2.181 13 6.25 13C10.319 13 10.5 14.38 10.5 17.25C10.5 18.688 10.5 19.711 9.896 20.46C9.201 21.323 7.936 21.5 6.25 21.5ZM14.5 17.25C14.5 14.708 14.5 14.5 17.25 14.5C20 14.5 20 14.708 20 17.274C20 18.382 20 19.182 19.729 19.519C19.464 19.847 18.677 20 17.25 20C15.823 20 15.036 19.848 14.771 19.52C14.5 19.182 14.5 18.382 14.5 17.275V17.25ZM13.604 20.46C14.299 21.323 15.564 21.5 17.25 21.5C18.936 21.5 20.201 21.323 20.896 20.46C21.5 19.711 21.5 18.688 21.5 17.25C21.5 14.38 21.319 13 17.25 13C13.181 13 13 14.38 13 17.25H13.75L13 17.275C13 18.689 13 19.711 13.604 20.46Z" fill="black"/>
</svg>
