<svg width="24" height="24" viewBox="0 0 24 24" xmlns="http://www.w3.org/2000/svg">
<path fill-rule="evenodd" clip-rule="evenodd" d="M7.60202 16.9871C7.81193 16.9871 8.02185 17.0137 8.22718 17.0687C8.84685 17.2355 9.38493 17.6499 9.70393 18.2063C9.9111 18.5555 10.0257 18.9635 10.0293 19.3796C10.0293 19.9755 10.5078 20.453 11.0963 20.453H12.2449C12.8307 20.453 13.3092 19.9782 13.3119 19.3925C13.3083 18.7453 13.5613 18.1302 14.0242 17.6673C14.4807 17.2108 15.1187 16.9367 15.7567 16.955C16.1747 16.9651 16.5771 17.0779 16.9318 17.2795C17.4424 17.572 18.0942 17.3978 18.3893 16.8936L18.998 15.8789C19.1337 15.6451 19.1731 15.3518 19.1007 15.0814C19.0292 14.811 18.8495 14.5763 18.6075 14.4379C18.041 14.1115 17.6368 13.5854 17.469 12.9547C17.3031 12.336 17.3938 11.6604 17.7174 11.104C17.9283 10.7373 18.2372 10.4284 18.6075 10.2157C19.1043 9.92513 19.2785 9.27521 18.9898 8.76921C18.9778 8.74904 18.9668 8.72796 18.9577 8.70596L18.4205 7.77463C18.1281 7.26588 17.4773 7.09079 16.9667 7.38138C16.4148 7.70771 15.7585 7.80121 15.1278 7.63529C14.4981 7.47213 13.9701 7.07338 13.641 6.51054C13.4302 6.15854 13.3156 5.74879 13.3119 5.33171C13.3202 5.01821 13.2102 4.73679 13.0103 4.53054C12.8114 4.32521 12.5318 4.20879 12.2449 4.20879H11.0963C10.8122 4.20879 10.5463 4.31971 10.3456 4.51954C10.1458 4.72029 10.0367 4.98704 10.0385 5.27121C10.0193 6.61138 8.92385 7.69029 7.59743 7.69029C7.1721 7.68571 6.76235 7.57113 6.40668 7.35846C5.9071 7.07429 5.25443 7.24938 4.96201 7.75813L4.34143 8.77838C4.05726 9.27154 4.23143 9.92329 4.73743 10.2175C5.48818 10.652 5.9566 11.4624 5.9566 12.3314C5.9566 13.2004 5.48818 14.0098 4.7356 14.4452C4.23235 14.7367 4.05818 15.3848 4.34968 15.889L4.9281 16.8863C5.0711 17.1439 5.30485 17.33 5.57526 17.406C5.84476 17.4812 6.14176 17.4491 6.38926 17.3116C6.75318 17.098 7.17668 16.9871 7.60202 16.9871M12.2449 21.828H11.0963C9.74976 21.828 8.65435 20.7335 8.65435 19.387C8.65251 19.221 8.60485 19.0487 8.51593 18.8993C8.37201 18.6481 8.13918 18.4685 7.8706 18.397C7.60385 18.3255 7.31143 18.3649 7.07126 18.5042C6.4956 18.825 5.81818 18.903 5.19851 18.7288C4.57976 18.5537 4.04535 18.1284 3.73185 17.5646L3.15893 16.5774C2.48885 15.415 2.8876 13.9255 4.0481 13.2545C4.37718 13.0647 4.5816 12.7109 4.5816 12.3314C4.5816 11.9519 4.37718 11.5971 4.0481 11.4074C2.88668 10.7327 2.48885 9.23946 3.15801 8.07713L3.77951 7.05688C4.44043 5.90738 5.9346 5.50221 7.09968 6.17138C7.25826 6.26579 7.4306 6.31346 7.60568 6.31529C8.17676 6.31529 8.65435 5.84413 8.66351 5.26479C8.65985 4.62588 8.91193 4.01263 9.37118 3.54971C9.83226 3.08771 10.4446 2.83379 11.0963 2.83379H12.2449C12.9013 2.83379 13.5393 3.10329 13.9967 3.57171C14.4532 4.04288 14.7053 4.68913 14.686 5.34454C14.6878 5.49213 14.7364 5.66263 14.8244 5.81204C14.9702 6.05954 15.2003 6.23371 15.4734 6.30521C15.7466 6.37304 16.0326 6.33638 16.2755 6.19246C17.4488 5.52238 18.9421 5.92388 19.6122 7.08804L20.1833 8.07713C20.1979 8.10371 20.2108 8.12938 20.2218 8.15596C20.8286 9.30271 20.4234 10.7465 19.2959 11.4055C19.1318 11.5 18.9989 11.632 18.9073 11.7915C18.7652 12.038 18.7258 12.3314 18.7973 12.6009C18.8706 12.8759 19.0457 13.1041 19.2923 13.2453C19.8487 13.5652 20.2639 14.1042 20.4298 14.7266C20.5958 15.3481 20.505 16.0228 20.1814 16.5792L19.5728 17.593C18.9027 18.7444 17.4094 19.1431 16.248 18.4721C16.0931 18.3832 15.9143 18.3346 15.7365 18.33H15.731C15.4661 18.33 15.1938 18.4428 14.9958 18.6399C14.7951 18.8406 14.6851 19.1083 14.6869 19.3925C14.6805 20.739 13.5851 21.828 12.2449 21.828"/>
<path fill-rule="evenodd" clip-rule="evenodd" d="M11.6747 10.6017C10.7213 10.6017 9.94583 11.3781 9.94583 12.3315C9.94583 13.2848 10.7213 14.0594 11.6747 14.0594C12.628 14.0594 13.4035 13.2848 13.4035 12.3315C13.4035 11.3781 12.628 10.6017 11.6747 10.6017M11.6747 15.4344C9.96325 15.4344 8.57083 14.0429 8.57083 12.3315C8.57083 10.62 9.96325 9.22672 11.6747 9.22672C13.3861 9.22672 14.7785 10.62 14.7785 12.3315C14.7785 14.0429 13.3861 15.4344 11.6747 15.4344"/>
</svg>
