<svg width="24" height="24" viewBox="0 0 24 24" xmlns="http://www.w3.org/2000/svg">
<path fill-rule="evenodd" clip-rule="evenodd" d="M15.0804 12.9692C14.6204 12.9692 14.2437 12.5967 14.2437 12.1358C14.2437 11.675 14.6129 11.3025 15.0729 11.3025H15.0804C15.5404 11.3025 15.9137 11.675 15.9137 12.1358C15.9137 12.5967 15.5404 12.9692 15.0804 12.9692"/>
<path fill-rule="evenodd" clip-rule="evenodd" d="M11.74 12.9692C11.28 12.9692 10.9033 12.5967 10.9033 12.1358C10.9033 11.675 11.2717 11.3025 11.7325 11.3025H11.74C12.2 11.3025 12.5733 11.675 12.5733 12.1358C12.5733 12.5967 12.2 12.9692 11.74 12.9692"/>
<path fill-rule="evenodd" clip-rule="evenodd" d="M8.39874 12.9692C7.93874 12.9692 7.56207 12.5967 7.56207 12.1358C7.56207 11.675 7.93124 11.3025 8.39124 11.3025H8.39874C8.85874 11.3025 9.23207 11.675 9.23207 12.1358C9.23207 12.5967 8.85874 12.9692 8.39874 12.9692"/>
<path fill-rule="evenodd" clip-rule="evenodd" d="M7.0905 18.3961C7.57383 18.3961 8.02966 18.5794 8.51216 18.7736C11.468 20.1402 14.9638 19.5186 17.2413 17.2419C20.2463 14.2352 20.2463 9.34441 17.2413 6.33941C15.7863 4.88441 13.8513 4.08358 11.7913 4.08358C9.7305 4.08358 7.79466 4.88525 6.3405 6.34025C4.06216 8.61691 3.44216 12.1127 4.79633 15.0402C4.99133 15.5227 5.17966 15.9927 5.17966 16.4811C5.17966 16.9686 5.01216 17.4594 4.86466 17.8927C4.743 18.2494 4.55883 18.7877 4.67716 18.9061C4.793 19.0261 5.33466 18.8369 5.69216 18.7144C6.12133 18.5677 6.608 18.3994 7.0905 18.3961V18.3961ZM11.7705 20.7452C10.4972 20.7452 9.2155 20.4761 8.01633 19.9211C7.663 19.7794 7.33216 19.6461 7.09466 19.6461C6.82133 19.6477 6.45383 19.7744 6.09883 19.8969C5.3705 20.1469 4.46383 20.4586 3.793 19.7902C3.12466 19.1211 3.433 18.2169 3.68133 17.4894C3.80383 17.1311 3.92966 16.7611 3.92966 16.4811C3.92966 16.2511 3.81883 15.9577 3.64883 15.5352C2.088 12.1644 2.80966 8.10191 5.45716 5.45608C7.14716 3.76525 9.39633 2.83358 11.7905 2.83358C14.1847 2.83358 16.4347 3.76441 18.1247 5.45525C21.618 8.94858 21.618 14.6319 18.1247 18.1252C16.4122 19.8386 14.1063 20.7452 11.7705 20.7452V20.7452Z"/>
</svg>
