<svg width="24" height="24" viewBox="0 0 24 24" fill="none" xmlns="http://www.w3.org/2000/svg">
<rect width="24" height="24" fill="white"/>
<path fill-rule="evenodd" clip-rule="evenodd" d="M15.0435 5.041C15.0435 5.455 15.3795 5.791 15.7935 5.791C16.2075 5.791 16.5435 5.455 16.5435 5.041V4.10211C17.5884 4.19121 18.4344 4.53775 19.013 5.1181C19.672 5.7781 20.004 6.7381 20 7.9731V8.4043H3.5V7.9731C3.5 5.64767 4.72473 4.28968 6.9653 4.10166V5.041C6.9653 5.455 7.3013 5.791 7.7153 5.791C8.1293 5.791 8.4653 5.455 8.4653 5.041V4.0791H15.0435V5.041ZM16.5435 2.59778V1.75C16.5435 1.336 16.2075 1 15.7935 1C15.3795 1 15.0435 1.336 15.0435 1.75V2.5791H8.4653V1.75C8.4653 1.336 8.1293 1 7.7153 1C7.3013 1 6.9653 1.336 6.9653 1.75V2.59811C3.88731 2.81267 2 4.83008 2 7.9731V17.0221C2 20.4011 4.116 22.5001 7.521 22.5001H15.979C19.384 22.5001 21.5 20.4301 21.5 17.0981V7.9751C21.505 6.3521 21.012 4.9991 20.075 4.0581C19.2166 3.19796 18.0038 2.69781 16.5435 2.59778ZM3.5 9.9043V17.0221C3.5 19.5881 4.928 21.0001 7.521 21.0001H15.979C18.572 21.0001 20 19.6141 20 17.0981V9.9043H3.5ZM15.4472 13.0596C15.4472 13.4736 15.7872 13.8096 16.2012 13.8096C16.6152 13.8096 16.9512 13.4736 16.9512 13.0596C16.9512 12.6456 16.6152 12.3096 16.2012 12.3096H16.1922C15.7782 12.3096 15.4472 12.6456 15.4472 13.0596ZM11.7637 13.8096C11.3497 13.8096 11.0097 13.4736 11.0097 13.0596C11.0097 12.6456 11.3407 12.3096 11.7547 12.3096H11.7637C12.1777 12.3096 12.5137 12.6456 12.5137 13.0596C12.5137 13.4736 12.1777 13.8096 11.7637 13.8096ZM6.5619 13.0596C6.5619 13.4736 6.9029 13.8096 7.31691 13.8096C7.73091 13.8096 8.06691 13.4736 8.06691 13.0596C8.06691 12.6456 7.73091 12.3096 7.31691 12.3096H7.3079C6.8939 12.3096 6.5619 12.6456 6.5619 13.0596ZM16.2012 17.6963C15.7872 17.6963 15.4472 17.3603 15.4472 16.9463C15.4472 16.5323 15.7782 16.1963 16.1922 16.1963H16.2012C16.6152 16.1963 16.9512 16.5323 16.9512 16.9463C16.9512 17.3603 16.6152 17.6963 16.2012 17.6963ZM11.0097 16.9463C11.0097 17.3603 11.3497 17.6963 11.7637 17.6963C12.1777 17.6963 12.5137 17.3603 12.5137 16.9463C12.5137 16.5323 12.1777 16.1963 11.7637 16.1963H11.7547C11.3407 16.1963 11.0097 16.5323 11.0097 16.9463ZM7.31691 17.6963C6.9029 17.6963 6.5619 17.3603 6.5619 16.9463C6.5619 16.5323 6.8939 16.1963 7.3079 16.1963H7.31691C7.73091 16.1963 8.06691 16.5323 8.06691 16.9463C8.06691 17.3603 7.73091 17.6963 7.31691 17.6963Z" fill="black"/>
</svg>
