<svg width="24" height="24" viewBox="0 0 24 24" xmlns="http://www.w3.org/2000/svg">
<path d="M5.63606 5.63603C6.02659 5.24551 6.65975 5.24551 7.05028 5.63603L18.364 16.9497C18.7545 17.3403 18.7545 17.9734 18.364 18.364C17.9735 18.7545 17.3403 18.7545 16.9498 18.364L5.63606 7.05025C5.24554 6.65972 5.24554 6.02656 5.63606 5.63603Z"/>
<path d="M18.364 5.63603C18.7545 6.02656 18.7545 6.65972 18.364 7.05025L7.05028 18.364C6.65975 18.7545 6.02659 18.7545 5.63606 18.364C5.24554 17.9734 5.24554 17.3403 5.63606 16.9497L16.9498 5.63603C17.3403 5.24551 17.9735 5.24551 18.364 5.63603Z"/>
</svg>
