<svg width="24" height="24" viewBox="0 0 24 24" xmlns="http://www.w3.org/2000/svg">
<path fill-rule="evenodd" clip-rule="evenodd" d="M19.3846 8.71982C19.7976 8.75382 20.1056 9.11482 20.0726 9.52782C20.0666 9.59582 19.5246 16.3068 19.2126 19.1218C19.0186 20.8688 17.8646 21.9318 16.1226 21.9638C14.7896 21.9868 13.5036 21.9998 12.2466 21.9998C10.8916 21.9998 9.5706 21.9848 8.2636 21.9578C6.5916 21.9248 5.4346 20.8408 5.2456 19.1288C4.9306 16.2888 4.3916 9.59482 4.3866 9.52782C4.3526 9.11482 4.6606 8.75282 5.0736 8.71982C5.4806 8.70882 5.8486 8.99482 5.8816 9.40682C5.88479 9.45022 6.10514 12.1838 6.34526 14.8885L6.39349 15.4283C6.51443 16.7726 6.63703 18.0645 6.7366 18.9638C6.8436 19.9368 7.3686 20.4388 8.2946 20.4578C10.7946 20.5108 13.3456 20.5138 16.0956 20.4638C17.0796 20.4448 17.6116 19.9528 17.7216 18.9568C18.0316 16.1628 18.5716 9.47482 18.5776 9.40682C18.6106 8.99482 18.9756 8.70682 19.3846 8.71982ZM14.3454 2.00011C15.2634 2.00011 16.0704 2.61911 16.3074 3.50611L16.5614 4.76711C16.6435 5.18049 17.0062 5.48237 17.4263 5.489L20.708 5.48911C21.122 5.48911 21.458 5.82511 21.458 6.23911C21.458 6.65311 21.122 6.98911 20.708 6.98911L17.4556 6.98896C17.4505 6.98906 17.4455 6.98911 17.4404 6.98911L17.416 6.98811L7.04162 6.98899C7.03355 6.98907 7.02548 6.98911 7.0174 6.98911L7.002 6.98811L3.75 6.98911C3.336 6.98911 3 6.65311 3 6.23911C3 5.82511 3.336 5.48911 3.75 5.48911L7.031 5.48812L7.13202 5.48172C7.50831 5.4329 7.82104 5.14711 7.8974 4.76711L8.1404 3.55111C8.3874 2.61911 9.1944 2.00011 10.1124 2.00011H14.3454ZM14.3454 3.50011H10.1124C9.8724 3.50011 9.6614 3.66111 9.6004 3.89211L9.3674 5.06211C9.33779 5.21031 9.29467 5.35313 9.23948 5.48938H15.2186C15.1634 5.35313 15.1201 5.21031 15.0904 5.06211L14.8474 3.84611C14.7964 3.66111 14.5854 3.50011 14.3454 3.50011Z"/>
</svg>
