<svg width="24" height="24" viewBox="0 0 24 24" xmlns="http://www.w3.org/2000/svg">
<path fill-rule="evenodd" clip-rule="evenodd" d="M8.2197 3.504L15.9087 3.5C18.2607 3.5 19.6647 4.942 19.6647 7.357V16.553C19.6647 18.951 18.2727 20.393 15.9447 20.407L8.25569 20.41C5.90469 20.41 4.49969 18.968 4.49969 16.553V7.357C4.49969 4.958 5.89169 3.518 8.2197 3.504ZM2.99969 16.553C2.99969 19.757 5.11269 21.91 8.25669 21.91L15.9497 21.907C19.1177 21.887 21.1647 19.785 21.1647 16.553V7.357C21.1647 4.153 19.0527 2 15.9087 2H15.9077L8.21469 2.004C5.04669 2.023 2.99969 4.124 2.99969 7.357V16.553ZM11.2505 8.6104H8.49548C8.08148 8.6104 7.74548 8.2744 7.74548 7.8604C7.74548 7.4464 8.08148 7.1104 8.49548 7.1104H11.2505C11.6645 7.1104 12.0005 7.4464 12.0005 7.8604C12.0005 8.2744 11.6645 8.6104 11.2505 8.6104ZM8.49579 12.7872H15.7158C16.1298 12.7872 16.4658 12.4512 16.4658 12.0372C16.4658 11.6232 16.1298 11.2872 15.7158 11.2872H8.49579C8.08179 11.2872 7.74579 11.6232 7.74579 12.0372C7.74579 12.4512 8.08179 12.7872 8.49579 12.7872ZM8.49579 16.9737H15.7158C16.1298 16.9737 16.4658 16.6377 16.4658 16.2237C16.4658 15.8097 16.1298 15.4737 15.7158 15.4737H8.49579C8.08179 15.4737 7.74579 15.8097 7.74579 16.2237C7.74579 16.6377 8.08179 16.9737 8.49579 16.9737Z"/>
</svg>
