<svg width="24" height="24" viewBox="0 0 24 24" xmlns="http://www.w3.org/2000/svg">
<path fill-rule="evenodd" clip-rule="evenodd" d="M18.6691 9.0478C19.0408 9.0784 19.318 9.4033 19.2883 9.77501C19.2829 9.83621 18.7951 15.8762 18.5143 18.4097C18.3397 19.982 17.3011 20.9387 15.7333 20.9675C14.5336 20.9882 13.3762 20.9999 12.2449 20.9999C11.0253 20.9999 9.83643 20.9864 8.66011 20.9621C7.1553 20.9324 6.11399 19.9568 5.94388 18.416C5.66038 15.86 5.17527 9.83531 5.17077 9.77501C5.14017 9.4033 5.41738 9.0775 5.78908 9.0478C6.15539 9.0379 6.48659 9.2953 6.51629 9.6661C6.51916 9.70517 6.71748 12.1655 6.93359 14.5997L6.977 15.0855C7.08584 16.2954 7.19618 17.4581 7.2858 18.2675C7.3821 19.1432 7.8546 19.595 8.68801 19.6121C10.938 19.6598 13.234 19.6625 15.709 19.6175C16.5946 19.6004 17.0734 19.1576 17.1724 18.2612C17.4514 15.7466 17.9374 9.72731 17.9428 9.6661C17.9725 9.2953 18.301 9.0361 18.6691 9.0478ZM14.1338 3C14.96 3 15.6863 3.55711 15.8996 4.35542L16.1282 5.49033C16.2021 5.86237 16.5286 6.13407 16.9066 6.14003L19.8602 6.14014C20.2328 6.14014 20.5352 6.44254 20.5352 6.81514C20.5352 7.18775 20.2328 7.49015 19.8602 7.49015L16.933 7.49001C16.9284 7.4901 16.9239 7.49015 16.9193 7.49015L16.8974 7.48925L7.56032 7.49004C7.55306 7.49011 7.54579 7.49015 7.53852 7.49015L7.52466 7.48925L4.59783 7.49015C4.22522 7.49015 3.92282 7.18775 3.92282 6.81514C3.92282 6.44254 4.22522 6.14014 4.59783 6.14014L7.55076 6.13924L7.64168 6.13348C7.98034 6.08954 8.2618 5.83233 8.33053 5.49033L8.54923 4.39592C8.77153 3.55711 9.49784 3 10.3241 3H14.1338ZM14.1338 4.35002H10.3241C10.108 4.35002 9.91815 4.49492 9.86325 4.70282L9.65354 5.75583C9.62689 5.88921 9.58808 6.01775 9.53842 6.14038H14.9197C14.87 6.01775 14.8311 5.88921 14.8043 5.75583L14.5856 4.66142C14.5397 4.49492 14.3498 4.35002 14.1338 4.35002Z"/>
</svg>
