<svg width="24" height="24" viewBox="0 0 24 24" xmlns="http://www.w3.org/2000/svg">
<path d="M12.7501 3.3951C12.7501 2.98089 12.4143 2.6451 12.0001 2.6451C11.5859 2.6451 11.2501 2.98089 11.2501 3.3951V13.4555L9.97388 12.0117C9.69955 11.7013 9.22558 11.6721 8.91523 11.9465C8.60487 12.2208 8.57567 12.6948 8.84999 13.0051L11.4381 15.9331C11.5804 16.0942 11.7851 16.1864 12 16.1864C12.215 16.1864 12.4196 16.0942 12.562 15.9331L15.1501 13.0051C15.4244 12.6948 15.3952 12.2208 15.0848 11.9465C14.7745 11.6721 14.3005 11.7013 14.0262 12.0117L12.7501 13.4554V3.3951Z"/>
<path fill="#333333" opacity="0.4" fill-rule="evenodd" clip-rule="evenodd" d="M19.4597 11.813C19.4597 10.1045 18.2502 8.87801 16.9399 8.87801L16.1119 8.87801C15.6977 8.87801 15.3619 8.54222 15.3619 8.12801C15.3619 7.71379 15.6977 7.37801 16.1119 7.37801H16.9399C19.2421 7.37801 20.9597 9.44954 20.9597 11.813V16.697C20.9597 19.0546 19.2455 21.122 16.9479 21.122L7.06063 21.122C4.75865 21.122 3.04 19.0496 3.04 16.687V11.802C3.04 9.44512 4.75535 7.37801 7.05175 7.37801H7.88782C8.30204 7.37801 8.63782 7.71379 8.63782 8.12801C8.63782 8.54222 8.30204 8.87801 7.88782 8.87801H7.05175C5.74648 8.87801 4.54 10.1009 4.54 11.802V16.687C4.54 18.3944 5.75027 19.622 7.06063 19.622L16.9479 19.622C18.2539 19.622 19.4597 18.3994 19.4597 16.697V11.813Z"/>
</svg>
