<svg width="24" height="24" viewBox="0 0 24 24" xmlns="http://www.w3.org/2000/svg">
    <path fill-rule="evenodd" clip-rule="evenodd" d="M13.3566 5.58908L5.00398 16.0354C4.85227 16.2252 4.79638 16.4701 4.85227 16.7052L5.45643 19.2646L8.1525 19.2309C8.40889 19.2282 8.64576 19.1138 8.80279 18.9186C11.6568 15.3478 17.0977 8.53977 17.2521 8.34016C17.3976 8.10418 17.4544 7.77061 17.3781 7.44945C17.3 7.12032 17.0951 6.84086 16.7996 6.66254C16.7366 6.61907 15.2418 5.45867 15.1956 5.4223C14.6332 4.97162 13.8126 5.04969 13.3566 5.58908ZM4.93123 20.6025C4.62339 20.6025 4.35546 20.3913 4.2836 20.0906L3.55702 17.0112C3.40709 16.3734 3.55613 15.7151 3.96511 15.2041L12.3221 4.75161C12.3257 4.74806 12.3284 4.74362 12.3319 4.74007C13.2483 3.64443 14.9055 3.48297 16.0234 4.37989C16.0677 4.41449 17.5519 5.56779 17.5519 5.56779C18.0913 5.88894 18.5127 6.46293 18.6724 7.1425C18.8312 7.81496 18.7159 8.50872 18.3459 9.09513C18.3184 9.1386 18.2945 9.17586 9.84165 19.7508C9.43444 20.2582 8.82408 20.5537 8.16847 20.5616L4.9401 20.6025H4.93123Z"/>
    <path fill-rule="evenodd" clip-rule="evenodd" d="M20.1346 20.6025H13.7001C13.3328 20.6025 13.0347 20.3044 13.0347 19.9372C13.0347 19.5699 13.3328 19.2718 13.7001 19.2718H20.1346C20.5019 19.2718 20.8 19.5699 20.8 19.9372C20.8 20.3044 20.5019 20.6025 20.1346 20.6025Z" fill="#333333" fill-opacity="0.4"/>
    <path fill-rule="evenodd" clip-rule="evenodd" d="M16.1181 11.5048C15.9762 11.5048 15.8342 11.4596 15.7127 11.3673L10.8759 7.65189C10.5849 7.42832 10.5299 7.01136 10.7535 6.7186C10.9779 6.42761 11.3949 6.37349 11.6868 6.59706L16.5244 10.3116C16.8154 10.5352 16.8704 10.953 16.646 11.2449C16.5156 11.4152 16.3177 11.5048 16.1181 11.5048Z" fill="#333333" fill-opacity="0.4"/>
</svg>
