<svg width="24" height="24" viewBox="0 0 24 24" xmlns="http://www.w3.org/2000/svg">
<path d="M21.0274 2.97255C22.3242 4.26928 22.3242 6.37171 21.0274 7.66844L8.7641 19.9318C8.23216 20.4637 7.56565 20.8411 6.83584 21.0236L3.03221 21.9745C2.42425 22.1265 1.87355 21.5758 2.02554 20.9678L2.97645 17.1642C3.1589 16.4343 3.53627 15.7678 4.06821 15.2359L16.3316 2.97255C17.6283 1.67582 19.7307 1.67582 21.0274 2.97255ZM15.1575 6.49429L5.24218 16.4099C4.92302 16.729 4.6966 17.1289 4.58712 17.5668L3.97178 20.0282L6.43317 19.4129C6.87106 19.3034 7.27096 19.077 7.59012 18.7578L17.5051 8.84188L15.1575 6.49429ZM17.5055 4.14652L16.3313 5.32049L18.6788 7.66809L19.8535 6.49447C20.5018 5.8461 20.5018 4.79489 19.8535 4.14652C19.2051 3.49816 18.1539 3.49816 17.5055 4.14652Z"/>
</svg>
