<svg width="24" height="24" viewBox="0 0 24 24" xmlns="http://www.w3.org/2000/svg">
    <path d="M7.38787 4.25C4.95906 4.25 3.25 6.20834 3.25 8.79412V15.322C3.25 17.9078 4.95906 19.8661 7.38787 19.8661H16.8115C17.9627 19.8521 19.0593 19.3649 19.8459 18.5161C20.6336 17.6661 21.0415 16.5278 20.9733 15.366C20.9724 15.3513 20.972 15.3367 20.972 15.322V8.79412C20.972 8.77945 20.9724 8.76478 20.9733 8.75013C21.0415 7.58836 20.6336 6.44997 19.8459 5.59999C19.0593 4.75118 17.9627 4.26402 16.8114 4.25H7.38787ZM1.75 8.79412C1.75 5.54255 3.97686 2.75 7.38787 2.75H16.8242C18.3902 2.76756 19.8797 3.42966 20.9461 4.58041C22.0072 5.72542 22.5575 7.25484 22.472 8.81536V15.3008C22.5575 16.8613 22.0072 18.3907 20.9461 19.5357C19.8797 20.6864 18.3902 21.3485 16.8242 21.3661L16.8158 21.3662L7.38787 21.3661C3.97686 21.3661 1.75 18.5736 1.75 15.322V8.79412Z"/>
    <path fill="currentColor" d="M5.86808 8.59322C6.1265 8.2695 6.59841 8.21656 6.92213 8.47498L11.2214 11.907C11.7556 12.3241 12.5016 12.3244 13.0361 11.9079L17.2974 8.47694C17.62 8.21717 18.0921 8.26814 18.3519 8.59078C18.6117 8.91341 18.5607 9.38554 18.2381 9.64531L13.9651 13.0857C12.8861 13.9316 11.3725 13.9315 10.2935 13.0856L10.2884 13.0816L5.98631 9.64727C5.6626 9.38885 5.60966 8.91693 5.86808 8.59322Z"/>
</svg>
