<svg width="24" height="24" viewBox="0 0 24 24" xmlns="http://www.w3.org/2000/svg">
<path d="M19.6923 4.5H4.30769C3.69565 4.5 3.10868 4.74313 2.67591 5.17591C2.24313 5.60868 2 6.19565 2 6.80769V17.1923C2 17.8043 2.24313 18.3913 2.67591 18.8241C3.10868 19.2569 3.69565 19.5 4.30769 19.5H19.6923C20.3043 19.5 20.8913 19.2569 21.3241 18.8241C21.7569 18.3913 22 17.8043 22 17.1923V6.80769C22 6.19565 21.7569 5.60868 21.3241 5.17591C20.8913 4.74313 20.3043 4.5 19.6923 4.5ZM20.4615 17.1923C20.4615 17.3963 20.3805 17.592 20.2362 17.7362C20.092 17.8805 19.8963 17.9615 19.6923 17.9615H4.30769C4.10368 17.9615 3.90802 17.8805 3.76376 17.7362C3.61951 17.592 3.53846 17.3963 3.53846 17.1923V6.80769C3.53846 6.60368 3.61951 6.40802 3.76376 6.26376C3.90802 6.11951 4.10368 6.03846 4.30769 6.03846H19.6923C19.8963 6.03846 20.092 6.11951 20.2362 6.26376C20.3805 6.40802 20.4615 6.60368 20.4615 6.80769V17.1923Z"/>
<path d="M18.1193 6.93065L12.0001 10.8922L5.88085 6.93065C5.70948 6.81946 5.50096 6.7809 5.30116 6.82346C5.10136 6.86602 4.92665 6.9862 4.81546 7.15757C4.70428 7.32894 4.66572 7.53746 4.70828 7.73726C4.75083 7.93706 4.87102 8.11177 5.04239 8.22295L11.5808 12.4537C11.7056 12.5348 11.8513 12.578 12.0001 12.578C12.1489 12.578 12.2945 12.5348 12.4193 12.4537L18.9578 8.22295C19.1291 8.11177 19.2493 7.93706 19.2919 7.73726C19.3344 7.53746 19.2959 7.32894 19.1847 7.15757C19.0735 6.9862 18.8988 6.86602 18.699 6.82346C18.4992 6.7809 18.2907 6.81946 18.1193 6.93065V6.93065Z"/>
</svg>
