<svg width="24" height="24" viewBox="0 0 24 24" xmlns="http://www.w3.org/2000/svg">
<path d="M13.4449 5.41867L5.15726 15.992C5.15712 15.9922 5.15741 15.9918 5.15726 15.992C5.01926 16.1692 4.96924 16.3975 5.01934 16.6121L5.60686 19.1399L8.20164 19.1067C8.42408 19.1042 8.63276 19.0009 8.7693 18.8264L17.0585 8.25116C17.2903 7.95521 17.3375 7.66231 17.2772 7.38722C17.2129 7.09359 17.011 6.76568 16.6502 6.48283L15.2602 5.39283C14.8999 5.11033 14.5331 4.99265 14.2321 5.00037C13.9499 5.0076 13.6764 5.12404 13.4449 5.41867ZM14.1936 3.50086C14.9074 3.48257 15.606 3.75789 16.1857 4.21239L17.5757 5.30239C18.155 5.75654 18.5896 6.36864 18.7424 7.06601C18.8994 7.78192 18.7446 8.53102 18.2394 9.17606L9.95063 19.7508C9.53333 20.2838 8.89614 20.5988 8.21909 20.6066"/>
<path opacity="0.4" d="M13.6996 19.898H20.0766" stroke="#333333" stroke-width="1.5" stroke-linecap="round" stroke-linejoin="round"/>
<path opacity="0.4" d="M11.3027 6.936L16.0967 10.694" stroke="#333333" stroke-width="1.5" stroke-linecap="round" stroke-linejoin="round"/>
</svg>
