<svg width="24" height="24" viewBox="0 0 24 24" xmlns="http://www.w3.org/2000/svg">
<path fill-rule="evenodd" clip-rule="evenodd" d="M14.3194 2.8704L3.45648 16.4563C3.25918 16.7032 3.18649 17.0217 3.25918 17.3274L4.04491 20.6561L7.55129 20.6123C7.88474 20.6088 8.1928 20.46 8.39702 20.2062C12.1088 15.5621 19.185 6.70792 19.3858 6.44832C19.575 6.14141 19.6488 5.70758 19.5496 5.28991C19.4481 4.86185 19.1815 4.49841 18.7973 4.26649C18.7154 4.20996 16.7713 2.70079 16.7113 2.65349C15.9798 2.06736 14.9125 2.1689 14.3194 2.8704V2.8704ZM3.36187 22.396C2.96151 22.396 2.61306 22.1214 2.5196 21.7303L1.57465 17.7255C1.37966 16.8959 1.57349 16.0398 2.10539 15.3752L12.9741 1.78122C12.9787 1.7766 12.9822 1.77083 12.9868 1.76622C14.1787 0.341283 16.334 0.131293 17.7878 1.29778C17.8454 1.34278 19.7757 2.84271 19.7757 2.84271C20.4773 3.26038 21.0253 4.00689 21.233 4.89069C21.4395 5.76527 21.2895 6.66753 20.8084 7.43019C20.7726 7.48673 20.7415 7.53519 9.74812 21.2884C9.21853 21.9484 8.42472 22.3326 7.57207 22.343L3.37341 22.396H3.36187Z"/>
<path fill-rule="evenodd" clip-rule="evenodd" d="M23.1347 22.3959H14.7662C14.2885 22.3959 13.9008 22.0083 13.9008 21.5306C13.9008 21.0529 14.2885 20.6652 14.7662 20.6652H23.1347C23.6123 20.6652 24 21.0529 24 21.5306C24 22.0083 23.6123 22.3959 23.1347 22.3959"/>
<path fill-rule="evenodd" clip-rule="evenodd" d="M17.911 10.5639C17.7264 10.5639 17.5418 10.505 17.3837 10.3851L11.0932 5.55297C10.7148 5.26221 10.6433 4.71993 10.934 4.33918C11.2259 3.96073 11.7682 3.89035 12.1478 4.18111L18.4394 9.01204C18.8179 9.3028 18.8894 9.84623 18.5975 10.2258C18.4279 10.4474 18.1706 10.5639 17.911 10.5639"/>
</svg>
