<svg width="24" height="24" viewBox="0 0 24 24" xmlns="http://www.w3.org/2000/svg">
<path fill-rule="evenodd" clip-rule="evenodd" d="M8.36852 4.91675C5.94852 4.91675 4.91602 6.14675 4.91602 9.02758V15.5267C4.91602 18.1801 6.38102 19.6409 9.04102 19.6409H15.526C18.1793 19.6409 19.6402 18.1801 19.6402 15.5267V15.5242L19.6635 11.3867C19.6635 8.55425 18.6918 7.45008 16.196 7.45008H13.8377C13.0468 7.44925 12.2918 7.07175 11.8168 6.44008L11.056 5.42841C10.8168 5.10758 10.4343 4.91758 10.0343 4.91675H8.36852ZM15.526 20.8909H9.04102C5.72602 20.8909 3.66602 18.8351 3.66602 15.5267V9.02758C3.66602 5.47008 5.24852 3.66675 8.36852 3.66675H10.0352C10.8277 3.66758 11.5827 4.04591 12.056 4.67841L12.8152 5.68841C13.056 6.00841 13.4385 6.19925 13.8385 6.20008H16.196C19.4143 6.20008 20.9135 7.84925 20.9135 11.3901L20.8902 15.5292C20.8893 18.8359 18.8343 20.8909 15.526 20.8909V20.8909Z"/>
<path fill-rule="evenodd" clip-rule="evenodd" d="M15.9296 15.094H8.65039C8.30539 15.094 8.02539 14.814 8.02539 14.469C8.02539 14.124 8.30539 13.844 8.65039 13.844H15.9296C16.2746 13.844 16.5546 14.124 16.5546 14.469C16.5546 14.814 16.2746 15.094 15.9296 15.094"/>
</svg>
