<svg width="24" height="24" viewBox="0 0 24 24" xmlns="http://www.w3.org/2000/svg">
<path fill-rule="evenodd" clip-rule="evenodd" d="M10.0211 3.67534C10.892 2.79929 12.1039 2.375 13.4707 2.375C14.0963 2.375 14.7289 2.43716 15.1974 2.49732C15.4334 2.52764 15.6319 2.558 15.7722 2.58092C15.8424 2.5924 15.8982 2.60205 15.9371 2.60894L15.9825 2.61712L15.9952 2.61945L15.9988 2.62014L16 2.62036C16.0001 2.62037 16.0007 2.62049 15.8613 3.35742L16 2.62036L16.6113 2.73601V6.73047H14.5C13.9909 6.73047 13.7926 6.87723 13.7059 6.97743C13.6016 7.09813 13.5234 7.30943 13.5234 7.64062V8.88281H16.6013L15.9082 13.4375H13.5234V20.875H8.70312V13.4375H5.98047V8.88281H8.70312V7.27539C8.70312 5.79633 9.14988 4.5517 10.0211 3.67534ZM15.1113 3.99895C15.0773 3.99435 15.0423 3.98973 15.0063 3.9851C14.5699 3.92905 14.0072 3.875 13.4707 3.875C12.4137 3.875 11.6168 4.19778 11.0849 4.73286C10.5532 5.26764 10.2031 6.0982 10.2031 7.27539V10.3828H7.48047V11.9375H10.2031V19.375H12.0234V11.9375H14.6192L14.8558 10.3828H12.0234V7.64062C12.0234 7.10853 12.1445 6.48976 12.5714 5.9962C13.016 5.48214 13.681 5.23047 14.5 5.23047H15.1113V3.99895Z"/>
</svg>
