<svg width="24" height="24" viewBox="0 0 24 24" fill="none" xmlns="http://www.w3.org/2000/svg">
<path d="M3.79545 18.9999H6.81818V11.7878L2.5 8.60594V17.7272C2.5 18.4314 3.0808 18.9999 3.79545 18.9999Z" fill="#4285F4"/>
<path d="M17.1817 18.9999H20.2044C20.9212 18.9999 21.4999 18.4293 21.4999 17.7272V8.60594L17.1817 11.7878" fill="#34A853"/>
<path d="M17.1817 6.27269V11.7878L21.4999 8.60602V6.90905C21.4999 5.33512 19.6711 4.43784 18.3908 5.38178" fill="#FBBC04"/>
<path d="M6.81833 11.7878V6.27261L12.0001 10.0908L17.182 6.27261V11.7878L12.0001 15.6059" fill="#EA4335"/>
<path d="M2.5 6.90905V8.60602L6.81818 11.7878V6.27269L5.60909 5.38178C4.32659 4.43784 2.5 5.33512 2.5 6.90905" fill="#C5221F"/>
</svg>
