<svg width="24" height="24" viewBox="0 0 24 24" fill="none" xmlns="http://www.w3.org/2000/svg">
<path fill-rule="evenodd" clip-rule="evenodd" d="M22.08 12.2387C22.08 11.4942 22.0132 10.7783 21.8891 10.091H12V14.1526H17.6509C17.4075 15.4651 16.6677 16.5771 15.5557 17.3217V19.9562H18.9491C20.9345 18.1283 22.08 15.4364 22.08 12.2387Z" fill="#4285F4"/>
<path fill-rule="evenodd" clip-rule="evenodd" d="M11.9995 22.4998C14.8345 22.4998 17.2113 21.5596 18.9486 19.956L15.5552 17.3214C14.615 17.9514 13.4123 18.3237 11.9995 18.3237C9.26475 18.3237 6.94998 16.4766 6.1243 13.9948H2.61634V16.7153C4.34407 20.1469 7.89498 22.4998 11.9995 22.4998Z" fill="#34A853"/>
<path fill-rule="evenodd" clip-rule="evenodd" d="M6.12477 13.995C5.91477 13.365 5.79545 12.692 5.79545 12C5.79545 11.3079 5.91477 10.635 6.12477 10.005V7.28454H2.61682C1.90568 8.70204 1.5 10.3057 1.5 12C1.5 13.6943 1.90568 15.298 2.61682 16.7155L6.12477 13.995Z" fill="#FBBC05"/>
<path fill-rule="evenodd" clip-rule="evenodd" d="M11.9995 5.67614C13.5411 5.67614 14.9252 6.20591 16.0134 7.24636L19.025 4.23477C17.2066 2.54045 14.8298 1.5 11.9995 1.5C7.89498 1.5 4.34407 3.85295 2.61634 7.28454L6.1243 10.005C6.94998 7.52318 9.26475 5.67614 11.9995 5.67614Z" fill="#EA4335"/>
</svg>
