<svg width="24" height="24" viewBox="0 0 24 24" xmlns="http://www.w3.org/2000/svg">
<path fill-rule="evenodd" clip-rule="evenodd" d="M10.295 4.60912C7.16443 5.32835 4.77376 7.98541 4.45325 11.25H7.9521C8.13221 8.86181 8.94408 6.5709 10.295 4.60912ZM13.7049 4.60912C15.0558 6.5709 15.8677 8.86181 16.0478 11.25H19.5467C19.2262 7.98541 16.8355 5.32835 13.7049 4.60912ZM14.543 11.25C14.3439 8.90455 13.459 6.66944 12 4.82388C10.541 6.66944 9.65605 8.90455 9.4569 11.25H14.543ZM9.45689 12.75H14.543C14.3439 15.0955 13.459 17.3306 12 19.1762C10.541 17.3306 9.65604 15.0955 9.45689 12.75ZM7.9521 12.75H4.45324C4.77374 16.0146 7.16442 18.6717 10.295 19.3909C8.94408 17.4291 8.1322 15.1382 7.9521 12.75ZM13.7049 19.3909C15.0558 17.4291 15.8677 15.1382 16.0478 12.75H19.5467C19.2262 16.0146 16.8355 18.6717 13.7049 19.3909ZM12 21.0834C6.98337 21.0834 2.91663 17.0166 2.91663 12V12C2.91664 6.98342 6.98338 2.91669 12 2.91669C17.0165 2.91669 21.0833 6.98343 21.0833 12C21.0833 17.0166 17.0165 21.0834 12 21.0834Z"/>
</svg>
