<svg width="24" height="24" viewBox="0 0 24 24" fill="none" xmlns="http://www.w3.org/2000/svg">
<path fill-rule="evenodd" clip-rule="evenodd" d="M10.296 2.81327C6.19004 3.57 3.02455 7.01166 2.68785 11.25H7.24539C7.44766 8.19963 8.50915 5.27587 10.296 2.81327ZM13.7039 2.81327C15.4908 5.27587 16.5523 8.19963 16.7545 11.25H21.3121C20.9754 7.01166 17.8099 3.57 13.7039 2.81327ZM15.2509 11.25C15.0316 8.25013 13.8962 5.38977 12 3.05659C10.1037 5.38977 8.96836 8.25013 8.74902 11.25H15.2509ZM8.74902 12.75H15.2509C15.0316 15.7499 13.8962 18.6103 12 20.9434C10.1037 18.6103 8.96835 15.7499 8.74902 12.75ZM7.24539 12.75H2.68785C3.02453 16.9884 6.19002 20.43 10.296 21.1868C8.50914 18.7242 7.44765 15.8004 7.24539 12.75ZM13.7039 21.1868C15.4908 18.7242 16.5523 15.8004 16.7545 12.75H21.3121C20.9754 16.9884 17.8099 20.43 13.7039 21.1868ZM12 22.8418C6.01221 22.8418 1.15818 17.9878 1.15818 12V12C1.15819 6.01226 6.01222 1.15824 12 1.15824C17.9877 1.15824 22.8417 6.01227 22.8417 12C22.8417 17.9878 17.9877 22.8418 12 22.8418Z" fill="black"/>
</svg>
