<svg width="24" height="24" viewBox="0 0 24 24" fill="none" xmlns="http://www.w3.org/2000/svg">
<rect width="24" height="24" fill="white"/>
<path fill-rule="evenodd" clip-rule="evenodd" d="M13.2742 14.7394C14.2827 14.7394 15.1036 15.5502 15.1036 16.5469V19.1102C15.1036 19.3244 15.2761 19.496 15.4972 19.501H17.0937C18.3518 19.501 19.3745 18.496 19.3745 17.261V9.99104C19.3687 9.56604 19.1651 9.16604 18.8158 8.90021L13.2935 4.51854C12.5522 3.93438 11.5153 3.93438 10.7715 4.52021L5.28681 8.89854C4.92413 9.17271 4.72059 9.57271 4.7164 10.0052V17.261C4.7164 18.496 5.73912 19.501 6.99721 19.501H8.60876C8.83575 19.501 9.02003 19.3219 9.02003 19.1019C9.02003 19.0535 9.02589 19.0052 9.03594 18.9594V16.5469C9.03594 15.556 9.85177 14.746 10.8527 14.7394H13.2742ZM17.0937 20.751H15.4822C14.5591 20.7294 13.8472 20.0085 13.8472 19.1102V16.5469C13.8472 16.2394 13.59 15.9894 13.2742 15.9894H10.8569C10.5478 15.991 10.2924 16.2419 10.2924 16.5469V19.1019C10.2924 19.1644 10.284 19.2244 10.2664 19.281C10.1759 20.106 9.46731 20.751 8.60876 20.751H6.99721C5.04642 20.751 3.45999 19.1852 3.45999 17.261V9.99938C3.46837 9.17104 3.85199 8.41271 4.51454 7.91354L9.9883 3.54271C11.1936 2.59271 12.873 2.59271 14.0758 3.54104L19.589 7.91604C20.2364 8.40688 20.62 9.16354 20.6309 9.98188V17.261C20.6309 19.1852 19.0445 20.751 17.0937 20.751V20.751Z" fill="black"/>
</svg>
