<svg width="24" height="24" viewBox="0 0 24 24" xmlns="http://www.w3.org/2000/svg">
<path fill-rule="evenodd" clip-rule="evenodd" d="M13.388 15.0125C14.4899 15.0125 15.3868 15.8985 15.3868 16.9875V19.7882C15.3868 20.0222 15.5754 20.2098 15.817 20.2153H17.5613C18.936 20.2153 20.0534 19.1172 20.0534 17.7678V9.82436C20.047 9.35999 19.8246 8.92294 19.443 8.63248L13.4091 3.84495C12.5992 3.20667 11.4661 3.20667 10.6535 3.84677L4.66076 8.63066C4.26449 8.93023 4.04209 9.36728 4.03752 9.83984V17.7678C4.03752 19.1172 5.15497 20.2153 6.52959 20.2153H8.29042C8.53844 20.2153 8.73978 20.0195 8.73978 19.7791C8.73978 19.7263 8.74619 19.6735 8.75717 19.6234V16.9875C8.75717 15.9048 9.64857 15.0198 10.7422 15.0125H13.388ZM17.5613 21.581H15.8005C14.792 21.5574 14.014 20.7698 14.014 19.7882V16.9875C14.014 16.6515 13.7331 16.3783 13.3881 16.3783H10.7468C10.4091 16.3801 10.13 16.6542 10.13 16.9875V19.7791C10.13 19.8474 10.1208 19.913 10.1016 19.9749C10.0028 20.8763 9.2285 21.581 8.29043 21.581H6.5296C4.39811 21.581 2.66473 19.8702 2.66473 17.7678V9.83347C2.67389 8.9284 3.09304 8.09983 3.81696 7.55442L9.79775 2.77873C11.1147 1.74073 12.9497 1.74073 14.2639 2.7769L20.2877 7.55715C20.9951 8.09345 21.4143 8.92021 21.4262 9.81434V17.7678C21.4262 19.8702 19.6928 21.581 17.5613 21.581V21.581Z"/>
</svg>
