<svg width="24" height="24" viewBox="0 0 24 24" xmlns="http://www.w3.org/2000/svg">
<path d="M17.8307 21H6.16104C5.49784 21 4.86179 20.7366 4.39283 20.2677C3.92387 19.7988 3.66041 19.1629 3.66041 18.4997V10.1655H2.82687C2.65594 10.1642 2.48957 10.1103 2.35029 10.0112C2.21102 9.91212 2.10558 9.77262 2.04826 9.6116C1.99094 9.45059 1.98452 9.27585 2.02986 9.11107C2.0752 8.94628 2.17011 8.79942 2.30174 8.69038L11.4707 1.18959C11.6199 1.06701 11.8069 1 12 1C12.1931 1 12.3802 1.06701 12.5293 1.18959L21.6983 8.69038C21.8305 8.79988 21.9256 8.9475 21.9707 9.11308C22.0158 9.27866 22.0087 9.45412 21.9503 9.61551C21.892 9.77689 21.7852 9.91633 21.6446 10.0148C21.504 10.1132 21.3365 10.1659 21.1648 10.1655H20.3313V18.4997C20.3313 19.1629 20.0678 19.7988 19.5989 20.2677C19.1299 20.7366 18.4939 21 17.8307 21ZM4.97741 8.64871C5.08629 8.72621 5.17493 8.82876 5.23586 8.9477C5.29679 9.06664 5.32822 9.19848 5.3275 9.33211V18.4997C5.3275 18.7208 5.41532 18.9328 5.57164 19.0891C5.72796 19.2454 5.93997 19.3332 6.16104 19.3332H17.8307C18.0517 19.3332 18.2637 19.2454 18.4201 19.0891C18.5764 18.9328 18.6642 18.7208 18.6642 18.4997V9.33211C18.6635 9.19848 18.6949 9.06664 18.7558 8.9477C18.8168 8.82876 18.9054 8.72621 19.0143 8.64871L11.9958 2.90644L4.97741 8.64871Z"/>
</svg>
