<svg width="24" height="24" viewBox="0 0 24 24" xmlns="http://www.w3.org/2000/svg">
<path opacity="0.4" fill-rule="evenodd" d="M15.2184 6.83524C15.3387 6.43887 15.7575 6.21506 16.1539 6.33534C17.5537 6.76012 18.5731 7.96404 18.7009 9.40896C18.7374 9.82156 18.4325 10.1856 18.0199 10.2221C17.6073 10.2586 17.2432 9.95368 17.2067 9.54107C17.1355 8.73543 16.5613 8.02653 15.7183 7.77071C15.322 7.65043 15.0981 7.2316 15.2184 6.83524Z"/>
<path d="M6.06606 2.57032C2.12144 3.7778 0.349885 7.90045 1.68236 11.8359C2.35762 13.6866 3.45457 15.3481 4.89441 16.7101C6.86921 18.5335 9.03847 20.1381 11.3699 21.5013L11.6346 21.6519C11.8683 21.7849 12.1553 21.7825 12.3869 21.6458L12.6344 21.4996C14.9629 20.1381 17.1322 18.5335 19.1003 16.7162C20.5468 15.3481 21.6437 13.6866 22.3132 11.8526C23.6506 7.90276 21.8718 3.77823 17.9259 2.57037L17.642 2.48998C15.7426 1.99326 13.718 2.27922 12.0502 3.27163L11.996 3.305L11.9422 3.27152C10.1911 2.2281 8.04557 1.96491 6.06606 2.57032ZM11.5605 4.81217C11.8209 4.9978 12.1703 4.99793 12.4308 4.8125C13.8808 3.78038 15.7636 3.47905 17.4876 4.00489C20.5779 4.95088 21.972 8.18327 20.8982 11.3549C20.3148 12.9528 19.3477 14.4175 18.0761 15.6203L17.5056 16.1356C15.9686 17.4937 14.3062 18.7232 12.5411 19.8069L12.001 20.13L12.1193 20.2019C9.88892 18.8978 7.80701 17.3578 5.91858 15.6142C4.65364 14.4176 3.68658 12.9528 3.09728 11.3383C2.02826 8.18022 3.41626 4.95014 6.50493 4.00468C8.22828 3.47761 10.1113 3.779 11.5605 4.81217Z"/>
</svg>
