<svg width="24" height="24" viewBox="0 0 24 24" xmlns="http://www.w3.org/2000/svg">
<path d="M11.625 6.80859C8.875 6.80859 6.68359 9.04297 6.68359 11.75C6.68359 14.5 8.875 16.6914 11.625 16.6914C14.332 16.6914 16.5664 14.5 16.5664 11.75C16.5664 9.04297 14.332 6.80859 11.625 6.80859ZM11.625 14.9727C9.86328 14.9727 8.40234 13.5547 8.40234 11.75C8.40234 9.98828 9.82031 8.57031 11.625 8.57031C13.3867 8.57031 14.8047 9.98828 14.8047 11.75C14.8047 13.5547 13.3867 14.9727 11.625 14.9727ZM17.8984 6.63672C17.8984 7.28125 17.3828 7.79688 16.7383 7.79688C16.0938 7.79688 15.5781 7.28125 15.5781 6.63672C15.5781 5.99219 16.0938 5.47656 16.7383 5.47656C17.3828 5.47656 17.8984 5.99219 17.8984 6.63672ZM21.1641 7.79688C21.0781 6.25 20.7344 4.875 19.6172 3.75781C18.5 2.64062 17.125 2.29688 15.5781 2.21094C13.9883 2.125 9.21875 2.125 7.62891 2.21094C6.08203 2.29688 4.75 2.64062 3.58984 3.75781C2.47266 4.875 2.12891 6.25 2.04297 7.79688C1.95703 9.38672 1.95703 14.1562 2.04297 15.7461C2.12891 17.293 2.47266 18.625 3.58984 19.7852C4.75 20.9023 6.08203 21.2461 7.62891 21.332C9.21875 21.418 13.9883 21.418 15.5781 21.332C17.125 21.2461 18.5 20.9023 19.6172 19.7852C20.7344 18.625 21.0781 17.293 21.1641 15.7461C21.25 14.1562 21.25 9.38672 21.1641 7.79688ZM19.1016 17.4219C18.8008 18.2812 18.1133 18.9258 17.2969 19.2695C16.0078 19.7852 13 19.6562 11.625 19.6562C10.207 19.6562 7.19922 19.7852 5.95312 19.2695C5.09375 18.9258 4.44922 18.2812 4.10547 17.4219C3.58984 16.1758 3.71875 13.168 3.71875 11.75C3.71875 10.375 3.58984 7.36719 4.10547 6.07812C4.44922 5.26172 5.09375 4.61719 5.95312 4.27344C7.19922 3.75781 10.207 3.88672 11.625 3.88672C13 3.88672 16.0078 3.75781 17.2969 4.27344C18.1133 4.57422 18.7578 5.26172 19.1016 6.07812C19.6172 7.36719 19.4883 10.375 19.4883 11.75C19.4883 13.168 19.6172 16.1758 19.1016 17.4219Z"/>
</svg>
