<svg width="24" height="24" viewBox="0 0 24 24" xmlns="http://www.w3.org/2000/svg">
<path d="M10.412 16.1795C10.0498 16.1795 9.74335 16.4859 9.74335 16.8481C9.74335 17.2103 10.0498 17.5167 10.412 17.5167H14.8137C15.1759 17.5167 15.4823 17.2103 15.4823 16.8481C15.4823 16.4859 15.1759 16.1795 14.8137 16.1795H13.2815V10.2733C13.2815 9.91115 12.975 9.6047 12.6128 9.6047H10.412C10.0498 9.6047 9.74335 9.91115 9.74335 10.2733C9.74335 10.6355 10.0498 10.9419 10.412 10.9419H11.9442V16.1795H10.412Z"/>
<path d="M11.6939 8.48912C12.2939 8.48912 12.7804 8.00267 12.7804 7.40261C12.7804 6.80255 12.2939 6.3161 11.6939 6.3161C11.0938 6.3161 10.6074 6.80255 10.6074 7.40261C10.6074 8.00267 11.0938 8.48912 11.6939 8.48912Z"/>
<path fill-rule="evenodd" clip-rule="evenodd" d="M20.5 2.5H3.5C2.94772 2.5 2.5 2.94772 2.5 3.5V20.5C2.5 21.0523 2.94772 21.5 3.5 21.5H20.5C21.0523 21.5 21.5 21.0523 21.5 20.5V3.5C21.5 2.94772 21.0523 2.5 20.5 2.5ZM3.5 1.5C2.39543 1.5 1.5 2.39543 1.5 3.5V20.5C1.5 21.6046 2.39543 22.5 3.5 22.5H20.5C21.6046 22.5 22.5 21.6046 22.5 20.5V3.5C22.5 2.39543 21.6046 1.5 20.5 1.5H3.5Z"/>
</svg>
