<svg width="24" height="24" viewBox="0 0 24 24" xmlns="http://www.w3.org/2000/svg">
<path d="M17.7133 8.66667H16.761V6.7619C16.761 4.13333 14.6276 2 11.999 2C9.37048 2 7.23714 4.13333 7.23714 6.7619V8.66667H6.28476C5.23714 8.66667 4.38 9.52381 4.38 10.5714V20.0952C4.38 21.1429 5.23714 22 6.28476 22H17.7133C18.761 22 19.6181 21.1429 19.6181 20.0952V10.5714C19.6181 9.52381 18.761 8.66667 17.7133 8.66667ZM11.999 17.2381C10.9514 17.2381 10.0943 16.381 10.0943 15.3333C10.0943 14.2857 10.9514 13.4286 11.999 13.4286C13.0467 13.4286 13.9038 14.2857 13.9038 15.3333C13.9038 16.381 13.0467 17.2381 11.999 17.2381ZM14.9514 8.66667H9.04667V6.7619C9.04667 5.13333 10.3705 3.80952 11.999 3.80952C13.6276 3.80952 14.9514 5.13333 14.9514 6.7619V8.66667Z"/>
</svg>
