<svg width="24" height="24" viewBox="0 0 24 24" xmlns="http://www.w3.org/2000/svg">
<path d="M12.0385 14.7803L8.91363 17.9052C8.53529 18.2704 8.03 18.4744 7.5042 18.4744C6.97839 18.4744 6.47311 18.2704 6.09476 17.9052C5.90921 17.7204 5.76197 17.5008 5.66151 17.2589C5.56104 17.017 5.50933 16.7577 5.50933 16.4958C5.50933 16.2339 5.56104 15.9746 5.66151 15.7327C5.76197 15.4908 5.90921 15.2712 6.09476 15.0864L9.21968 11.9615C9.37134 11.8098 9.45654 11.6041 9.45654 11.3896C9.45654 11.1752 9.37134 10.9695 9.21968 10.8178C9.06802 10.6661 8.86233 10.5809 8.64785 10.5809C8.43338 10.5809 8.22768 10.6661 8.07603 10.8178L4.95111 13.9508C4.32158 14.636 3.98111 15.5379 4.00081 16.4682C4.0205 17.3985 4.39884 18.2852 5.0568 18.9432C5.71477 19.6012 6.60149 19.9795 7.53178 19.9992C8.46207 20.0189 9.36401 19.6784 10.0492 19.0489L13.1822 15.924C13.3339 15.7723 13.4191 15.5666 13.4191 15.3521C13.4191 15.1377 13.3339 14.932 13.1822 14.7803C13.0305 14.6287 12.8249 14.5435 12.6104 14.5435C12.3959 14.5435 12.1902 14.6287 12.0385 14.7803ZM18.9488 5.05121C18.2713 4.3779 17.3549 4 16.3997 4C15.4446 4 14.5282 4.3779 13.8507 5.05121L10.7177 8.17612C10.6426 8.25121 10.583 8.34036 10.5424 8.43848C10.5018 8.53659 10.4808 8.64175 10.4808 8.74795C10.4808 8.85415 10.5018 8.9593 10.5424 9.05742C10.583 9.15553 10.6426 9.24468 10.7177 9.31977C10.7928 9.39487 10.8819 9.45443 10.9801 9.49508C11.0782 9.53572 11.1833 9.55663 11.2895 9.55663C11.3957 9.55663 11.5009 9.53572 11.599 9.49508C11.6971 9.45443 11.7863 9.39487 11.8614 9.31977L14.9863 6.19486C15.3646 5.82972 15.8699 5.62566 16.3957 5.62566C16.9215 5.62566 17.4268 5.82972 17.8051 6.19486C17.9907 6.37969 18.1379 6.59933 18.2384 6.8412C18.3389 7.08307 18.3906 7.34239 18.3906 7.60429C18.3906 7.86619 18.3389 8.12552 18.2384 8.36738C18.1379 8.60925 17.9907 8.8289 17.8051 9.01373L14.6802 12.1386C14.6047 12.2135 14.5448 12.3026 14.5039 12.4007C14.463 12.4989 14.442 12.6041 14.442 12.7105C14.442 12.8168 14.463 12.9221 14.5039 13.0202C14.5448 13.1183 14.6047 13.2074 14.6802 13.2823C14.7551 13.3578 14.8442 13.4177 14.9423 13.4586C15.0405 13.4995 15.1457 13.5205 15.2521 13.5205C15.3584 13.5205 15.4636 13.4995 15.5618 13.4586C15.6599 13.4177 15.749 13.3578 15.8239 13.2823L18.9488 10.1493C19.6221 9.47182 20 8.55544 20 7.60027C20 6.64509 19.6221 5.72872 18.9488 5.05121ZM9.39687 14.6031C9.47212 14.6778 9.56137 14.7368 9.6595 14.7769C9.75762 14.817 9.8627 14.8373 9.96869 14.8367C10.0747 14.8373 10.1798 14.817 10.2779 14.7769C10.376 14.7368 10.4653 14.6778 10.5405 14.6031L14.503 10.6406C14.6547 10.489 14.7399 10.2833 14.7399 10.0688C14.7399 9.85431 14.6547 9.64862 14.503 9.49696C14.3514 9.3453 14.1457 9.2601 13.9312 9.2601C13.7167 9.2601 13.511 9.3453 13.3594 9.49696L9.39687 13.4595C9.32138 13.5344 9.26146 13.6234 9.22057 13.7216C9.17968 13.8197 9.15863 13.925 9.15863 14.0313C9.15863 14.1376 9.17968 14.2429 9.22057 14.341C9.26146 14.4392 9.32138 14.5283 9.39687 14.6031Z"/>
</svg>
