<svg width="24" height="24" viewBox="0 0 24 24" xmlns="http://www.w3.org/2000/svg">
<path fill-rule="evenodd" clip-rule="evenodd" d="M12.2296 8.79166C11.345 8.79166 10.6255 9.51125 10.6255 10.3967C10.6255 11.2813 11.345 12 12.2296 12C13.1142 12 13.8338 11.2813 13.8338 10.3967C13.8338 9.51125 13.1142 8.79166 12.2296 8.79166M12.2296 13.375C10.587 13.375 9.25046 12.0394 9.25046 10.3967C9.25046 8.75316 10.587 7.41666 12.2296 7.41666C13.8723 7.41666 15.2088 8.75316 15.2088 10.3967C15.2088 12.0394 13.8723 13.375 12.2296 13.375"/>
<path fill-rule="evenodd" clip-rule="evenodd" d="M12.2287 4.20833C8.81688 4.20833 6.04121 7.01058 6.04121 10.4536C6.04121 14.8343 11.1965 19.1023 12.2287 19.3297C13.2609 19.1014 18.4162 14.8334 18.4162 10.4536C18.4162 7.01058 15.6405 4.20833 12.2287 4.20833V4.20833ZM12.2287 20.7083C10.5842 20.7083 4.66621 15.619 4.66621 10.4536C4.66621 6.25158 8.0588 2.83333 12.2287 2.83333C16.3986 2.83333 19.7912 6.25158 19.7912 10.4536C19.7912 15.619 13.8732 20.7083 12.2287 20.7083V20.7083Z"/>
</svg>
