<svg width="24" height="24" viewBox="0 0 24 24" fill="none" xmlns="http://www.w3.org/2000/svg">
<path d="M15.2321 14.0319C15.0872 13.8867 14.8904 13.805 14.6852 13.805H14.4666C14.4068 13.805 14.3493 13.7818 14.3063 13.7403C14.2181 13.6553 14.2121 13.5167 14.2879 13.4206C14.989 12.5329 15.4059 11.4139 15.4059 10.203C15.4059 7.32933 13.0766 5 10.203 5C7.32933 5 5 7.32933 5 10.203C5 13.0766 7.32933 15.4059 10.203 15.4059C11.4139 15.4059 12.5329 14.989 13.4206 14.2879C13.5167 14.2121 13.6553 14.2181 13.7403 14.3063C13.7818 14.3493 13.805 14.4068 13.805 14.4666V14.6852C13.805 14.8904 13.8867 15.0872 14.0319 15.2321L17.2104 18.4043C17.5402 18.7334 18.0742 18.7331 18.4037 18.4037C18.7331 18.0742 18.7334 17.5402 18.4043 17.2104L15.2321 14.0319ZM10.203 13.805C8.20983 13.805 6.60091 12.1961 6.60091 10.203C6.60091 8.20983 8.20983 6.60091 10.203 6.60091C12.1961 6.60091 13.805 8.20983 13.805 10.203C13.805 12.1961 12.1961 13.805 10.203 13.805Z" fill="black"/>
</svg>
