<svg width="24" height="24" viewBox="0 0 24 24" xmlns="http://www.w3.org/2000/svg">
<path fill-rule="evenodd" clip-rule="evenodd" d="M11.8099 4.11499C7.61097 4.11499 4.19493 7.53011 4.19493 11.729C4.19493 15.9279 7.61097 19.3439 11.8099 19.3439C16.0078 19.3439 19.4239 15.9279 19.4239 11.729C19.4239 7.53011 16.0078 4.11499 11.8099 4.11499M11.8099 20.7303C6.84666 20.7303 2.80859 16.6922 2.80859 11.729C2.80859 6.76575 6.84666 2.72861 11.8099 2.72861C16.7731 2.72861 20.8103 6.76575 20.8103 11.729C20.8103 16.6922 16.7731 20.7303 11.8099 20.7303"/>
<path fill-rule="evenodd" clip-rule="evenodd" d="M21.3066 22.418C21.13 22.418 20.9526 22.3505 20.8167 22.2155L17.5596 18.9677C17.2888 18.6969 17.2879 18.2579 17.5587 17.9871C17.8286 17.7144 18.2676 17.7163 18.5394 17.9852L21.7964 21.234C22.0672 21.5048 22.0682 21.9429 21.7973 22.2137C21.6624 22.3505 21.484 22.418 21.3066 22.418"/>
</svg>
