<svg width="24" height="24" viewBox="0 0 24 24" xmlns="http://www.w3.org/2000/svg">
<path fill-rule="evenodd" clip-rule="evenodd" d="M12.0008 6.83118C9.15025 6.83118 6.83119 9.14961 6.83119 12.0001C6.83119 14.8506 9.15025 17.1697 12.0008 17.1697C14.8506 17.1697 17.1697 14.8506 17.1697 12.0001C17.1697 9.14961 14.8506 6.83118 12.0008 6.83118M12.0008 18.1109C8.63135 18.1109 5.89001 15.3695 5.89001 12.0001C5.89001 8.63071 8.63135 5.89 12.0008 5.89C15.3702 5.89 18.1109 8.63071 18.1109 12.0001C18.1109 15.3695 15.3702 18.1109 12.0008 18.1109"/>
<path fill-rule="evenodd" clip-rule="evenodd" d="M18.4478 19.2566C18.328 19.2566 18.2075 19.2108 18.1153 19.1192L15.9041 16.9143C15.7203 16.7305 15.7197 16.4324 15.9035 16.2486C16.0867 16.0635 16.3848 16.0647 16.5692 16.2473L18.7804 18.4528C18.9642 18.6366 18.9648 18.9341 18.781 19.1179C18.6894 19.2108 18.5683 19.2566 18.4478 19.2566"/>
</svg>
