<svg width="24" height="24" viewBox="0 0 24 24" xmlns="http://www.w3.org/2000/svg">
<path fill-rule="evenodd" clip-rule="evenodd" d="M12.0269 13.434C11.4665 13.434 10.9078 13.2498 10.4405 12.8815L6.68379 9.86817C6.41324 9.6515 6.37136 9.25734 6.5883 8.989C6.80691 8.7215 7.20226 8.679 7.47197 8.89484L11.2253 11.9048C11.6969 12.2765 12.3611 12.2765 12.836 11.9015L16.5516 8.8965C16.8213 8.67734 17.2167 8.719 17.4361 8.98734C17.6548 9.25484 17.6137 9.64817 17.3448 9.8665L13.6225 12.8765C13.1518 13.2482 12.5889 13.434 12.0269 13.434"/>
<path fill-rule="evenodd" clip-rule="evenodd" d="M7.89079 18.88H16.1161C16.1178 18.8783 16.1245 18.88 16.1295 18.88C17.0852 18.88 17.9329 18.54 18.5828 17.8942C19.3375 17.1467 19.7521 16.0725 19.7521 14.87V9.14667C19.7521 6.81917 18.2227 5.13 16.1161 5.13H7.89246C5.78588 5.13 4.25641 6.81917 4.25641 9.14667V14.87C4.25641 16.0725 4.67186 17.1467 5.42571 17.8942C6.07569 18.54 6.92419 18.88 7.87906 18.88H7.89079ZM7.87655 20.13C6.58412 20.13 5.4299 19.6633 4.53868 18.78C3.54612 17.795 3 16.4067 3 14.87V9.14667C3 6.14417 5.10323 3.88 7.89246 3.88H16.1161C18.9053 3.88 21.0086 6.14417 21.0086 9.14667V14.87C21.0086 16.4067 20.4624 17.795 19.4699 18.78C18.5795 19.6625 17.4244 20.13 16.1295 20.13H16.1161H7.89246H7.87655Z"/>
</svg>
