<svg width="24" height="24" viewBox="0 0 24 24" xmlns="http://www.w3.org/2000/svg">
<path fill-rule="evenodd" clip-rule="evenodd" d="M11.9972 3C9.8856 3 8.0336 3.83358 6.74931 5.09471C5.47541 6.34445 4.72077 7.9603 4.41268 9.65342L3.028 17.257C2.81892 18.4035 3.80827 19.4676 5.07801 19.4676H8.60893C8.93225 20.908 10.3335 22 12 22C13.6665 22 15.0671 20.908 15.3911 19.4676H18.922C20.1917 19.4676 21.1811 18.4035 20.972 17.257L19.5873 9.65342C19.2785 7.9603 18.5253 6.34445 17.2521 5.09471C16.5809 4.43349 15.7678 3.90615 14.8636 3.54571C13.9593 3.18527 12.9835 2.99949 11.9972 3ZM11.9972 4.26177C13.7101 4.26177 15.1972 4.93636 16.2392 5.95933C17.2922 6.99307 17.9513 8.36822 18.2227 9.85865L19.6074 17.4622C19.6261 17.5534 19.6223 17.6473 19.5962 17.7371C19.5702 17.8268 19.5226 17.9101 19.4569 17.9808C19.3913 18.0516 19.3092 18.108 19.2166 18.1461C19.1241 18.1841 19.0234 18.2028 18.922 18.2008H5.07801C4.97658 18.2028 4.87592 18.1841 4.78337 18.1461C4.69083 18.108 4.60873 18.0516 4.54306 17.9808C4.47739 17.9101 4.42981 17.8268 4.40378 17.7371C4.37775 17.6473 4.37393 17.5534 4.3926 17.4622L5.77866 9.85865C6.05005 8.36822 6.70777 6.99307 7.76082 5.95933C8.80279 4.93636 10.2837 4.26177 11.9972 4.26177ZM10.049 19.4676H13.951C13.8103 19.8381 13.5467 20.1592 13.1969 20.3861C12.8472 20.613 12.4287 20.7343 12 20.7332C11.5713 20.7343 11.1528 20.613 10.8031 20.3861C10.4533 20.1592 10.1897 19.8381 10.049 19.4676Z"/>
</svg>
