<svg width="24" height="24" viewBox="0 0 24 24" xmlns="http://www.w3.org/2000/svg">
<path fill-rule="evenodd" clip-rule="evenodd" d="M12.2471 2.49994C8.75211 2.49994 6.31611 5.23794 6.31611 7.69494C6.31611 9.77394 5.73911 10.7349 5.22911 11.5829C4.82011 12.2639 4.49711 12.8019 4.49711 13.9709C4.66411 15.8569 5.90911 16.8479 12.2471 16.8479C18.5501 16.8479 19.8341 15.8129 20.0001 13.9059C19.9971 12.8019 19.6741 12.2639 19.2651 11.5829C18.7551 10.7349 18.1781 9.77394 18.1781 7.69494C18.1781 5.23794 15.7421 2.49994 12.2471 2.49994M12.2471 18.3479C7.5711 18.3479 3.3451 18.0179 3.0001 14.0349C2.9971 12.3869 3.5001 11.5489 3.9441 10.8109C4.3931 10.0629 4.8161 9.35794 4.8161 7.69494C4.8161 4.46194 7.8021 0.999939 12.2471 0.999939C16.6921 0.999939 19.6781 4.46194 19.6781 7.69494C19.6781 9.35794 20.1011 10.0629 20.5501 10.8109C20.9941 11.5489 21.4971 12.3869 21.4971 13.9709C21.1481 18.0179 16.9231 18.3479 12.2471 18.3479"/>
<path fill-rule="evenodd" clip-rule="evenodd" d="M12.1983 22.4999H12.1963C11.0753 22.4989 10.0143 22.0049 9.20931 21.1079C8.93231 20.8009 8.95731 20.3259 9.26531 20.0499C9.57331 19.7719 10.0473 19.7969 10.3243 20.1059C10.8423 20.6829 11.5073 20.9999 12.1973 20.9999H12.1983C12.8913 20.9999 13.5593 20.6829 14.0783 20.1049C14.3563 19.7979 14.8303 19.7729 15.1373 20.0499C15.4453 20.3269 15.4703 20.8019 15.1933 21.1089C14.3853 22.0059 13.3223 22.4999 12.1983 22.4999"/>
</svg>
