<svg width="24" height="24" viewBox="0 0 24 24" xmlns="http://www.w3.org/2000/svg">
<path fill-rule="evenodd" clip-rule="evenodd" d="M4.13457 5.94259C4.13457 5.52498 4.46207 5.18644 4.86606 5.18644H9.62419C10.0282 5.18644 10.3557 5.52498 10.3557 5.94259V10.8153C10.3557 11.233 10.0282 11.5715 9.62419 11.5715H4.86606C4.46207 11.5715 4.13457 11.233 4.13457 10.8153V5.94259ZM5.59754 6.69874V10.0592H8.89271V6.69874H5.59754Z"/>
<path fill-rule="evenodd" clip-rule="evenodd" d="M10.8156 6.98227C10.8156 6.56466 11.1431 6.22612 11.5471 6.22612H15.5787C15.9827 6.22612 16.3101 6.56466 16.3101 6.98227C16.3101 7.39989 15.9827 7.73843 15.5787 7.73843H11.5471C11.1431 7.73843 10.8156 7.39989 10.8156 6.98227Z"/>
<path fill-rule="evenodd" clip-rule="evenodd" d="M10.8156 9.77541C10.8156 9.3578 11.1431 9.01926 11.5471 9.01926H15.5787C15.9827 9.01926 16.3101 9.3578 16.3101 9.77541C16.3101 10.193 15.9827 10.5316 15.5787 10.5316H11.5471C11.1431 10.5316 10.8156 10.193 10.8156 9.77541Z"/>
<path fill-rule="evenodd" clip-rule="evenodd" d="M4.13457 14.331C4.13457 13.9134 4.46207 13.5749 4.86606 13.5749H15.3417C15.7457 13.5749 16.0732 13.9134 16.0732 14.331C16.0732 14.7486 15.7457 15.0872 15.3417 15.0872H4.86606C4.46207 15.0872 4.13457 14.7486 4.13457 14.331Z"/>
<path fill-rule="evenodd" clip-rule="evenodd" d="M4.13457 17.1705C4.13457 16.7529 4.46207 16.4144 4.86606 16.4144H15.3417C15.7457 16.4144 16.0732 16.7529 16.0732 17.1705C16.0732 17.5881 15.7457 17.9267 15.3417 17.9267H4.86606C4.46207 17.9267 4.13457 17.5881 4.13457 17.1705Z"/>
<path fill-rule="evenodd" clip-rule="evenodd" d="M2 3.75615C2 3.33854 2.3275 3 2.73148 3H17.2094C17.6134 3 17.9409 3.33854 17.9409 3.75615V18.6528C17.9409 19.0704 17.6134 19.409 17.2094 19.409C16.8054 19.409 16.4779 19.0704 16.4779 18.6528V4.5123H3.46297V18.6524C3.46289 18.8924 3.50897 19.1304 3.59875 19.3525C3.68853 19.5747 3.82035 19.777 3.98701 19.9477C4.15369 20.1184 4.35195 20.2543 4.57065 20.3471C4.78936 20.4398 5.02402 20.4877 5.26115 20.4877H19.7391C20.1431 20.4877 20.4706 20.8262 20.4706 21.2439C20.4706 21.6615 20.1431 22 19.7391 22H5.26115C4.83375 22 4.41037 21.9138 4.01515 21.7461C3.61992 21.5784 3.26037 21.3324 2.95723 21.0219C2.65407 20.7113 2.41325 20.3422 2.24887 19.9356C2.08452 19.529 1.99989 19.0929 2 18.6524C2 18.6523 2 18.6525 2 18.6524V3.75615Z"/>
<path fill-rule="evenodd" clip-rule="evenodd" d="M16.4777 12.3024C16.4777 11.8848 16.8052 11.5462 17.2092 11.5462H22.2685C22.6725 11.5462 23 11.8848 23 12.3024V18.6528C23 19.5427 22.6547 20.3947 22.0424 21.0218C21.4303 21.6487 20.6018 22 19.7391 22C18.8764 22 18.0474 21.6487 17.4353 21.0218C16.823 20.3947 16.4779 19.5427 16.4779 18.6528L16.4777 12.3024ZM17.9407 13.0585L17.9409 18.6528C17.9409 19.1371 18.1284 19.6029 18.4649 19.9475C18.8016 20.2923 19.26 20.4877 19.7391 20.4877C20.2182 20.4877 20.6761 20.2923 21.0128 19.9475C21.3493 19.6029 21.537 19.137 21.537 18.6528V13.0585H17.9407Z"/>
</svg>
