<svg width="24" height="24" viewBox="0 0 24 24" xmlns="http://www.w3.org/2000/svg">
<path fill-rule="evenodd" clip-rule="evenodd" d="M12.1983 22.5H12.1963C11.0753 22.499 10.0143 22.005 9.20933 21.108C8.93233 20.801 8.95733 20.326 9.26533 20.05C9.57333 19.772 10.0473 19.797 10.3243 20.106C10.8423 20.683 11.5073 21 12.1973 21H12.1983C12.8913 21 13.5593 20.683 14.0783 20.105C14.3563 19.798 14.8303 19.773 15.1373 20.05C15.4453 20.327 15.4703 20.802 15.1933 21.109C14.3853 22.006 13.3223 22.5 12.1983 22.5"/>
<path fill-rule="evenodd" clip-rule="evenodd" d="M12.2471 18.348C7.57114 18.348 3.34514 18.018 3.00014 14.035C2.99714 12.387 3.50014 11.549 3.94414 10.811C4.39314 10.063 4.81614 9.358 4.81614 7.695C4.81614 4.462 7.80213 1 12.2471 1C16.6921 1 19.6781 4.462 19.6781 7.695C19.6781 9.358 20.1011 10.063 20.5501 10.811C20.9941 11.549 21.4971 12.387 21.4971 13.971C21.1481 18.018 16.9231 18.348 12.2471 18.348"/>
</svg>
