<svg width="24" height="24" viewBox="0 0 24 24" xmlns="http://www.w3.org/2000/svg">
<path fill-rule="evenodd" clip-rule="evenodd" d="M17.7326 7.48449L14.7256 4.35231V5.65949C14.7256 6.66349 15.5426 7.48149 16.5456 7.48449H17.7326ZM13.8457 2.01172H7.58859H7.57159C5.10859 2.01172 3.05959 4.00972 3.00159 6.49072V17.1877C2.94659 19.7107 4.95459 21.8087 7.47659 21.8657H7.58559L15.6046 21.8647C18.1176 21.7627 20.0716 19.7127 20.0536 17.2037V8.03772C20.0536 7.84472 19.9786 7.65772 19.8446 7.51872L14.7796 2.24172C14.6376 2.09472 14.4426 2.01172 14.2386 2.01172H14.1055C14.0633 2.00434 14.0199 2.00049 13.9756 2.00049C13.9313 2.00049 13.8879 2.00434 13.8457 2.01172ZM13.2256 3.51172V5.65949C13.2256 7.48749 14.7136 8.97949 16.5436 8.98449H18.5536V17.2097C18.5656 18.9097 17.2436 20.2967 15.5746 20.3657H7.51059C5.81459 20.3277 4.46459 18.9167 4.50159 17.2037V6.50872C4.54059 4.85372 5.91659 3.51172 7.57359 3.51172H7.58559H13.2256ZM13.7887 16.1084H8.38867C7.97467 16.1084 7.63867 15.7724 7.63867 15.3584C7.63867 14.9444 7.97467 14.6084 8.38867 14.6084H13.7887C14.2027 14.6084 14.5387 14.9444 14.5387 15.3584C14.5387 15.7724 14.2027 16.1084 13.7887 16.1084ZM8.38818 12.3564H11.7442C12.1582 12.3564 12.4942 12.0204 12.4942 11.6064C12.4942 11.1924 12.1582 10.8564 11.7442 10.8564H8.38818C7.97418 10.8564 7.63818 11.1924 7.63818 11.6064C7.63818 12.0204 7.97418 12.3564 8.38818 12.3564Z"/>
</svg>
