<svg width="24" height="24" viewBox="0 0 24 24" xmlns="http://www.w3.org/2000/svg">
<path d="M16.0494 12.7218C14.9695 11.0371 13.1301 10.0311 11.1291 10.0311C9.12831 10.0311 7.2888 11.0371 6.20901 12.7218L3.60667 16.7815C3.1749 17.4552 2.97567 18.2332 3.03042 19.0314C3.08517 19.8298 3.38895 20.5732 3.9088 21.1816C4.42901 21.7899 5.1164 22.2056 5.89662 22.3839C6.67685 22.5621 7.47667 22.4861 8.20947 22.164L8.25726 22.1428C10.1013 21.3479 12.2091 21.355 14.0486 22.164C14.5231 22.3726 15.0257 22.4781 15.5329 22.4781C15.8087 22.4781 16.0861 22.4467 16.3609 22.3841C17.1411 22.206 17.8285 21.7903 18.3489 21.182C18.869 20.5737 19.1729 19.8301 19.2278 19.0318C19.2828 18.2332 19.0836 17.4552 18.6518 16.7814L16.0494 12.7218ZM17.2798 20.2676C16.6178 21.0414 15.547 21.286 14.615 20.8762C13.5072 20.389 12.3181 20.1454 11.1286 20.1454C9.94021 20.1454 8.75129 20.3888 7.64421 20.8755L7.61272 20.8894C6.68784 21.2805 5.63276 21.0328 4.97815 20.2676C4.31695 19.4936 4.24169 18.3978 4.79101 17.5407L7.39354 13.481C8.2135 12.2018 9.60988 11.4381 11.1291 11.4381C12.6484 11.4381 14.045 12.2018 14.8651 13.481L17.4673 17.5405C18.0168 18.398 17.9413 19.4939 17.2798 20.2676Z"/>
<path d="M4.30667 12.7169C5.08086 12.4195 5.669 11.7957 5.96289 10.9602C6.24231 10.1651 6.21943 9.26749 5.89807 8.43251C5.57653 7.59808 4.99168 6.91691 4.25137 6.51425C3.47335 6.09145 2.61878 6.02261 1.84588 6.32052C0.290918 6.91838 -0.422656 8.83993 0.255395 10.6049C0.79703 12.0097 2.0603 12.8965 3.33748 12.8965C3.6636 12.8965 3.99063 12.8387 4.30667 12.7169ZM1.56828 10.0995C1.16874 9.05948 1.51976 7.95313 2.35126 7.63342C2.50141 7.57556 2.66016 7.54681 2.82221 7.54681C3.07234 7.54681 3.3307 7.61511 3.57937 7.75043C4.02652 7.99341 4.38376 8.4153 4.58518 8.93807C4.78642 9.46122 4.80436 10.0135 4.63554 10.4934C4.48081 10.9332 4.18472 11.2566 3.80203 11.4036L3.80129 11.404C2.9709 11.7241 1.96911 11.1387 1.56828 10.0995Z"/>
<path d="M9.35693 9.53572C11.3008 9.53572 12.8823 7.73393 12.8823 5.51923C12.8823 3.30399 11.3008 1.50183 9.35693 1.50183C7.41324 1.50183 5.83191 3.30399 5.83191 5.51923C5.83191 7.73393 7.41324 9.53572 9.35693 9.53572ZM9.35693 2.90865C10.525 2.90865 11.4755 4.07982 11.4755 5.51923C11.4755 6.9581 10.525 8.1289 9.35693 8.1289C8.18888 8.1289 7.23873 6.9581 7.23873 5.51923C7.23873 4.07982 8.18888 2.90865 9.35693 2.90865Z"/>
<path d="M15.4456 10.5224H15.4458C15.7448 10.6217 16.0498 10.6691 16.3536 10.6691C17.7712 10.6691 19.1528 9.63728 19.68 8.05156C19.9836 7.13877 19.9636 6.1736 19.6237 5.33405C19.2681 4.45531 18.6091 3.81736 17.7679 3.53757C16.9267 3.25814 16.0165 3.3746 15.2055 3.8657C14.4308 4.33501 13.8371 5.09601 13.5341 6.0088C12.8941 7.93437 13.7516 9.95919 15.4456 10.5224V10.5224ZM14.8691 6.45247C15.0671 5.85646 15.4454 5.36536 15.9345 5.06909C16.3869 4.79498 16.8806 4.72521 17.3243 4.87261C17.7678 5.0202 18.1212 5.3714 18.3196 5.86177C18.5341 6.39168 18.5432 7.01169 18.3449 7.60771C17.9496 8.79718 16.848 9.50581 15.8894 9.18738C14.9316 8.86878 14.4738 7.64195 14.8691 6.45247Z"/>
<path d="M22.8691 10.0535L22.8686 10.0529C21.528 9.06266 19.5232 9.49187 18.3991 11.0102C17.2761 12.5293 17.4517 14.5715 18.7902 15.5624C19.2784 15.9241 19.8552 16.0969 20.4455 16.0969C21.4744 16.0969 22.5448 15.5718 23.2602 14.6061C24.3832 13.087 24.2078 11.0448 22.8691 10.0535V10.0535ZM22.1295 13.7691C21.4658 14.665 20.3435 14.9622 19.6274 14.4317C18.9118 13.902 18.8682 12.7422 19.5301 11.8468C19.9701 11.2524 20.6129 10.9218 21.2052 10.9218C21.5048 10.9218 21.7915 11.0064 22.0325 11.1845C22.7475 11.7148 22.7909 12.8742 22.1295 13.7691V13.7691Z"/>
</svg>
