<svg width="24" height="24" viewBox="0 0 24 24" xmlns="http://www.w3.org/2000/svg">
<path fill-rule="evenodd" clip-rule="evenodd" d="M12 16.1084C11.6149 16.1084 11.3023 15.7955 11.3023 15.4101V8.58883C11.3023 8.2034 11.6149 7.89059 12 7.89059C12.3851 7.89059 12.6977 8.2034 12.6977 8.58883V15.4101C12.6977 15.7955 12.3851 16.1084 12 16.1084Z"/>
<path fill-rule="evenodd" clip-rule="evenodd" d="M15.4107 12.6972H8.58928C8.20323 12.6972 7.8916 12.3843 7.8916 11.9989C7.8916 11.6135 8.20323 11.3007 8.58928 11.3007H15.4107C15.7958 11.3007 16.1083 11.6135 16.1083 11.9989C16.1083 12.3843 15.7958 12.6972 15.4107 12.6972Z"/>
<path fill-rule="evenodd" clip-rule="evenodd" d="M7.64094 3.39647C5.06234 3.39647 3.39536 5.16254 3.39536 7.89776V16.1183C3.39536 18.8535 5.06234 20.6196 7.64094 20.6196H16.3591C18.9386 20.6196 20.6047 18.8535 20.6047 16.1183V7.89776C20.6047 5.16254 18.9386 3.39647 16.3591 3.39647H7.64094ZM16.3591 22.0161H7.64093C4.26698 22.0161 2 19.6458 2 16.1183V7.89776C2 4.37028 4.26698 2 7.64093 2H16.3591C19.733 2 22 4.37028 22 7.89776V16.1183C22 19.6458 19.733 22.0161 16.3591 22.0161Z"/>
</svg>
