<svg width="24" height="24" viewBox="0 0 24 24" xmlns="http://www.w3.org/2000/svg">
<path fill-rule="evenodd" clip-rule="evenodd" d="M15.9878 5.76938C14.6359 5.02203 13.0777 4.73428 11.548 4.9495C10.0222 5.16417 8.60715 5.86768 7.51504 6.95438L5.5 8.84783V6.33173C5.5 5.91751 5.16421 5.58173 4.75 5.58173C4.33579 5.58173 4 5.91751 4 6.33173V10.58V10.5817C4 10.6801 4.01894 10.774 4.05337 10.8601C4.08288 10.934 4.12467 11.0043 4.17883 11.0678C4.18942 11.0803 4.20041 11.0923 4.21178 11.104C4.28183 11.1763 4.36302 11.2314 4.45008 11.2694C4.54193 11.3095 4.64336 11.3317 4.75 11.3317H9C9.41421 11.3317 9.75 10.9959 9.75 10.5817C9.75 10.1675 9.41421 9.83173 9 9.83173H6.64341L8.55025 8.03996C8.55576 8.03478 8.5612 8.02951 8.56655 8.02417C9.42962 7.16256 10.5493 6.60477 11.757 6.43487C12.9646 6.26496 14.1948 6.49213 15.2621 7.08215C16.3294 7.67217 17.176 8.59307 17.6744 9.70611C18.1729 10.8191 18.296 12.064 18.0254 13.2531C17.7548 14.4423 17.1051 15.5113 16.1741 16.299C15.2432 17.0868 14.0814 17.5506 12.8639 17.6207C11.6464 17.6908 10.439 17.3633 9.42383 16.6875C8.40863 16.0118 7.64054 15.0244 7.2353 13.8742C7.09766 13.4835 6.66937 13.2784 6.2787 13.416C5.88802 13.5536 5.68289 13.9819 5.82054 14.3726C6.33385 15.8296 7.30676 17.0803 8.59268 17.9362C9.8786 18.7921 11.4079 19.207 12.9501 19.1182C14.4923 19.0295 15.9638 18.4419 17.1431 17.4441C18.3223 16.4463 19.1453 15.0922 19.488 13.586C19.8308 12.0797 19.6748 10.5029 19.0434 9.09307C18.4121 7.68322 17.3397 6.51674 15.9878 5.76938Z"/>
</svg>
