<svg width="24" height="24" viewBox="0 0 24 24" xmlns="http://www.w3.org/2000/svg">
<path fill-rule="evenodd" clip-rule="evenodd" d="M3.29169 4.91667C3.7059 4.91667 4.04169 5.25245 4.04169 5.66667V9.66667H8.04169C8.4559 9.66667 8.79169 10.0025 8.79169 10.4167C8.79169 10.8309 8.4559 11.1667 8.04169 11.1667H3.29169C2.87748 11.1667 2.54169 10.8309 2.54169 10.4167V5.66667C2.54169 5.25245 2.87748 4.91667 3.29169 4.91667Z"/>
<path fill-rule="evenodd" clip-rule="evenodd" d="M10.9017 4.2092C12.5924 3.97133 14.3146 4.28937 15.8089 5.11539C17.3031 5.94142 18.4884 7.23069 19.1862 8.78894C19.884 10.3472 20.0564 12.09 19.6776 13.7548C19.2987 15.4196 18.3891 16.9161 17.0858 18.019C15.7824 19.1219 14.1559 19.7713 12.4514 19.8694C10.7469 19.9675 9.05662 19.509 7.63534 18.5629C6.21406 17.6169 5.13874 16.2346 4.57139 14.6242C4.43375 14.2335 4.63888 13.8053 5.02955 13.6676C5.42023 13.53 5.84851 13.7351 5.98615 14.1258C6.44543 15.4294 7.31593 16.5484 8.46649 17.3143C9.61705 18.0801 10.9853 18.4513 12.3652 18.3719C13.7451 18.2924 15.0617 17.7667 16.1168 16.8739C17.1719 15.9811 17.9083 14.7696 18.215 13.422C18.5217 12.0743 18.3821 10.6634 17.8172 9.40198C17.2523 8.14054 16.2928 7.09684 15.0832 6.42815C13.8735 5.75947 12.4794 5.50201 11.1107 5.69457C9.74206 5.88713 8.47305 6.51929 7.4949 7.49578C7.48955 7.50112 7.48412 7.50639 7.47861 7.51157L3.80527 10.9632C3.50341 11.2469 3.02877 11.2321 2.74512 10.9303C2.46148 10.6284 2.47625 10.1537 2.77811 9.8701L6.44338 6.42601C7.65056 5.22442 9.21488 4.44653 10.9017 4.2092Z"/>
</svg>
