<svg width="24" height="24" viewBox="0 0 24 24" xmlns="http://www.w3.org/2000/svg">
<path fill-rule="evenodd" clip-rule="evenodd" d="M12.1662 9.79C10.947 9.79 9.95607 10.7818 9.95607 12.001C9.95607 13.2193 10.947 14.2102 12.1662 14.2102C13.3853 14.2102 14.3772 13.2193 14.3772 12.001C14.3772 10.7818 13.3853 9.79 12.1662 9.79M12.1662 15.5852C10.1889 15.5852 8.58107 13.9773 8.58107 12.001C8.58107 10.0238 10.1889 8.415 12.1662 8.415C14.1434 8.415 15.7522 10.0238 15.7522 12.001C15.7522 13.9773 14.1434 15.5852 12.1662 15.5852"/>
<path fill-rule="evenodd" clip-rule="evenodd" d="M4.26894 12.0013C5.97394 15.7679 8.84586 18.0073 11.9964 18.0082C15.147 18.0073 18.0189 15.7679 19.7239 12.0013C18.0189 8.23561 15.147 5.99619 11.9964 5.99528C8.84677 5.99619 5.97394 8.23561 4.26894 12.0013V12.0013ZM11.9983 19.3832H11.9946H11.9937C8.20236 19.3804 4.79786 16.723 2.88569 12.2726C2.81144 12.0994 2.81144 11.9032 2.88569 11.7299C4.79786 7.28044 8.20327 4.62303 11.9937 4.62028C11.9955 4.61936 11.9955 4.61936 11.9964 4.62028C11.9983 4.61936 11.9983 4.61936 11.9992 4.62028C15.7905 4.62303 19.195 7.28044 21.1072 11.7299C21.1824 11.9032 21.1824 12.0994 21.1072 12.2726C19.1959 16.723 15.7905 19.3804 11.9992 19.3832H11.9983Z"/>
</svg>
