<svg width="24" height="24" viewBox="0 0 24 24" xmlns="http://www.w3.org/2000/svg">
<path d="M3.14832 11.9969C3.14462 10.0486 4.70536 8.46483 6.62911 8.46483H11.1291L11.125 6.3H6.625C3.52 6.3 1.00485 8.85222 1.01082 11.9969C1.01679 15.1416 3.54163 17.6938 6.64663 17.6938H11.1466L11.1425 15.529H6.64252C4.71877 15.529 3.15202 13.9453 3.14832 11.9969ZM7.76298 13.1363H16.763L16.7587 10.8575H7.75865L7.76298 13.1363ZM17.875 6.3H13.375L13.3791 8.46483H17.8791C19.8029 8.46483 21.3696 10.0486 21.3733 11.9969C21.377 13.9453 19.8163 15.529 17.8925 15.529H13.3925L13.3966 17.6938H17.8966C21.0016 17.6938 23.5168 15.1416 23.5108 11.9969C23.5048 8.85222 20.98 6.3 17.875 6.3Z"/>
</svg>
