<svg width="24" height="24" viewBox="0 0 24 24" xmlns="http://www.w3.org/2000/svg">
<path d="M18.2035 16.8396C18.2035 17.2193 17.9214 17.533 17.5553 17.5827L17.4535 17.5896L3.83576 17.5896C3.42155 17.5896 3.08576 17.2538 3.08576 16.8396C3.08576 16.4599 3.36791 16.1461 3.73399 16.0964L3.83576 16.0896L17.4535 16.0896C17.8678 16.0896 18.2035 16.4253 18.2035 16.8396Z"/>
<path d="M8.46097 20.3857C8.75454 20.6779 8.75564 21.1528 8.46342 21.4463C8.19777 21.7132 7.78117 21.7384 7.48705 21.5212L7.40277 21.4488L3.3061 17.371C3.03835 17.1045 3.01401 16.6862 3.23308 16.3921L3.3061 16.3079L7.40277 12.2301C7.69634 11.9379 8.17121 11.939 8.46342 12.2326C8.72908 12.4994 8.75232 12.9162 8.53379 13.2093L8.46097 13.2932L4.89898 16.839L8.46097 20.3857Z"/>
<path d="M20.9171 6.91111C20.9171 7.29081 20.6349 7.6046 20.2689 7.65427L20.1671 7.66111L6.54932 7.66111C6.1351 7.66111 5.79932 7.32533 5.79932 6.91111C5.79932 6.53142 6.08147 6.21762 6.44755 6.16796L6.54932 6.16111L20.1671 6.16111C20.5813 6.16111 20.9171 6.4969 20.9171 6.91111Z"/>
<path d="M20.6968 6.37967C20.9645 6.64619 20.9888 7.06444 20.7698 7.35855L20.6968 7.44278L16.6001 11.5206C16.3065 11.8128 15.8316 11.8117 15.5394 11.5181C15.2738 11.2512 15.2505 10.8345 15.4691 10.5414L15.5419 10.4574L19.105 6.911L15.5419 3.365C15.275 3.09935 15.2498 2.68274 15.467 2.38863L15.5394 2.30434C15.8051 2.03746 16.2217 2.01229 16.5158 2.22947L16.6001 2.30189L20.6968 6.37967Z"/>
</svg>
