<svg width="24" height="24" viewBox="0 0 24 24" fill="none" xmlns="http://www.w3.org/2000/svg">
<path fill-rule="evenodd" clip-rule="evenodd" d="M12.422 14.0368L12.8854 23.3H11.1154L11.5788 14.0368H12.422ZM9.96399 11.5788V12.422L0.699997 12.8854V11.1154L9.96399 11.5788ZM12.422 9.964H11.5788L11.1154 0.700001H12.8846L12.422 9.964ZM14.0368 11.5788L23.3 11.1154V12.8854L14.0368 12.422V11.5788ZM6.75399 16.1522L10.8259 12.5614L11.4168 13.1523L7.82618 17.223L6.75399 16.1522ZM6.75462 7.80627L7.82486 6.73183L11.4168 10.8057L10.8259 11.3966L6.75462 7.80627ZM17.2458 7.8058L13.175 11.3974L12.5831 10.8056L16.1748 6.7348L17.2458 7.8058ZM12.5832 13.1547L13.1741 12.5638L17.2457 16.1544L16.1749 17.2266L12.5832 13.1547Z" fill="black"/>
</svg>
