<svg width="24" height="24" viewBox="0 0 24 24" xmlns="http://www.w3.org/2000/svg">
<path d="M2.76561 21C2.68502 21.0004 2.60492 20.9872 2.52855 20.961C2.36885 20.9081 2.23065 20.8031 2.13529 20.6622C2.03993 20.5212 1.99271 20.3522 2.00091 20.1811C2.00091 20.0641 2.78855 8.7405 13.9225 7.85145V3.78055C13.9223 3.6255 13.9675 3.47393 14.0522 3.3452C14.137 3.21647 14.2574 3.11642 14.3982 3.05783C14.5389 2.99924 14.6936 2.98476 14.8425 3.01626C14.9913 3.04775 15.1276 3.12378 15.2339 3.23464L22.7814 11.0957C22.9215 11.2415 23 11.4375 23 11.6416C23 11.8457 22.9215 12.0417 22.7814 12.1875L15.2339 20.0486C15.1276 20.1594 14.9913 20.2354 14.8425 20.2669C14.6936 20.2984 14.5389 20.284 14.3982 20.2254C14.2574 20.1668 14.137 20.0667 14.0522 19.938C13.9675 19.8093 13.9223 19.6577 13.9225 19.5026V15.5097C6.48965 15.7983 3.44236 20.5789 3.41177 20.6374C3.34278 20.7485 3.24736 20.84 3.13439 20.9034C3.02142 20.9668 2.89456 21 2.76561 21V21ZM15.4518 5.69122V8.58062C15.452 8.78281 15.3751 8.97715 15.2374 9.12264C15.0997 9.26814 14.912 9.35341 14.7139 9.36049C7.51052 9.62954 4.93351 14.5232 4.00823 17.67C5.91996 15.9855 9.32666 13.9266 14.6413 13.9266H14.6757C14.8785 13.9266 15.073 14.0088 15.2164 14.155C15.3598 14.3013 15.4404 14.4996 15.4404 14.7065V17.5959L21.1756 11.6455L15.4518 5.69122Z"/>
</svg>
