<svg width="24" height="24" viewBox="0 0 24 24" fill="none" xmlns="http://www.w3.org/2000/svg">
<rect width="24" height="24" fill="white"/>
<path fill-rule="evenodd" clip-rule="evenodd" d="M5.16841 5.899C5.78541 5.384 11.1354 3.5 11.9834 3.5C12.8314 3.5 18.1824 5.384 18.7874 5.889C18.9804 6.081 18.9874 6.399 18.9494 8.526C18.9304 9.552 18.9054 10.947 18.9054 12.879C18.9054 18.065 13.1804 20.387 11.9824 20.814C10.7834 20.389 5.06141 18.08 5.06141 12.879C5.06141 10.9789 5.03718 9.59828 5.01926 8.57691L5.01841 8.529C4.97941 6.4 4.98641 6.082 5.16841 5.899ZM11.7664 22.324C11.8374 22.346 11.9104 22.356 11.9834 22.356C12.0564 22.356 12.1294 22.346 12.2004 22.324C12.5354 22.223 20.4054 19.761 20.4054 12.879C20.4054 10.985 20.4297 9.60971 20.4477 8.59561L20.4484 8.554L20.4485 8.5494C20.4944 6.01336 20.504 5.4836 19.8484 4.828C19.0614 4.041 13.1164 2 11.9834 2C10.8494 2 4.90441 4.041 4.11941 4.828C3.46282 5.4836 3.4724 6.01335 3.51833 8.5523L3.51841 8.557L3.51915 8.59867C3.53709 9.61276 3.56141 10.988 3.56141 12.879C3.56141 19.761 11.4314 22.223 11.7664 22.324ZM10.7459 14.2995C10.8869 14.4405 11.0779 14.5195 11.2769 14.5195C11.4759 14.5195 11.6669 14.4405 11.8069 14.2995L15.7049 10.4005C15.9979 10.1075 15.9979 9.63249 15.7049 9.33949C15.4119 9.04649 14.9379 9.04649 14.6449 9.33949L11.2769 12.7075L9.91592 11.3445C9.62292 11.0515 9.14692 11.0515 8.85492 11.3445C8.56192 11.6365 8.56192 12.1125 8.85392 12.4055L10.7459 14.2995Z" fill="black"/>
</svg>
