<svg width="24" height="24" viewBox="0 0 24 24" xmlns="http://www.w3.org/2000/svg">
<path fill-rule="evenodd" clip-rule="evenodd" d="M7.64094 3.39647C5.06234 3.39647 3.39536 5.16254 3.39536 7.89776V16.1183C3.39536 18.8535 5.06234 20.6196 7.64094 20.6196H16.3591C18.9386 20.6196 20.6047 18.8535 20.6047 16.1183V7.89776C20.6047 5.16254 18.9386 3.39647 16.3591 3.39647H7.64094ZM16.3591 22.0161H7.64093C4.26698 22.0161 2 19.6458 2 16.1183V7.89776C2 4.37028 4.26698 2 7.64093 2H16.3591C19.733 2 22 4.37028 22 7.89776V16.1183C22 19.6458 19.733 22.0161 16.3591 22.0161Z"/>
<path d="M8.82929 11.9079L7.0892 13.6809C6.97027 13.808 6.97027 14.005 7.0892 14.1321L8.82929 15.9051C9.02333 16.1084 9.36133 15.9623 9.36133 15.6826V14.5388H13.1232C13.4674 14.5388 13.7491 14.2528 13.7491 13.9033C13.7491 13.5538 13.4674 13.2678 13.1232 13.2678H9.36133V12.1303C9.36133 11.8443 9.02333 11.7045 8.82929 11.9079ZM17.9116 9.86794L16.1715 8.09494C15.9774 7.89158 15.6394 8.03774 15.6394 8.31736V9.45488H11.8713C11.5271 9.45488 11.2454 9.74085 11.2454 10.0904C11.2454 10.4399 11.5271 10.7259 11.8713 10.7259H15.6332V11.8634C15.6332 12.1493 15.9712 12.2891 16.1652 12.0858L17.9053 10.3128C18.0305 10.192 18.0305 9.98869 17.9116 9.86794Z"/>
</svg>
