<svg width="24" height="24" viewBox="0 0 24 24" xmlns="http://www.w3.org/2000/svg">
<path fill-rule="evenodd" clip-rule="evenodd" d="M11.9834 3.5C11.1354 3.5 5.78541 5.384 5.16841 5.899C4.98641 6.082 4.97941 6.4 5.01841 8.529C5.03641 9.555 5.06141 10.949 5.06141 12.879C5.06141 18.08 10.7834 20.389 11.9824 20.814C13.1804 20.387 18.9054 18.065 18.9054 12.879C18.9054 10.947 18.9304 9.552 18.9494 8.526C18.9874 6.399 18.9804 6.081 18.7874 5.889C18.1824 5.384 12.8314 3.5 11.9834 3.5M11.9834 22.356C11.9104 22.356 11.8374 22.346 11.7664 22.324C11.4314 22.223 3.56141 19.761 3.56141 12.879C3.56141 10.962 3.53641 9.575 3.51841 8.557C3.47241 6.014 3.46241 5.484 4.11941 4.828C4.90441 4.041 10.8494 2 11.9834 2C13.1164 2 19.0614 4.041 19.8484 4.828C20.5044 5.484 20.4944 6.014 20.4484 8.554C20.4304 9.572 20.4054 10.959 20.4054 12.879C20.4054 19.761 12.5354 22.223 12.2004 22.324C12.1294 22.346 12.0564 22.356 11.9834 22.356"/>
<path fill-rule="evenodd" clip-rule="evenodd" d="M14.3626 14.5752C14.1706 14.5752 13.9786 14.5022 13.8326 14.3552L10.0746 10.5972C9.78159 10.3042 9.78159 9.83019 10.0746 9.53719C10.3676 9.24419 10.8416 9.24419 11.1346 9.53719L14.8926 13.2952C15.1856 13.5882 15.1856 14.0622 14.8926 14.3552C14.7466 14.5022 14.5546 14.5752 14.3626 14.5752"/>
<path fill-rule="evenodd" clip-rule="evenodd" d="M10.6048 14.5752C10.4128 14.5752 10.2208 14.5022 10.0748 14.3552C9.78179 14.0622 9.78179 13.5882 10.0748 13.2952L13.8328 9.53719C14.1258 9.24419 14.5998 9.24419 14.8928 9.53719C15.1858 9.83019 15.1858 10.3042 14.8928 10.5972L11.1348 14.3552C10.9888 14.5022 10.7968 14.5752 10.6048 14.5752"/>
</svg>
