<svg width="24" height="24" viewBox="0 0 24 24" xmlns="http://www.w3.org/2000/svg">
<path fill-rule="evenodd" clip-rule="evenodd" d="M12 5.41666C12.4142 5.41666 12.75 5.75245 12.75 6.16666V11.25H17.8333C18.2475 11.25 18.5833 11.5858 18.5833 12C18.5833 12.4142 18.2475 12.75 17.8333 12.75H12.75V17.8333C12.75 18.2475 12.4142 18.5833 12 18.5833C11.5858 18.5833 11.25 18.2475 11.25 17.8333V12.75H6.16666C5.75245 12.75 5.41666 12.4142 5.41666 12C5.41666 11.5858 5.75245 11.25 6.16666 11.25H11.25V6.16666C11.25 5.75245 11.5858 5.41666 12 5.41666Z"/>
</svg>
