<svg width="24" height="24" viewBox="0 0 24 24" xmlns="http://www.w3.org/2000/svg">
<path fill-rule="evenodd" clip-rule="evenodd" d="M3.5 17.0245V14.9795C4.787 14.6435 5.74 13.4595 5.737 11.9935C5.709 11.2155 5.381 10.4955 4.812 9.96449C4.437 9.61449 3.986 9.37549 3.5 9.25949V7.14249C3.501 5.68549 4.687 4.50049 6.144 4.50049H17.861C19.318 4.50149 20.501 5.68849 20.5 7.14649L20.499 9.19149C19.213 9.52549 18.26 10.6965 18.26 12.0855C18.261 13.4745 19.214 14.6455 20.5 14.9785V17.0265C20.499 18.4825 19.313 19.6665 17.857 19.6665H6.141C5.436 19.6665 4.772 19.3915 4.273 18.8925C3.774 18.3935 3.5 17.7305 3.5 17.0245ZM6.142 21.1665H17.857C20.14 21.1665 21.999 19.3085 22 17.0245V14.3245C22 13.9105 21.664 13.5745 21.25 13.5745C20.429 13.5745 19.761 12.9065 19.76 12.0845C19.76 11.2645 20.429 10.5965 21.25 10.5965C21.664 10.5965 22 10.2605 22 9.84649V7.14749C22.002 4.86349 20.146 3.00149 17.856 3.00049H6.144C3.86 3.00049 2.001 4.85849 2 7.14349V9.93349C2 10.1365 2.083 10.3325 2.229 10.4735C2.375 10.6145 2.569 10.6855 2.776 10.6835C3.158 10.6625 3.514 10.8035 3.789 11.0615C4.065 11.3195 4.225 11.6675 4.239 12.0855C4.24 12.9055 3.574 13.5735 2.75 13.5745C2.336 13.5745 2 13.9105 2 14.3245V17.0245C2 18.1305 2.43 19.1705 3.212 19.9535C3.995 20.7365 5.035 21.1665 6.142 21.1665ZM10.6129 11.8775L10.1039 11.3815L10.8079 11.2795C11.1879 11.2245 11.5159 10.9865 11.6849 10.6425L11.9999 10.0045L12.3149 10.6415C12.4839 10.9865 12.8119 11.2245 13.1899 11.2795L13.8949 11.3815L13.3859 11.8775C13.1129 12.1435 12.9869 12.5265 13.0499 12.9095L13.1699 13.6085L12.5449 13.2805C12.2029 13.0985 11.7959 13.0975 11.4569 13.2785L10.8279 13.6095L10.9479 12.9115C11.0139 12.5345 10.8889 12.1485 10.6129 11.8775ZM13.0739 15.2515C13.2459 15.3425 13.4319 15.3875 13.6179 15.3875C13.8569 15.3875 14.0949 15.3125 14.2989 15.1655C14.6609 14.9035 14.8389 14.4665 14.7639 14.0255L14.5579 12.8305L15.4279 11.9835C15.7479 11.6715 15.8609 11.2145 15.7239 10.7905C15.5869 10.3655 15.2259 10.0605 14.7839 9.99649L13.5819 9.82049L13.0439 8.73249C12.8469 8.33149 12.4459 8.08249 11.9999 8.08249C11.5519 8.08249 11.1519 8.33149 10.9549 8.73149L10.4179 9.82049L9.21389 9.99649C8.77289 10.0605 8.41289 10.3655 8.27489 10.7905C8.13789 11.2145 8.25189 11.6715 8.57089 11.9825L9.43989 12.8295L9.23489 14.0255C9.15989 14.4655 9.33689 14.9015 9.69789 15.1645C10.0579 15.4265 10.5289 15.4595 10.9249 15.2525L11.9999 14.6885L13.0739 15.2515Z"/>
</svg>
