<svg width="24" height="24" viewBox="0 0 24 24" xmlns="http://www.w3.org/2000/svg">
<path fill-rule="evenodd" clip-rule="evenodd" d="M9.5 15.75C12.9518 15.75 15.75 12.9518 15.75 9.5C15.75 6.04822 12.9518 3.25 9.5 3.25C6.04822 3.25 3.25 6.04822 3.25 9.5C3.25 12.9518 6.04822 15.75 9.5 15.75ZM9.5 17C13.6421 17 17 13.6421 17 9.5C17 5.35786 13.6421 2 9.5 2C5.35786 2 2 5.35786 2 9.5C2 13.6421 5.35786 17 9.5 17Z"/>
<path fill-rule="evenodd" clip-rule="evenodd" d="M14.5 20.75C17.9518 20.75 20.75 17.9518 20.75 14.5C20.75 11.0482 17.9518 8.25 14.5 8.25C11.0482 8.25 8.25 11.0482 8.25 14.5C8.25 17.9518 11.0482 20.75 14.5 20.75ZM14.5 22C18.6421 22 22 18.6421 22 14.5C22 10.3579 18.6421 7 14.5 7C10.3579 7 7 10.3579 7 14.5C7 18.6421 10.3579 22 14.5 22Z"/>
</svg>
