<svg width="24" height="24" viewBox="0 0 24 24" xmlns="http://www.w3.org/2000/svg">
<path d="M21.469 12.622L13.369 4.522C13.045 4.198 12.595 4 12.1 4H5.8C4.81 4 4 4.81 4 5.8V12.1C4 12.595 4.198 13.045 4.531 13.378L12.631 21.478C12.955 21.802 13.405 22 13.9 22C14.395 22 14.845 21.802 15.169 21.469L21.469 15.169C21.802 14.845 22 14.395 22 13.9C22 13.405 21.793 12.946 21.469 12.622ZM7.15 8.5C6.403 8.5 5.8 7.897 5.8 7.15C5.8 6.403 6.403 5.8 7.15 5.8C7.897 5.8 8.5 6.403 8.5 7.15C8.5 7.897 7.897 8.5 7.15 8.5Z"/>
</svg>
