<svg width="24" height="24" viewBox="0 0 24 24" xmlns="http://www.w3.org/2000/svg">
<path fill-rule="evenodd" clip-rule="evenodd" d="M20.8229 3.31714L20.2162 5.21295C20.186 5.30751 20.1528 5.40037 20.1168 5.49147L22.0252 4.64329L20.5908 6.79492C20.1444 7.46453 19.5936 8.04427 18.9902 8.53709V8.63574C18.9902 13.5738 15.2539 19.2812 8.34567 19.2812C6.20893 19.2812 4.24026 18.675 2.59027 17.5989L3.093 16.2265C3.36255 16.2602 3.58433 16.2871 3.83005 16.2871C4.67987 16.2871 5.48992 16.1145 6.23075 15.8037C5.25876 15.2923 4.50869 14.4154 4.17609 13.3409L3.85179 12.2932C3.26538 11.568 2.91403 10.6448 2.91403 9.63281V8.30722L3.15039 8.44228C3.01785 8.03174 2.94724 7.59477 2.94724 7.14257C2.94724 6.35178 3.14561 5.61919 3.51896 4.99693L4.06496 4.08694L4.7405 4.90538C6.15873 6.62362 8.20685 7.83363 10.5178 8.19183C10.5427 5.87324 12.4294 4.00195 14.7539 4.00195C15.8029 4.00195 16.7659 4.36966 17.5274 5.02101C18.0857 4.86415 18.6326 4.63133 19.1161 4.34125L20.8229 3.31714ZM4.63495 10.7144C4.98338 11.5257 5.7136 12.1326 6.60606 12.3185L6.635 13.7803C6.50115 13.8138 6.33982 13.8505 6.16524 13.8798C6.65348 14.4272 7.36557 14.7758 8.16276 14.7931L10.2731 14.839L8.60691 16.135C7.83451 16.7357 6.94692 17.1996 5.98147 17.4808C6.73012 17.6773 7.52159 17.7812 8.34567 17.7812C14.2538 17.7812 17.4902 12.9291 17.4902 8.63671V7.79687L17.7902 7.57187C17.8517 7.52577 17.9124 7.47883 17.9723 7.43106L17.68 6.53183C17.61 6.54906 17.5399 6.5653 17.4698 6.58053L17.058 6.67005L16.7674 6.36489C16.2423 5.81351 15.5409 5.50195 14.7539 5.50195C13.2423 5.50195 12.0175 6.72671 12.0175 8.23827C12.0175 8.44071 12.0428 8.64528 12.0948 8.85325L12.3421 9.84242L11.3241 9.78391C8.67885 9.63189 6.26814 8.52161 4.46538 6.80619C4.45343 6.91477 4.44724 7.02694 4.44724 7.14257C4.44724 8.07985 4.91311 8.90879 5.6688 9.4039L8.02115 10.9451L5.21374 10.7799C5.02334 10.7687 4.82924 10.7475 4.63495 10.7144Z"/>
</svg>
