<svg width="24" height="24" viewBox="0 0 24 24" xmlns="http://www.w3.org/2000/svg">
<path opacity="0.4" d="M6.45651 21.978C4.00743 21.978 2.02151 19.9923 2.02151 17.544V12.669C2.02151 10.2198 4.0073 8.234 6.45651 8.234H7.38951C7.80373 8.234 8.13951 8.56978 8.13951 8.984C8.13951 9.39821 7.80373 9.734 7.38951 9.734H6.45651C4.83573 9.734 3.52151 11.0482 3.52151 12.669L3.52151 17.544C3.52151 19.1637 4.8356 20.478 6.45651 20.478H17.5865C19.2074 20.478 20.5215 19.1637 20.5215 17.544V12.659C20.5215 11.0439 19.212 9.734 17.5975 9.734H16.6545C16.2403 9.734 15.9045 9.39821 15.9045 8.984C15.9045 8.56978 16.2403 8.234 16.6545 8.234H17.5975C20.041 8.234 22.0215 10.216 22.0215 12.659V17.544C22.0215 19.9923 20.0356 21.978 17.5865 21.978H6.45651Z" fill="#333333"/>
<path d="M8.57481 4.58965C8.28257 4.88319 8.28363 5.35807 8.57717 5.65031C8.87072 5.94255 9.34559 5.94149 9.63783 5.64795L11.2714 4.00707L11.2714 14.2315C11.2714 14.6457 11.6072 14.9815 12.0214 14.9815C12.4356 14.9815 12.7714 14.6457 12.7714 14.2315L12.7714 4.00683L14.4059 5.64804C14.6982 5.94153 15.1731 5.94251 15.4666 5.65022C15.7601 5.35792 15.761 4.88305 15.4687 4.58956L12.5672 1.67608C12.4304 1.53104 12.2365 1.4405 12.0214 1.4405C11.8085 1.4405 11.6163 1.52923 11.4798 1.67174L8.57481 4.58965Z"/>
</svg>
