<svg width="24" height="24" viewBox="0 0 24 24" fill="none" xmlns="http://www.w3.org/2000/svg">
<path fill-rule="evenodd" clip-rule="evenodd" d="M11.0143 6.02361C10.1825 6.02361 9.11874 6.8679 8.23324 7.57132C7.38128 8.24694 6.70853 8.78169 6.0377 8.83153C5.74061 8.85261 5.48569 8.86219 5.26144 8.86986C4.54557 8.89382 4.36444 8.91011 4.04149 9.17653C3.6179 9.5244 3.62461 10.9456 3.62844 11.7937L3.6294 12.0055V12.0094L3.62844 12.2212C3.62461 13.0702 3.6179 14.4914 4.04149 14.8393C4.36349 15.1057 4.54461 15.1211 5.25857 15.1469C5.48378 15.1537 5.73965 15.1632 6.0377 15.1853C6.70853 15.2342 7.38128 15.7689 8.23324 16.4445C9.29028 17.2831 10.5994 18.3229 11.4676 17.8907C12.194 17.261 12.2717 15.5916 12.2717 12.0074C12.2717 8.42328 12.194 6.75482 11.4676 6.12423C11.3267 6.05428 11.1744 6.02361 11.0143 6.02361M11.0239 19.4364C9.69086 19.4364 8.36932 18.3871 7.34007 17.5706C6.87528 17.2016 6.17282 16.6439 5.93036 16.6189C5.65532 16.5979 5.41765 16.5892 5.20778 16.5835C4.44303 16.5557 3.83832 16.5356 3.12724 15.9491C2.17657 15.1661 2.1852 13.5293 2.19095 12.2144L2.1919 12.0074L2.19095 11.8004C2.1852 10.4856 2.17657 8.84973 3.12724 8.06678C3.83928 7.48028 4.44494 7.45919 5.21161 7.43332C5.42053 7.42565 5.65724 7.41798 5.93228 7.39786C6.17282 7.37198 6.87528 6.81423 7.34007 6.44528C8.68078 5.38057 10.5169 3.92678 12.2276 4.9014C12.2573 4.91961 12.287 4.93878 12.3138 4.96082C13.6497 6.01019 13.7092 7.98915 13.7092 12.0074C13.7092 16.0267 13.6497 18.0056 12.3138 19.056C12.287 19.0771 12.2573 19.0972 12.2266 19.1144C11.8299 19.3406 11.4264 19.4364 11.0239 19.4364" fill="black"/>
<path fill-rule="evenodd" clip-rule="evenodd" d="M19.2804 18.568C19.1386 18.568 18.9958 18.5258 18.8703 18.4386C18.5444 18.2125 18.4639 17.7649 18.691 17.4381C20.9843 14.1415 20.9843 9.87783 18.691 6.57542C18.4639 6.24958 18.5444 5.80204 18.8712 5.57492C19.197 5.34779 19.6436 5.42925 19.8708 5.75604C22.4707 9.49738 22.4707 14.5219 19.8708 18.2604C19.7308 18.4607 19.5075 18.568 19.2804 18.568" fill="black"/>
<path fill-rule="evenodd" clip-rule="evenodd" d="M16.8817 16.2593C16.76 16.2593 16.6373 16.2286 16.5243 16.1634C16.1802 15.966 16.0614 15.5262 16.2588 15.1831C17.381 13.2271 17.381 10.7949 16.2588 8.83315C16.0614 8.48815 16.1812 8.04924 16.5252 7.85182C16.8702 7.65824 17.3082 7.7742 17.5056 8.11824C18.8808 10.5217 18.8808 13.5022 17.5056 15.898C17.3724 16.1299 17.1309 16.2593 16.8817 16.2593" fill="black"/>
</svg>
