<svg width="24" height="24" viewBox="0 0 24 24" xmlns="http://www.w3.org/2000/svg">
<path fill-rule="evenodd" clip-rule="evenodd" d="M6.07629 5.75335C6.12529 5.75135 6.40829 5.75135 6.84729 5.75135C8.19529 5.75135 11.0143 5.75535 13.0803 5.75835C14.5743 5.64135 15.8783 6.71335 15.9913 8.10535C15.9983 8.33835 15.9983 12.6773 15.9973 15.5373C15.9973 15.5483 15.9973 15.5593 15.9983 15.5703C16.0273 16.2313 15.7913 16.8713 15.3323 17.3703C14.8413 17.9053 14.1593 18.2173 13.4243 18.2473C13.2766 18.2528 10.8058 18.2486 8.42139 18.2446C7.7231 18.2434 7.03223 18.2423 6.40929 18.2413C4.92329 18.3553 3.62529 17.2963 3.51129 15.9113C3.50429 15.6733 3.50329 11.3313 3.50329 8.43835C3.47229 7.77435 3.70829 7.13435 4.16629 6.63335C4.65729 6.09735 5.33829 5.78435 6.07629 5.75335ZM2.01429 16.0073C2.18829 18.1323 4.03229 19.7523 6.14629 19.7513C6.25229 19.7513 6.35829 19.7473 6.46429 19.7393C6.85159 19.7401 7.33585 19.7412 7.86789 19.7423C10.1685 19.7474 13.3626 19.7545 13.4763 19.7463C14.6223 19.6993 15.6743 19.2163 16.4373 18.3853C17.1633 17.5953 17.5393 16.5783 17.4973 15.5223C17.4973 15.4988 17.4973 15.4753 17.4973 15.4518L19.5555 17.143C19.9225 17.444 20.3675 17.599 20.8185 17.599C21.1085 17.599 21.4005 17.536 21.6765 17.405C22.3805 17.073 22.8195 16.381 22.8205 15.601L22.8325 8.25204C22.8335 7.47204 22.3955 6.78004 21.6905 6.44504C20.9855 6.11204 20.1725 6.20904 19.5685 6.70404L17.4927 8.40351C17.4914 8.16658 17.49 8.03632 17.4883 8.01335C17.3073 5.77235 15.2763 4.10235 13.0263 4.26035C12.71 4.25973 12.3289 4.25893 11.9098 4.25805C9.6004 4.25318 6.13794 4.24588 6.02029 4.25435C4.87329 4.30335 3.82229 4.78835 3.06029 5.62035C2.33029 6.41735 1.95629 7.44135 2.00429 8.47235C2.00129 15.8298 2.01126 15.9659 2.01428 16.0072L2.01429 16.0073ZM17.4969 10.3379C17.4977 11.1729 17.498 12.2312 17.4978 13.5111L20.5065 15.984C20.7275 16.164 20.9495 16.09 21.0355 16.048C21.1215 16.008 21.3205 15.883 21.3205 15.599L21.3325 8.25004C21.3335 7.96604 21.1335 7.84104 21.0475 7.80004C20.9625 7.76004 20.7375 7.68504 20.5185 7.86504L17.4969 10.3379Z"/>
</svg>
