<svg width="24" height="24" viewBox="0 0 24 24" xmlns="http://www.w3.org/2000/svg">
<path fill-rule="evenodd" clip-rule="evenodd" d="M9 14V11.292L15.4739 4.81812L16.9867 3.30537L19.6946 6.01333L19.1255 6.58242L11.708 14H9ZM21.7888 2.90099C22.0704 3.18261 22.0704 3.63755 21.7888 3.91918L20.7048 5.00317L20.4673 5.24066L18.182 2.95539L17.7593 2.5327L19.0808 1.21122C19.3624 0.929593 19.8174 0.929593 20.099 1.21122L21.7888 2.90099ZM19.1393 17V9.3971L21.1393 7.3971V17C21.1393 19.2091 19.3484 21 17.1393 21H7C4.79086 21 3 19.2091 3 17V6.81812C3 4.60898 4.79086 2.81812 7 2.81812H14.6455L12.6455 4.81812H7C5.89543 4.81812 5 5.71355 5 6.81812V17C5 18.1045 5.89543 19 7 19H17.1393C18.2439 19 19.1393 18.1045 19.1393 17Z"/>
</svg>
