<svg width="24" height="24" viewBox="0 0 24 24" fill="none" xmlns="http://www.w3.org/2000/svg">
<path d="M2.34998 21.821L3.73622 16.6712C2.61825 14.6651 2.26306 12.3242 2.73582 10.0779C3.20859 7.8317 4.4776 5.83085 6.30999 4.44255C8.14238 3.05426 10.4152 2.37163 12.7115 2.51994C15.0077 2.66826 17.1733 3.63756 18.8109 5.24997C20.4485 6.86239 21.4482 9.00977 21.6266 11.2981C21.805 13.5864 21.1501 15.8621 19.7821 17.7076C18.4141 19.5532 16.4247 20.8447 14.1791 21.3453C11.9334 21.8459 9.58208 21.5219 7.55656 20.4329L2.34998 21.821ZM7.80761 18.5058L8.12961 18.6963C9.59674 19.5637 11.3103 19.9226 13.0033 19.7172C14.6963 19.5118 16.2736 18.7535 17.4895 17.5605C18.7053 16.3675 19.4913 14.8069 19.7251 13.1218C19.9589 11.4367 19.6272 9.72186 18.7818 8.2444C17.9365 6.76695 16.6249 5.60993 15.0514 4.95364C13.478 4.29736 11.7311 4.17867 10.0829 4.61608C8.43479 5.0535 6.978 6.02243 5.93959 7.3719C4.90119 8.72137 4.33948 10.3756 4.34201 12.0767C4.34063 13.4872 4.73172 14.8705 5.47174 16.0724L5.67368 16.4045L4.89869 19.2788L7.80761 18.5058Z" fill="#00D95F"/>
<path fill-rule="evenodd" clip-rule="evenodd" d="M15.6228 13.399C15.434 13.2472 15.213 13.1403 14.9766 13.0865C14.7401 13.0327 14.4945 13.0335 14.2584 13.0887C13.9036 13.2357 13.6744 13.791 13.4452 14.0686C13.3969 14.1352 13.3258 14.1819 13.2455 14.1999C13.1651 14.2179 13.0808 14.2061 13.0086 14.1666C11.7098 13.6592 10.6212 12.7288 9.91956 11.5264C9.85972 11.4514 9.83139 11.3561 9.84055 11.2606C9.84971 11.1652 9.89565 11.077 9.96868 11.0147C10.2243 10.7622 10.412 10.4496 10.5144 10.1056C10.5372 9.72615 10.45 9.34821 10.2634 9.01682C10.1191 8.55223 9.8445 8.13854 9.47204 7.82464C9.27993 7.73846 9.06692 7.70956 8.85872 7.74144C8.65051 7.77331 8.456 7.8646 8.29865 8.00428C8.02547 8.23937 7.80865 8.53258 7.66414 8.86232C7.51962 9.19206 7.4511 9.54994 7.46363 9.9096C7.46447 10.1116 7.49013 10.3127 7.54003 10.5084C7.66676 10.9787 7.86166 11.428 8.11854 11.8421C8.30388 12.1593 8.5061 12.4665 8.72434 12.7621C9.43359 13.7333 10.3251 14.5578 11.3495 15.19C11.8635 15.5113 12.4129 15.7725 12.9868 15.9685C13.5829 16.238 14.2411 16.3415 14.8915 16.2679C15.262 16.212 15.6131 16.066 15.9138 15.8429C16.2146 15.6199 16.4557 15.3265 16.6161 14.9886C16.7103 14.7845 16.7389 14.5563 16.6979 14.3354C16.5997 13.8835 15.9939 13.6168 15.6228 13.399Z" fill="#00D95F"/>
</svg>
