<svg width="24" height="24" viewBox="0 0 24 24" xmlns="http://www.w3.org/2000/svg">
<path fill-rule="evenodd" clip-rule="evenodd" d="M11.9951 17.4267C11.5811 17.4267 11.2451 17.0907 11.2451 16.6767V14.1397C11.2451 13.7257 11.5811 13.3897 11.9951 13.3897C12.4091 13.3897 12.7451 13.7257 12.7451 14.1397V16.6767C12.7451 17.0907 12.4091 17.4267 11.9951 17.4267"/>
<path fill-rule="evenodd" clip-rule="evenodd" d="M3.5002 11.393C5.8762 12.684 8.8722 13.391 11.9902 13.391C15.1142 13.391 18.1132 12.684 20.4902 11.393V8.391C20.4902 7.116 19.4592 6.08 18.1902 6.08H5.8102C4.5362 6.08 3.5002 7.112 3.5002 8.381V11.393ZM11.9902 14.891C8.4452 14.891 5.0282 14.033 2.3712 12.477C2.1412 12.343 2.0002 12.097 2.0002 11.83V8.381C2.0002 6.285 3.7092 4.58 5.8102 4.58H18.1902C20.2862 4.58 21.9902 6.289 21.9902 8.391V11.83C21.9902 12.097 21.8482 12.343 21.6192 12.477C18.9622 14.033 15.5422 14.891 11.9902 14.891V14.891Z"/>
<path fill-rule="evenodd" clip-rule="evenodd" d="M15.4951 6.0761C15.0811 6.0761 14.7451 5.7401 14.7451 5.3261V4.9601C14.7451 4.1551 14.0901 3.5001 13.2851 3.5001H10.7051C9.9001 3.5001 9.2451 4.1551 9.2451 4.9601V5.3261C9.2451 5.7401 8.9091 6.0761 8.4951 6.0761C8.0811 6.0761 7.7451 5.7401 7.7451 5.3261V4.9601C7.7451 3.3281 9.0731 2.0001 10.7051 2.0001H13.2851C14.9171 2.0001 16.2451 3.3281 16.2451 4.9601V5.3261C16.2451 5.7401 15.9091 6.0761 15.4951 6.0761"/>
<path fill-rule="evenodd" clip-rule="evenodd" d="M17.7949 21.7402H6.1949C4.1199 21.7402 2.3729 20.1192 2.2159 18.0492L2.0259 15.5402C1.9949 15.1272 2.3049 14.7662 2.7179 14.7352C3.1329 14.7202 3.4909 15.0132 3.5229 15.4272L3.7119 17.9352C3.8099 19.2272 4.8999 20.2402 6.1949 20.2402H17.7949C19.0899 20.2402 20.1809 19.2272 20.2779 17.9352L20.4679 15.4272C20.4999 15.0132 20.8669 14.7192 21.2729 14.7352C21.6859 14.7662 21.9949 15.1272 21.9639 15.5402L21.7739 18.0492C21.6169 20.1192 19.8699 21.7402 17.7949 21.7402"/>
</svg>
