<svg width="24" height="24" viewBox="0 0 24 24" xmlns="http://www.w3.org/2000/svg">
<path fill-rule="evenodd" clip-rule="evenodd" d="M12.0191 3.75C12.0191 3.75 12.0192 3.75 12.0192 4.5L12.0192 5.25L11.9468 5.25011C11.899 5.25023 11.8283 5.25045 11.7376 5.25091C11.5563 5.25181 11.295 5.25363 10.9762 5.25728C10.3382 5.26456 9.47137 5.27913 8.55417 5.30822C7.63569 5.33735 6.6731 5.38084 5.84177 5.4455C4.9886 5.51185 4.33945 5.59621 4.00834 5.69023L3.99591 5.69376C3.38553 5.85577 2.85586 6.38279 2.68903 7.06177L2.68609 7.07372L2.68277 7.08557C2.47762 7.81614 2.36433 9.02804 2.30653 10.116C2.27828 10.6477 2.26412 11.1299 2.25704 11.4793C2.25351 11.6538 2.25175 11.7947 2.25087 11.8916C2.25043 11.94 2.25021 11.9774 2.25011 12.0024L2.25001 12.0305V12.0475L2.25011 12.0753C2.25021 12.1 2.25043 12.137 2.25087 12.1849C2.25175 12.2807 2.25351 12.4202 2.25704 12.5932C2.26412 12.9395 2.27827 13.418 2.30652 13.9473C2.36422 15.0286 2.47741 16.2438 2.68398 16.9969L2.68664 17.0066L2.68903 17.0164C2.85157 17.6779 3.36776 18.178 3.99415 18.345C4.33164 18.4325 4.98544 18.5099 5.83695 18.5706C6.66962 18.63 7.63326 18.6699 8.55219 18.6966C9.46994 18.7233 10.3372 18.7366 10.9755 18.7433C11.2945 18.7467 11.5559 18.7483 11.7373 18.7492C11.8281 18.7496 11.8988 18.7498 11.9467 18.7499L12.0182 18.75L12.0192 19.5C12.0192 20.25 12.0191 20.25 12.0191 20.25L11.9434 20.2499C11.8944 20.2498 11.8225 20.2496 11.7304 20.2492C11.5464 20.2483 11.2821 20.2466 10.9598 20.2432C10.3155 20.2365 9.43842 20.223 8.5086 20.196C7.57994 20.169 6.59283 20.1283 5.73029 20.0668C4.88806 20.0068 4.10298 19.9233 3.61455 19.7961L3.61106 19.7952C2.47537 19.4938 1.53555 18.5921 1.23483 17.3843C0.982496 16.458 0.86593 15.1006 0.808653 14.0273C0.779313 13.4775 0.764674 12.9819 0.757355 12.6238C0.753692 12.4446 0.751854 12.2994 0.750931 12.1986C0.75047 12.1482 0.750237 12.1088 0.75012 12.0818L0.750016 12.0507L0.75 12.0401C0.75 12.04 0.75 12.0391 1.5 12.0391C0.75 12.0391 0.75 12.039 0.75 12.0389L0.750016 12.0274L0.750119 11.996C0.750237 11.9687 0.750469 11.9289 0.750931 11.878C0.751853 11.7762 0.75369 11.6296 0.757352 11.4489C0.764669 11.0878 0.779306 10.5886 0.808643 10.0364C0.865778 8.9609 0.982087 7.60165 1.23539 6.69162C1.53203 5.50346 2.45605 4.55298 3.60482 4.24551C4.09952 4.10615 4.88695 4.01522 5.72547 3.95001C6.58935 3.88283 7.57752 3.83844 8.50662 3.80897C9.43699 3.77947 10.3145 3.76473 10.9591 3.75737C11.2815 3.75369 11.546 3.75185 11.7301 3.75092C11.8222 3.75046 11.8942 3.75023 11.9433 3.75012L12.0191 3.75ZM20.0058 18.345C19.6681 18.4325 19.0165 18.51 18.1688 18.5706C17.3398 18.63 16.381 18.6699 15.4669 18.6966C14.554 18.7233 13.6915 18.7366 13.0569 18.7433C12.7397 18.7467 12.4798 18.7483 12.2994 18.7492C12.2092 18.7496 12.1389 18.7498 12.0913 18.7499L12.0202 18.75L12.0192 19.5C12.0192 20.25 12.0191 20.25 12.0191 20.25L12.0945 20.2499C12.1433 20.2498 12.2148 20.2496 12.3063 20.2492C12.4893 20.2483 12.7522 20.2466 13.0727 20.2432C13.7133 20.2365 14.5857 20.223 15.5107 20.196C16.4346 20.169 17.4169 20.1283 18.2759 20.0668C19.1148 20.0068 19.8972 19.9232 20.3854 19.7961L20.3889 19.7952C21.5246 19.4938 22.4644 18.5921 22.7652 17.3843C23.0175 16.458 23.1341 15.1006 23.1913 14.0273C23.2207 13.4775 23.2353 12.9819 23.2426 12.6238C23.2463 12.4446 23.2481 12.2994 23.2491 12.1986C23.2495 12.1482 23.2498 12.1088 23.2499 12.0818L23.25 12.0507L23.25 12.0401C23.25 12.04 23.25 12.0391 22.5 12.0391C23.25 12.0391 23.25 12.039 23.25 12.0389L23.25 12.0274L23.2499 11.996C23.2498 11.9687 23.2495 11.9289 23.2491 11.878C23.2481 11.7762 23.2463 11.6296 23.2426 11.4489C23.2353 11.0878 23.2207 10.5886 23.1914 10.0364C23.1342 8.96091 23.0179 7.60167 22.7646 6.69163C22.468 5.50347 21.544 4.55298 20.3952 4.24552C19.9007 4.10622 19.116 4.01526 18.2808 3.95003C17.4204 3.88284 16.437 3.83844 15.5127 3.80897C14.5871 3.77947 13.7143 3.76474 13.0734 3.75737C12.7527 3.75369 12.4897 3.75185 12.3066 3.75093C12.2151 3.75046 12.1435 3.75023 12.0947 3.75012L12.0191 3.75C12.0191 3.75 12.0192 3.75 12.0192 4.5L12.0192 5.25L12.0911 5.25011C12.1387 5.25023 12.2089 5.25045 12.2991 5.25091C12.4794 5.25181 12.7391 5.25363 13.0561 5.25727C13.6905 5.26456 14.5525 5.27913 15.4649 5.30821C16.3786 5.33734 17.3363 5.38083 18.164 5.44548C19.0133 5.51181 19.6603 5.59615 19.9917 5.69023L20.0041 5.69365C20.6145 5.85566 21.1441 6.38279 21.311 7.06177L21.3139 7.07372L21.3172 7.08557C21.5224 7.81614 21.6357 9.02804 21.6935 10.116C21.7217 10.6477 21.7359 11.1299 21.743 11.4793C21.7465 11.6538 21.7483 11.7947 21.7491 11.8916C21.7493 11.9148 21.7495 11.9355 21.7496 11.9535C21.7498 11.973 21.7498 11.9894 21.7499 12.0024L21.75 12.0305L21.75 12.0388L21.75 12.0475L21.7499 12.0753C21.7498 12.1 21.7496 12.137 21.7491 12.1849C21.7483 12.2807 21.7465 12.4202 21.743 12.5932C21.7359 12.9395 21.7217 13.418 21.6935 13.9473C21.6358 15.0286 21.5226 16.2438 21.316 16.9969L21.3134 17.0066L21.311 17.0164C21.1484 17.6779 20.6322 18.178 20.0058 18.345ZM9.11929 7.57253L16.8149 12.0391L9.11929 16.5056V7.57253ZM10.6193 10.1775V13.9007L13.8267 12.0391L10.6193 10.1775Z"/>
</svg>
