<svg width="16" height="16" viewBox="0 0 16 16" xmlns="http://www.w3.org/2000/svg">
<path fill-rule="evenodd" clip-rule="evenodd" d="M3.63636 4.25H2.18182V6.5H0V8H2.18182V10.25H3.63636V8H5.81818V6.5H3.63636V4.25ZM5.13636 11.067C4.89167 11.2742 4.69356 11.5019 4.55921 11.75C4.43352 11.9821 4.36364 12.2321 4.36364 12.5V14H16V12.5C16 10.505 12.1236 9.5 10.1818 9.5C8.77938 9.5 6.36786 10.0242 5.13636 11.067ZM7.31818 5.53144C7.56128 6.93522 8.75041 8 10.1818 8C11.7891 8 13.0909 6.6575 13.0909 5C13.0909 3.3425 11.7891 2 10.1818 2C8.57454 2 7.27273 3.3425 7.27273 5C7.27273 5.18137 7.28831 5.35896 7.31818 5.53144ZM14.5 12.5C14.5 12.4988 14.5 12.4983 14.4999 12.4978C14.4998 12.4976 14.5 12.4982 14.4999 12.4978C14.4996 12.4965 14.4973 12.4876 14.4894 12.472C14.4727 12.4388 14.4296 12.3711 14.3298 12.2761C14.1193 12.0758 13.758 11.8496 13.2464 11.6382C12.2187 11.2137 10.959 11 10.1818 11C9.40462 11 8.14491 11.2137 7.11727 11.6382C6.60565 11.8496 6.24432 12.0758 6.0338 12.2761C5.93405 12.3711 5.89089 12.4388 5.8742 12.472C5.86634 12.4876 5.86427 12.4957 5.86394 12.497C5.86372 12.4979 5.86364 12.498 5.86364 12.5H14.5ZM10.1818 6.5C10.9175 6.5 11.5909 5.87292 11.5909 5C11.5909 4.12708 10.9175 3.5 10.1818 3.5C9.44615 3.5 8.77273 4.12708 8.77273 5C8.77273 5.87292 9.44615 6.5 10.1818 6.5Z"/>
</svg>
