<svg width="16" height="16" viewBox="0 0 16 16" xmlns="http://www.w3.org/2000/svg">
<path d="M8 3.5C4.36364 3.5 1.25818 5.78067 0 9C1.25818 12.2193 4.36364 14.5 8 14.5C11.6364 14.5 14.7418 12.2193 16 9C14.7418 5.78067 11.6364 3.5 8 3.5ZM8 12.6667C5.99273 12.6667 4.36364 11.024 4.36364 9C4.36364 6.976 5.99273 5.33333 8 5.33333C10.0073 5.33333 11.6364 6.976 11.6364 9C11.6364 11.024 10.0073 12.6667 8 12.6667ZM8 6.8C6.79273 6.8 5.81818 7.78267 5.81818 9C5.81818 10.2173 6.79273 11.2 8 11.2C9.20727 11.2 10.1818 10.2173 10.1818 9C10.1818 7.78267 9.20727 6.8 8 6.8Z"/>
<path d="M11.3999 1.5V3.02381H15.9713V1.5H11.3999Z"/>
</svg>
