<svg width="28" height="28" viewBox="0 0 28 28" fill="none" xmlns="http://www.w3.org/2000/svg">
<g clip-path="url(#clip0_731_72)">
<rect width="28" height="28" fill="white"/>
<path d="M13.9871 0C6.27097 0 0 6.27097 0 14.0129C0 21.729 6.27097 28 13.9871 28C21.729 28 28 21.729 28 14.0129C28 6.27097 21.729 0 13.9871 0ZM19.6903 20.6194C19.4581 20.6194 19.3032 20.5419 19.0968 20.4129C17.0581 19.1742 14.529 18.529 11.8452 18.529C10.3484 18.529 8.82581 18.7355 7.43226 19.0194C7.2 19.071 6.89033 19.1484 6.73549 19.1484C6.19355 19.1484 5.83226 18.7355 5.83226 18.271C5.83226 17.6774 6.19355 17.3935 6.60645 17.3161C8.33548 16.929 10.0645 16.6968 11.8452 16.6968C14.9161 16.6968 17.6516 17.3935 20 18.8129C20.3613 19.0194 20.5677 19.2258 20.5677 19.7419C20.5677 20.2323 20.1548 20.6194 19.6903 20.6194ZM21.2129 16.9032C20.9032 16.9032 20.7226 16.7742 20.5161 16.671C18.2194 15.3032 15.071 14.4 11.6129 14.4C9.83226 14.4 8.30969 14.6581 7.04518 14.9935C6.76131 15.071 6.60647 15.1484 6.34841 15.1484C5.75486 15.1484 5.26453 14.6581 5.26453 14.0645C5.26453 13.4452 5.5484 13.0581 6.14195 12.8774C7.71614 12.4387 9.31614 12.129 11.6645 12.129C15.329 12.129 18.8645 13.0323 21.6516 14.7097C22.1419 14.9677 22.2968 15.3032 22.2968 15.8194C22.2968 16.4129 21.8064 16.9032 21.2129 16.9032ZM22.9419 12.5935C22.6581 12.5935 22.5032 12.5161 22.2194 12.3871C19.6903 10.8645 15.7678 10.0129 11.9484 10.0129C10.0387 10.0129 8.12905 10.2194 6.34841 10.6839C6.14196 10.7355 5.88387 10.8387 5.6258 10.8387C4.87741 10.8387 4.30968 10.2452 4.30968 9.49677C4.30968 8.74839 4.77421 8.30968 5.29034 8.15484C7.27743 7.5871 9.5226 7.30323 11.9484 7.30323C16.0516 7.30323 20.3871 8.15484 23.5613 10.0129C23.9742 10.2452 24.258 10.6065 24.258 11.2774C24.258 12.0516 23.6645 12.5935 22.9419 12.5935Z" fill="black"/>
</g>
<defs>
<clipPath id="clip0_731_72">
<rect width="28" height="28" fill="white"/>
</clipPath>
</defs>
</svg>
