<svg width="28" height="28" viewBox="0 0 28 28" fill="none" xmlns="http://www.w3.org/2000/svg">
<g clip-path="url(#clip0)">
<rect width="28" height="28" fill="white"/>
<path d="M8.02581 15.1742H9.03226V20.2323H10.0129V15.1742H11.0194V14.3226H8.02581V15.1742ZM14.0387 10.9936C14.1677 10.9936 14.271 10.9677 14.3484 10.8903C14.4258 10.8129 14.4774 10.7097 14.4774 10.5807V7.97419C14.4774 7.87096 14.4258 7.76774 14.3484 7.71613C14.271 7.63871 14.1677 7.61291 14.0387 7.61291C13.9097 7.61291 13.8323 7.63871 13.7548 7.71613C13.6774 7.76774 13.6258 7.87096 13.6258 7.97419V10.5807C13.6258 10.7097 13.6774 10.8129 13.729 10.8903C13.8065 10.9677 13.9097 10.9936 14.0387 10.9936ZM16.2064 15.8194C16.0516 15.8194 15.9226 15.8452 15.7935 15.9226C15.6645 16 15.5355 16.1032 15.4323 16.2323V14.3226H14.5548V20.2323H15.4323V19.8968C15.5355 20.0258 15.6645 20.129 15.7935 20.1807C15.9226 20.2581 16.0774 20.2839 16.2581 20.2839C16.5161 20.2839 16.6968 20.2065 16.8516 20.0258C16.9806 19.871 17.0581 19.6387 17.0581 19.329V16.9032C17.0581 16.5419 16.9806 16.2839 16.8258 16.1032C16.671 15.8968 16.4645 15.8194 16.2064 15.8194ZM16.1548 19.2C16.1548 19.3548 16.129 19.4323 16.0774 19.5097C16.0258 19.5613 15.9484 19.5871 15.8452 19.5871C15.7677 19.5871 15.6903 19.5871 15.6387 19.5355C15.5613 19.5097 15.4839 19.4581 15.4323 19.4065V16.671C15.4839 16.6194 15.5355 16.5677 15.6129 16.5419C15.6645 16.5161 15.7161 16.5161 15.7935 16.5161C15.8968 16.5161 16 16.5419 16.0516 16.6193C16.129 16.6968 16.1548 16.8 16.1548 16.9548V19.2ZM13.0323 19.1742C12.929 19.2774 12.8516 19.3548 12.7484 19.4065C12.6452 19.4581 12.5677 19.5097 12.5161 19.5097C12.4387 19.5097 12.3613 19.4839 12.3355 19.4323C12.2839 19.3806 12.2839 19.3032 12.2839 19.2V15.871H11.4064V19.5097C11.4064 19.7677 11.4581 19.9484 11.5613 20.1032C11.6645 20.2323 11.8194 20.2839 12.0258 20.2839C12.1806 20.2839 12.3355 20.2323 12.5161 20.1548C12.6968 20.0516 12.8516 19.9226 13.0323 19.7419V20.2323H13.8839V15.871H13.0323V19.1742ZM13.9871 0C6.27097 0 0 6.27097 0 14.0129C0 21.729 6.27097 28 13.9871 28C21.729 28 28 21.729 28 14.0129C28 6.27097 21.729 0 13.9871 0ZM17.2387 6.91613V10.5807C17.2387 10.7097 17.2645 10.7871 17.3161 10.8387C17.3419 10.8903 17.4194 10.9161 17.4968 10.9161C17.5742 10.9161 17.6774 10.8645 17.7806 10.8129C17.8839 10.7355 17.9871 10.6581 18.0645 10.5548V6.91613H19.0452V11.6903H18.0645V11.1742C17.9097 11.3806 17.7032 11.5097 17.5226 11.6129C17.3161 11.7161 17.1355 11.7677 16.9548 11.7677C16.7226 11.7677 16.5419 11.6903 16.4387 11.5613C16.3097 11.4065 16.2581 11.2 16.2581 10.9161V6.91613H17.2387ZM12.6194 8C12.6194 7.63871 12.7484 7.32904 13.0323 7.12259C13.2903 6.89033 13.6516 6.78709 14.0903 6.78709C14.4774 6.78709 14.8129 6.91613 15.071 7.14839C15.329 7.35484 15.4581 7.66452 15.4581 8.02581V10.5032C15.4581 10.9161 15.329 11.2516 15.0968 11.4839C14.8387 11.7161 14.4774 11.8193 14.0387 11.8193C13.6 11.8193 13.2645 11.6903 13.0065 11.4581C12.7484 11.2258 12.6194 10.8903 12.6194 10.4774V8ZM9.96129 5.2129L10.6839 7.79355H10.7355L11.4323 5.2129H12.5419L11.2516 9.00644V11.6903H10.1677V9.13548L8.85161 5.2129H9.96129ZM22.7871 18.8903C22.7871 20.6194 21.3677 22.0129 19.6387 22.0129H8.72258C6.99355 22.0129 5.6 20.6194 5.6 18.8903V16.3613C5.6 14.6323 6.99355 13.2129 8.72258 13.2129H19.6387C21.3677 13.2129 22.7871 14.6323 22.7871 16.3613V18.8903ZM18.8129 15.7677C18.4258 15.7677 18.1161 15.871 17.8839 16.129C17.6258 16.3613 17.4968 16.671 17.4968 17.0323V18.9936C17.4968 19.4065 17.6258 19.7419 17.8323 19.9742C18.0645 20.2323 18.3742 20.3355 18.7613 20.3355C19.2 20.3355 19.5097 20.2323 19.7419 20C19.9484 19.7677 20.0516 19.4323 20.0516 18.9936V18.7613H19.1742V18.9677C19.1742 19.2258 19.1484 19.3806 19.071 19.4581C19.0194 19.5355 18.9161 19.5871 18.7871 19.5871C18.6323 19.5871 18.5548 19.5355 18.4774 19.4581C18.4258 19.3548 18.4 19.2 18.4 18.9677V18.1419H20.0516V17.0323C20.0516 16.6194 19.9484 16.3097 19.7419 16.1032C19.5355 15.871 19.2258 15.7677 18.8129 15.7677ZM18.4 17.471V17.0323C18.4 16.8516 18.4258 16.7226 18.4774 16.6452C18.5548 16.5677 18.6581 16.5161 18.7871 16.5161C18.9161 16.5161 19.0194 16.5677 19.071 16.6452C19.1484 16.7226 19.1742 16.8516 19.1742 17.0323V17.471H18.4Z" fill="black"/>
</g>
<defs>
<clipPath id="clip0">
<rect width="28" height="28" fill="white"/>
</clipPath>
</defs>
</svg>
