<svg width="28" height="28" viewBox="0 0 28 28" xmlns="http://www.w3.org/2000/svg">
<path d="M13.9871 0C6.27096 0 0 6.27097 0 14.0129C0 21.729 6.27096 28 13.9871 28C21.729 28 28 21.729 28 14.0129C28 6.27097 21.729 0 13.9871 0ZM17.7032 13.9355H15.2774C15.2774 17.8323 15.2774 22.6065 15.2774 22.6065H11.6903C11.6903 22.6065 11.6903 17.8581 11.6903 13.9355H9.98709V10.8903H11.6903V8.90323C11.6903 7.48387 12.3613 5.29032 15.3032 5.29032H17.9871V8.25806C17.9871 8.25806 16.3613 8.25806 16.0516 8.25806C15.7161 8.25806 15.2774 8.4129 15.2774 9.08387V10.8903H18.0129L17.7032 13.9355Z"/>
</svg>
