<svg width="16" height="16" viewBox="0 0 16 16" xmlns="http://www.w3.org/2000/svg">
<path fill-rule="evenodd" clip-rule="evenodd" d="M7.64286 5.04762C7.64286 4.19224 6.95062 3.5 6.09524 3.5C5.23986 3.5 4.54762 4.19224 4.54762 5.04762C4.54762 5.903 5.23986 6.59524 6.09524 6.59524C6.95062 6.59524 7.64286 5.903 7.64286 5.04762ZM11.4286 8.09524V6.57143H16V8.09524H11.4286ZM0 14.1905V12.6667C0 10.64 4.06095 9.61905 6.09524 9.61905C8.12952 9.61905 12.1905 10.64 12.1905 12.6667V14.1905H0ZM10.6905 12.6905V12.6676C10.6897 12.6651 10.6872 12.6575 10.6803 12.6442C10.6622 12.6093 10.6152 12.5377 10.5068 12.4378C10.2789 12.2274 9.89112 11.9929 9.34791 11.7753C8.25906 11.3391 6.92487 11.119 6.09524 11.119C5.26561 11.119 3.93141 11.3391 2.84257 11.7753C2.29935 11.9929 1.91157 12.2274 1.68365 12.4378C1.57532 12.5377 1.52825 12.6093 1.51018 12.6442C1.50328 12.6575 1.50073 12.6651 1.5 12.6676V12.6905H10.6905ZM6.09524 2C7.77905 2 9.14286 3.36381 9.14286 5.04762C9.14286 6.73143 7.77905 8.09524 6.09524 8.09524C4.41143 8.09524 3.04762 6.73143 3.04762 5.04762C3.04762 3.36381 4.41143 2 6.09524 2Z"/>
</svg>
