<svg width="30" height="30" viewBox="0 0 30 30" fill="none" xmlns="http://www.w3.org/2000/svg">
<g clip-path="url(#clip0_1721_21)">
<path fill-rule="evenodd" clip-rule="evenodd" d="M20.8738 11.2929C21.2643 11.6834 21.2643 12.3166 20.8738 12.7071L14.4571 19.1238C14.0666 19.5143 13.4334 19.5143 13.0429 19.1238L10.1262 16.2071C9.7357 15.8166 9.7357 15.1834 10.1262 14.7929C10.5167 14.4024 11.1499 14.4024 11.5404 14.7929L13.75 17.0025L19.4596 11.2929C19.8501 10.9024 20.4832 10.9024 20.8738 11.2929Z" fill="black"/>
<path fill-rule="evenodd" clip-rule="evenodd" d="M15 28C22.1797 28 28 22.1797 28 15C28 7.8203 22.1797 2 15 2C7.8203 2 2 7.8203 2 15C2 22.1797 7.8203 28 15 28ZM15 29.5C23.0081 29.5 29.5 23.0081 29.5 15C29.5 6.99187 23.0081 0.5 15 0.5C6.99187 0.5 0.5 6.99187 0.5 15C0.5 23.0081 6.99187 29.5 15 29.5Z" fill="black"/>
</g>
<defs>
<clipPath id="clip0_1721_21">
<rect width="30" height="30" fill="white"/>
</clipPath>
</defs>
</svg>
