<svg width="30" height="30" viewBox="0 0 30 30" fill="none" xmlns="http://www.w3.org/2000/svg">
<g clip-path="url(#clip0_524:37)">
<path d="M0 15C0 6.71573 6.71573 0 15 0V0C23.2843 0 30 6.71573 30 15V15C30 23.2843 23.2843 30 15 30V30C6.71573 30 0 23.2843 0 15V15Z" fill="#E7E7E7"/>
<path d="M11 14.2V15.8H19V14.2H11ZM15 7C10.584 7 7 10.584 7 15C7 19.416 10.584 23 15 23C19.416 23 23 19.416 23 15C23 10.584 19.416 7 15 7ZM15 21.4C11.472 21.4 8.6 18.528 8.6 15C8.6 11.472 11.472 8.6 15 8.6C18.528 8.6 21.4 11.472 21.4 15C21.4 18.528 18.528 21.4 15 21.4Z" fill="#757575"/>
</g>
<defs>
<clipPath id="clip0_524:37">
<rect width="30" height="30" fill="white"/>
</clipPath>
</defs>
</svg>
