<svg width="30" height="30" viewBox="0 0 30 30" xmlns="http://www.w3.org/2000/svg">
<path fill-rule="evenodd" clip-rule="evenodd" d="M11.25 21.25C16.7728 21.25 21.25 16.7728 21.25 11.25C21.25 5.72715 16.7728 1.25 11.25 1.25C5.72715 1.25 1.25 5.72715 1.25 11.25C1.25 16.7728 5.72715 21.25 11.25 21.25ZM11.25 22.5C17.4632 22.5 22.5 17.4632 22.5 11.25C22.5 5.0368 17.4632 0 11.25 0C5.0368 0 0 5.0368 0 11.25C0 17.4632 5.0368 22.5 11.25 22.5Z"/>
<path fill-rule="evenodd" clip-rule="evenodd" d="M18.75 28.75C24.2728 28.75 28.75 24.2728 28.75 18.75C28.75 13.2272 24.2728 8.75 18.75 8.75C13.2272 8.75 8.75 13.2272 8.75 18.75C8.75 24.2728 13.2272 28.75 18.75 28.75ZM18.75 30C24.9632 30 30 24.9632 30 18.75C30 12.5368 24.9632 7.5 18.75 7.5C12.5368 7.5 7.5 12.5368 7.5 18.75C7.5 24.9632 12.5368 30 18.75 30Z"/>
</svg>
