<svg width="32" height="32" viewBox="0 0 32 32" fill="none" xmlns="http://www.w3.org/2000/svg">
<rect width="32" height="32" fill="white"/>
<path fill-rule="evenodd" clip-rule="evenodd" d="M15.9773 30.7C24.1112 30.7 30.7047 24.1073 30.7047 15.975C30.7047 7.84275 24.1112 1.25 15.9773 1.25C7.84351 1.25 1.25 7.84275 1.25 15.975C1.25 24.1073 7.84351 30.7 15.9773 30.7ZM15.9773 31.7C24.6633 31.7 31.7047 24.6597 31.7047 15.975C31.7047 7.29032 24.6633 0.25 15.9773 0.25C7.29137 0.25 0.25 7.29032 0.25 15.975C0.25 24.6597 7.29137 31.7 15.9773 31.7Z" fill="black"/>
<path fill-rule="evenodd" clip-rule="evenodd" d="M23.6657 17.3243V15.1207H17.295V8.75H15.0913V15.1207H8.75V17.3243H15.0913V23.6657H17.295V17.3243H23.6657Z" fill="black"/>
</svg>
