<svg width="32" height="32" viewBox="0 0 32 32" xmlns="http://www.w3.org/2000/svg">
<path d="M24.25 15.25H12.08L17.67 9.66L16.25 8.25L8.25 16.25L16.25 24.25L17.66 22.84L12.08 17.25H24.25V15.25Z"/>
<path fill-rule="evenodd" clip-rule="evenodd" d="M15.9773 30.7922C24.1084 30.7922 30.7047 24.1816 30.7047 16.0211C30.7047 7.86062 24.1084 1.25 15.9773 1.25C7.84627 1.25 1.25 7.86062 1.25 16.0211C1.25 24.1816 7.84627 30.7922 15.9773 30.7922ZM15.9773 31.7922C24.6633 31.7922 31.7047 24.7312 31.7047 16.0211C31.7047 7.31096 24.6633 0.25 15.9773 0.25C7.29137 0.25 0.25 7.31096 0.25 16.0211C0.25 24.7312 7.29137 31.7922 15.9773 31.7922Z"/>
</svg>
