<svg width="32" height="32" viewBox="0 0 32 32" fill="none" xmlns="http://www.w3.org/2000/svg">
<path d="M20.7275 15.286C22.689 15.286 24.261 13.6584 24.261 11.643C24.261 9.62647 22.689 8 20.7275 8C18.7661 8 17.182 9.62647 17.182 11.643C17.182 13.6584 18.7661 15.286 20.7275 15.286ZM11.2725 15.286C13.235 15.286 14.8071 13.6584 14.8071 11.643C14.8071 9.62647 13.235 8 11.2725 8C9.31098 8 7.72695 9.62647 7.72695 11.643C7.72695 13.6584 9.31098 15.286 11.2725 15.286ZM11.2725 17.714C8.51897 17.714 3 19.1353 3 21.9645V25H19.5461V21.9645C19.5461 19.1353 14.027 17.714 11.2725 17.714ZM20.7275 17.714C20.385 17.714 19.9944 17.7386 19.581 17.7756C20.9523 18.7957 21.909 20.1677 21.909 21.9645V25H29V21.9645C29 19.1353 23.481 17.714 20.7275 17.714Z" fill="black"/>
</svg>
