<svg width="32" height="32" viewBox="0 0 32 32" xmlns="http://www.w3.org/2000/svg">
<path d="M21.6364 14.5714C23.9755 14.5714 25.8495 12.6571 25.8495 10.2857C25.8495 7.91429 23.9755 6 21.6364 6C19.2973 6 17.4091 7.91429 17.4091 10.2857C17.4091 12.6571 19.2973 14.5714 21.6364 14.5714ZM10.3636 14.5714C12.7027 14.5714 14.5768 12.6571 14.5768 10.2857C14.5768 7.91429 12.7027 6 10.3636 6C8.02455 6 6.13636 7.91429 6.13636 10.2857C6.13636 12.6571 8.02455 14.5714 10.3636 14.5714ZM10.3636 17.4286C7.08045 17.4286 0.5 19.1 0.5 22.4286V26H20.2273V22.4286C20.2273 19.1 13.6468 17.4286 10.3636 17.4286ZM21.6364 17.4286C21.2277 17.4286 20.7627 17.4571 20.2695 17.5C21.9041 18.7 23.0455 20.3143 23.0455 22.4286V26H31.5V22.4286C31.5 19.1 24.9195 17.4286 21.6364 17.4286Z"/>
</svg>
