<svg width="32" height="32" viewBox="0 0 32 32" fill="none" xmlns="http://www.w3.org/2000/svg">
<path fill-rule="evenodd" clip-rule="evenodd" d="M23.9869 9.07236V9.07236C23.4585 9.07236 22.9796 8.76778 22.7544 8.29178C22.3478 7.43044 21.8307 6.32969 21.5247 5.73044C21.0728 4.83936 20.3404 4.32086 19.326 4.31378C19.309 4.31236 12.6904 4.31236 12.6734 4.31378C11.659 4.32086 10.928 4.83936 10.4747 5.73044C10.1701 6.32969 9.65304 7.43044 9.24646 8.29178C9.02121 8.76778 8.54096 9.07236 8.01396 9.07236V9.07236C5.18629 9.07236 2.89554 11.3631 2.89554 14.1894V22.5987C2.89554 25.4235 5.18629 27.7157 8.01396 27.7157H23.9869C26.8131 27.7157 29.1039 25.4235 29.1039 22.5987V14.1894C29.1039 11.3631 26.8131 9.07236 23.9869 9.07236Z" stroke="white" stroke-width="1.5" stroke-linecap="round" stroke-linejoin="round"/>
<path opacity="0.4" fill-rule="evenodd" clip-rule="evenodd" d="M11.497 17.8905C11.4956 20.374 13.5228 22.4055 16.002 22.404C18.4769 22.4012 20.4985 20.3782 20.5027 17.9005C20.507 15.4128 18.4868 13.3855 16.0048 13.3827C13.5086 13.3799 11.4771 15.4411 11.497 17.8905Z" stroke="white" stroke-width="1.5" stroke-linecap="round" stroke-linejoin="round"/>
<path opacity="0.4" d="M22.9452 14.5764C22.8083 14.5623 22.6732 14.5266 22.5218 14.4657C22.3533 14.3909 22.2075 14.2957 22.0666 14.1525C21.8133 13.8831 21.6667 13.5308 21.6667 13.1674C21.6667 12.9743 21.7061 12.783 21.7832 12.6096C21.8604 12.434 21.952 12.2859 22.1174 12.1248C22.2432 12.0152 22.3722 11.927 22.5484 11.8493C23.071 11.6423 23.6926 11.766 24.0811 12.1543C24.1976 12.269 24.2956 12.4075 24.35 12.5242L24.3823 12.607C24.4605 12.783 24.5 12.9743 24.5 13.1674C24.5 13.5381 24.3552 13.8811 24.0865 14.1665C23.8543 14.4003 23.5492 14.5441 23.2239 14.5764L23.0833 14.5833L22.9452 14.5764Z" fill="white"/>
</svg>
