<svg width="32" height="32" viewBox="0 0 32 32" fill="none" xmlns="http://www.w3.org/2000/svg">
<path fill-rule="evenodd" clip-rule="evenodd" d="M9.27135 5.96438C9.83408 4.94165 10.4462 4.25796 11.3546 3.8964C13.0192 3.23451 18.981 3.23451 20.6443 3.89654C21.5522 4.2579 22.1646 4.94146 22.7278 5.964L23.3609 7.178C23.3754 7.20206 23.3887 7.22321 23.4006 7.24141L23.4544 7.31492C23.7428 7.62923 24.2256 7.8191 24.5442 7.8191C27.557 7.8191 30 10.2615 30 13.2735V21.3865C30 25.2284 26.8839 28.3445 23.042 28.3445H8.958C5.11515 28.3445 2 25.2288 2 21.3865V13.2735C2 10.2615 4.44297 7.8191 7.4558 7.8191C7.77328 7.8191 8.25671 7.62895 8.54562 7.31492C8.55139 7.30863 8.55892 7.29927 8.56803 7.28687L8.64002 7.17644L9.27135 5.96438ZM20.8883 6.97711C20.5384 6.34174 20.2221 5.98873 19.8677 5.84767L19.7006 5.79213C18.2598 5.3849 13.2482 5.40341 12.1309 5.84767C11.7767 5.98866 11.4608 6.34148 11.1112 6.97673L10.5724 8.01846L10.4398 8.25847C10.3291 8.4426 10.2184 8.59804 10.0919 8.73581C9.38288 9.50651 8.33395 9.9191 7.4558 9.9191L7.22607 9.92684C5.48005 10.0449 4.1 11.4986 4.1 13.2735V21.3865C4.1 24.0691 6.27502 26.2445 8.958 26.2445H23.042C25.7241 26.2445 27.9 24.0686 27.9 21.3865V13.2735C27.9 11.4214 26.3973 9.9191 24.5442 9.9191L24.3004 9.90891C23.4765 9.84111 22.551 9.43633 21.9072 8.73488C21.7825 8.59894 21.6723 8.4446 21.5623 8.26202C21.5465 8.23583 21.5268 8.20134 21.5043 8.16054L21.3418 7.8557L20.8883 6.97711Z" fill="white"/>
<path d="M23.6126 11.4C24.3858 11.4 25.0126 12.0268 25.0126 12.8C25.0126 13.518 24.4722 14.1097 23.7759 14.1906L23.6126 14.2C22.8268 14.2 22.2 13.5732 22.2 12.8C22.2 12.082 22.7405 11.4903 23.4367 11.4094L23.6126 11.4Z" fill="white" fill-opacity="0.4"/>
<path fill-rule="evenodd" clip-rule="evenodd" d="M10.499 17.5795C10.499 14.5412 12.9613 12.0789 15.9996 12.0789C19.0379 12.0789 21.5002 14.5412 21.5002 17.5795C21.5002 20.6178 19.0379 23.0801 15.9996 23.0801C12.9613 23.0801 10.499 20.6178 10.499 17.5795ZM19.4002 17.5795C19.4002 15.701 17.8781 14.1789 15.9996 14.1789C14.1211 14.1789 12.599 15.701 12.599 17.5795C12.599 19.458 14.1211 20.9801 15.9996 20.9801C17.8781 20.9801 19.4002 19.458 19.4002 17.5795Z" fill="white" fill-opacity="0.4"/>
</svg>
