<svg width="32" height="32" viewBox="0 0 32 32" xmlns="http://www.w3.org/2000/svg">
<path d="M28.6667 2.66667H3.33333C1.49467 2.66667 0 4.16267 0 6.00001V26C0 27.8373 1.49467 29.3333 3.33333 29.3333H28.6667C30.5053 29.3333 32 27.8373 32 26V6.00001C32 4.16267 30.5053 2.66667 28.6667 2.66667ZM3.33333 4.00001H28.6667C29.7693 4.00001 30.6667 4.89734 30.6667 6.00001V8.00001H1.33333V6.00001C1.33333 4.89734 2.23067 4.00001 3.33333 4.00001ZM28.6667 28H3.33333C2.23067 28 1.33333 27.1027 1.33333 26V9.33334H30.6667V26C30.6667 27.1027 29.7693 28 28.6667 28Z"/>
<path d="M3.33334 6.66668C3.70153 6.66668 4.00001 6.3682 4.00001 6.00001C4.00001 5.63182 3.70153 5.33334 3.33334 5.33334C2.96515 5.33334 2.66667 5.63182 2.66667 6.00001C2.66667 6.3682 2.96515 6.66668 3.33334 6.66668Z"/>
<path d="M5.99999 6.66668C6.36818 6.66668 6.66666 6.3682 6.66666 6.00001C6.66666 5.63182 6.36818 5.33334 5.99999 5.33334C5.63181 5.33334 5.33333 5.63182 5.33333 6.00001C5.33333 6.3682 5.63181 6.66668 5.99999 6.66668Z"/>
<path d="M8.66667 6.66668C9.03486 6.66668 9.33333 6.3682 9.33333 6.00001C9.33333 5.63182 9.03486 5.33334 8.66667 5.33334C8.29848 5.33334 8 5.63182 8 6.00001C8 6.3682 8.29848 6.66668 8.66667 6.66668Z"/>
<path d="M29.2159 10.9574C29.0066 10.6534 28.5919 10.5787 28.2893 10.784L17.3546 18.2654C16.5319 18.828 15.4666 18.828 14.6439 18.2654L3.70926 10.784C3.40926 10.5774 2.99326 10.6534 2.78259 10.9574C2.57592 11.2614 2.65326 11.676 2.95726 11.884L13.8919 19.3654C14.5319 19.804 15.2653 20.0227 15.9999 20.0227C16.7346 20.0227 17.4679 19.804 18.1066 19.3654L29.0413 11.884C29.3453 11.676 29.4226 11.2614 29.2159 10.9574Z"/>
<path d="M10.9053 18.8201L2.90535 25.4867C2.62401 25.7227 2.58535 26.1441 2.82135 26.4267C2.95335 26.5854 3.14268 26.6667 3.33335 26.6667C3.48401 26.6667 3.63601 26.6161 3.76001 26.5121L11.76 19.8454C12.0413 19.6094 12.08 19.1881 11.844 18.9054C11.6067 18.6201 11.188 18.5854 10.9053 18.8201Z"/>
<path d="M21.0948 18.8202C20.8135 18.5868 20.3934 18.6215 20.1561 18.9055C19.9201 19.1895 19.9575 19.6095 20.2401 19.8455L28.2401 26.5122C28.3641 26.6162 28.5161 26.6668 28.6668 26.6668C28.8574 26.6668 29.0468 26.5855 29.1788 26.4268C29.4148 26.1428 29.3774 25.7228 29.0948 25.4868L21.0948 18.8202Z"/>
</svg>
