<svg width="32" height="32" viewBox="0 0 32 32" xmlns="http://www.w3.org/2000/svg">
<path d="M28.4 6.6H16L12.9 3.5H3.6C1.895 3.5 0.5155 4.895 0.5155 6.6L0.5 25.2C0.5 26.905 1.895 28.3 3.6 28.3H28.4C30.105 28.3 31.5 26.905 31.5 25.2V9.7C31.5 7.995 30.105 6.6 28.4 6.6ZM20.65 11.25C22.355 11.25 23.75 12.645 23.75 14.35C23.75 16.055 22.355 17.45 20.65 17.45C18.945 17.45 17.55 16.055 17.55 14.35C17.55 12.645 18.945 11.25 20.65 11.25ZM26.85 23.65H14.45V22.1C14.45 20.0385 18.5885 19 20.65 19C22.7115 19 26.85 20.0385 26.85 22.1V23.65Z"/>
</svg>
