<svg width="32" height="32" viewBox="0 0 32 32" xmlns="http://www.w3.org/2000/svg">
<path d="M14 24.9091C14 26.0591 15.0305 27 16.2901 27C17.5496 27 18.5801 26.0591 18.5801 24.9091C18.5801 23.7591 17.5496 22.8182 16.2901 22.8182C15.0305 22.8182 14 23.7591 14 24.9091ZM14 6.09091C14 7.24091 15.0305 8.18182 16.2901 8.18182C17.5496 8.18182 18.5801 7.24091 18.5801 6.09091C18.5801 4.94091 17.5496 4 16.2901 4C15.0305 4 14 4.94091 14 6.09091ZM14 15.5C14 16.65 15.0305 17.5909 16.2901 17.5909C17.5496 17.5909 18.5801 16.65 18.5801 15.5C18.5801 14.35 17.5496 13.4091 16.2901 13.4091C15.0305 13.4091 14 14.35 14 15.5Z"/>
</svg>
