<svg width="32" height="32" viewBox="0 0 32 32" xmlns="http://www.w3.org/2000/svg">
<path fill-rule="evenodd" clip-rule="evenodd" d="M21.8493 17.4567C21.0428 17.4567 20.3837 16.8048 20.3837 15.9983C20.3837 15.1919 21.0297 14.54 21.8347 14.54H21.8493C22.6557 14.54 23.3076 15.1919 23.3076 15.9983C23.3076 16.8048 22.6557 17.4567 21.8493 17.4567"/>
<path fill-rule="evenodd" clip-rule="evenodd" d="M16.0018 17.4567C15.1953 17.4567 14.5376 16.8048 14.5376 15.9983C14.5376 15.1919 15.1822 14.54 15.9887 14.54H16.0018C16.8083 14.54 17.4601 15.1919 17.4601 15.9983C17.4601 16.8048 16.8083 17.4567 16.0018 17.4567"/>
<path fill-rule="evenodd" clip-rule="evenodd" d="M10.1556 17.4567C9.34917 17.4567 8.69 16.8048 8.69 15.9983C8.69 15.1919 9.33604 14.54 10.1425 14.54H10.1556C10.9621 14.54 11.614 15.1919 11.614 15.9983C11.614 16.8048 10.9621 17.4567 10.1556 17.4567"/>
</svg>
