<svg width="32" height="32" viewBox="0 0 32 32" xmlns="http://www.w3.org/2000/svg">
<path d="M5.33706 26.6413C3.21821 24.5267 3.32586 20.9817 5.57713 18.735L10.8433 13.4796L8.48899 11.1301L3.22286 16.3855C-0.410771 20.0117 -0.584245 25.7247 2.83564 29.1376C6.25553 32.5505 11.9801 32.3773 15.6138 28.7511L20.8799 23.4957L18.5256 21.1463L13.2595 26.4017C11.0082 28.6483 7.4559 28.7558 5.33706 26.6413ZM11.9739 22.491L22.5062 11.9803L20.028 9.50715L9.49576 20.0179L11.9739 22.491ZM16.3882 3.24706L11.1221 8.50244L13.4763 10.8519L18.7425 5.59652C20.9937 3.34985 24.5461 3.24242 26.6649 5.35694C28.7837 7.47146 28.6761 11.0165 26.4248 13.2632L21.1587 18.5186L23.513 20.8681L28.7791 15.6127C32.4127 11.9865 32.5862 6.27354 29.1663 2.86063C25.7464 -0.552278 20.0218 -0.379158 16.3882 3.24706Z"/>
</svg>
