<svg width="40" height="40" viewBox="0 0 40 40" xmlns="http://www.w3.org/2000/svg">
<path fill-rule="evenodd" clip-rule="evenodd" d="M19.2158 19.4737H11.9958C11.5818 19.4737 11.2458 19.1377 11.2458 18.7237C11.2458 18.3097 11.5818 17.9737 11.9958 17.9737H19.2158C19.6298 17.9737 19.9658 18.3097 19.9658 18.7237C19.9658 19.1377 19.6298 19.4737 19.2158 19.4737" fill="black"/>
<path fill-rule="evenodd" clip-rule="evenodd" d="M19.2158 15.2872H11.9958C11.5818 15.2872 11.2458 14.9512 11.2458 14.5372C11.2458 14.1232 11.5818 13.7872 11.9958 13.7872H19.2158C19.6298 13.7872 19.9658 14.1232 19.9658 14.5372C19.9658 14.9512 19.6298 15.2872 19.2158 15.2872" fill="black"/>
<path fill-rule="evenodd" clip-rule="evenodd" d="M14.7505 11.1104H11.9955C11.5815 11.1104 11.2455 10.7744 11.2455 10.3604C11.2455 9.9464 11.5815 9.6104 11.9955 9.6104H14.7505C15.1645 9.6104 15.5005 9.9464 15.5005 10.3604C15.5005 10.7744 15.1645 11.1104 14.7505 11.1104" fill="black"/>
<mask id="mask0_912_102" style="mask-type:alpha" maskUnits="userSpaceOnUse" x="6" y="4" width="19" height="21">
<path fill-rule="evenodd" clip-rule="evenodd" d="M6.5 4.5002H24.6647C24.6647 12.2755 24.6647 16.6347 24.6647 24.41H6.5V4.5002Z" fill="white"/>
</mask>
<g mask="url(#mask0_912_102)">
<path fill-rule="evenodd" clip-rule="evenodd" d="M19.4087 6L11.7197 6.004C9.3917 6.018 7.99969 7.458 7.99969 9.857V19.053C7.99969 21.468 9.40469 22.91 11.7557 22.91L19.4447 22.907C21.7727 22.893 23.1647 21.451 23.1647 19.053V9.857C23.1647 7.442 21.7607 6 19.4087 6ZM11.7567 24.41C8.61269 24.41 6.49969 22.257 6.49969 19.053V9.857C6.49969 6.624 8.54669 4.523 11.7147 4.504L19.4077 4.5H19.4087C22.5527 4.5 24.6647 6.653 24.6647 9.857V19.053C24.6647 22.285 22.6177 24.387 19.4497 24.407L11.7567 24.41Z" fill="black"/>
</g>
<mask id="mask1_912_102" style="mask-type:alpha" maskUnits="userSpaceOnUse" x="14" y="25" width="19" height="11">
<path d="M15.5 26.2461H14.75V26.9961V34.3701V35.1201H15.5H31.3399H32.0899V34.3701V26.9961V26.2461H31.3399H15.5Z" fill="white" stroke="white" stroke-width="1.5"/>
</mask>
<g mask="url(#mask1_912_102)">
<mask id="path-7-outside-1_912_102" maskUnits="userSpaceOnUse" x="13.4999" y="24.9961" width="20" height="11" fill="black">
<rect fill="white" x="13.4999" y="24.9961" width="20" height="11"/>
<path fill-rule="evenodd" clip-rule="evenodd" d="M23.4209 28.4961C19.1599 28.4961 16.9999 29.2281 16.9999 30.6731C16.9999 32.1311 19.1599 32.8701 23.4209 32.8701C27.6809 32.8701 29.8399 32.1381 29.8399 30.6931C29.8399 29.2351 27.6809 28.4961 23.4209 28.4961M23.4209 34.3701C21.4619 34.3701 15.4999 34.3701 15.4999 30.6731C15.4999 27.3771 20.0209 26.9961 23.4209 26.9961C25.3799 26.9961 31.3399 26.9961 31.3399 30.6931C31.3399 33.9891 26.8199 34.3701 23.4209 34.3701"/>
</mask>
<path fill-rule="evenodd" clip-rule="evenodd" d="M23.4209 28.4961C19.1599 28.4961 16.9999 29.2281 16.9999 30.6731C16.9999 32.1311 19.1599 32.8701 23.4209 32.8701C27.6809 32.8701 29.8399 32.1381 29.8399 30.6931C29.8399 29.2351 27.6809 28.4961 23.4209 28.4961M23.4209 34.3701C21.4619 34.3701 15.4999 34.3701 15.4999 30.6731C15.4999 27.3771 20.0209 26.9961 23.4209 26.9961C25.3799 26.9961 31.3399 26.9961 31.3399 30.6931C31.3399 33.9891 26.8199 34.3701 23.4209 34.3701" fill="black"/>
<path d="M23.4209 26.9961C21.2437 26.9961 19.4403 27.1783 18.1309 27.6221C16.8577 28.0538 15.4999 28.9627 15.4999 30.6731H18.4999C18.4999 30.9385 18.2221 30.7589 19.0941 30.4633C19.93 30.1799 21.3371 29.9961 23.4209 29.9961V26.9961ZM15.4999 30.6731C15.4999 32.382 16.8462 33.2994 18.1269 33.7376C19.438 34.1862 21.2431 34.3701 23.4209 34.3701V31.3701C21.3377 31.3701 19.9323 31.1845 19.0981 30.8991C18.2336 30.6033 18.4999 30.4222 18.4999 30.6731H15.4999ZM23.4209 34.3701C25.5976 34.3701 27.4006 34.1879 28.7096 33.744C29.9829 33.3122 31.3399 32.4032 31.3399 30.6931H28.3399C28.3399 30.428 28.6174 30.6075 27.7462 30.9029C26.9107 31.1863 25.5042 31.3701 23.4209 31.3701V34.3701ZM31.3399 30.6931C31.3399 28.9845 29.9943 28.067 28.7136 27.6287C27.4029 27.18 25.5982 26.9961 23.4209 26.9961V29.9961C25.5036 29.9961 26.9084 30.1817 27.7422 30.467C28.6059 30.7627 28.3399 30.9437 28.3399 30.6931H31.3399ZM23.4209 32.8701C22.42 32.8701 20.6301 32.8628 19.1118 32.4585C18.3544 32.2568 17.7985 31.989 17.4542 31.6854C17.1597 31.4257 16.9999 31.1311 16.9999 30.6731H13.9999C13.9999 32.0636 14.5853 33.1554 15.47 33.9355C16.3047 34.6716 17.3618 35.097 18.3398 35.3575C20.2922 35.8774 22.4627 35.8701 23.4209 35.8701V32.8701ZM16.9999 30.6731C16.9999 30.2329 17.1352 29.9628 17.344 29.7443C17.5882 29.4887 18.0057 29.235 18.6505 29.0247C19.9605 28.5974 21.731 28.4961 23.4209 28.4961V25.4961C21.7107 25.4961 19.5208 25.5853 17.7203 26.1725C16.8099 26.4695 15.8846 26.929 15.1749 27.6719C14.4298 28.4517 13.9999 29.4653 13.9999 30.6731H16.9999ZM23.4209 28.4961C24.4218 28.4961 26.2112 28.5034 27.7289 28.9077C28.486 29.1094 29.0416 29.3771 29.3857 29.6807C29.68 29.9403 29.8399 30.2349 29.8399 30.6931H32.8399C32.8399 29.3028 32.2547 28.2111 31.3703 27.4309C30.5358 26.6947 29.4789 26.2692 28.5011 26.0088C26.5491 25.4888 24.379 25.4961 23.4209 25.4961V28.4961ZM29.8399 30.6931C29.8399 31.1334 29.7046 31.4035 29.4959 31.622C29.2518 31.8776 28.8344 32.1313 28.1898 32.3416C26.8803 32.7688 25.1102 32.8701 23.4209 32.8701V35.8701C25.1305 35.8701 27.32 35.7809 29.1202 35.1936C30.0305 34.8967 30.9556 34.4371 31.6652 33.6942C32.4102 32.9143 32.8399 31.9008 32.8399 30.6931H29.8399Z" fill="#E3E7E3" mask="url(#path-7-outside-1_912_102)"/>
</g>
<mask id="mask2_912_102" style="mask-type:alpha" maskUnits="userSpaceOnUse" x="16" y="13" width="15" height="14">
<path d="M18.1099 13.7501H17.3599V14.5001V25.1187V25.8687H18.1099H28.7299H29.4799V25.1187V14.5001V13.7501H28.7299H18.1099Z" fill="white" stroke="white" stroke-width="1.5"/>
</mask>
<g mask="url(#mask2_912_102)">
<mask id="path-10-outside-2_912_102" maskUnits="userSpaceOnUse" x="16.1099" y="12.4997" width="15" height="15" fill="black">
<rect fill="white" x="16.1099" y="12.4997" width="15" height="15"/>
<path fill-rule="evenodd" clip-rule="evenodd" d="M23.4209 15.9277C21.2799 15.9277 19.5379 17.6687 19.5379 19.8097C19.5309 21.9437 21.2599 23.6837 23.3919 23.6917L23.4209 24.4057V23.6917C25.5609 23.6917 27.3019 21.9497 27.3019 19.8097C27.3019 17.6687 25.5609 15.9277 23.4209 15.9277M23.4209 25.1187H23.3889C20.4669 25.1097 18.0999 22.7267 18.1099 19.8067C18.1099 16.8817 20.4919 14.4997 23.4209 14.4997C26.3489 14.4997 28.7299 16.8817 28.7299 19.8097C28.7299 22.7377 26.3489 25.1187 23.4209 25.1187"/>
</mask>
<path fill-rule="evenodd" clip-rule="evenodd" d="M23.4209 15.9277C21.2799 15.9277 19.5379 17.6687 19.5379 19.8097C19.5309 21.9437 21.2599 23.6837 23.3919 23.6917L23.4209 24.4057V23.6917C25.5609 23.6917 27.3019 21.9497 27.3019 19.8097C27.3019 17.6687 25.5609 15.9277 23.4209 15.9277M23.4209 25.1187H23.3889C20.4669 25.1097 18.0999 22.7267 18.1099 19.8067C18.1099 16.8817 20.4919 14.4997 23.4209 14.4997C26.3489 14.4997 28.7299 16.8817 28.7299 19.8097C28.7299 22.7377 26.3489 25.1187 23.4209 25.1187" fill="black"/>
<path d="M19.5379 19.8097L21.0379 19.8146V19.8097H19.5379ZM23.3919 23.6917L24.8907 23.6308L24.8324 22.1971L23.3975 22.1917L23.3919 23.6917ZM23.4209 24.4057L21.9221 24.4666L24.9209 24.4057H23.4209ZM23.4209 23.6917V22.1917H21.9209V23.6917H23.4209ZM23.3889 25.1187L23.3843 26.6187H23.3889V25.1187ZM18.1099 19.8067L19.6099 19.8118V19.8067H18.1099ZM23.4209 14.4277C20.452 14.4277 18.0379 16.8398 18.0379 19.8097H21.0379C21.0379 18.4976 22.1078 17.4277 23.4209 17.4277V14.4277ZM18.0379 19.8048C18.0282 22.767 20.4262 25.1806 23.3863 25.1917L23.3975 22.1917C22.0936 22.1868 21.0336 21.1204 21.0379 19.8146L18.0379 19.8048ZM21.8931 23.7526L21.9221 24.4666L24.9197 24.3448L24.8907 23.6308L21.8931 23.7526ZM24.9209 24.4057V23.6917H21.9209V24.4057H24.9209ZM23.4209 25.1917C26.3898 25.1917 28.8019 22.7776 28.8019 19.8097H25.8019C25.8019 21.1218 24.732 22.1917 23.4209 22.1917V25.1917ZM28.8019 19.8097C28.8019 16.8405 26.3896 14.4277 23.4209 14.4277V17.4277C24.7322 17.4277 25.8019 18.4969 25.8019 19.8097H28.8019ZM23.4209 23.6187H23.3889V26.6187H23.4209V23.6187ZM23.3935 23.6187C21.3 23.6123 19.6027 21.903 19.6099 19.8118L16.6099 19.8016C16.5971 23.5504 19.6338 26.6071 23.3843 26.6187L23.3935 23.6187ZM19.6099 19.8067C19.6099 17.7109 21.3196 15.9997 23.4209 15.9997V12.9997C19.6642 12.9997 16.6099 16.0525 16.6099 19.8067H19.6099ZM23.4209 15.9997C25.5201 15.9997 27.2299 17.7098 27.2299 19.8097H30.2299C30.2299 16.0536 27.1777 12.9997 23.4209 12.9997V15.9997ZM27.2299 19.8097C27.2299 21.9093 25.5205 23.6187 23.4209 23.6187V26.6187C27.1773 26.6187 30.2299 23.5661 30.2299 19.8097H27.2299Z" fill="#E3E7E3" mask="url(#path-10-outside-2_912_102)"/>
</g>
<rect x="20.5" y="17.5" width="6" height="4.75" fill="#E3E7E3"/>
</svg>
