<svg width="40" height="40" viewBox="0 0 40 40" fill="none" xmlns="http://www.w3.org/2000/svg">
<rect width="40" height="40" rx="2" fill="#B4BDCA"/>
<path d="M13 15C13.3956 15 13.7822 14.8827 14.1111 14.6629C14.44 14.4432 14.6964 14.1308 14.8478 13.7654C14.9991 13.3999 15.0387 12.9978 14.9616 12.6098C14.8844 12.2219 14.6939 11.8655 14.4142 11.5858C14.1345 11.3061 13.7781 11.1156 13.3902 11.0384C13.0022 10.9613 12.6001 11.0009 12.2346 11.1522C11.8692 11.3036 11.5568 11.56 11.3371 11.8889C11.1173 12.2178 11 12.6044 11 13C11 13.5304 11.2107 14.0391 11.5858 14.4142C11.9609 14.7893 12.4696 15 13 15ZM13 25C12.6044 25 12.2178 25.1173 11.8889 25.3371C11.56 25.5568 11.3036 25.8692 11.1522 26.2346C11.0009 26.6001 10.9613 27.0022 11.0384 27.3902C11.1156 27.7781 11.3061 28.1345 11.5858 28.4142C11.8655 28.6939 12.2219 28.8844 12.6098 28.9616C12.9978 29.0387 13.3999 28.9991 13.7654 28.8478C14.1308 28.6964 14.4432 28.44 14.6629 28.1111C14.8827 27.7822 15 27.3956 15 27C15 26.4696 14.7893 25.9609 14.4142 25.5858C14.0391 25.2107 13.5304 25 13 25ZM13 18C12.6044 18 12.2178 18.1173 11.8889 18.3371C11.56 18.5568 11.3036 18.8692 11.1522 19.2346C11.0009 19.6001 10.9613 20.0022 11.0384 20.3902C11.1156 20.7781 11.3061 21.1345 11.5858 21.4142C11.8655 21.6939 12.2219 21.8844 12.6098 21.9616C12.9978 22.0387 13.3999 21.9991 13.7654 21.8478C14.1308 21.6964 14.4432 21.44 14.6629 21.1111C14.8827 20.7822 15 20.3956 15 20C15 19.4696 14.7893 18.9609 14.4142 18.5858C14.0391 18.2107 13.5304 18 13 18Z" fill="white"/>
<path d="M20 15C20.3956 15 20.7822 14.8827 21.1111 14.6629C21.44 14.4432 21.6964 14.1308 21.8478 13.7654C21.9991 13.3999 22.0387 12.9978 21.9616 12.6098C21.8844 12.2219 21.6939 11.8655 21.4142 11.5858C21.1345 11.3061 20.7781 11.1156 20.3902 11.0384C20.0022 10.9613 19.6001 11.0009 19.2346 11.1522C18.8692 11.3036 18.5568 11.56 18.3371 11.8889C18.1173 12.2178 18 12.6044 18 13C18 13.5304 18.2107 14.0391 18.5858 14.4142C18.9609 14.7893 19.4696 15 20 15ZM20 25C19.6044 25 19.2178 25.1173 18.8889 25.3371C18.56 25.5568 18.3036 25.8692 18.1522 26.2346C18.0009 26.6001 17.9613 27.0022 18.0384 27.3902C18.1156 27.7781 18.3061 28.1345 18.5858 28.4142C18.8655 28.6939 19.2219 28.8844 19.6098 28.9616C19.9978 29.0387 20.3999 28.9991 20.7654 28.8478C21.1308 28.6964 21.4432 28.44 21.6629 28.1111C21.8827 27.7822 22 27.3956 22 27C22 26.4696 21.7893 25.9609 21.4142 25.5858C21.0391 25.2107 20.5304 25 20 25ZM20 18C19.6044 18 19.2178 18.1173 18.8889 18.3371C18.56 18.5568 18.3036 18.8692 18.1522 19.2346C18.0009 19.6001 17.9613 20.0022 18.0384 20.3902C18.1156 20.7781 18.3061 21.1345 18.5858 21.4142C18.8655 21.6939 19.2219 21.8844 19.6098 21.9616C19.9978 22.0387 20.3999 21.9991 20.7654 21.8478C21.1308 21.6964 21.4432 21.44 21.6629 21.1111C21.8827 20.7822 22 20.3956 22 20C22 19.4696 21.7893 18.9609 21.4142 18.5858C21.0391 18.2107 20.5304 18 20 18Z" fill="white"/>
<path d="M27 15C27.3956 15 27.7822 14.8827 28.1111 14.6629C28.44 14.4432 28.6964 14.1308 28.8478 13.7654C28.9991 13.3999 29.0387 12.9978 28.9616 12.6098C28.8844 12.2219 28.6939 11.8655 28.4142 11.5858C28.1345 11.3061 27.7781 11.1156 27.3902 11.0384C27.0022 10.9613 26.6001 11.0009 26.2346 11.1522C25.8692 11.3036 25.5568 11.56 25.3371 11.8889C25.1173 12.2178 25 12.6044 25 13C25 13.5304 25.2107 14.0391 25.5858 14.4142C25.9609 14.7893 26.4696 15 27 15ZM27 25C26.6044 25 26.2178 25.1173 25.8889 25.3371C25.56 25.5568 25.3036 25.8692 25.1522 26.2346C25.0009 26.6001 24.9613 27.0022 25.0384 27.3902C25.1156 27.7781 25.3061 28.1345 25.5858 28.4142C25.8655 28.6939 26.2219 28.8844 26.6098 28.9616C26.9978 29.0387 27.3999 28.9991 27.7654 28.8478C28.1308 28.6964 28.4432 28.44 28.6629 28.1111C28.8827 27.7822 29 27.3956 29 27C29 26.4696 28.7893 25.9609 28.4142 25.5858C28.0391 25.2107 27.5304 25 27 25ZM27 18C26.6044 18 26.2178 18.1173 25.8889 18.3371C25.56 18.5568 25.3036 18.8692 25.1522 19.2346C25.0009 19.6001 24.9613 20.0022 25.0384 20.3902C25.1156 20.7781 25.3061 21.1345 25.5858 21.4142C25.8655 21.6939 26.2219 21.8844 26.6098 21.9616C26.9978 22.0387 27.3999 21.9991 27.7654 21.8478C28.1308 21.6964 28.4432 21.44 28.6629 21.1111C28.8827 20.7822 29 20.3956 29 20C29 19.4696 28.7893 18.9609 28.4142 18.5858C28.0391 18.2107 27.5304 18 27 18Z" fill="white"/>
</svg>
