<svg width="44" height="44" viewBox="0 0 44 44" fill="none" xmlns="http://www.w3.org/2000/svg">
<path fill-rule="evenodd" clip-rule="evenodd" d="M32 30.75H13V29.25H32V30.75Z" fill="#333333"/>
<path fill-rule="evenodd" clip-rule="evenodd" d="M32 22.75H13V21.25H32V22.75Z" fill="#333333"/>
<path fill-rule="evenodd" clip-rule="evenodd" d="M20 14.75H13V13.25H20V14.75Z" fill="#333333"/>
<path fill-rule="evenodd" clip-rule="evenodd" d="M29.166 2.9165C32.2243 2.9165 34.8347 3.9673 36.6809 5.84909C38.5259 7.72964 39.552 10.383 39.552 13.4877V30.347C39.552 33.4699 38.5602 36.1143 36.7369 37.9864C34.9121 39.8599 32.3191 40.8933 29.2459 40.9127L29.2415 40.9127L15.1376 40.9182C12.0794 40.9182 9.46829 39.8674 7.62163 37.9857C5.77617 36.1051 4.74951 33.4517 4.74951 30.347V13.4877C4.74951 10.3639 5.74125 7.71945 7.56472 5.84776C9.38965 3.97459 11.9827 2.94228 15.0558 2.92385L15.06 2.92384L29.166 2.9165ZM29.166 4.4165L15.0648 4.42382C15.0642 4.42383 15.0635 4.42383 15.0628 4.42384C12.3289 4.44067 10.1423 5.35163 8.63913 6.8945C7.13419 8.43923 6.24951 10.6843 6.24951 13.4877V30.347C6.24951 33.1163 7.15977 35.3735 8.69222 36.935C10.2234 38.4953 12.4314 39.4181 15.1371 39.4182C15.1371 39.4182 15.137 39.4182 15.1371 39.4182L29.2364 39.4127C29.2372 39.4127 29.2379 39.4127 29.2387 39.4127C31.9725 39.3949 34.1591 38.4831 35.6623 36.9398C37.1674 35.3945 38.052 33.1494 38.052 30.347V13.4877C38.052 10.7183 37.1422 8.46111 35.6101 6.89958C34.0794 5.33929 31.8717 4.4165 29.166 4.4165Z" fill="#333333"/>
</svg>
