<svg width="44" height="44" viewBox="0 0 44 44" fill="none" xmlns="http://www.w3.org/2000/svg">
<path fill-rule="evenodd" clip-rule="evenodd" d="M22 4.41663C12.289 4.41663 4.41669 12.289 4.41669 22C4.41669 31.711 12.289 39.5833 22 39.5833C31.711 39.5833 39.5834 31.711 39.5834 22C39.5834 12.289 31.711 4.41663 22 4.41663ZM2.91669 22C2.91669 11.4605 11.4606 2.91663 22 2.91663C32.5395 2.91663 41.0834 11.4605 41.0834 22C41.0834 32.5394 32.5395 41.0833 22 41.0833C11.4606 41.0833 2.91669 32.5394 2.91669 22Z" fill="#333333"/>
<path fill-rule="evenodd" clip-rule="evenodd" d="M2.91669 22C2.91669 21.5858 3.25247 21.25 3.66669 21.25H40.3334C40.7476 21.25 41.0834 21.5858 41.0834 22C41.0834 22.4142 40.7476 22.75 40.3334 22.75H3.66669C3.25247 22.75 2.91669 22.4142 2.91669 22Z" fill="#333333"/>
<path fill-rule="evenodd" clip-rule="evenodd" d="M15.4169 22C15.5524 28.3318 17.8847 34.4106 22 39.2023C26.1154 34.4106 28.4477 28.3318 28.5832 22C28.4477 15.6681 26.1154 9.58933 22 4.79762C17.8847 9.58933 15.5524 15.6681 15.4169 22ZM22 3.66663L21.4463 3.16081C16.738 8.31536 14.0623 15.0046 13.9168 21.9843C13.9166 21.9948 13.9166 22.0052 13.9168 22.0156C14.0623 28.9953 16.738 35.6846 21.4463 40.8391C21.5884 40.9947 21.7893 41.0833 22 41.0833C22.2107 41.0833 22.4117 40.9947 22.5538 40.8391C27.2621 35.6846 29.9378 28.9953 30.0832 22.0156C30.0833 22.0103 30.0834 22.0051 30.0834 21.9998C30.0834 21.9947 30.0833 21.9895 30.0832 21.9843C29.9378 15.0046 27.2621 8.31536 22.5538 3.16081L22 3.66663Z" fill="#333333"/>
</svg>
