<svg width="16" height="16" viewBox="0 0 16 16" xmlns="http://www.w3.org/2000/svg">
<path fill="" d="M2.08798 2.20608C2.81162 1.42973 3.83877 1 5.03951 1H10.9598C12.1632 1 13.1908 1.42943 13.9142 2.20633C14.6325 2.97773 15 4.03627 15 5.21093V10.7891C15 11.9637 14.6325 13.0223 13.9141 13.7937C13.1906 14.5706 12.1628 15 10.9591 15H5.03951C3.83615 15 2.80862 14.5706 2.08537 13.7936C1.36727 13.0222 1 11.9636 1 10.7891V5.21093C1 4.03552 1.36932 2.9771 2.08798 2.20608Z"/>
<path fill="#333333" d="M1.50771 1.63453C2.30241 0.781931 3.43045 0.309998 4.74912 0.309998H11.2509C12.5724 0.309998 13.701 0.781608 14.4954 1.63481C15.2843 2.48197 15.6879 3.64448 15.6879 4.9345V11.0605C15.6879 12.3505 15.2843 13.5131 14.4953 14.3602C13.7007 15.2134 12.572 15.685 11.2501 15.685H4.74912C3.42756 15.685 2.29912 15.2134 1.50484 14.3601C0.716208 13.5129 0.312866 12.3504 0.312866 11.0605V4.9345C0.312866 3.64365 0.718454 2.48127 1.50771 1.63453ZM2.60496 2.65728C2.11753 3.18022 1.81287 3.9551 1.81287 4.9345V11.0605C1.81287 12.0408 2.1164 12.8156 2.60277 13.3381C3.08349 13.8545 3.79817 14.185 4.74912 14.185H11.2501C12.2015 14.185 12.9166 13.8544 13.3976 13.338C13.8842 12.8154 14.1879 12.0407 14.1879 11.0605V4.9345C14.1879 3.95427 13.8842 3.17953 13.3977 2.657C12.9167 2.14051 12.2018 1.81 11.2509 1.81H4.74912C3.80203 1.81 3.08695 2.14019 2.60496 2.65728Z"/>
<path fill="currentColor" d="M6.73113 5.65973C6.43827 5.3668 5.96339 5.36675 5.67047 5.65962C5.37755 5.95248 5.3775 6.42735 5.67036 6.72028L6.93867 7.98885L5.67229 9.25523C5.3794 9.54812 5.3794 10.023 5.67229 10.3159C5.96518 10.6088 6.44006 10.6088 6.73295 10.3159L7.99922 9.04962L9.26736 10.318C9.56022 10.611 10.0351 10.611 10.328 10.3181C10.6209 10.0253 10.621 9.5504 10.3281 9.25748L9.05988 7.98896L10.327 6.72189C10.6198 6.429 10.6198 5.95412 10.327 5.66123C10.0341 5.36834 9.55918 5.36834 9.26629 5.66123L7.99933 6.92819L6.73113 5.65973Z"/>
</svg>
