<svg width="20" height="20" viewBox="0 0 20 20" xmlns="http://www.w3.org/2000/svg">
<path d="M10.0002 4.46436C5.8335 4.46436 2.27516 7.05602 0.833496 10.7144C2.27516 14.3727 5.8335 16.9644 10.0002 16.9644C14.1668 16.9644 17.7252 14.3727 19.1668 10.7144C17.7252 7.05602 14.1668 4.46436 10.0002 4.46436ZM10.0002 14.881C7.70016 14.881 5.8335 13.0144 5.8335 10.7144C5.8335 8.41436 7.70016 6.54769 10.0002 6.54769C12.3002 6.54769 14.1668 8.41436 14.1668 10.7144C14.1668 13.0144 12.3002 14.881 10.0002 14.881ZM10.0002 8.21436C8.61683 8.21436 7.50016 9.33102 7.50016 10.7144C7.50016 12.0977 8.61683 13.2144 10.0002 13.2144C11.3835 13.2144 12.5002 12.0977 12.5002 10.7144C12.5002 9.33102 11.3835 8.21436 10.0002 8.21436Z"/>
</svg>
