<svg width="16" height="16" viewBox="0 0 16 16" xmlns="http://www.w3.org/2000/svg">
<path fill-rule="evenodd" clip-rule="evenodd" d="M0.166656 1.9916C0.166656 1.00543 0.946821 0.166672 1.95825 0.166672H14.0417C15.0532 0.166672 15.8333 1.00543 15.8333 1.9916V3.16937C15.8333 3.65131 15.6469 4.11897 15.3046 4.4646C15.3043 4.46491 15.304 4.46523 15.3037 4.46554L10.216 9.62532V13.4909C10.216 13.7814 10.0482 14.0458 9.78537 14.1695L6.40215 15.7619C6.16983 15.8713 5.89772 15.8542 5.68091 15.7166C5.46411 15.579 5.33276 15.3401 5.33276 15.0833V9.60719L0.642945 4.43609C0.64286 4.43599 0.642774 4.4359 0.642689 4.4358C0.333871 4.09583 0.166656 3.65228 0.166656 3.1963V1.9916ZM1.95825 1.66667C1.81903 1.66667 1.66666 1.78939 1.66666 1.9916V3.1963C1.66666 3.28705 1.70008 3.369 1.75305 3.42729L1.75355 3.42784L6.63831 8.8139C6.76344 8.95188 6.83276 9.13148 6.83276 9.31775V13.9014L8.71597 13.015V9.31775C8.71597 9.12066 8.79355 8.9315 8.93192 8.79116L14.2371 3.41082L14.2386 3.40927C14.2957 3.35179 14.3333 3.26648 14.3333 3.16937V1.9916C14.3333 1.78939 14.181 1.66667 14.0417 1.66667H1.95825Z"/>
</svg>
