<svg width="51" height="17" viewBox="0 0 51 17" fill="none" xmlns="http://www.w3.org/2000/svg">
<rect width="51" height="17" fill="white"/>
<path d="M21.7032 8.71808C21.7032 11.0778 19.8301 12.8166 17.5313 12.8166C15.2326 12.8166 13.3594 11.0778 13.3594 8.71808C13.3594 6.34177 15.2326 4.6196 17.5313 4.6196C19.8301 4.6196 21.7032 6.34177 21.7032 8.71808ZM19.8769 8.71808C19.8769 7.24351 18.7913 6.2346 17.5313 6.2346C16.2713 6.2346 15.1857 7.24351 15.1857 8.71808C15.1857 10.1779 16.2713 11.2016 17.5313 11.2016C18.7913 11.2016 19.8769 10.176 19.8769 8.71808Z" fill="#808080"/>
<path d="M30.703 8.71808C30.703 11.0778 28.8299 12.8166 26.5312 12.8166C24.2324 12.8166 22.3593 11.0778 22.3593 8.71808C22.3593 6.34362 24.2324 4.6196 26.5312 4.6196C28.8299 4.6196 30.703 6.34177 30.703 8.71808ZM28.8768 8.71808C28.8768 7.24351 27.7912 6.2346 26.5312 6.2346C25.2712 6.2346 24.1855 7.24351 24.1855 8.71808C24.1855 10.1779 25.2712 11.2016 26.5312 11.2016C27.7912 11.2016 28.8768 10.176 28.8768 8.71808Z" fill="#808080"/>
<path d="M39.3282 4.86721V12.2253C39.3282 15.252 37.5169 16.4882 35.3757 16.4882C33.36 16.4882 32.1469 15.1596 31.6894 14.0731L33.2794 13.4208C33.5625 14.0879 34.2563 14.875 35.3738 14.875C36.7444 14.875 37.5938 14.0417 37.5938 12.4729V11.8834H37.53C37.1213 12.3805 36.3338 12.8147 35.34 12.8147C33.2607 12.8147 31.3557 11.0297 31.3557 8.73286C31.3557 6.41938 33.2607 4.6196 35.34 4.6196C36.3319 4.6196 37.1194 5.05384 37.53 5.53612H37.5938V4.86905H39.3282V4.86721ZM37.7232 8.73286C37.7232 7.28971 36.7463 6.2346 35.5032 6.2346C34.2432 6.2346 33.1875 7.28971 33.1875 8.73286C33.1875 10.1612 34.2432 11.2016 35.5032 11.2016C36.7463 11.2016 37.7232 10.1612 37.7232 8.73286Z" fill="#808080"/>
<path d="M42.1877 0.554382V12.5653H40.4064V0.554382H42.1877Z" fill="#808080"/>
<path d="M49.1288 10.0668L50.5463 10.9981C50.0888 11.6652 48.9863 12.8146 47.0813 12.8146C44.7188 12.8146 42.9544 11.0148 42.9544 8.71608C42.9544 6.27879 44.7338 4.6176 46.8769 4.6176C49.035 4.6176 50.0906 6.31021 50.4356 7.22488L50.625 7.69053L45.0656 9.95966C45.4913 10.7819 46.1531 11.2014 47.0813 11.2014C48.0113 11.2014 48.6563 10.7505 49.1288 10.0668ZM44.7656 8.59227L48.4819 7.07151C48.2775 6.55966 47.6625 6.20303 46.9388 6.20303C46.0106 6.20303 44.7188 7.01053 44.7656 8.59227V8.59227Z" fill="#808080"/>
<path d="M6.61676 7.65179V5.91299H12.5624C12.6205 6.21603 12.6505 6.57451 12.6505 6.96255C12.6505 8.26712 12.2886 9.88027 11.1224 11.0296C9.98801 12.1937 8.53863 12.8146 6.61863 12.8146C3.05988 12.8146 0.0673828 9.95788 0.0673828 6.4507C0.0673828 2.94353 3.05988 0.086792 6.61863 0.086792C8.58738 0.086792 9.98988 0.848096 11.0436 1.84038L9.79863 3.06734C9.04301 2.36886 8.01926 1.8256 6.61676 1.8256C4.01801 1.8256 1.98551 3.88962 1.98551 6.4507C1.98551 9.01179 4.01801 11.0758 6.61676 11.0758C8.30238 11.0758 9.26238 10.4087 9.87738 9.80266C10.3761 9.31114 10.7043 8.60897 10.8336 7.64994L6.61676 7.65179V7.65179Z" fill="#808080"/>
</svg>
