<svg width="20" height="20" viewBox="0 0 20 20" xmlns="http://www.w3.org/2000/svg">
<path d="M18.5016 10.1958C18.5016 9.61801 18.4538 9.03708 18.3519 8.46865H10.1721V11.7418H14.8563C14.6619 12.7975 14.0373 13.7314 13.1228 14.3248V16.4486H15.9174C17.5584 14.9682 18.5016 12.7819 18.5016 10.1958Z"/>
<path d="M10.1721 18.5006C12.511 18.5006 14.4834 17.7479 15.9206 16.4486L13.126 14.3248C12.3485 14.8432 11.3447 15.1368 10.1753 15.1368C7.91287 15.1368 5.9946 13.6408 5.30631 11.6294H2.42253V13.8188C3.89469 16.6891 6.89319 18.5006 10.1721 18.5006Z"/>
<path d="M5.30306 11.6294C4.9398 10.5737 4.9398 9.43061 5.30306 8.37494V6.18552H2.42246C1.19247 8.58732 1.19253 11.417 2.42253 13.8188L5.30306 11.6294Z"/>
<path d="M10.1721 4.86434C11.4085 4.8456 12.6034 5.3016 13.4988 6.13864L15.9747 3.71185C14.407 2.2689 12.3262 1.47559 10.1721 1.50057C6.89319 1.50057 3.89463 3.31211 2.42246 6.18552L5.30306 8.37494C5.98816 6.36043 7.90969 4.86434 10.1721 4.86434Z"/>
</svg>
