<svg width="32" height="32" viewBox="0 0 32 32" xmlns="http://www.w3.org/2000/svg">
<path fill-rule="evenodd" clip-rule="evenodd" d="M20.8054 1.93999V2.33999C20.8054 6.45798 21.6654 9.69405 23.1982 11.8888C24.7193 14.0669 26.92 15.2466 29.6974 15.2466H30.0974V16.7499H29.6974C26.9198 16.7499 24.7192 17.9285 23.1981 20.1052C21.6654 22.2986 20.8054 25.5334 20.8054 29.6514V30.0514H19.3021V29.6514C19.3021 25.5333 18.4433 22.2985 16.9118 20.1051C15.392 17.9284 13.1928 16.7499 10.4152 16.7499H10.0152V15.2466H10.4152C13.1926 15.2466 15.3919 14.0669 16.9118 11.8889C18.4433 9.69418 19.3021 6.45808 19.3021 2.33999V1.93999H20.8054ZM26.4444 16.207C26.6569 16.1282 26.8736 16.0577 27.0946 15.9957C26.8739 15.9325 26.6574 15.861 26.4453 15.7813C23.3814 14.6303 21.2218 11.7683 20.2614 7.61912C20.1855 7.29114 20.1171 6.95511 20.0563 6.61125C19.9955 6.95502 19.9271 7.29105 19.8512 7.61913C18.8902 11.7707 16.7266 14.6475 13.6621 15.7847C13.4499 15.8634 13.2335 15.9338 13.0128 15.9957C13.233 16.059 13.4491 16.1306 13.6609 16.2105C16.714 17.3616 18.8879 20.2229 19.8506 24.3709C19.9268 24.6993 19.9954 25.0358 20.0563 25.3801C20.1168 25.0358 20.185 24.6992 20.2608 24.3706C21.218 20.2203 23.3809 17.3444 26.4444 16.207Z"/>
<path fill-rule="evenodd" clip-rule="evenodd" d="M12.8054 1.93999V2.33999C12.8054 6.45798 13.6654 9.69405 15.1982 11.8888C16.7193 14.0669 18.92 15.2466 21.6974 15.2466H22.0974V16.7499H21.6974C18.9198 16.7499 16.7192 17.9285 15.1981 20.1052C13.6654 22.2986 12.8054 25.5334 12.8054 29.6514V30.0514H11.3021V29.6514C11.3021 25.5333 10.4433 22.2985 8.91184 20.1051C7.39202 17.9284 5.19275 16.7499 2.41517 16.7499H2.01517V15.2466H2.41517C5.1926 15.2466 7.39188 14.0669 8.91178 11.8889C10.4433 9.69418 11.3021 6.45808 11.3021 2.33999V1.93999H12.8054ZM18.4444 16.207C18.6569 16.1282 18.8736 16.0577 19.0946 15.9957C18.8739 15.9325 18.6574 15.861 18.4453 15.7813C15.3814 14.6303 13.2218 11.7683 12.2614 7.61912C12.1855 7.29114 12.1171 6.95511 12.0563 6.61125C11.9955 6.95502 11.9271 7.29105 11.8512 7.61913C10.8902 11.7707 8.72657 14.6475 5.66207 15.7847C5.44994 15.8634 5.2335 15.9338 5.01284 15.9957C5.23303 16.059 5.4491 16.1306 5.66094 16.2105C8.71401 17.3616 10.8879 20.2229 11.8506 24.3709C11.9268 24.6993 11.9954 25.0358 12.0563 25.3801C12.1168 25.0358 12.185 24.6992 12.2608 24.3706C13.218 20.2203 15.3809 17.3444 18.4444 16.207Z"/>
</svg>
