<svg width="35" height="35" viewBox="0 0 35 35" fill="none" xmlns="http://www.w3.org/2000/svg">
    <circle cx="17.5" cy="17.5" r="17" fill="white" stroke="#757575"/>
    <path fill-rule="evenodd" clip-rule="evenodd" d="M17.4077 20.9673C14.2345 20.9673 12.625 21.5125 12.625 22.5865C12.625 23.671 14.2345 24.2215 17.4077 24.2215C20.581 24.2215 22.1905 23.6763 22.1905 22.603C22.1905 21.517 20.581 20.9673 17.4077 20.9673ZM17.4077 25.3465C15.9467 25.3465 11.5 25.3465 11.5 22.5865C11.5 20.1265 14.8712 19.8423 17.4077 19.8423C18.8687 19.8423 23.3155 19.8423 23.3155 22.603C23.3155 25.0623 19.9442 25.3465 17.4077 25.3465Z" fill="#757575"/>
    <path fill-rule="evenodd" clip-rule="evenodd" d="M17.4097 11.625C15.8317 11.625 14.5469 12.9097 14.5469 14.4885C14.5439 15.2527 14.8379 15.969 15.3742 16.5097C15.9112 17.0497 16.6267 17.349 17.3887 17.352L17.4097 17.9145V17.352C18.9884 17.352 20.2732 16.0672 20.2732 14.4885C20.2732 12.9097 18.9884 11.625 17.4097 11.625ZM17.4097 18.477H17.3864C16.3222 18.4732 15.3247 18.0555 14.5769 17.3025C13.8284 16.5487 13.4182 15.5482 13.4219 14.4862C13.4219 12.2895 15.2107 10.5 17.4097 10.5C19.6094 10.5 21.3982 12.2895 21.3982 14.4885C21.3982 16.6875 19.6094 18.477 17.4097 18.477Z" fill="#757575"/>
    <path fill-rule="evenodd" clip-rule="evenodd" d="M24.4048 19.0722C24.0943 19.0722 23.8423 18.8202 23.8423 18.5097V15.5015C23.8423 15.191 24.0943 14.939 24.4048 14.939C24.7153 14.939 24.9673 15.191 24.9673 15.5015V18.5097C24.9673 18.8202 24.7153 19.0722 24.4048 19.0722Z" fill="#757575"/>
    <path fill-rule="evenodd" clip-rule="evenodd" d="M25.9396 17.5676H22.8721C22.5616 17.5676 22.3096 17.3156 22.3096 17.0051C22.3096 16.6946 22.5616 16.4426 22.8721 16.4426H25.9396C26.2501 16.4426 26.5021 16.6946 26.5021 17.0051C26.5021 17.3156 26.2501 17.5676 25.9396 17.5676Z" fill="#757575"/>
</svg>
