<svg width="46" height="46" viewBox="0 0 46 46" fill="none" xmlns="http://www.w3.org/2000/svg">
<path fill-rule="evenodd" clip-rule="evenodd" d="M13.8333 9.58749C9.25 9.58749 9.25 9.92549 9.25 14.0562V14.0969C9.25 15.8957 9.25 17.1957 9.70166 17.745C10.1433 18.278 11.455 18.525 13.8333 18.525C16.2117 18.525 17.5233 18.2764 17.965 17.7434C18.4167 17.1957 18.4167 15.8957 18.4167 14.0952C18.4167 9.92549 18.4167 9.58749 13.8333 9.58749M13.8333 20.9625C11.0233 20.9625 8.915 20.6749 7.75667 19.2725C6.75 18.0554 6.75 16.3946 6.75 14.0969L8 14.0562H6.75C6.75 9.39249 7.05167 7.14999 13.8333 7.14999C20.615 7.14999 20.9167 9.39249 20.9167 14.0562C20.9167 16.393 20.9167 18.0554 19.91 19.2725C18.7517 20.6749 16.6433 20.9625 13.8333 20.9625" fill="black"/>
<path fill-rule="evenodd" clip-rule="evenodd" d="M32.1667 9.58749C27.5833 9.58749 27.5833 9.92549 27.5833 14.0562V14.0969C27.5833 15.8957 27.5833 17.1957 28.035 17.745C28.4767 18.278 29.7883 18.525 32.1667 18.525C34.545 18.525 35.8566 18.2764 36.2983 17.7434C36.75 17.1957 36.75 15.8957 36.75 14.0952C36.75 9.92549 36.75 9.58749 32.1667 9.58749M32.1666 20.9625C29.3566 20.9625 27.2483 20.6749 26.09 19.2725C25.0833 18.0554 25.0833 16.3946 25.0833 14.0969L26.3333 14.0562H25.0833C25.0833 9.39249 25.385 7.14999 32.1666 7.14999C38.9483 7.14999 39.25 9.39249 39.25 14.0562C39.25 16.393 39.25 18.0554 38.2433 19.2725C37.085 20.6749 34.9766 20.9625 32.1666 20.9625" fill="black"/>
<path fill-rule="evenodd" clip-rule="evenodd" d="M13.8333 27.4625C9.25 27.4625 9.25 27.8005 9.25 31.9312V31.9719C9.25 33.7707 9.25 35.0707 9.70166 35.62C10.1433 36.153 11.455 36.4 13.8333 36.4C16.2117 36.4 17.5233 36.1514 17.965 35.6184C18.4167 35.0707 18.4167 33.7707 18.4167 31.9702C18.4167 27.8005 18.4167 27.4625 13.8333 27.4625M13.8333 38.8375C11.0233 38.8375 8.915 38.5499 7.75667 37.1475C6.75 35.9304 6.75 34.2696 6.75 31.9719L8 31.9312H6.75C6.75 27.2675 7.05167 25.025 13.8333 25.025C20.615 25.025 20.9167 27.2675 20.9167 31.9312C20.9167 34.268 20.9167 35.9304 19.91 37.1475C18.7517 38.5499 16.6433 38.8375 13.8333 38.8375" fill="black"/>
<path fill-rule="evenodd" clip-rule="evenodd" d="M32.1667 27.4625C27.5833 27.4625 27.5833 27.8005 27.5833 31.9312V31.9719C27.5833 33.7707 27.5833 35.0707 28.035 35.62C28.4767 36.153 29.7883 36.4 32.1667 36.4C34.545 36.4 35.8566 36.1514 36.2983 35.6184C36.75 35.0707 36.75 33.7707 36.75 31.9702C36.75 27.8005 36.75 27.4625 32.1667 27.4625M32.1666 38.8375C29.3566 38.8375 27.2483 38.5499 26.09 37.1475C25.0833 35.9304 25.0833 34.2696 25.0833 31.9719L26.3333 31.9312H25.0833C25.0833 27.2675 25.385 25.025 32.1666 25.025C38.9483 25.025 39.25 27.2675 39.25 31.9312C39.25 34.268 39.25 35.9304 38.2433 37.1475C37.085 38.5499 34.9766 38.8375 32.1666 38.8375" fill="black"/>
</svg>
