<svg width="46" height="46" viewBox="0 0 46 46" fill="none" xmlns="http://www.w3.org/2000/svg">
<path fill-rule="evenodd" clip-rule="evenodd" d="M17.25 33.25C26.0866 33.25 33.25 26.0866 33.25 17.25C33.25 8.41344 26.0866 1.25 17.25 1.25C8.41344 1.25 1.25 8.41344 1.25 17.25C1.25 26.0866 8.41344 33.25 17.25 33.25ZM17.25 34.5C26.7769 34.5 34.5 26.7769 34.5 17.25C34.5 7.72309 26.7769 0 17.25 0C7.72309 0 0 7.72309 0 17.25C0 26.7769 7.72309 34.5 17.25 34.5Z" fill="black"/>
<path fill-rule="evenodd" clip-rule="evenodd" d="M28.75 44.75C37.5866 44.75 44.75 37.5866 44.75 28.75C44.75 19.9134 37.5866 12.75 28.75 12.75C19.9134 12.75 12.75 19.9134 12.75 28.75C12.75 37.5866 19.9134 44.75 28.75 44.75ZM28.75 46C38.2769 46 46 38.2769 46 28.75C46 19.2231 38.2769 11.5 28.75 11.5C19.2231 11.5 11.5 19.2231 11.5 28.75C11.5 38.2769 19.2231 46 28.75 46Z" fill="black"/>
</svg>
