<svg width="20" height="20" viewBox="0 0 20 20" xmlns="http://www.w3.org/2000/svg">
<path d="M14.7755 8.9144H13.7734V6.77662C13.7734 4.70564 12.0699 3.00209 9.99891 3.00209C7.92793 3.00209 6.22438 4.70564 6.22438 6.77662V8.9144H5.22229V6.77662C5.22229 4.13779 7.36008 2 9.99891 2C12.6377 2 14.7755 4.13779 14.7755 6.77662V8.9144"/>
<path d="M14.2745 18H5.72334C4.85486 18 4.12 17.2651 4.12 16.3967V9.9833C4.12 9.11482 4.85486 8.37996 5.72334 8.37996H14.2745C15.143 8.37996 15.8778 9.11482 15.8778 9.9833V16.3967C15.8778 17.2985 15.143 18 14.2745 18ZM5.72334 9.44885C5.42271 9.44885 5.18889 9.68267 5.18889 9.9833V16.3967C5.18889 16.6973 5.42271 16.9311 5.72334 16.9311H14.2745C14.5751 16.9311 14.8089 16.6973 14.8089 16.3967V9.9833C14.8089 9.68267 14.5751 9.44885 14.2745 9.44885H5.72334Z"/>
<path d="M11.0678 11.5866C11.0678 12.1879 10.6002 12.6555 9.99891 12.6555C9.39766 12.6555 8.93002 12.1879 8.93002 11.5866C8.93002 10.9854 9.39766 10.5177 9.99891 10.5177C10.6002 10.5177 11.0678 11.0188 11.0678 11.5866Z"/>
<path d="M10.2661 11.5866H9.73169L9.19724 14.7933H10.8006L10.2661 11.5866Z"/>
</svg>
