<svg width="52" height="52" viewBox="0 0 52 52" fill="none" xmlns="http://www.w3.org/2000/svg">
<rect width="52" height="52" rx="5" fill="#333333"/>
<path fill-rule="evenodd" clip-rule="evenodd" d="M31.8867 26.1465C31.5187 26.1465 31.1977 25.8755 31.1447 25.5005C31.0877 25.0895 31.3727 24.7105 31.7837 24.6535C32.8237 24.5075 33.6087 23.6055 33.6107 22.5535C33.6107 21.5105 32.8627 20.6285 31.8317 20.4595C31.4237 20.3925 31.1467 20.0065 31.2137 19.5975C31.2817 19.1885 31.6647 18.9145 32.0757 18.9795C33.8337 19.2685 35.1107 20.7725 35.1107 22.5555C35.1067 24.3505 33.7657 25.8905 31.9907 26.1395C31.9557 26.1445 31.9207 26.1465 31.8867 26.1465" fill="white"/>
<path fill-rule="evenodd" clip-rule="evenodd" d="M34.8613 32.5313C34.5593 32.5313 34.2743 32.3473 34.1603 32.0483C34.0123 31.6613 34.2073 31.2273 34.5943 31.0803C35.2723 30.8223 35.2723 30.5373 35.2723 30.4003C35.2723 29.9623 34.7153 29.6563 33.6173 29.4923C33.2083 29.4303 32.9253 29.0493 32.9863 28.6383C33.0473 28.2283 33.4273 27.9553 33.8403 28.0083C36.2633 28.3713 36.7723 29.5093 36.7723 30.4003C36.7723 30.9443 36.5583 31.9373 35.1283 32.4823C35.0403 32.5153 34.9503 32.5313 34.8613 32.5313" fill="white"/>
<path fill-rule="evenodd" clip-rule="evenodd" d="M25.8865 29.9141C23.5105 29.9141 20.6775 30.2061 20.6775 31.5961C20.6775 32.9971 23.5105 33.2911 25.8865 33.2911C28.2625 33.2911 31.0945 33.0001 31.0945 31.6131C31.0945 30.2091 28.2625 29.9141 25.8865 29.9141M25.8865 34.7911C24.2275 34.7911 19.1775 34.7911 19.1775 31.5961C19.1775 28.4141 24.2275 28.4141 25.8865 28.4141C27.5455 28.4141 32.5945 28.4141 32.5945 31.6131C32.5945 34.7911 27.7215 34.7911 25.8865 34.7911" fill="white"/>
<path fill-rule="evenodd" clip-rule="evenodd" d="M25.8866 19.5C24.1946 19.5 22.8186 20.877 22.8186 22.569C22.8156 23.389 23.1296 24.156 23.7046 24.735C24.2796 25.314 25.0456 25.635 25.8616 25.638L25.8866 26.388V25.638C27.5786 25.638 28.9556 24.262 28.9556 22.569C28.9556 20.877 27.5786 19.5 25.8866 19.5M25.8866 27.138H25.8596C24.6396 27.134 23.4966 26.656 22.6406 25.792C21.7826 24.929 21.3136 23.783 21.3186 22.566C21.3186 20.05 23.3676 18 25.8866 18C28.4066 18 30.4556 20.05 30.4556 22.569C30.4556 25.088 28.4066 27.138 25.8866 27.138" fill="white"/>
<path fill-rule="evenodd" clip-rule="evenodd" d="M19.8856 26.1465C19.8516 26.1465 19.8166 26.1445 19.7816 26.1395C18.0066 25.8905 16.6666 24.3505 16.6626 22.5575C16.6626 20.7725 17.9396 19.2685 19.6976 18.9795C20.1186 18.9135 20.4916 19.1905 20.5596 19.5975C20.6266 20.0065 20.3496 20.3925 19.9416 20.4595C18.9106 20.6285 18.1626 21.5105 18.1626 22.5554C18.1646 23.6054 18.9496 24.5085 19.9886 24.6535C20.3996 24.7105 20.6846 25.0895 20.6276 25.5005C20.5746 25.8755 20.2536 26.1465 19.8856 26.1465" fill="white"/>
<path fill-rule="evenodd" clip-rule="evenodd" d="M16.912 32.5313C16.823 32.5313 16.733 32.5153 16.645 32.4823C15.214 31.9363 15 30.9433 15 30.4003C15 29.5103 15.509 28.3713 17.933 28.0083C18.346 27.9563 18.724 28.2283 18.786 28.6383C18.847 29.0493 18.564 29.4303 18.155 29.4923C17.057 29.6563 16.5 29.9623 16.5 30.4003C16.5 30.5373 16.5 30.8213 17.179 31.0803C17.566 31.2273 17.761 31.6613 17.613 32.0483C17.499 32.3473 17.214 32.5313 16.912 32.5313" fill="white"/>
</svg>
