<svg width="25" height="20" viewBox="0 0 25 20" xmlns="http://www.w3.org/2000/svg">
<path d="M19.5 20C17.9667 20 16.6667 19.4498 15.6 18.3495C14.5333 17.1845 14 15.6311 14 13.6893C14 10.9061 14.4333 8.64077 15.3 6.8932C16.1667 5.0809 17.1333 3.65696 18.2 2.62136C19.4 1.45631 20.8333 0.582524 22.5 0L23.5 1.5534C22.3667 2.0712 21.3667 2.68608 20.5 3.39806C19.7667 4.04531 19.0667 4.82201 18.4 5.72816C17.8 6.56958 17.5 7.60518 17.5 8.83495C17.5 9.28802 17.5667 9.64401 17.7 9.90291C17.7667 10.0971 17.8667 10.2265 18 10.2913C18.1333 10.2265 18.3333 10.1618 18.6 10.0971C18.8 10.0324 19 9.96763 19.2 9.90291C19.4667 9.83818 19.7333 9.80583 20 9.80583C21.5333 9.80583 22.7333 10.2589 23.6 11.1651C24.5333 12.0065 25 13.1715 25 14.6602C25 16.1489 24.4667 17.411 23.4 18.4466C22.3333 19.4822 21.0333 20 19.5 20ZM5.5 20C3.96667 20 2.66667 19.4498 1.6 18.3495C0.533333 17.1845 0 15.6311 0 13.6893C0 10.9061 0.433333 8.64077 1.3 6.8932C2.16667 5.0809 3.13333 3.65696 4.2 2.62136C5.4 1.45631 6.83333 0.582524 8.5 0L9.5 1.5534C8.36667 2.0712 7.36667 2.68608 6.5 3.39806C5.76667 4.04531 5.06667 4.82201 4.4 5.72816C3.8 6.56958 3.5 7.60518 3.5 8.83495C3.5 9.28802 3.56667 9.64401 3.7 9.90291C3.76667 10.0971 3.86667 10.2265 4 10.2913C4.13333 10.2265 4.33333 10.1618 4.6 10.0971C4.8 10.0324 5 9.96763 5.2 9.90291C5.46667 9.83818 5.73333 9.80583 6 9.80583C7.53333 9.80583 8.73333 10.2589 9.6 11.1651C10.5333 12.0065 11 13.1715 11 14.6602C11 16.1489 10.4667 17.411 9.4 18.4466C8.33333 19.4822 7.03333 20 5.5 20Z"/>
</svg>
