<svg width="16" height="16" viewBox="0 0 16 16" xmlns="http://www.w3.org/2000/svg">
<path opacity="0.4" fill-rule="evenodd" d="M0.792175 12.2405C0.792175 11.8263 1.12796 11.4905 1.54218 11.4905H6.66634C7.08056 11.4905 7.41634 11.8263 7.41634 12.2405C7.41634 12.6547 7.08056 12.9905 6.66634 12.9905H1.54218C1.12796 12.9905 0.792175 12.6547 0.792175 12.2405Z"/>
<path fill-rule="evenodd" d="M12.4185 10.9505C11.7059 10.9505 11.1285 11.5274 11.1285 12.2405C11.1285 12.953 11.7061 13.5305 12.4185 13.5305C13.131 13.5305 13.7085 12.953 13.7085 12.2405C13.7085 11.5274 13.1312 10.9505 12.4185 10.9505ZM9.62851 12.2405C9.62851 10.6986 10.8778 9.4505 12.4185 9.4505C13.9592 9.4505 15.2085 10.6986 15.2085 12.2405C15.2085 13.7814 13.9594 15.0305 12.4185 15.0305C10.8776 15.0305 9.62851 13.7814 9.62851 12.2405Z"/>
<path opacity="0.4" fill-rule="evenodd" d="M8.58359 3.93567C8.58359 3.52146 8.91937 3.18567 9.33359 3.18567H14.4586C14.8728 3.18567 15.2086 3.52146 15.2086 3.93567C15.2086 4.34988 14.8728 4.68567 14.4586 4.68567H9.33359C8.91937 4.68567 8.58359 4.34988 8.58359 3.93567Z"/>
<path fill-rule="evenodd" d="M0.79184 3.93566C0.79184 2.39478 2.04096 1.14566 3.58184 1.14566C5.12272 1.14566 6.37184 2.39478 6.37184 3.93566C6.37184 5.47757 5.12252 6.72566 3.58184 6.72566C2.04116 6.72566 0.79184 5.47757 0.79184 3.93566ZM3.58184 2.64566C2.86939 2.64566 2.29184 3.22321 2.29184 3.93566C2.29184 4.64875 2.86919 5.22566 3.58184 5.22566C4.29449 5.22566 4.87184 4.64875 4.87184 3.93566C4.87184 3.22321 4.29429 2.64566 3.58184 2.64566Z"/>
</svg>
