<svg width="149" height="42" fill="none" xmlns="http://www.w3.org/2000/svg"><path d="M56.27 27.17c2.516 0 4.318-1.275 4.318-3.264 0-2.023-1.87-2.754-3.842-3.502-1.683-.663-3.383-1.36-3.383-2.822 0-1.292 1.326-2.278 3.111-2.278 1.87 0 3.281 1.156 3.281 2.703h.374c0-1.751-1.666-3.077-3.825-3.077-2.363 0-4.114 1.326-4.114 3.213 0 2.057 2.074 2.89 3.791 3.587 1.819.714 3.4 1.377 3.4 2.805 0 1.309-1.377 2.261-3.315 2.261-2.108 0-3.774-1.241-3.774-2.89h-.374c0 1.853 1.921 3.264 4.352 3.264zM70.857 15.1H61.32v.34h4.03V27h1.512V15.44h3.995v-.34zM79.49 27h1.582l-5.203-11.9h-.662L69.987 27h.477l1.546-3.519h5.95L79.49 27zm-7.343-3.859l2.838-6.477 2.823 6.477h-5.662zm19.41-1.173v3.23c-.458 1.02-1.665 1.632-3.28 1.632-2.992 0-4.913-2.278-4.913-5.729 0-3.536 1.972-5.763 5.168-5.763 2.193 0 3.79 1.139 3.79 2.669h.375c0-1.768-1.921-3.077-4.505-3.077-3.706 0-6.41 2.635-6.41 6.12 0 3.485 2.738 6.12 6.325 6.12 1.666 0 3.094-.544 3.79-1.377l.97 1.207h.17v-5.032h-1.48zm5.984 4.692v-5.525h5.338v-.34h-5.338V15.44h6.698v-.34h-8.21V27h8.38v-.34h-6.868zm17.875-11.56h-9.537v.34h4.029V27h1.513V15.44h3.995v-.34zm2.095 11.9h1.513V15.1h-1.513V27zm15.135-11.9l-4.352 7.191-4.369-7.191h-1.649V27h.408V15.848l4.879 8.058h.272l4.879-8.058V27h1.513V15.1h-1.581zm6.35 11.56v-5.525h5.338v-.34h-5.338V15.44h6.698v-.34h-8.211V27h8.381v-.34h-6.868z" fill="#545454"/><path stroke="url(#paint0_linear)" d="M20.542 5v15.125"/><path stroke="url(#paint1_linear)" d="M20.542 22.875V38"/><path stroke="url(#paint2_linear)" d="M4 21.458h15.125"/><path stroke="url(#paint3_linear)" d="M21.875 21.458H37"/><path stroke="url(#paint4_linear)" d="M14.037 15.019l4.996 4.996"/><path stroke="url(#paint5_linear)" d="M22.223 23.205l4.996 4.996"/><path stroke="url(#paint6_linear)" d="M13.562 28.201l4.995-4.995"/><path stroke="url(#paint7_linear)" d="M21.747 20.015l4.996-4.995"/><defs><linearGradient id="paint0_linear" x1="27" y1="-18" x2="24.247" y2="19.972" gradientUnits="userSpaceOnUse"><stop stop-color="#CAA491"/><stop offset=".26" stop-color="#9C7768"/><stop offset=".495" stop-color="#DBB6A4"/><stop offset=".646" stop-color="#EECAB7"/><stop offset=".792" stop-color="#AF8978"/></linearGradient><linearGradient id="paint1_linear" x1="21.542" y1="23.333" x2="20.915" y2="50.405" gradientUnits="userSpaceOnUse"><stop stop-color="#CAA491"/><stop offset=".26" stop-color="#9C7768"/><stop offset=".495" stop-color="#DBB6A4"/><stop offset=".646" stop-color="#EECAB7"/><stop offset=".792" stop-color="#AF8978"/></linearGradient><linearGradient id="paint2_linear" x1="-7.5" y1="28.5" x2="15.586" y2="23.552" gradientUnits="userSpaceOnUse"><stop stop-color="#CAA491"/><stop offset=".26" stop-color="#9C7768"/><stop offset=".495" stop-color="#DBB6A4"/><stop offset=".646" stop-color="#EECAB7"/><stop offset=".792" stop-color="#AF8978"/></linearGradient><linearGradient id="paint3_linear" x1="69" y1="9.5" x2="22.925" y2="5.4" gradientUnits="userSpaceOnUse"><stop stop-color="#E8C4B1"/><stop offset=".13" stop-color="#9C7768"/><stop offset=".234" stop-color="#DBB6A4"/><stop offset=".37" stop-color="#CAA491"/><stop offset=".464" stop-color="#AF8978"/><stop offset=".542" stop-color="#EECAB7"/><stop offset=".651" stop-color="#C8A392"/><stop offset=".755" stop-color="#EECAB7"/><stop offset=".859" stop-color="#B68E7C"/></linearGradient><linearGradient id="paint4_linear" x1="10" y1="-1" x2="24.199" y2="15.283" gradientUnits="userSpaceOnUse"><stop stop-color="#CAA491"/><stop offset=".26" stop-color="#9C7768"/><stop offset=".495" stop-color="#DBB6A4"/><stop offset=".646" stop-color="#EECAB7"/><stop offset=".792" stop-color="#AF8978"/></linearGradient><linearGradient id="paint5_linear" x1="49.5" y1="36.5" x2="24.401" y2="19.828" gradientUnits="userSpaceOnUse"><stop stop-color="#CAA491"/><stop offset=".26" stop-color="#9C7768"/><stop offset=".495" stop-color="#DBB6A4"/><stop offset=".646" stop-color="#EECAB7"/><stop offset=".792" stop-color="#AF8978"/></linearGradient><linearGradient id="paint6_linear" x1="5" y1="36" x2="17.636" y2="24.78" gradientUnits="userSpaceOnUse"><stop stop-color="#CAA491"/><stop offset=".26" stop-color="#9C7768"/><stop offset=".495" stop-color="#DBB6A4"/><stop offset=".646" stop-color="#EECAB7"/><stop offset=".792" stop-color="#AF8978"/></linearGradient><linearGradient id="paint7_linear" x1="21.868" y1="20.576" x2="38.291" y2="3.002" gradientUnits="userSpaceOnUse"><stop stop-color="#CAA491"/><stop offset=".26" stop-color="#9C7768"/><stop offset=".495" stop-color="#DBB6A4"/><stop offset=".646" stop-color="#EECAB7"/><stop offset=".792" stop-color="#AF8978"/></linearGradient></defs></svg>