<svg width="26" height="26" viewBox="0 0 26 26" fill="none" xmlns="http://www.w3.org/2000/svg">
<path d="M0.698242 13C0.698242 6.37258 6.07083 1 12.6982 1H13.0157C19.6431 1 25.0157 6.37258 25.0157 13V13C25.0157 19.6274 19.6431 25 13.0157 25H12.6983C6.07083 25 0.698242 19.6274 0.698242 13V13Z" fill="#E7E7E7"/>
<path d="M9.81702 12.4V13.6H15.8964V12.4H9.81702ZM12.8567 7C9.50089 7 6.77734 9.688 6.77734 13C6.77734 16.312 9.50089 19 12.8567 19C16.2125 19 18.936 16.312 18.936 13C18.936 9.688 16.2125 7 12.8567 7ZM12.8567 17.8C10.1757 17.8 7.99321 15.646 7.99321 13C7.99321 10.354 10.1757 8.2 12.8567 8.2C15.5377 8.2 17.7202 10.354 17.7202 13C17.7202 15.646 15.5377 17.8 12.8567 17.8Z" fill="#757575"/>
</svg>
