<svg width="52" height="52" viewBox="0 0 52 52" fill="none" xmlns="http://www.w3.org/2000/svg">
<path d="M26.3168 31.4172L27.3215 51.5H24.6804L25.6851 31.4172H26.3168ZM20.5847 25.6851L0.5 24.6804V27.3215L20.5847 26.3168V25.6851ZM26.3168 20.5847L27.3196 0.5H24.6804L25.6851 20.5847H26.3168ZM31.4172 25.6851V26.3168L51.5 27.3215V24.6804L31.4172 25.6851ZM14.8545 35.6572L16.2922 37.093L23.6944 28.7011L23.2483 28.255L14.8545 35.6572ZM14.8545 16.2454L23.2483 23.6476L23.6944 23.2014L16.2904 14.8039L14.8545 16.2454ZM37.1455 16.2454L35.7096 14.8095L28.3056 23.2014L28.7536 23.6494L37.1455 16.2454ZM28.3056 28.7067L35.7096 37.1005L37.1455 35.6628L28.7517 28.2606L28.3056 28.7067Z" fill="url(#paint0_linear)"/>
<defs>
<linearGradient id="paint0_linear" x1="37.3254" y1="57.1177" x2="15.4037" y2="-3.11206" gradientUnits="userSpaceOnUse">
<stop offset="0.06" stop-color="#946F61"/>
<stop offset="0.23" stop-color="#C3A18F"/>
<stop offset="0.26" stop-color="#F0CEB9"/>
<stop offset="0.32" stop-color="#EAC7B3"/>
<stop offset="0.82" stop-color="#946F61"/>
<stop offset="0.85" stop-color="#A08174"/>
</linearGradient>
</defs>
</svg>
