<svg width="279" height="73" viewBox="0 0 279 73" fill="none" xmlns="http://www.w3.org/2000/svg">
<path d="M12.3946 34.3566C7.98589 32.6357 3.63522 30.8374 3.63522 27.0475C3.63522 23.7023 7.07708 21.2466 11.6985 21.2466C16.3198 21.2466 20.1871 24.2437 20.1871 28.2463H21.1539C21.1539 23.7023 16.8419 20.2798 11.2537 20.2798C5.12412 20.2798 0.599424 23.7023 0.599424 28.5944C0.599424 33.9118 5.97491 36.0775 10.4223 37.8758C14.8696 39.6741 19.2203 41.453 19.2203 45.1462C19.2203 48.5301 15.6431 50.9471 10.635 50.9471C5.18212 50.9471 0.966815 47.718 0.966815 43.464H0C0 48.2594 4.96942 51.9139 11.2537 51.9139C17.538 51.9139 22.4301 48.6074 22.4301 43.464C22.4301 38.3205 17.4993 36.2902 12.3946 34.3566Z" fill="#333333"/>
<path d="M28.6365 21.4998H39.0588V51.4324H42.9841V21.4998H53.329V20.6297H28.6365V21.4998Z" fill="#333333"/>
<path d="M68.9911 20.6297L55.4557 51.4324H56.6932L60.6958 42.325H76.1649L80.0321 51.4324H84.1701L70.6347 20.6297H68.9911ZM61.0632 41.4355L68.411 24.671L75.6621 41.4355H61.0632Z" fill="#333333"/>
<path d="M135.624 36.2534H149.43V35.3639H135.624V21.4998H152.95V20.6297H131.699V51.4324H153.394V50.5429H135.624V36.2534Z" fill="#333333"/>
<path d="M161.632 21.4998H172.054V51.4324H175.979V21.4998H186.324V20.6297H161.632V21.4998Z" fill="#333333"/>
<path d="M200.053 20.6297H196.128V51.4324H200.053V20.6297Z" fill="#333333"/>
<path d="M228.44 39.2312L217.128 20.6297H212.855V51.4324H213.918V22.5633L226.545 43.4272H227.241L239.867 22.5633V51.4324H243.793V20.6297H239.693L228.44 39.2312Z" fill="#333333"/>
<path d="M260.556 50.5429V36.2534H274.382V35.3639H260.556V21.4998H277.901V20.6297H256.631V51.4324H278.326V50.5429H260.556Z" fill="#333333"/>
<path d="M108.863 39.2701H115.728V46.7726C114.548 49.4023 111.416 50.9879 107.239 50.9879C99.5045 50.9879 94.5157 45.0903 94.5157 36.1569C94.5157 27.2236 99.6205 21.2293 107.896 21.2293C113.562 21.2293 117.7 24.1878 117.7 28.1517H118.667C118.667 23.569 113.697 20.1852 107.065 20.1852C97.3968 20.1852 90.4744 27.0109 90.4744 36.0216C90.4679 38.15 90.891 40.2579 91.7184 42.2189C92.5458 44.1799 93.7605 45.9538 95.2897 47.4342C96.8189 48.9147 98.6311 50.0713 100.618 50.8347C102.605 51.5982 104.725 51.9528 106.852 51.8773C108.648 51.9938 110.448 51.7359 112.139 51.1201C113.83 50.5044 115.375 49.5441 116.675 48.3001L119.17 51.4326H119.614V38.3999H108.863V39.2701Z" fill="#333333"/>
</svg>
