<svg width="154" height="40" viewBox="0 0 154 40" fill="none" xmlns="http://www.w3.org/2000/svg">
<path d="M11.6673 18.6185L12.0484 11H10.6781L11.0592 18.6185H11.6673Z" fill="#23282C"/>
<path d="M9.61588 20.0592L2.09657 19.6834L2 19.6781V21.0484L9.61588 20.6673V20.0592Z" fill="#23282C"/>
<path d="M12.3433 19.7904L15.6606 16.8646L14.841 16.0477L11.9179 19.3649L12.3433 19.7904Z" fill="#23282C"/>
<path d="M10.3832 20.8996L7.06595 23.8228L7.88287 24.6423L10.8086 21.325L10.3832 20.8996Z" fill="#23282C"/>
<path d="M13.108 20.6673L20.6299 21.0431L20.7265 21.0484V19.6781L13.108 20.0592V20.6673Z" fill="#23282C"/>
<path d="M11.9179 21.325L14.841 24.6423L15.6606 23.8228L12.3433 20.8996L11.9179 21.325Z" fill="#23282C"/>
<path d="M10.8086 19.3649L7.88287 16.0477L7.06595 16.8646L10.3832 19.7904L10.8086 19.3649Z" fill="#23282C"/>
<path d="M11.0592 22.1106L10.6781 29.7265H12.0484L11.6673 22.1106H11.0592Z" fill="#23282C"/>
<path d="M32.1164 19.4406C30.3234 18.7333 28.2876 17.9321 28.2876 16.3217C28.2876 14.9123 29.7674 13.8475 31.7327 13.8475C33.8103 13.8475 35.3763 15.1237 35.3763 16.8176V17.0003H36.1775V16.8176C36.1775 14.667 34.1809 13.0462 31.5344 13.0462C28.6504 13.0462 26.5546 14.6983 26.5546 16.9742C26.5546 19.485 29.0549 20.5003 31.0907 21.3276C33.3431 22.2124 34.9378 22.951 34.9378 24.4283C34.9378 25.9055 33.3901 26.8816 31.2551 26.8816C28.8905 26.8816 27.0374 25.4827 27.0374 23.6949V23.5122H26.2362V23.6949C26.2362 25.9316 28.546 27.6829 31.4926 27.6829C34.6141 27.6829 36.7099 26.0804 36.7099 23.6949C36.7099 21.1867 34.374 20.2993 32.1138 19.4406H32.1164Z" fill="#23282C"/>
<path d="M39.1816 14.0041H43.8795V27.482H46.0093V14.0041H50.6654V13.242H39.1816V14.0041Z" fill="#23282C"/>
<path d="M57.42 13.242L51.1744 27.482H52.127L53.9305 23.3791H60.6277L62.4103 27.482H64.6523L58.4275 13.242H57.4148H57.42ZM60.2936 22.617H54.2515L57.2817 15.7032L60.2936 22.617Z" fill="#23282C"/>
<path d="M87.727 20.6438H93.9491V19.8843H87.727V14.0041H95.536V13.242H85.5972V27.482H95.7343V26.7225H87.727V20.6438Z" fill="#23282C"/>
<path d="M99.0725 14.0041H103.77V27.482H105.9V14.0041H110.559V13.242H99.0725V14.0041Z" fill="#23282C"/>
<path d="M116.742 13.242H114.612V27.482H116.742V13.242Z" fill="#23282C"/>
<path d="M129.34 21.4581L124.35 13.242H122.142V27.482H122.985V14.9515L128.388 23.875H128.91L134.312 14.9515V27.482H136.442V13.242H134.312L129.34 21.4581Z" fill="#23282C"/>
<path d="M143.993 26.7225V20.6438H150.215V19.8843H143.993V14.0041H151.802V13.242H141.863V27.482H152V26.7225H143.993Z" fill="#23282C"/>
<path d="M75.314 22.0062H78.4042V25.1617C77.8848 26.2657 76.5276 26.9208 74.7607 26.9208C71.3912 26.9208 69.2145 24.3709 69.2145 20.4246C69.2145 16.4783 71.4538 13.8866 75.0582 13.8866C77.5142 13.8866 79.2968 15.1185 79.2968 16.815V16.9977H80.098V16.815C80.098 14.6644 77.7621 13.0436 74.6615 13.0436C70.2976 13.0436 67.0064 16.1886 67.0064 20.362C67.0064 24.5353 70.2559 27.6803 74.5623 27.6803C76.4075 27.6803 78.0701 27.1087 78.9731 26.1744L80.0223 27.4819H80.4921V21.2467H75.3114V22.0062H75.314Z" fill="#23282C"/>
</svg>
