<svg width="154" height="40" viewBox="0 0 154 40" fill="none" xmlns="http://www.w3.org/2000/svg">
<g clip-path="url(#clip0)">
<path d="M21.2112 24.6114L21.881 38H20.1203L20.7901 24.6114H21.2112ZM17.3898 20.7901L4 20.1203V21.881L17.3898 21.2112V20.7901ZM21.2112 17.3898L21.8797 4H20.1203L20.7901 17.3898H21.2112ZM24.6114 20.7901V21.2112L38 21.881V20.1203L24.6114 20.7901ZM13.5697 27.4381L14.5282 28.3953L19.463 22.8007L19.1655 22.5033L13.5697 27.4381ZM13.5697 14.4969L19.1655 19.4317L19.463 19.1343L14.5269 13.5359L13.5697 14.4969ZM28.4303 14.4969L27.4731 13.5397L22.537 19.1343L22.8357 19.433L28.4303 14.4969ZM22.537 22.8045L27.4731 28.4003L28.4303 27.4419L22.8345 22.5071L22.537 22.8045Z" fill="url(#paint0_linear)"/>
<path d="M55.4532 20.0922C53.8693 19.4739 52.3061 18.8278 52.3061 17.4661C52.3061 16.2643 53.5427 15.3819 55.2031 15.3819C56.8636 15.3819 58.253 16.4588 58.253 17.8969H58.6004C58.6004 16.2643 57.0511 15.0346 55.0434 15.0346C52.841 15.0346 51.2154 16.2643 51.2154 18.0219C51.2154 19.9325 53.1467 20.7106 54.7446 21.3567C56.3425 22.0028 57.9057 22.6419 57.9057 23.9689C57.9057 25.1846 56.6204 26.0531 54.821 26.0531C52.8619 26.0531 51.3474 24.8929 51.3474 23.3644H51C51 25.0874 52.7855 26.4004 55.0434 26.4004C57.3012 26.4004 59.0589 25.2124 59.0589 23.3644C59.0589 21.5164 57.2873 20.787 55.4532 20.0922Z" fill="#333334"/>
<path d="M61.289 15.4723H65.0336V26.2268H66.4439V15.4723H70.1607V15.1597H61.289V15.4723Z" fill="#333334"/>
<path d="M75.7881 15.1597L70.925 26.2268H71.3696L72.8077 22.9546H78.3656L79.7551 26.2268H81.2418L76.3787 15.1597H75.7881ZM72.9397 22.635L75.5797 16.6117L78.185 22.635H72.9397Z" fill="#333334"/>
<path d="M99.7286 20.7731H104.689V20.4536H99.7286V15.4723H105.953V15.1597H98.3183V26.2268H106.113V25.9072H99.7286V20.7731Z" fill="#333334"/>
<path d="M109.073 15.4723H112.817V26.2268H114.228V15.4723H117.944V15.1597H109.073V15.4723Z" fill="#333334"/>
<path d="M122.877 15.1597H121.467V26.2268H122.877V15.1597Z" fill="#333334"/>
<path d="M133.076 21.843L129.012 15.1597H127.476V26.2268H127.858V15.8544L132.395 23.3506H132.645L137.182 15.8544V26.2268H138.592V15.1597H137.119L133.076 21.843Z" fill="#333334"/>
<path d="M144.615 25.9072V20.7731H149.583V20.4536H144.615V15.4723H150.847V15.1597H143.205V26.2268H151V25.9072H144.615Z" fill="#333334"/>
<path d="M90.1133 21.857H92.5796V24.5526C92.1559 25.4974 91.0304 26.0671 89.5298 26.0671C86.7508 26.0671 84.9584 23.9482 84.9584 20.7385C84.9584 17.5288 86.7925 15.3752 89.766 15.3752C91.8015 15.3752 93.2883 16.4381 93.2883 17.8623H93.6356C93.6356 16.2158 91.8502 15 89.4672 15C85.9936 15 83.5064 17.4524 83.5064 20.6899C83.5041 21.4546 83.6561 22.2119 83.9534 22.9165C84.2506 23.6211 84.6871 24.2584 85.2365 24.7903C85.7859 25.3222 86.437 25.7378 87.1509 26.0121C87.8647 26.2864 88.6266 26.4138 89.3908 26.3867C90.036 26.4285 90.6829 26.3359 91.2904 26.1146C91.8979 25.8934 92.4529 25.5484 92.9201 25.1014L93.8163 26.2269H93.9761V21.5444H90.1133V21.857Z" fill="#333334"/>
</g>
<defs>
<linearGradient id="paint0_linear" x1="28.5503" y1="41.7451" x2="13.9358" y2="1.59196" gradientUnits="userSpaceOnUse">
<stop offset="0.06" stop-color="#946F61"/>
<stop offset="0.23" stop-color="#C3A18F"/>
<stop offset="0.26" stop-color="#F0CEB9"/>
<stop offset="0.32" stop-color="#EAC7B3"/>
<stop offset="0.82" stop-color="#946F61"/>
<stop offset="0.85" stop-color="#A08174"/>
</linearGradient>
<clipPath id="clip0">
<rect width="154" height="40" fill="white"/>
</clipPath>
</defs>
</svg>
