<svg width="149" height="40" viewBox="0 0 149 40" fill="none" xmlns="http://www.w3.org/2000/svg">
<g clip-path="url(#clip0)">
<path d="M56.27 26.17C58.786 26.17 60.588 24.895 60.588 22.906C60.588 20.883 58.718 20.152 56.746 19.404C55.063 18.741 53.363 18.044 53.363 16.582C53.363 15.29 54.689 14.304 56.474 14.304C58.344 14.304 59.755 15.46 59.755 17.007H60.129C60.129 15.256 58.463 13.93 56.304 13.93C53.941 13.93 52.19 15.256 52.19 17.143C52.19 19.2 54.264 20.033 55.981 20.73C57.8 21.444 59.381 22.107 59.381 23.535C59.381 24.844 58.004 25.796 56.066 25.796C53.958 25.796 52.292 24.555 52.292 22.906H51.918C51.918 24.759 53.839 26.17 56.27 26.17ZM70.8573 14.1H61.3203V14.44H65.3493V26H66.8623V14.44H70.8573V14.1ZM79.4905 26H81.0715L75.8695 14.1H75.2065L69.9875 26H70.4635L72.0105 22.481H77.9605L79.4905 26ZM72.1465 22.141L74.9855 15.664L77.8075 22.141H72.1465ZM91.5576 20.968V24.198C91.0986 25.218 89.8916 25.83 88.2766 25.83C85.2846 25.83 83.3636 23.552 83.3636 20.101C83.3636 16.565 85.3356 14.338 88.5316 14.338C90.7246 14.338 92.3226 15.477 92.3226 17.007H92.6966C92.6966 15.239 90.7756 13.93 88.1916 13.93C84.4856 13.93 81.7826 16.565 81.7826 20.05C81.7826 23.535 84.5196 26.17 88.1066 26.17C89.7726 26.17 91.2006 25.626 91.8976 24.793L92.8666 26H93.0366V20.968H91.5576ZM97.5415 25.66V20.135H102.879V19.795H97.5415V14.44H104.239V14.1H96.0285V26H104.409V25.66H97.5415ZM115.416 14.1H105.879V14.44H109.908V26H111.421V14.44H115.416V14.1ZM117.511 26H119.024V14.1H117.511V26ZM132.646 14.1L128.294 21.291L123.925 14.1H122.276V26H122.684V14.848L127.563 22.906H127.835L132.714 14.848V26H134.227V14.1H132.646ZM138.996 25.66V20.135H144.334V19.795H138.996V14.44H145.694V14.1H137.483V26H145.864V25.66H138.996Z" fill="#F2F2F2"/>
<line x1="20.5417" y1="4" x2="20.5417" y2="19.125" stroke="url(#paint0_linear)"/>
<line x1="20.5417" y1="21.875" x2="20.5417" y2="37" stroke="url(#paint1_linear)"/>
<line x1="4" y1="20.4583" x2="19.125" y2="20.4583" stroke="url(#paint2_linear)"/>
<line x1="21.875" y1="20.4583" x2="37" y2="20.4583" stroke="url(#paint3_linear)"/>
<line x1="14.0375" y1="14.0191" x2="19.0333" y2="19.0149" stroke="url(#paint4_linear)"/>
<line x1="22.2235" y1="22.205" x2="27.2193" y2="27.2009" stroke="url(#paint5_linear)"/>
<line x1="13.5616" y1="27.2014" x2="18.5574" y2="22.2056" stroke="url(#paint6_linear)"/>
<line x1="21.7474" y1="19.0154" x2="26.7433" y2="14.0196" stroke="url(#paint7_linear)"/>
</g>
<defs>
<linearGradient id="paint0_linear" x1="27" y1="-19" x2="24.2464" y2="18.9716" gradientUnits="userSpaceOnUse">
<stop stop-color="#CAA491"/>
<stop offset="0.260417" stop-color="#9C7768"/>
<stop offset="0.494792" stop-color="#DBB6A4"/>
<stop offset="0.645833" stop-color="#EECAB7"/>
<stop offset="0.791667" stop-color="#AF8978"/>
</linearGradient>
<linearGradient id="paint1_linear" x1="21.5417" y1="22.3333" x2="20.9149" y2="49.4054" gradientUnits="userSpaceOnUse">
<stop stop-color="#CAA491"/>
<stop offset="0.260417" stop-color="#9C7768"/>
<stop offset="0.494792" stop-color="#DBB6A4"/>
<stop offset="0.645833" stop-color="#EECAB7"/>
<stop offset="0.791667" stop-color="#AF8978"/>
</linearGradient>
<linearGradient id="paint2_linear" x1="-7.5" y1="27.5" x2="15.5856" y2="22.552" gradientUnits="userSpaceOnUse">
<stop stop-color="#CAA491"/>
<stop offset="0.260417" stop-color="#9C7768"/>
<stop offset="0.494792" stop-color="#DBB6A4"/>
<stop offset="0.645833" stop-color="#EECAB7"/>
<stop offset="0.791667" stop-color="#AF8978"/>
</linearGradient>
<linearGradient id="paint3_linear" x1="69" y1="8.50006" x2="22.9254" y2="4.40016" gradientUnits="userSpaceOnUse">
<stop stop-color="#E8C4B1"/>
<stop offset="0.130208" stop-color="#9C7768"/>
<stop offset="0.234375" stop-color="#DBB6A4"/>
<stop offset="0.369792" stop-color="#CAA491"/>
<stop offset="0.463542" stop-color="#AF8978"/>
<stop offset="0.541667" stop-color="#EECAB7"/>
<stop offset="0.651042" stop-color="#C8A392"/>
<stop offset="0.755208" stop-color="#EECAB7"/>
<stop offset="0.859375" stop-color="#B68E7C"/>
</linearGradient>
<linearGradient id="paint4_linear" x1="10" y1="-1.99996" x2="24.1995" y2="14.2826" gradientUnits="userSpaceOnUse">
<stop stop-color="#CAA491"/>
<stop offset="0.260417" stop-color="#9C7768"/>
<stop offset="0.494792" stop-color="#DBB6A4"/>
<stop offset="0.645833" stop-color="#EECAB7"/>
<stop offset="0.791667" stop-color="#AF8978"/>
</linearGradient>
<linearGradient id="paint5_linear" x1="49.5" y1="35.5" x2="24.4015" y2="18.8282" gradientUnits="userSpaceOnUse">
<stop stop-color="#CAA491"/>
<stop offset="0.260417" stop-color="#9C7768"/>
<stop offset="0.494792" stop-color="#DBB6A4"/>
<stop offset="0.645833" stop-color="#EECAB7"/>
<stop offset="0.791667" stop-color="#AF8978"/>
</linearGradient>
<linearGradient id="paint6_linear" x1="5.00001" y1="35" x2="17.6364" y2="23.7803" gradientUnits="userSpaceOnUse">
<stop stop-color="#CAA491"/>
<stop offset="0.260417" stop-color="#9C7768"/>
<stop offset="0.494792" stop-color="#DBB6A4"/>
<stop offset="0.645833" stop-color="#EECAB7"/>
<stop offset="0.791667" stop-color="#AF8978"/>
</linearGradient>
<linearGradient id="paint7_linear" x1="21.8682" y1="19.5764" x2="38.2915" y2="2.0017" gradientUnits="userSpaceOnUse">
<stop stop-color="#CAA491"/>
<stop offset="0.260417" stop-color="#9C7768"/>
<stop offset="0.494792" stop-color="#DBB6A4"/>
<stop offset="0.645833" stop-color="#EECAB7"/>
<stop offset="0.791667" stop-color="#AF8978"/>
</linearGradient>
<clipPath id="clip0">
<rect width="149" height="40" fill="white"/>
</clipPath>
</defs>
</svg>
