<svg fill="none" width="149" height="40" viewBox="0 0 149 40" xmlns="http://www.w3.org/2000/svg" xmlns:xlink="http://www.w3.org/1999/xlink"><linearGradient id="a"><stop offset="0" stop-color="#caa491"/><stop offset=".260417" stop-color="#9c7768"/><stop offset=".494792" stop-color="#dbb6a4"/><stop offset=".645833" stop-color="#eecab7"/><stop offset=".791667" stop-color="#af8978"/></linearGradient><linearGradient id="b" gradientUnits="userSpaceOnUse" x1="27" x2="24.2464" xlink:href="#a" y1="-19" y2="18.9716"/><linearGradient id="c" gradientUnits="userSpaceOnUse" x1="21.5417" x2="20.9149" xlink:href="#a" y1="22.3333" y2="49.4054"/><linearGradient id="d" gradientUnits="userSpaceOnUse" x1="-7.5" x2="15.5856" xlink:href="#a" y1="27.5" y2="22.552"/><linearGradient id="e" gradientUnits="userSpaceOnUse" x1="69" x2="22.9254" y1="8.50006" y2="4.40016"><stop offset="0" stop-color="#e8c4b1"/><stop offset=".130208" stop-color="#9c7768"/><stop offset=".234375" stop-color="#dbb6a4"/><stop offset=".369792" stop-color="#caa491"/><stop offset=".463542" stop-color="#af8978"/><stop offset=".541667" stop-color="#eecab7"/><stop offset=".651042" stop-color="#c8a392"/><stop offset=".755208" stop-color="#eecab7"/><stop offset=".859375" stop-color="#b68e7c"/></linearGradient><linearGradient id="f" gradientUnits="userSpaceOnUse" x1="10" x2="24.1995" xlink:href="#a" y1="-1.99996" y2="14.2826"/><linearGradient id="g" gradientUnits="userSpaceOnUse" x1="49.5" x2="24.4015" xlink:href="#a" y1="35.5" y2="18.8282"/><linearGradient id="h" gradientUnits="userSpaceOnUse" x1="5.00001" x2="17.6364" xlink:href="#a" y1="35" y2="23.7803"/><linearGradient id="i" gradientUnits="userSpaceOnUse" x1="21.8682" x2="38.2915" xlink:href="#a" y1="19.5764" y2="2.0017"/><clipPath id="j"><path d="m0 0h149v40h-149z"/></clipPath><g clip-path="url(#j)"><path d="m56.27 26.17c2.516 0 4.318-1.275 4.318-3.264 0-2.023-1.87-2.754-3.842-3.502-1.683-.663-3.383-1.36-3.383-2.822 0-1.292 1.326-2.278 3.111-2.278 1.87 0 3.281 1.156 3.281 2.703h.374c0-1.751-1.666-3.077-3.825-3.077-2.363 0-4.114 1.326-4.114 3.213 0 2.057 2.074 2.89 3.791 3.587 1.819.714 3.4 1.377 3.4 2.805 0 1.309-1.377 2.261-3.315 2.261-2.108 0-3.774-1.241-3.774-2.89h-.374c0 1.853 1.921 3.264 4.352 3.264zm14.5873-12.07h-9.537v.34h4.029v11.56h1.513v-11.56h3.995zm8.6332 11.9h1.581l-5.202-11.9h-.663l-5.219 11.9h.476l1.547-3.519h5.95zm-7.344-3.859 2.839-6.477 2.822 6.477zm19.4111-1.173v3.23c-.459 1.02-1.666 1.632-3.281 1.632-2.992 0-4.913-2.278-4.913-5.729 0-3.536 1.972-5.763 5.168-5.763 2.193 0 3.791 1.139 3.791 2.669h.374c0-1.768-1.921-3.077-4.505-3.077-3.706 0-6.409 2.635-6.409 6.12s2.737 6.12 6.324 6.12c1.666 0 3.094-.544 3.791-1.377l.969 1.207h.17v-5.032zm5.9839 4.692v-5.525h5.3375v-.34h-5.3375v-5.355h6.6975v-.34h-8.2105v11.9h8.3805v-.34zm17.8745-11.56h-9.537v.34h4.029v11.56h1.513v-11.56h3.995zm2.095 11.9h1.513v-11.9h-1.513zm15.135-11.9-4.352 7.191-4.369-7.191h-1.649v11.9h.408v-11.152l4.879 8.058h.272l4.879-8.058v11.152h1.513v-11.9zm6.35 11.56v-5.525h5.338v-.34h-5.338v-5.355h6.698v-.34h-8.211v11.9h8.381v-.34z" fill="#545454"/><path d="m20.5417 4v15.125" stroke="url(#b)"/><path d="m20.5417 21.875v15.125" stroke="url(#c)"/><path d="m4 20.4583h15.125" stroke="url(#d)"/><path d="m21.875 20.4583h15.125" stroke="url(#e)"/><path d="m14.0375 14.0191 4.9958 4.9958" stroke="url(#f)"/><path d="m22.2235 22.205 4.9958 4.9959" stroke="url(#g)"/><path d="m13.5616 27.2014 4.9958-4.9958" stroke="url(#h)"/><path d="m21.7474 19.0154 4.9959-4.9958" stroke="url(#i)"/></g></svg>
