<svg width="375" height="73" viewBox="0 0 375 73" fill="none" xmlns="http://www.w3.org/2000/svg">
<g clip-path="url(#clip0)">
<g clip-path="url(#clip1)">
<path d="M36.7589 44.021L38.1894 72.6157H34.4289L35.8595 44.021H36.7589ZM28.5974 35.8595L0 34.4289V38.1894L28.5974 36.7589V35.8595ZM36.7589 28.5974L38.1867 0H34.4289L35.8595 28.5974H36.7589ZM44.021 35.8595V36.7589L72.6157 38.1894V34.4289L44.021 35.8595ZM20.4385 50.058L22.4856 52.1024L33.0251 40.1537L32.3899 39.5185L20.4385 50.058ZM20.4385 22.4188L32.3899 32.9584L33.0251 32.3232L22.4829 20.3664L20.4385 22.4188ZM52.1772 22.4188L50.1328 20.3744L39.5906 32.3232L40.2285 32.961L52.1772 22.4188ZM39.5906 40.1617L50.1328 52.1131L52.1772 50.0661L40.2258 39.5265L39.5906 40.1617Z" fill="url(#paint0_linear)"/>
</g>
<path d="M109.069 34.3566C104.66 32.6357 100.309 30.8374 100.309 27.0475C100.309 23.7023 103.751 21.2466 108.372 21.2466C112.994 21.2466 116.861 24.2437 116.861 28.2463H117.828C117.828 23.7023 113.516 20.2798 107.928 20.2798C101.798 20.2798 97.2734 23.7023 97.2734 28.5944C97.2734 33.9118 102.649 36.0775 107.096 37.8758C111.544 39.6741 115.894 41.453 115.894 45.1462C115.894 48.5301 112.317 50.9471 107.309 50.9471C101.856 50.9471 97.6408 47.718 97.6408 43.464H96.674C96.674 48.2594 101.643 51.9139 107.928 51.9139C114.212 51.9139 119.104 48.6074 119.104 43.464C119.104 38.3205 114.173 36.2902 109.069 34.3566Z" fill="white"/>
<path d="M125.31 21.4998H135.733V51.4324H139.658V21.4998H150.003V20.6297H125.31V21.4998Z" fill="white"/>
<path d="M165.665 20.6297L152.13 51.4324H153.367L157.37 42.325H172.839L176.706 51.4324H180.844L167.309 20.6297H165.665ZM157.737 41.4355L165.085 24.671L172.336 41.4355H157.737Z" fill="white"/>
<path d="M232.298 36.2534H246.104V35.3639H232.298V21.4998H249.624V20.6297H228.373V51.4324H250.068V50.5429H232.298V36.2534Z" fill="white"/>
<path d="M258.305 21.4998H268.728V51.4324H272.653V21.4998H282.998V20.6297H258.305V21.4998Z" fill="white"/>
<path d="M296.727 20.6297H292.802V51.4324H296.727V20.6297Z" fill="white"/>
<path d="M325.114 39.2312L313.802 20.6297H309.528V51.4324H310.592V22.5633L323.219 43.4272H323.915L336.541 22.5633V51.4324H340.467V20.6297H336.367L325.114 39.2312Z" fill="white"/>
<path d="M357.23 50.5429V36.2534H371.056V35.3639H357.23V21.4998H374.575V20.6297H353.305V51.4324H375V50.5429H357.23Z" fill="white"/>
<path d="M205.537 39.2701H212.402V46.7726C211.222 49.4023 208.09 50.9879 203.913 50.9879C196.178 50.9879 191.19 45.0903 191.19 36.1569C191.19 27.2236 196.294 21.2293 204.57 21.2293C210.236 21.2293 214.374 24.1878 214.374 28.1517H215.341C215.341 23.569 210.371 20.1852 203.739 20.1852C194.071 20.1852 187.148 27.0109 187.148 36.0216C187.142 38.15 187.565 40.2579 188.392 42.2189C189.22 44.1799 190.434 45.9538 191.964 47.4342C193.493 48.9147 195.305 50.0713 197.292 50.8347C199.279 51.5982 201.399 51.9528 203.526 51.8773C205.322 51.9938 207.122 51.7359 208.813 51.1201C210.504 50.5044 212.049 49.5441 213.349 48.3001L215.843 51.4326H216.288V38.3999H205.537V39.2701Z" fill="white"/>
</g>
<defs>
<linearGradient id="paint0_linear" x1="52.4334" y1="80.6144" x2="21.2205" y2="-5.14299" gradientUnits="userSpaceOnUse">
<stop offset="0.06" stop-color="#946F61"/>
<stop offset="0.23" stop-color="#C3A18F"/>
<stop offset="0.26" stop-color="#F0CEB9"/>
<stop offset="0.32" stop-color="#EAC7B3"/>
<stop offset="0.82" stop-color="#946F61"/>
<stop offset="0.85" stop-color="#A08174"/>
</linearGradient>
<clipPath id="clip0">
<rect width="375" height="73" fill="white"/>
</clipPath>
<clipPath id="clip1">
<rect width="72.6157" height="72.6157" fill="white"/>
</clipPath>
</defs>
</svg>
