<svg width="154" height="40" viewBox="0 0 154 40" fill="none" xmlns="http://www.w3.org/2000/svg">
<g clip-path="url(#clip0)">
<path d="M21.2112 24.6114L21.881 38H20.1203L20.7901 24.6114H21.2112ZM17.3898 20.7901L4 20.1203V21.881L17.3898 21.2112V20.7901ZM21.2112 17.3898L21.8797 4H20.1203L20.7901 17.3898H21.2112ZM24.6114 20.7901V21.2112L38 21.881V20.1203L24.6114 20.7901ZM13.5697 27.4381L14.5282 28.3953L19.463 22.8007L19.1655 22.5033L13.5697 27.4381ZM13.5697 14.4969L19.1655 19.4317L19.463 19.1343L14.5269 13.5359L13.5697 14.4969ZM28.4303 14.4969L27.4731 13.5397L22.537 19.1343L22.8357 19.433L28.4303 14.4969ZM22.537 22.8045L27.4731 28.4003L28.4303 27.4419L22.8345 22.5071L22.537 22.8045Z" fill="url(#paint0_linear)"/>
<path d="M56.4532 20.0924C54.8692 19.4741 53.3061 18.828 53.3061 17.4663C53.3061 16.2645 54.5427 15.3821 56.2031 15.3821C57.8636 15.3821 59.253 16.459 59.253 17.8971H59.6004C59.6004 16.2645 58.0511 15.0348 56.0433 15.0348C53.841 15.0348 52.2154 16.2645 52.2154 18.0221C52.2154 19.9326 54.1467 20.7108 55.7446 21.3569C57.3425 22.003 58.9057 22.6421 58.9057 23.9691C58.9057 25.1848 57.6204 26.0533 55.821 26.0533C53.8619 26.0533 52.3474 24.893 52.3474 23.3646H52C52 25.0876 53.7855 26.4006 56.0433 26.4006C58.3012 26.4006 60.0589 25.2126 60.0589 23.3646C60.0589 21.5166 58.2873 20.7872 56.4532 20.0924Z" fill="white"/>
<path d="M62.2891 15.4724H66.0337V26.2269H67.444V15.4724H71.1608V15.1598H62.2891V15.4724Z" fill="white"/>
<path d="M76.7881 15.1598L71.9249 26.2269H72.3695L73.8076 22.9547H79.3655L80.755 26.2269H82.2417L77.3786 15.1598H76.7881ZM73.9396 22.6351L76.5796 16.6118L79.1849 22.6351H73.9396Z" fill="white"/>
<path d="M100.729 20.7732H105.689V20.4536H100.729V15.4724H106.954V15.1598H99.3184V26.2269H107.113V25.9073H100.729V20.7732Z" fill="white"/>
<path d="M110.073 15.4724H113.817V26.2269H115.228V15.4724H118.945V15.1598H110.073V15.4724Z" fill="white"/>
<path d="M123.877 15.1598H122.467V26.2269H123.877V15.1598Z" fill="white"/>
<path d="M134.076 21.8431L130.012 15.1598H128.476V26.2269H128.858V15.8545L133.395 23.3507H133.645L138.182 15.8545V26.2269H139.592V15.1598H138.119L134.076 21.8431Z" fill="white"/>
<path d="M145.615 25.9073V20.7732H150.583V20.4536H145.615V15.4724H151.847V15.1598H144.205V26.2269H152V25.9073H145.615Z" fill="white"/>
<path d="M91.1136 21.857H93.5799V24.5526C93.1561 25.4974 92.0306 26.0671 90.53 26.0671C87.7511 26.0671 85.9586 23.9482 85.9586 20.7385C85.9586 17.5288 87.7927 15.3752 90.7662 15.3752C92.8018 15.3752 94.2885 16.4381 94.2885 17.8623H94.6359C94.6359 16.2158 92.8504 15 90.4675 15C86.9938 15 84.5066 17.4524 84.5066 20.6899C84.5043 21.4546 84.6563 22.2119 84.9536 22.9165C85.2509 23.6211 85.6873 24.2584 86.2367 24.7903C86.7861 25.3222 87.4373 25.7378 88.1511 26.0121C88.8649 26.2864 89.6268 26.4138 90.391 26.3867C91.0362 26.4285 91.6831 26.3359 92.2906 26.1146C92.8981 25.8934 93.4531 25.5484 93.9203 25.1014L94.8165 26.2269H94.9763V21.5444H91.1136V21.857Z" fill="white"/>
</g>
<defs>
<linearGradient id="paint0_linear" x1="28.5503" y1="41.7451" x2="13.9358" y2="1.59196" gradientUnits="userSpaceOnUse">
<stop offset="0.06" stop-color="#946F61"/>
<stop offset="0.23" stop-color="#C3A18F"/>
<stop offset="0.26" stop-color="#F0CEB9"/>
<stop offset="0.32" stop-color="#EAC7B3"/>
<stop offset="0.82" stop-color="#946F61"/>
<stop offset="0.85" stop-color="#A08174"/>
</linearGradient>
<clipPath id="clip0">
<rect width="154" height="40" fill="white"/>
</clipPath>
</defs>
</svg>
