<svg width="28" height="28" viewBox="0 0 28 28" xmlns="http://www.w3.org/2000/svg">
<path fill-rule="evenodd" clip-rule="evenodd" d="M14 28C21.732 28 28 21.732 28 14C28 6.26801 21.732 0 14 0C6.26801 0 0 6.26801 0 14C0 21.732 6.26801 28 14 28ZM9.10268 15.0255C8.09015 16.038 8.04173 17.6357 8.99471 18.5887C9.94768 19.5416 11.5454 19.4932 12.5579 18.4807L14.9264 16.1122L15.9853 17.1711L13.6168 19.5396C11.9825 21.1738 9.4078 21.2518 7.86967 19.7137C6.33154 18.1756 6.40956 15.6009 8.04382 13.9666L10.4123 11.5981L11.4712 12.657L9.10268 15.0255ZM16.7167 11.9813L11.9797 16.7183L10.8651 15.6037L15.6021 10.8667L16.7167 11.9813ZM11.5966 10.4139L13.9651 8.04539C15.5993 6.41113 18.174 6.3331 19.7121 7.87123C21.2503 9.40936 21.1723 11.9841 19.538 13.6183L17.1695 15.9868L16.1106 14.928L18.4791 12.5595C19.4917 11.5469 19.5401 9.94924 18.5871 8.99627C17.6341 8.0433 16.0365 8.09171 15.0239 9.10424L12.6554 11.4727L11.5966 10.4139Z"/>
</svg>
