<svg width="28" height="28" viewBox="0 0 28 28" xmlns="http://www.w3.org/2000/svg">
<path d="M13.9871 0C6.27096 0 0 6.27097 0 14.0129C0 21.729 6.27096 28 13.9871 28C21.729 28 28 21.729 28 14.0129C28 6.27097 21.729 0 13.9871 0ZM21.0581 11.1742C21.0581 11.329 21.0581 11.4839 21.0581 11.6387C21.0581 16.3097 17.5226 21.6774 11.0194 21.6774C9.03226 21.6774 7.17419 21.0839 5.6 20.1032C5.88387 20.129 6.16774 20.1548 6.45161 20.1548C8.10322 20.1548 9.6258 19.5871 10.8387 18.6323C9.29032 18.6065 7.99999 17.5742 7.53548 16.1806C7.74193 16.2323 7.97418 16.2323 8.20644 16.2323C8.51612 16.2323 8.8258 16.2065 9.13548 16.129C7.50967 15.7935 6.29677 14.3742 6.29677 12.6452V12.6194C6.78709 12.8774 7.32902 13.0323 7.89677 13.0581C6.94193 12.4129 6.32257 11.329 6.32257 10.1161C6.32257 9.47097 6.50322 8.85161 6.8129 8.33548C8.54193 10.4774 11.1484 11.871 14.0903 12.0258C14.0129 11.7677 13.9871 11.5097 13.9871 11.2258C13.9871 9.26452 15.5871 7.69032 17.5226 7.69032C18.529 7.69032 19.4581 8.12903 20.1032 8.8C20.9032 8.64516 21.6516 8.36129 22.3484 7.94839C22.0903 8.77419 21.5226 9.47097 20.8 9.90968C21.4968 9.80645 22.1935 9.62581 22.8129 9.34193C22.3484 10.0645 21.7548 10.6839 21.0581 11.1742Z"/>
</svg>
