<svg width="28" height="28" viewBox="0 0 28 28" xmlns="http://www.w3.org/2000/svg">
<path d="M13.8835 16.6194C15.277 16.6194 16.3867 15.5097 16.3867 14.1161C16.3867 12.7226 15.277 11.6129 13.8835 11.6129C12.49 11.6129 11.3804 12.7226 11.3804 14.1161C11.3804 15.5097 12.49 16.6194 13.8835 16.6194ZM17.006 7.97419H10.761C9.83201 7.97419 9.03203 8.25806 8.54172 8.74839C8.0256 9.26452 7.74174 10.0645 7.74174 10.9935V17.2387C7.74174 18.1677 8.0256 18.9677 8.59333 19.5355C9.16106 20.0258 9.90943 20.3355 10.8126 20.3355H17.006C17.935 20.3355 18.735 20.0258 19.2511 19.5355C19.8189 19.0194 20.1027 18.2194 20.1027 17.3161V11.0452C20.1027 10.1161 19.8189 9.39355 19.3027 8.82581C18.735 8.25806 17.9866 7.97419 17.006 7.97419ZM13.8835 17.9871C11.7158 17.9871 10.0126 16.2323 10.0126 14.1161C10.0126 11.9484 11.7674 10.2452 13.8835 10.2452C15.9996 10.2452 17.806 11.9484 17.806 14.1161C17.806 16.2839 16.0512 17.9871 13.8835 17.9871ZM17.935 10.9935C17.4189 10.9935 17.006 10.5806 17.006 10.0645C17.006 9.54839 17.4189 9.16129 17.935 9.16129C18.4511 9.16129 18.8382 9.54839 18.8382 10.0645C18.8382 10.5806 18.4511 10.9935 17.935 10.9935ZM13.9867 0C6.245 0 0 6.24516 0 14.0129C0 21.7548 6.245 28 13.9867 28C21.7543 28 27.9993 21.7548 27.9993 14.0129C28.0767 6.24516 21.7543 0 13.9867 0ZM20.2059 20.5419C19.406 21.3419 18.2705 21.7548 17.006 21.7548H10.8126C9.54814 21.7548 8.41269 21.3419 7.61271 20.5419C6.76112 19.7419 6.37403 18.6065 6.37403 17.3161V11.0452C6.37403 8.4129 8.12883 6.60645 10.8126 6.60645H17.0834C18.3737 6.60645 19.4576 7.04516 20.2576 7.84516C21.0575 8.64516 21.4704 9.72903 21.4704 11.0452V17.3161C21.4704 18.6065 21.0059 19.7419 20.2059 20.5419Z"/>
</svg>
