<?xml version="1.0" encoding="UTF-8"?><!DOCTYPE svg PUBLIC "-//W3C//DTD SVG 1.1//EN" "http://www.w3.org/Graphics/SVG/1.1/DTD/svg11.dtd"><svg xmlns="http://www.w3.org/2000/svg"><defs><linearGradient id="a" x1="1.713" y1="19.464" x2="11.065" y2="2.666" gradientUnits="userSpaceOnUse"><stop offset=".188" stop-color="#EAC7B3"/><stop offset=".693" stop-color="#BB9AA5"/></linearGradient><linearGradient id="b" x1="12.194" y1="8.732" x2="17.694" y2="3.343" gradientUnits="userSpaceOnUse"><stop offset=".188" stop-color="#EAC7B3"/><stop offset=".693" stop-color="#BB9AA5"/></linearGradient><linearGradient id="c" x1="1.162" y1="10.777" x2="5.745" y2="6.286" gradientUnits="userSpaceOnUse"><stop offset=".188" stop-color="#EAC7B3"/><stop offset=".693" stop-color="#BB9AA5"/></linearGradient></defs><symbol id="1" viewBox="0 0 16 16"><path d="M12.444 7.111a5.9 5.9 0 0 1 .89.08V2.907L6.666 0 0 2.907V7.27C0 11.307 2.844 15.084 6.667 16c.489-.116.96-.284 1.422-.489a5.314 5.314 0 0 1-.978-3.067 5.338 5.338 0 0 1 5.333-5.333z"/><path d="M12.444 8.889a3.555 3.555 0 0 0-3.555 3.556A3.555 3.555 0 0 0 12.444 16 3.555 3.555 0 0 0 16 12.444a3.555 3.555 0 0 0-3.556-3.555zm0 1.227a1 1 0 0 1 .996.995c0 .542-.453.996-.996.996-.542 0-.995-.454-.995-.996a1 1 0 0 1 .995-.995zm0 4.773a2.422 2.422 0 0 1-1.99-1.04c.044-.64 1.342-.96 1.99-.96.65 0 1.947.32 1.992.96a2.422 2.422 0 0 1-1.992 1.04z"/></symbol><symbol id="10" viewBox="0 0 16 16"><path d="M2.429 14.222c0 .978.835 1.778 1.857 1.778h7.428c1.022 0 1.857-.8 1.857-1.778V3.556H2.43v10.666zM14.5.89h-3.25L10.321 0H5.68L4.75.889H1.5v1.778h13V.889z"/></symbol><symbol id="11" viewBox="0 0 16 16"><path d="M8.847 10.832H7.11v1.762h1.737v-1.762zM8.889 7.184H7.11v1.803H8.89V7.184z"/><path d="M11.316-.11H4.684L0 4.64v6.725l4.684 4.75h6.632L16 11.366V4.641L11.316-.11zm2.906 10.727l-3.644 3.696H5.422l-3.644-3.696V5.389l3.644-3.696h5.156l3.644 3.696v5.228z"/><path d="M8.889 3.496H7.11v5.408H8.89V3.496z"/></symbol><symbol id="12" viewBox="0 0 16 16"><path d="M7.133.941L2.774 7.718h8.718L7.133.94zm0 2.891l1.53 2.38H5.596l1.537-2.38zm4.36 5.392c-1.974 0-3.567 1.513-3.567 3.388S9.519 16 11.492 16c1.974 0 3.567-1.513 3.567-3.388s-1.593-3.388-3.567-3.388zm0 5.27c-1.095 0-1.982-.843-1.982-1.882 0-1.04.888-1.883 1.981-1.883 1.094 0 1.982.844 1.982 1.883 0 1.039-.888 1.882-1.982 1.882zM0 15.624h6.34V9.6H0v6.024zm1.585-4.518h3.17v3.012h-3.17v-3.012z"/><path d="M16 2.89h.2V1.816h-2.017V-.2h-1.072v2.017h-2.017v1.072h2.017v2.017h1.072V2.889H16z" stroke="#333" stroke-width=".4"/></symbol><symbol id="13" viewBox="0 0 16 16"><path d="M7.111 4.556C3.88 4.556 1.118 6.62 0 9.533c1.118 2.914 3.879 4.978 7.111 4.978 3.232 0 5.993-2.064 7.111-4.978-1.118-2.913-3.879-4.977-7.11-4.977zm0 8.296c-1.784 0-3.232-1.487-3.232-3.319 0-1.831 1.448-3.318 3.232-3.318 1.784 0 3.232 1.487 3.232 3.318 0 1.832-1.448 3.319-3.232 3.319zm0-5.31c-1.073 0-1.94.89-1.94 1.991 0 1.102.867 1.992 1.94 1.992s1.94-.89 1.94-1.992c0-1.101-.867-1.99-1.94-1.99z"/><path d="M16 3.74h.2V2.705h-1.905V.8H13.26v1.905h-1.904V3.74h1.904v1.904h1.035V3.74H16z" stroke="#333" stroke-width=".4"/></symbol><symbol id="14" viewBox="0 0 16 16"><path d="M.008 15L16 8 .008 1 0 6.444 11.429 8 0 9.556.008 15z"/></symbol><symbol id="15" viewBox="0 0 16 16"><path d="M8 15.68l-1.16-1.056C2.72 10.888 0 8.424 0 5.4 0 2.936 1.936 1 4.4 1A4.79 4.79 0 0 1 8 2.672 4.79 4.79 0 0 1 11.6 1C14.064 1 16 2.936 16 5.4c0 3.024-2.72 5.488-6.84 9.232L8 15.68z"/></symbol><symbol id="16-add-member-alternate" viewBox="0 0 16 16"><path d="M13.334 6V4H12v2h-2v1.334h2v2h1.334v-2h2V6h-2zM6 8a2.666 2.666 0 1 0 0-5.333A2.666 2.666 0 1 0 6 8zm0-4c.734 0 1.334.6 1.334 1.334 0 .733-.6 1.333-1.334 1.333-.733 0-1.333-.6-1.333-1.333C4.667 4.6 5.267 4 6 4zm4.26 5.707A9.355 9.355 0 0 0 6 8.667c-1.686 0-3.14.467-4.26 1.04A1.98 1.98 0 0 0 .667 11.48v1.854h10.667V11.48a1.98 1.98 0 0 0-1.074-1.773zM10 12H2v-.52c0-.253.134-.48.347-.586A8.072 8.072 0 0 1 6 10c1.58 0 2.86.487 3.654.894a.647.647 0 0 1 .346.586V12z"/></symbol><symbol id="16-add-member-larger" viewBox="0 0 16 16"><path d="M9.927 8c1.567 0 2.837-1.343 2.837-3 0-1.658-1.27-3-2.837-3C8.36 2 7.091 3.342 7.091 5c0 1.657 1.27 3 2.836 3zM3.545 6.5V4.25H2.127V6.5H0V8h2.127v2.25h1.418V8h2.128V6.5H3.545zm6.382 3c-1.893 0-5.672 1.005-5.672 3V14H15.6v-1.5c0-1.995-3.78-3-5.673-3z"/></symbol><symbol id="16-add-member" viewBox="0 0 16 16"><path d="M10.273 8c1.306 0 2.363-1.119 2.363-2.5S11.58 3 10.273 3 7.909 4.119 7.909 5.5 8.967 8 10.273 8zM4.955 6.75V4.875H3.773V6.75H2V8h1.773v1.875h1.182V8h1.772V6.75H4.955zm5.318 2.5c-1.578 0-4.728.838-4.728 2.5V13H15v-1.25c0-1.662-3.15-2.5-4.727-2.5z"/></symbol><symbol id="16-analytics" viewBox="0 0 16 16"><path d="M12.667 2H3.333C2.6 2 2 2.6 2 3.333v9.334C2 13.4 2.6 14 3.333 14h9.334C13.4 14 14 13.4 14 12.667V3.333C14 2.6 13.4 2 12.667 2zm0 10.667H3.333V3.333h9.334v9.334z"/><path d="M6 8H4.667v3.333H6V8zM11.333 4.667H10v6.666h1.333V4.667zM8.667 9.333H7.333v2h1.334v-2zM8.667 6.667H7.333V8h1.334V6.667z"/></symbol><symbol id="16-angle-down" viewBox="0 0 16 16"><path d="M11.443 6L8 9.634 4.558 6 3.5 7.116l4.5 4.75 4.5-4.75L11.443 6z"/></symbol><symbol id="16-arrow-drop-down" viewBox="0 0 16 16"><path d="M1.96 4.98l6.042 6.042 6.041-6.042H1.96z"/></symbol><symbol id="16-backward" viewBox="0 0 16 16"><path d="M12.915 11.443L9.28 8l3.634-3.442L11.798 3.5 7.048 8l4.75 4.5 1.117-1.057zM3.09 3.5h1.583v9H3.09v-9z"/></symbol><symbol id="16-bin" viewBox="0 0 16 16"><path d="M4.143 12.484c0 .652.578 1.186 1.286 1.186h5.142c.708 0 1.286-.534 1.286-1.186V5.371H4.143v7.113zM12.5 3.593h-2.25L9.607 3H6.393l-.643.593H3.5v1.185h9V3.593z"/></symbol><symbol id="16-bookmark" viewBox="0 0 16 16"><path fill-rule="evenodd" clip-rule="evenodd" d="M8 9.756l-2.472 1.458.656-2.748L4 6.616l2.876-.238L8 3.786l1.124 2.592L12 6.616l-2.184 1.85.656 2.748L8 9.756zm2.931-.924l1.06 4.44L8 10.916l-3.991 2.354 1.06-4.44L1.51 5.82l4.686-.388L8 1.272l1.803 4.159 4.686.388-3.558 3.013z"/></symbol><symbol id="16-bookmarked" viewBox="0 0 16 16"><path fill-rule="evenodd" clip-rule="evenodd" d="M10.931 8.832l1.06 4.44L8 10.916l-3.991 2.354 1.06-4.44L1.51 5.82l4.686-.388L8 1.272l1.803 4.159 4.686.388-3.558 3.013z"/></symbol><symbol id="16-bubble" viewBox="0 0 16 16"><path fill-rule="evenodd" clip-rule="evenodd" d="M4.586 10H12V4H4v6.586L4.586 10zM3 13V4c0-.55.45-1 1-1h8c.55 0 1 .45 1 1v6c0 .55-.45 1-1 1H5l-2 2z"/></symbol><symbol id="16-calendar-rounded" viewBox="0 0 16 16"><path fill-rule="evenodd" d="M10.37 1.125c.26 0 .47.21.47.469v.53c.913.062 1.67.375 2.207.912.585.588.894 1.434.89 2.448v5.702c0 2.083-1.322 3.377-3.45 3.377H5.2c-2.128 0-3.451-1.312-3.451-3.424V5.483c0-1.964 1.18-3.225 3.103-3.36v-.53a.469.469 0 0 1 .938 0l-.001.518h4.112v-.517c0-.259.21-.469.469-.469zM13 6.69H2.687v4.449c0 1.604.893 2.486 2.514 2.486h5.286c1.62 0 2.513-.866 2.513-2.439V6.69zm-2.374 3.933a.469.469 0 1 1-.471.468c0-.258.206-.468.465-.468h.006zm-2.774 0a.469.469 0 1 1-.47.468c0-.258.206-.468.465-.468h.005zm-2.779 0a.469.469 0 0 1 0 .937.472.472 0 0 1-.472-.469c0-.258.208-.468.466-.468h.006zm5.553-2.43a.469.469 0 1 1-.471.47c0-.26.206-.47.465-.47h.006zm-2.774 0a.469.469 0 1 1-.47.47c0-.26.206-.47.465-.47h.005zm-2.779 0a.469.469 0 0 1 0 .938.472.472 0 0 1-.472-.469c0-.258.208-.468.466-.468h.006zM9.902 3.05H5.79v.602a.469.469 0 0 1-.937 0v-.587c-1.4.117-2.165.966-2.165 2.42l-.001.268H13v-.269c.002-.772-.205-1.372-.617-1.784-.361-.363-.89-.58-1.543-.635v.587a.469.469 0 0 1-.938 0v-.602z"/></symbol><symbol id="16-check" viewBox="0 0 16 16"><path d="M5.273 11.034l-3.58-3.58L.5 8.649l4.773 4.773L15.5 3.193 14.307 2l-9.034 9.034z"/></symbol><symbol id="16-cinema-smaller" viewBox="0 0 16 16"><path d="M11.889 7.158V4.422c0-.43-.35-.782-.778-.782H1.778A.782.782 0 0 0 1 4.422v7.817c0 .43.35.781.778.781h9.333a.782.782 0 0 0 .778-.781V9.502L15 12.629V4.031l-3.111 3.127z"/></symbol><symbol id="16-cinema" viewBox="0 0 16 16"><path d="M12.444 6.66V3.533c0-.491-.4-.893-.888-.893H.889A.894.894 0 0 0 0 3.533v8.934c0 .491.4.893.889.893h10.667a.894.894 0 0 0 .888-.893V9.34L16 12.914V3.087L12.444 6.66z"/></symbol><symbol id="16-city" viewBox="0 0 16 16"><path d="M10 7.333v-4l-2-2-2 2v1.334H2V14h12V7.333h-4zm-5.333 5.334H3.333v-1.334h1.334v1.334zm0-2.667H3.333V8.667h1.334V10zm0-2.667H3.333V6h1.334v1.333zm4 5.334H7.333v-1.334h1.334v1.334zm0-2.667H7.333V8.667h1.334V10zm0-2.667H7.333V6h1.334v1.333zm0-2.666H7.333V3.333h1.334v1.334zm4 8h-1.334v-1.334h1.334v1.334zm0-2.667h-1.334V8.667h1.334V10z"/></symbol><symbol id="16-cog" viewBox="0 0 16 16"><path d="M13.091 8.702c.029-.205.043-.417.043-.643 0-.218-.014-.437-.05-.642l1.428-1.08a.329.329 0 0 0 .085-.416l-1.35-2.269c-.085-.15-.261-.198-.416-.15l-1.681.656a5.007 5.007 0 0 0-1.14-.642L9.757 1.78a.337.337 0 0 0-.338-.28h-2.7a.33.33 0 0 0-.331.28l-.254 1.736c-.415.164-.795.39-1.14.642l-1.68-.656a.34.34 0 0 0-.416.15L1.555 5.921c-.085.143-.056.32.084.416l1.428 1.08c-.035.205-.063.43-.063.642 0 .212.014.438.05.643l-1.429 1.08a.329.329 0 0 0-.084.416l1.35 2.268c.085.15.26.198.415.15l1.682-.655c.351.26.724.478 1.14.642l.253 1.735c.035.164.168.28.337.28H9.42c.17 0 .31-.116.331-.28l.253-1.735a4.857 4.857 0 0 0 1.14-.642l1.681.656a.34.34 0 0 0 .415-.15l1.35-2.27a.31.31 0 0 0-.084-.416l-1.414-1.08zM8.07 10.519c-1.393 0-2.533-1.107-2.533-2.46S6.676 5.6 8.07 5.6 10.6 6.707 10.6 8.06s-1.14 2.46-2.532 2.46z"/></symbol><symbol id="16-cross-airy" viewBox="0 0 16 16"><path d="M13 4.007L11.993 3 8 6.993 4.007 3 3 4.007 6.993 8 3 11.993 4.007 13 8 9.007 11.993 13 13 11.993 9.007 8 13 4.007z"/></symbol><symbol id="16-cross" viewBox="0 0 16 16"><path d="M15.293 2.179L13.825.71 8.002 6.533 2.179.71.71 2.179l5.823 5.823L.71 13.825l1.469 1.468L8.002 9.47l5.823 5.823 1.468-1.468L9.47 8.002l5.823-5.823z"/></symbol><symbol id="16-crowd-outline" viewBox="0 0 16 16"><path d="M11.273 8.877c-.873 0-2.233.25-3.273.734-1.04-.492-2.4-.734-3.273-.734C3.15 8.877 0 9.67 0 11.264v2.02h16v-2.02c0-1.594-3.15-2.387-4.727-2.387zm-2.91 3.305H1.092v-.918c0-.396 1.862-1.285 3.636-1.285 1.775 0 3.637.889 3.637 1.285v.918zm6.546 0H9.455v-.918c0-.338-.146-.631-.379-.896.64-.22 1.426-.39 2.197-.39 1.774 0 3.636.89 3.636 1.286v.918zM4.727 8.142c1.404 0 2.546-1.153 2.546-2.57C7.273 4.152 6.13 3 4.727 3 3.324 3 2.182 4.153 2.182 5.571c0 1.418 1.142 2.571 2.545 2.571zm0-4.04c.8 0 1.455.661 1.455 1.47 0 .807-.655 1.468-1.455 1.468s-1.454-.66-1.454-1.469c0-.808.654-1.47 1.454-1.47zm6.546 4.04c1.403 0 2.545-1.153 2.545-2.57C13.818 4.152 12.676 3 11.273 3 9.869 3 8.727 4.153 8.727 5.571c0 1.418 1.142 2.571 2.546 2.571zm0-4.04c.8 0 1.454.661 1.454 1.47 0 .807-.654 1.468-1.454 1.468-.8 0-1.455-.66-1.455-1.469 0-.808.655-1.47 1.455-1.47z"/></symbol><symbol id="16-crowd" viewBox="0 0 16 16"><path d="M10.182 7.521c.905 0 1.63-.744 1.63-1.665 0-.922-.725-1.666-1.63-1.666-.905 0-1.636.744-1.636 1.666 0 .921.73 1.665 1.636 1.665zm-4.364 0c.906 0 1.631-.744 1.631-1.665 0-.922-.725-1.666-1.63-1.666-.906 0-1.637.744-1.637 1.666 0 .921.73 1.665 1.636 1.665zm0 1.11c-1.27 0-3.818.65-3.818 1.943v1.388h7.637v-1.388c0-1.293-2.548-1.943-3.819-1.943zm4.364 0c-.158 0-.338.011-.53.028.634.467 1.075 1.094 1.075 1.915v1.388H14v-1.388c0-1.293-2.547-1.943-3.818-1.943z"/></symbol><symbol id="16-danger" viewBox="0 0 16 16"><path d="M8 1.5A6.494 6.494 0 0 0 1.5 8c0 3.595 2.905 6.5 6.5 6.5s6.5-2.905 6.5-6.5S11.595 1.5 8 1.5zm3.25 8.834l-.916.916L8 8.916 5.667 11.25l-.917-.916L7.083 8 4.75 5.667l.917-.917L8 7.083l2.334-2.333.916.917L8.916 8l2.334 2.334z" fill="#EA4524"/></symbol><symbol id="16-down" viewBox="0 0 16 16"><path d="M14.337 8.333L13.22 7.217l-4.425 4.418V2H7.212v9.635L2.794 7.209 1.67 8.333l6.333 6.334 6.334-6.334z"/></symbol><symbol id="16-envelope-outline" viewBox="0 0 16 16"><path d="M13.75 2.5H2.417c-.78 0-1.41.638-1.41 1.417L1 12.417c0 .779.637 1.416 1.417 1.416H13.75a1.42 1.42 0 0 0 1.417-1.416v-8.5A1.42 1.42 0 0 0 13.75 2.5zm0 9.917H2.417V5.333l5.666 3.542 5.667-3.542v7.084zM8.083 7.458L2.417 3.917H13.75L8.083 7.458z"/></symbol><symbol id="16-envelope" viewBox="0 0 16 16"><path d="M12.665 3.33H3.332c-.642 0-1.161.525-1.161 1.167l-.006 7a1.17 1.17 0 0 0 1.167 1.166h9.333a1.17 1.17 0 0 0 1.167-1.166v-7a1.17 1.17 0 0 0-1.167-1.167zm0 2.333L7.998 8.58 3.332 5.663V4.497l4.666 2.916 4.667-2.916v1.166z"/></symbol><symbol id="16-eye" viewBox="0 0 16 16"><path d="M8 3.624a6.899 6.899 0 0 0-6.417 4.375A6.899 6.899 0 0 0 8 12.374a6.899 6.899 0 0 0 6.417-4.375A6.899 6.899 0 0 0 8 3.624zm0 7.292a2.918 2.918 0 0 1 0-5.834 2.918 2.918 0 0 1 0 5.834zm0-4.667c-.968 0-1.75.782-1.75 1.75s.782 1.75 1.75 1.75 1.75-.782 1.75-1.75-.782-1.75-1.75-1.75z"/></symbol><symbol id="16-forward" viewBox="0 0 16 16"><path d="M3.09 4.558L6.724 8 3.09 11.443 4.206 12.5 8.956 8l-4.75-4.5L3.09 4.558zM11.331 3.5h1.584v9H11.33v-9z"/></symbol><symbol id="16-geo-wide" viewBox="0 0 16 16"><path d="M8.103.5C4.967.5 2.431 2.831 2.431 5.714c0 3.91 5.672 9.683 5.672 9.683s5.672-5.773 5.672-9.683C13.775 2.83 11.24.5 8.103.5zm0 7.076c-1.118 0-2.026-.834-2.026-1.862s.908-1.862 2.026-1.862c1.118 0 2.026.834 2.026 1.862S9.22 7.576 8.103 7.576z"/></symbol><symbol id="16-geo" viewBox="0 0 16 16"><path d="M8 2C5.789 2 4 3.878 4 6.2 4 9.35 8 14 8 14s4-4.65 4-7.8C12 3.878 10.211 2 8 2zm0 5.7c-.789 0-1.429-.672-1.429-1.5S7.211 4.7 8 4.7s1.429.672 1.429 1.5S8.789 7.7 8 7.7z"/></symbol><symbol id="16-globe-full" viewBox="0 0 16 16"><path d="M8 0C3.584 0 0 3.584 0 8s3.584 8 8 8 8-3.584 8-8-3.584-8-8-8zm-.8 14.344A6.39 6.39 0 0 1 1.6 8c0-.496.064-.968.168-1.432L5.6 10.4v.8c0 .88.72 1.6 1.6 1.6v1.544zm5.52-2.032A1.587 1.587 0 0 0 11.2 11.2h-.8V8.8c0-.44-.36-.8-.8-.8H4.8V6.4h1.6c.44 0 .8-.36.8-.8V4h1.6c.88 0 1.6-.72 1.6-1.6v-.328c2.344.952 4 3.248 4 5.928 0 1.664-.64 3.176-1.68 4.312z"/></symbol><symbol id="16-globe-half" viewBox="0 0 16 16"><path d="M8 1.5A6.502 6.502 0 0 0 1.5 8c0 3.588 2.912 6.5 6.5 6.5s6.5-2.912 6.5-6.5S11.588 1.5 8 1.5zm-.65 11.655A5.192 5.192 0 0 1 2.8 8c0-.403.052-.787.137-1.163L6.05 9.95v.65c0 .715.585 1.3 1.3 1.3v1.255zm4.485-1.651A1.29 1.29 0 0 0 10.6 10.6h-.65V8.65A.652.652 0 0 0 9.3 8H5.4V6.7h1.3c.357 0 .65-.293.65-.65v-1.3h1.3c.715 0 1.3-.585 1.3-1.3v-.267A5.203 5.203 0 0 1 13.2 8c0 1.352-.52 2.58-1.365 3.504z"/></symbol><symbol id="16-globe" viewBox="0 0 16 16"><path d="M8 3C5.24 3 3 5.24 3 8s2.24 5 5 5 5-2.24 5-5-2.24-5-5-5zm-.5 8.965A3.994 3.994 0 0 1 4 8c0-.31.04-.605.105-.895L6.5 9.5v.5c0 .55.45 1 1 1v.965zm3.45-1.27A.992.992 0 0 0 10 10h-.5V8.5c0-.275-.225-.5-.5-.5H6V7h1c.275 0 .5-.225.5-.5v-1h1c.55 0 1-.45 1-1v-.205A4.002 4.002 0 0 1 12 8c0 1.04-.4 1.985-1.05 2.695z"/></symbol><symbol id="16-grid" viewBox="0 0 16 16"><path fill-rule="evenodd" clip-rule="evenodd" d="M1.25 1.25v6h6v-6h-6zm4.5 4.5h-3v-3h3v3zm-4.5 3v6h6v-6h-6zm4.5 4.5h-3v-3h3v3zm3-12v6h6v-6h-6zm4.5 4.5h-3v-3h3v3zm-4.5 3v6h6v-6h-6zm4.5 4.5h-3v-3h3v3z"/></symbol><symbol id="16-groups" viewBox="0 0 16 16"><path d="M2.667 8.667C3.4 8.667 4 8.067 4 7.333 4 6.6 3.4 6 2.667 6c-.734 0-1.334.6-1.334 1.333 0 .734.6 1.334 1.334 1.334zm.753.733a4.655 4.655 0 0 0-.753-.067c-.66 0-1.287.14-1.854.387A1.34 1.34 0 0 0 0 10.953V12h3v-1.073c0-.554.153-1.074.42-1.527zm9.913-.733c.734 0 1.334-.6 1.334-1.334 0-.733-.6-1.333-1.334-1.333C12.6 6 12 6.6 12 7.333c0 .734.6 1.334 1.333 1.334zM16 10.953c0-.54-.32-1.02-.813-1.233a4.634 4.634 0 0 0-1.854-.387c-.26 0-.506.027-.753.067.267.453.42.973.42 1.527V12h3v-1.047zM10.827 9.1c-.78-.347-1.74-.6-2.827-.6s-2.047.26-2.827.6A1.992 1.992 0 0 0 4 10.927V12h8v-1.073c0-.787-.453-1.507-1.173-1.827zM5.38 10.667c.06-.154.087-.26.607-.46A5.499 5.499 0 0 1 8 9.833c.687 0 1.367.12 2.013.374.514.2.54.306.607.46H5.38zM8 5.333c.367 0 .667.3.667.667 0 .367-.3.667-.667.667A.669.669 0 0 1 7.333 6c0-.367.3-.667.667-.667zM8 4c-1.107 0-2 .893-2 2s.893 2 2 2 2-.893 2-2-.893-2-2-2z"/></symbol><symbol id="16-heart-outline" viewBox="0 0 16 16"><path d="M11.375 1C10.07 1 8.818 1.618 8 2.595 7.183 1.618 5.93 1 4.625 1 2.315 1 .5 2.846.5 5.196c0 2.884 2.55 5.234 6.412 8.805L8 15l1.088-1.007C12.95 10.43 15.5 8.08 15.5 5.196 15.5 2.846 13.685 1 11.375 1zm-3.3 11.864L8 12.94l-.075-.076C4.355 9.575 2 7.4 2 5.196c0-1.526 1.125-2.67 2.625-2.67 1.155 0 2.28.755 2.678 1.8h1.402c.39-1.045 1.515-1.8 2.67-1.8 1.5 0 2.625 1.144 2.625 2.67 0 2.205-2.355 4.38-5.925 7.668z"/></symbol><symbol id="16-heart" viewBox="0 0 16 16"><path d="M8 15l-1.015-1.007C3.38 10.43 1 8.08 1 5.196 1 2.846 2.694 1 4.85 1 6.068 1 7.237 1.618 8 2.595 8.763 1.618 9.932 1 11.15 1 13.306 1 15 2.846 15 5.196c0 2.884-2.38 5.234-5.985 8.805L8 15z"/></symbol><symbol id="16-house" viewBox="0 0 16 16"><path d="M6.8 12V8.47h2.4V12h3V7.294H14L8 2 2 7.294h1.8V12h3z"/></symbol><symbol id="16-left" viewBox="0 0 16 16"><path d="M15.467 7.067H4.817L9.71 1.849 8.467.533 1.467 8l7 7.467L9.7 14.15 4.818 8.933h10.649V7.067z"/></symbol><symbol id="16-logout" viewBox="0 0 16 16"><path d="M11 4.944l-.846.862 1.548 1.583H5.6V8.61h6.102l-1.548 1.577.846.868L14 8l-3-3.056zM3.2 3.722H8V2.5H3.2c-.66 0-1.2.55-1.2 1.222v8.556c0 .672.54 1.222 1.2 1.222H8v-1.222H3.2V3.722z"/></symbol><symbol id="16-magnifier" viewBox="0 0 16 16"><path d="M11.232 10.032a.773.773 0 0 0-.547-.227h-.218a.23.23 0 0 1-.16-.065.239.239 0 0 1-.02-.32 5.177 5.177 0 0 0 1.119-3.217 5.203 5.203 0 1 0-5.203 5.203c1.21 0 2.33-.417 3.218-1.118a.239.239 0 0 1 .32.018.23.23 0 0 1 .064.16v.22c0 .204.082.401.227.546l3.178 3.172a.844.844 0 0 0 1.194-1.194l-3.172-3.178zm-5.029-.227a3.597 3.597 0 0 1-3.602-3.602 3.597 3.597 0 0 1 3.602-3.602 3.597 3.597 0 0 1 3.602 3.602 3.597 3.597 0 0 1-3.602 3.602z"/></symbol><symbol id="16-pause" viewBox="0 0 16 16"><path d="M5 15H4a1 1 0 0 1-1-1V2a1 1 0 0 1 1-1h1a1 1 0 0 1 1 1v12a1 1 0 0 1-1 1zm5-1V2a1 1 0 0 1 1-1h1a1 1 0 0 1 1 1v12a1 1 0 0 1-1 1h-1a1 1 0 0 1-1-1z"/></symbol><symbol id="16-pencil-tiny" viewBox="0 0 16 16"><path d="M2 11.5V14h2.5l7.372-7.372-2.5-2.5L2 11.5zm11.805-6.805c.26-.26.26-.68 0-.94l-1.56-1.56a.664.664 0 0 0-.94 0l-1.22 1.22 2.5 2.5 1.22-1.22z"/></symbol><symbol id="16-pencil" viewBox="0 0 16 16"><path d="M1.024 12.668v3.124h2.917l8.6-9.215-2.916-3.125-8.6 9.216zM14.797 4.16a.872.872 0 0 0 0-1.175l-1.82-1.95a.739.739 0 0 0-1.096 0l-1.424 1.525 2.917 3.124 1.423-1.524z"/></symbol><symbol id="16-play" viewBox="0 0 16 16"><path d="M14 7.134a1 1 0 0 1 0 1.732l-9.75 5.63a1 1 0 0 1-1.5-.867V2.371a1 1 0 0 1 1.5-.866L14 7.134z"/></symbol><symbol id="16-plus-micro" viewBox="0 0 16 16"><path d="M11 8.429H8.429V11H7.57V8.429H5V7.57h2.571V5h.858v2.571H11v.858z"/></symbol><symbol id="16-plus-tiny" viewBox="0 0 16 16"><path d="M8.585 7.41h6.37v1.204h-6.37v6.342H7.381V8.614H1.04V7.411h6.341V1.04h1.204v6.37z"/></symbol><symbol id="16-plus" viewBox="0 0 16 16"><path d="M15.045 9.026h-6.02v6.02H7.02v-6.02H1V7.019h6.02V1h2.006v6.02h6.02v2.006z"/></symbol><symbol id="16-question-spot" viewBox="0 0 16 16"><path d="M8 1.5A6.502 6.502 0 0 0 1.5 8c0 3.588 2.912 6.5 6.5 6.5s6.5-2.912 6.5-6.5S11.588 1.5 8 1.5zm.65 11.05h-1.3v-1.3h1.3v1.3zm1.345-5.038l-.584.599c-.468.474-.761.864-.761 1.839h-1.3v-.325c0-.715.293-1.365.76-1.84l.806-.819A1.27 1.27 0 0 0 9.3 6.05c0-.715-.585-1.3-1.3-1.3-.715 0-1.3.585-1.3 1.3H5.4a2.6 2.6 0 1 1 5.2 0c0 .572-.234 1.092-.604 1.463z"/></symbol><symbol id="16-right" viewBox="0 0 16 16"><path d="M.533 7.067h10.65L6.29 1.849 7.533.533l7 7.467-7 7.467L6.3 14.15l4.882-5.218H.533V7.067z"/></symbol><symbol id="16-shuffle" viewBox="0 0 16 16"><path d="M7.174 6.346L4.152 3.33l-.822.822 3.016 3.016.828-.822zM9.455 3.33l1.19 1.19-7.315 7.32.822.823 7.321-7.315 1.19 1.19V3.33H9.455zm.193 5.49l-.823.822 1.826 1.825-1.196 1.196h3.208V9.455l-1.19 1.19-1.825-1.826z"/></symbol><symbol id="16-shuffled" viewBox="0 0 16 16"><path d="M7.174 6.346L4.152 3.33l-.822.822 3.016 3.016.828-.822zM9.455 3.33l1.19 1.19-7.315 7.32.822.823 7.321-7.315 1.19 1.19V3.33H9.455zm.193 5.49l-.823.822 1.826 1.825-1.196 1.196h3.208V9.455l-1.19 1.19-1.825-1.826z"/><circle cx="7.75" cy="15.25" r=".75"/></symbol><symbol id="16-slim-left" viewBox="0 0 16 16"><path d="M6.08 12.957l1.026-1-3.334-3.25h11.771V7.29H3.773l3.34-3.251L6.08 3.04.984 7.998l5.096 4.959z"/></symbol><symbol id="16-slim-right" viewBox="0 0 16 16"><path d="M10.448 3.04l-1.027.999 3.334 3.251H.985v1.417h11.77l-3.341 3.25 1.034 1 5.095-4.959-5.095-4.958z"/></symbol><symbol id="16-small-heart" viewBox="0 0 16 16"><path d="M8 13l-.725-.647C4.7 10.063 3 8.552 3 6.698 3 5.187 4.21 4 5.75 4c.87 0 1.705.397 2.25 1.025A3.018 3.018 0 0 1 10.25 4C11.79 4 13 5.187 13 6.698c0 1.854-1.7 3.364-4.275 5.66L8 13z"/></symbol><symbol id="16-smaller-heart-outline" viewBox="0 0 16 16"><path d="M10.34 2.8c-.905 0-1.773.46-2.34 1.185C7.433 3.259 6.565 2.8 5.66 2.8 4.058 2.8 2.8 4.172 2.8 5.917c0 2.143 1.768 3.888 4.446 6.54L8 13.2l.754-.748C11.432 9.805 13.2 8.059 13.2 5.917c0-1.745-1.258-3.117-2.86-3.117zm-2.288 8.813L8 11.67l-.052-.057C5.473 9.17 3.84 7.555 3.84 5.917c0-1.133.78-1.983 1.82-1.983.8 0 1.58.56 1.856 1.337h.973c.27-.776 1.05-1.337 1.851-1.337 1.04 0 1.82.85 1.82 1.983 0 1.638-1.633 3.253-4.108 5.696z"/></symbol><symbol id="16-smaller-heart" viewBox="0 0 16 16"><path d="M8 3.985C8.567 3.259 9.435 2.8 10.34 2.8c1.602 0 2.86 1.372 2.86 3.117 0 2.14-1.765 3.885-4.44 6.528l-.006.007L8 13.2l-.754-.742-.02-.02C4.558 9.795 2.8 8.053 2.8 5.917 2.8 4.171 4.058 2.8 5.66 2.8c.905 0 1.773.46 2.34 1.185z"/></symbol><symbol id="16-sort-desc" viewBox="0 0 16 16"><path d="M2 12h4v-1.333H2V12zm0-8v1.333h12V4H2zm0 4.667h8V7.333H2v1.334z"/></symbol><symbol id="16-sort-descending" viewBox="0 0 16 16"><path d="M2 14h4v-1.333H2V14zm0-8v1.333h12V6H2zm0 4.667h8V9.333H2v1.334z"/></symbol><symbol id="16-sparkle" viewBox="0 0 16 16"><path d="M12.375 6.125l.781-1.719 1.719-.781-1.719-.781-.781-1.719-.781 1.719-1.719.781 1.719.781.781 1.719zm-4.688.313L6.125 3 4.562 6.438 1.126 8l3.438 1.563L6.125 13l1.563-3.438L11.124 8 7.687 6.437zm4.688 3.437l-.781 1.719-1.719.781 1.719.781.781 1.719.781-1.719 1.719-.781-1.719-.781-.781-1.719z"/></symbol><symbol id="16-stagetime" viewBox="0 0 16 16"><path d="M8.089 9.502l.278 5.564h-.732l.279-5.564h.175zM6.5 7.914L.935 7.635v.732L6.5 8.089v-.175zM8.09 6.5L8.366.935h-.73L7.913 6.5h.175zm1.413 1.414v.175l5.564.278v-.732l-5.564.279zm-4.59 2.763l.399.398 2.05-2.326-.123-.123-2.326 2.05zm0-5.38L7.238 7.35l.124-.124L5.31 4.898l-.398.4zm6.177 0l-.398-.397L8.64 7.225l.124.124 2.325-2.051zM8.64 8.752l2.052 2.326.398-.399-2.326-2.05-.123.123z"/></symbol><symbol id="16-success" viewBox="0 0 16 16"><circle cx="8" cy="8" r="6.5" fill="#9AC796"/><path d="M6.895 9.629L5.456 8.147l-.49.5 1.929 1.988 4.138-4.266-.486-.5-3.652 3.76z" fill="#fff"/></symbol><symbol id="16-swap-2" viewBox="0 0 16 16"><path d="M10.667 11.34V6.667H9.333v4.673h-2L10 14l2.667-2.66h-2zM6 2L3.333 4.66h2v4.673h1.334V4.66h2L6 2zm4.667 9.34V6.667H9.333v4.673h-2L10 14l2.667-2.66h-2zM6 2L3.333 4.66h2v4.673h1.334V4.66h2L6 2z"/></symbol><symbol id="16-swap" viewBox="0 0 16 16"><path d="M11.75 3.31l-2.5 2.5h1.875v4.375c0 .688-.563 1.25-1.25 1.25-.688 0-1.25-.563-1.25-1.25V5.81a2.5 2.5 0 1 0-5 0v4.375H1.75l2.5 2.5 2.5-2.5H4.875V5.81c0-.688.563-1.25 1.25-1.25.688 0 1.25.563 1.25 1.25v4.375a2.5 2.5 0 1 0 5 0V5.81h1.875l-2.5-2.5z"/></symbol><symbol id="16-triangle-down" viewBox="0 0 16 16"><path d="M3 6l4.792 4.792L12.583 6H3z"/></symbol><symbol id="16-wave" viewBox="0 0 16 16"><path d="M4.106 12.699h1.558V3.287H4.106V12.7zm3.116 3.137h1.557V.15H7.222v15.686zM.99 9.562h1.558V6.425H.99v3.137zm9.347 3.137h1.558V3.287h-1.558V12.7zm3.116-6.274v3.137h1.558V6.425h-1.558z"/></symbol><symbol id="16" viewBox="0 0 16 16"><path d="M11.6 1A4.79 4.79 0 0 0 8 2.672 4.79 4.79 0 0 0 4.4 1 4.357 4.357 0 0 0 0 5.4c0 3.024 2.72 5.488 6.84 9.232L8 15.68l1.16-1.056C13.28 10.888 16 8.424 16 5.4 16 2.936 14.064 1 11.6 1zM8.08 13.44l-.08.08-.08-.08C4.112 9.992 1.6 7.712 1.6 5.4c0-1.6 1.2-2.8 2.8-2.8 1.232 0 2.856 1.888 2.856 1.888L8 5.4l.752-.912S10.368 2.6 11.6 2.6c1.6 0 2.8 1.2 2.8 2.8 0 2.312-2.512 4.592-6.32 8.04z"/></symbol><symbol id="17" viewBox="0 0 16 16"><path d="M12 4.111l-1.128 1.097 2.064 2.014H4.8v1.556h8.136l-2.064 2.006L12 11.89 16 8l-4-3.889zM1.6 2.556H8V1H1.6C.72 1 0 1.7 0 2.556v10.888C0 14.3.72 15 1.6 15H8v-1.556H1.6V2.556z"/></symbol><symbol id="18" viewBox="0 0 16 16"><path d="M14.117 8.783c.034-.25.051-.508.051-.783 0-.267-.017-.533-.06-.783l1.74-1.317a.401.401 0 0 0 .102-.508l-1.645-2.767c-.102-.183-.317-.242-.505-.183l-2.048.8a6.093 6.093 0 0 0-1.388-.784L10.056.342A.411.411 0 0 0 9.645 0h-3.29a.402.402 0 0 0-.403.342l-.308 2.116c-.505.2-.968.475-1.388.784l-2.047-.8a.414.414 0 0 0-.506.183L.067 5.392c-.103.175-.069.391.103.508l1.739 1.317c-.043.25-.077.525-.077.783s.017.533.06.783L.152 10.1a.401.401 0 0 0-.102.508l1.645 2.767c.102.183.317.242.505.183l2.048-.8c.428.317.882.584 1.387.784l.309 2.116c.043.2.205.342.411.342h3.29a.396.396 0 0 0 .402-.342l.309-2.116c.505-.2.968-.467 1.388-.784l2.047.8c.189.067.403 0 .506-.183l1.645-2.767a.379.379 0 0 0-.103-.508l-1.722-1.317zM8 11c-1.696 0-3.084-1.35-3.084-3S6.304 5 8 5c1.696 0 3.084 1.35 3.084 3S9.696 11 8 11z"/></symbol><symbol id="19" viewBox="0 0 16 16"><path d="M8 0C3.584 0 0 3.584 0 8s3.584 8 8 8 8-3.584 8-8-3.584-8-8-8zm.8 13.6H7.2V12h1.6v1.6zm1.656-6.2l-.72.736C9.16 8.72 8.8 9.2 8.8 10.4H7.2V10c0-.88.36-1.68.936-2.264l.992-1.008C9.424 6.44 9.6 6.04 9.6 5.6 9.6 4.72 8.88 4 8 4c-.88 0-1.6.72-1.6 1.6H4.8a3.2 3.2 0 1 1 6.4 0c0 .704-.288 1.344-.744 1.8z"/></symbol><symbol id="2" viewBox="0 0 16 16"><path d="M8 12.859L12.944 16l-1.312-5.92L16 6.097l-5.752-.514L8 0 5.752 5.583 0 6.097l4.368 3.983L3.056 16 8 12.859z"/></symbol><symbol id="20-add-circle" viewBox="0 0 20 20"><path d="M10 0C4.48 0 0 4.48 0 10s4.48 10 10 10 10-4.48 10-10S15.52 0 10 0zm5 11h-4v4H9v-4H5V9h4V5h2v4h4v2z"/></symbol><symbol id="20-auth-apple" viewBox="0 0 20 20"><path d="M17.545 14.878a9.681 9.681 0 0 1-.957 1.721c-.504.718-.916 1.215-1.234 1.49-.492.454-1.02.686-1.585.699-.405 0-.895-.116-1.464-.35-.571-.233-1.096-.348-1.576-.348-.504 0-1.044.115-1.621.348-.579.234-1.045.356-1.4.368-.543.023-1.083-.215-1.622-.716-.344-.3-.774-.815-1.29-1.544-.553-.778-1.008-1.68-1.364-2.71-.381-1.11-.573-2.187-.573-3.229 0-1.193.258-2.222.775-3.085a4.543 4.543 0 0 1 1.622-1.64 4.363 4.363 0 0 1 2.192-.62c.43 0 .995.134 1.696.396.7.262 1.149.395 1.346.395.147 0 .646-.155 1.491-.466.8-.287 1.475-.407 2.028-.36 1.498.121 2.624.712 3.372 1.776-1.34.812-2.003 1.949-1.99 3.408.013 1.136.425 2.082 1.235 2.832.367.349.777.618 1.233.81-.099.286-.203.561-.314.825zM14.109 1.356c0 .89-.325 1.722-.974 2.492-.783.915-1.73 1.444-2.756 1.36a2.769 2.769 0 0 1-.02-.337c0-.855.372-1.77 1.033-2.518.33-.379.75-.694 1.258-.945.508-.248.988-.385 1.44-.408.013.12.019.238.019.356z"/></symbol><symbol id="20-auth-google" viewBox="0 0 20 20"><path d="M18.502 10.196a9.81 9.81 0 0 0-.15-1.727h-8.18v3.273h4.684a3.93 3.93 0 0 1-1.733 2.583v2.124h2.794c1.641-1.48 2.585-3.667 2.585-6.253z"/><path d="M10.172 18.5c2.339 0 4.311-.752 5.749-2.051l-2.795-2.124c-.777.518-1.781.812-2.95.812-2.263 0-4.181-1.496-4.87-3.508H2.423v2.19c1.472 2.87 4.47 4.682 7.75 4.682z"/><path d="M5.303 11.63a4.996 4.996 0 0 1 0-3.255v-2.19h-2.88a8.357 8.357 0 0 0 0 7.634l2.88-2.19z"/><path d="M10.172 4.864A4.765 4.765 0 0 1 13.5 6.14l2.476-2.427A8.429 8.429 0 0 0 10.172 1.5c-3.279 0-6.277 1.811-7.75 4.685l2.881 2.189c.685-2.015 2.607-3.51 4.87-3.51z"/></symbol><symbol id="20-circled-cross" viewBox="0 0 20 20"><path d="M12.158 6.667L10 8.825 7.842 6.667 6.667 7.842 8.825 10l-2.158 2.158 1.175 1.175L10 11.175l2.158 2.158 1.175-1.175L11.175 10l2.158-2.158-1.175-1.175zm-2.158-5A8.326 8.326 0 0 0 1.667 10 8.326 8.326 0 0 0 10 18.333 8.326 8.326 0 0 0 18.333 10 8.326 8.326 0 0 0 10 1.667zm0 15A6.676 6.676 0 0 1 3.333 10 6.676 6.676 0 0 1 10 3.333 6.676 6.676 0 0 1 16.667 10 6.676 6.676 0 0 1 10 16.667z"/></symbol><symbol id="20-conn-connections" viewBox="0 0 20 20"><path d="M13.636 9.143c1.51 0 2.719-1.149 2.719-2.572C16.355 5.15 15.145 4 13.636 4S10.91 5.149 10.91 6.571c0 1.423 1.218 2.572 2.727 2.572zm-7.272 0c1.509 0 2.718-1.149 2.718-2.572C9.082 5.15 7.872 4 6.364 4c-1.51 0-2.728 1.149-2.728 2.571 0 1.423 1.219 2.572 2.728 2.572zm0 1.714c-2.119 0-6.364 1.003-6.364 3V16h12.727v-2.143c0-1.997-4.245-3-6.363-3zm7.272 0c-.263 0-.563.017-.881.043 1.054.72 1.79 1.689 1.79 2.957V16H20v-2.143c0-1.997-4.245-3-6.364-3z"/></symbol><symbol id="20-conn-contacts" viewBox="0 0 20 20"><path fill-rule="evenodd" clip-rule="evenodd" d="M16.72 10.159c0-.497-.044-.974-.127-1.432H10v2.708h3.767a3.22 3.22 0 0 1-1.396 2.112v1.757h2.262c1.323-1.219 2.087-3.014 2.087-5.145z" fill="#4285F4"/><path fill-rule="evenodd" clip-rule="evenodd" d="M10 17c1.89 0 3.474-.627 4.633-1.697l-2.263-1.756c-.627.42-1.428.668-2.37.668-1.823 0-3.367-1.231-3.917-2.886H3.744v1.814A6.997 6.997 0 0 0 10 16.999z" fill="#34A853"/><path fill-rule="evenodd" clip-rule="evenodd" d="M6.083 11.33c-.14-.42-.22-.869-.22-1.33 0-.461.08-.91.22-1.33V6.856H3.745a6.997 6.997 0 0 0 0 6.287l2.338-1.813z" fill="#FBBC05"/><path fill-rule="evenodd" clip-rule="evenodd" d="M10 5.784c1.027 0 1.95.353 2.676 1.047l2.007-2.008C13.471 3.693 11.887 3 10 3a6.997 6.997 0 0 0-6.256 3.856L6.083 8.67C6.633 7.015 8.177 5.784 10 5.784z" fill="#EA4335"/></symbol><symbol id="20-conn-following" viewBox="0 0 20 20"><path d="M11.75 8.25V3h-3.5v5.25H3v3.5h5.25V17h3.5v-5.25H17v-3.5h-5.25z"/></symbol><symbol id="20-conn-organizations" viewBox="0 0 20 20"><path d="M12.333 9.105V4.368L10 2 7.667 4.368v1.58H3V17h14V9.105h-4.667zm-6.222 6.316H4.556v-1.579H6.11v1.58zm0-3.158H4.556v-1.579H6.11v1.58zm0-3.158H4.556V7.526H6.11v1.58zm4.667 6.316H9.222v-1.579h1.556v1.58zm0-3.158H9.222v-1.579h1.556v1.58zm0-3.158H9.222V7.526h1.556v1.58zm0-3.158H9.222V4.368h1.556v1.58zm4.666 9.474H13.89v-1.579h1.555v1.58zm0-3.158H13.89v-1.579h1.555v1.58z"/></symbol><symbol id="20-conn-watching" viewBox="0 0 20 20"><path d="M10 4.5c-3.636 0-6.742 2.28-8 5.5 1.258 3.22 4.364 5.5 8 5.5s6.742-2.28 8-5.5c-1.258-3.22-4.364-5.5-8-5.5zm0 9.167c-2.007 0-3.636-1.643-3.636-3.667S7.993 6.333 10 6.333 13.636 7.976 13.636 10 12.007 13.667 10 13.667zM10 7.8A2.188 2.188 0 0 0 7.818 10c0 1.217.975 2.2 2.182 2.2a2.188 2.188 0 0 0 2.182-2.2c0-1.217-.975-2.2-2.182-2.2z"/></symbol><symbol id="20-crowd-full" viewBox="0 0 20 20"><path d="M13.637 9c1.508 0 2.718-1.34 2.718-3s-1.21-3-2.718-3c-1.51 0-2.728 1.34-2.728 3s1.219 3 2.728 3zM6.363 9c1.51 0 2.72-1.34 2.72-3s-1.21-3-2.72-3C4.855 3 3.636 4.34 3.636 6s1.219 3 2.727 3zm0 2C4.245 11 0 12.17 0 14.5V17h12.728v-2.5c0-2.33-4.246-3.5-6.365-3.5zm7.274 0c-.264 0-.564.02-.882.05 1.054.84 1.79 1.97 1.79 3.45V17H20v-2.5c0-2.33-4.245-3.5-6.363-3.5z"/></symbol><symbol id="20-crowd-preferences" viewBox="0 0 20 20"><path d="M1 1h8v8H1V1zm10 0h8v8h-8V1zM1 11h8v8H1v-8zm15 0h-2v3h-3v2h3v3h2v-3h3v-2h-3v-3z"/></symbol><symbol id="20-half-crowd" viewBox="0 0 20 20"><path d="M7 11.75c-2.34 0-7 1.17-7 3.5V17h14v-1.75c0-2.33-4.66-3.5-7-3.5zM2.34 15c.84-.58 2.87-1.25 4.66-1.25s3.82.67 4.66 1.25H2.34zM7 10c1.93 0 3.5-1.57 3.5-3.5S8.93 3 7 3 3.5 4.57 3.5 6.5 5.07 10 7 10zm0-5c.83 0 1.5.67 1.5 1.5S7.83 8 7 8s-1.5-.67-1.5-1.5S6.17 5 7 5zm7.04 6.81c1.16.84 1.96 1.96 1.96 3.44V17h4v-1.75c0-2.02-3.5-3.17-5.96-3.44zM13 10c1.93 0 3.5-1.57 3.5-3.5S14.93 3 13 3c-.54 0-1.04.13-1.5.35.63.89 1 1.98 1 3.15s-.37 2.26-1 3.15c.46.22.96.35 1.5.35z"/></symbol><symbol id="20-lock" viewBox="0 0 20 20"><path d="M15.25 7h-.875V5.286C14.375 2.92 12.415 1 10 1S5.625 2.92 5.625 5.286V7H4.75C3.788 7 3 7.771 3 8.714v8.572C3 18.229 3.788 19 4.75 19h10.5c.962 0 1.75-.771 1.75-1.714V8.714C17 7.771 16.212 7 15.25 7zM10 14.714c-.963 0-1.75-.771-1.75-1.714s.787-1.714 1.75-1.714 1.75.771 1.75 1.714-.787 1.714-1.75 1.714zM12.713 7H7.288V5.286c0-1.466 1.216-2.657 2.712-2.657 1.496 0 2.713 1.191 2.713 2.657V7z"/></symbol><symbol id="20-nav-collections" viewBox="0 0 20 20"><path d="M9.579 2L4.947 9.2h9.264L9.579 2zm0 3.072L11.204 7.6H7.945L9.58 5.072zM14.21 10.8c-2.096 0-3.789 1.608-3.789 3.6s1.693 3.6 3.79 3.6C16.306 18 18 16.392 18 14.4s-1.693-3.6-3.79-3.6zm0 5.6c-1.162 0-2.105-.896-2.105-2s.943-2 2.105-2c1.163 0 2.106.896 2.106 2s-.943 2-2.105 2zM2 17.6h6.737v-6.4H2v6.4zm1.684-4.8h3.369V16H3.684v-3.2z"/></symbol><symbol id="20-nav-crowd" viewBox="0 0 20 20"><path d="M12.612 9.857a1.917 1.917 0 0 0 1.915-1.928 1.917 1.917 0 1 0-3.836 0c0 1.067.858 1.928 1.92 1.928zm-5.123 0A1.917 1.917 0 0 0 9.404 7.93a1.917 1.917 0 1 0-3.836 0c0 1.067.858 1.928 1.92 1.928zm0 1.286c-1.492 0-4.483.752-4.483 2.25V15h8.965v-1.607c0-1.498-2.99-2.25-4.482-2.25zm5.123 0c-.186 0-.397.013-.621.032.742.54 1.261 1.266 1.261 2.218V15h3.842v-1.607c0-1.498-2.99-2.25-4.482-2.25z"/></symbol><symbol id="20-nav-envelope" viewBox="0 0 20 20"><path d="M15.615 5H4.402c-.771 0-1.395.627-1.395 1.393L3 14.75c0 .766.63 1.393 1.402 1.393h11.213c.77 0 1.401-.627 1.401-1.393V6.393c0-.766-.63-1.393-1.401-1.393zm0 2.786l-5.607 3.482-5.606-3.482V6.393l5.606 3.482 5.607-3.482v1.393z"/></symbol><symbol id="20-nav-globe" viewBox="0 0 20 20"><path d="M10.044 3C6.156 3 3 6.136 3 10s3.156 7 7.044 7c3.888 0 7.044-3.136 7.044-7s-3.156-7-7.044-7zM9.34 15.551C6.557 15.208 4.409 12.856 4.409 10c0-.434.056-.847.148-1.253L7.93 12.1v.7c0 .77.634 1.4 1.409 1.4v1.351zm4.86-1.778a1.397 1.397 0 0 0-1.338-.973h-.705v-2.1c0-.385-.317-.7-.704-.7H7.226V8.6h1.41a.704.704 0 0 0 .704-.7V6.5h1.408c.775 0 1.41-.63 1.41-1.4v-.287c2.063.833 3.521 2.842 3.521 5.187a5.551 5.551 0 0 1-1.479 3.773z"/></symbol><symbol id="20-nav-house" viewBox="0 0 20 20"><path d="M8.6 14.667v-4.118h2.8v4.118h3.5v-5.49H17L10 3 3 9.176h2.1v5.49h3.5z"/></symbol><symbol id="20-paper-plane-simple" viewBox="0 0 20 20"><path d="M3.008 17.433L19 9.967 3.008 2.5 3 8.307l11.429 1.66L3 11.626l.008 5.807z"/></symbol><symbol id="20-paper-plane" viewBox="0 0 20 20"><path d="M3.009 4.776L9.58 7.594 3 6.719l.009-1.943zm6.562 7.63L3 15.224V13.28l6.571-.875zM1.26 2.125L1.25 8.25 14.375 10 1.25 11.75l.009 6.125L19.625 10 1.259 2.125z"/></symbol><symbol id="20-rounded-cross" viewBox="0 0 20 20"><path d="M12.158 6.667L10 8.825 7.842 6.667 6.667 7.842 8.825 10l-2.158 2.158 1.175 1.175L10 11.175l2.158 2.158 1.175-1.175L11.175 10l2.158-2.158-1.175-1.175zm-2.158-5A8.326 8.326 0 0 0 1.667 10 8.326 8.326 0 0 0 10 18.333 8.326 8.326 0 0 0 18.333 10 8.326 8.326 0 0 0 10 1.667zm0 15A6.675 6.675 0 0 1 3.333 10 6.676 6.676 0 0 1 10 3.333 6.675 6.675 0 0 1 16.667 10 6.675 6.675 0 0 1 10 16.667z"/></symbol><symbol id="20-updates-bell" viewBox="0 0 20 20"><path d="M8.59 16.382a1.409 1.409 0 1 0 2.82 0H8.59zM10 5.75a3.543 3.543 0 0 1 3.542 3.542v4.958H6.458V9.292A3.543 3.543 0 0 1 10 5.75zm0-3.188c-.588 0-1.063.475-1.063 1.063v.829a4.954 4.954 0 0 0-3.895 4.838v4.25l-1.417 1.416v.709h12.75v-.709l-1.417-1.416v-4.25a4.954 4.954 0 0 0-3.896-4.838v-.829c0-.588-.474-1.063-1.062-1.063zm-.708 4.605h1.416V10H9.292V7.167zm0 4.25h1.416v1.416H9.292v-1.416z"/></symbol><symbol id="20-write" viewBox="0 0 20 20"><path d="M8 11V8.709l6.072-6.073.686-.685 2.291 2.291-.185.185L10.291 11H8zm10.821-9.391a.608.608 0 0 1 0 .861l-1.118 1.118-.51-.51-.517-.517-1.264-1.264L16.53.179a.609.609 0 0 1 .861 0l1.43 1.43zM17.118 14V7.002l1-1V14a4 4 0 0 1-4 4H5.754a4 4 0 0 1-4-4V5.636a4 4 0 0 1 4-4h6.49l-1 1h-5.49a3 3 0 0 0-3 3V14a3 3 0 0 0 3 3h8.364a3 3 0 0 0 3-3z"/></symbol><symbol id="20" viewBox="0 0 16 16"><path d="M1 12.084V15h2.916l8.601-8.601-2.916-2.916L1 12.083zm13.773-7.94a.774.774 0 0 0 0-1.097l-1.82-1.82a.774.774 0 0 0-1.097 0l-1.423 1.424 2.916 2.916 1.424-1.423z"/></symbol><symbol id="21" viewBox="0 0 16 16"><path d="M14.4 2.5H1.6C.72 2.5.008 3.119.008 3.875L0 12.125c0 .756.72 1.375 1.6 1.375h12.8c.88 0 1.6-.619 1.6-1.375v-8.25c0-.756-.72-1.375-1.6-1.375zm0 2.75L8 8.688 1.6 5.25V3.875L8 7.313l6.4-3.438V5.25z"/></symbol><symbol id="22-bottom-buildings" viewBox="0 0 22 22"><path d="M13.895 10.527V5.042L11 2.3 8.105 5.042v1.829h-5.79v12.798h17.37v-9.142h-5.79zm-7.72 7.313h-1.93v-1.828h1.93v1.828zm0-3.656h-1.93v-1.829h1.93v1.829zm0-3.657h-1.93V8.7h1.93v1.828zm5.79 7.313h-1.93v-1.828h1.93v1.828zm0-3.656h-1.93v-1.829h1.93v1.829zm0-3.657h-1.93V8.7h1.93v1.828zm0-3.656h-1.93V5.042h1.93v1.829zm5.79 10.97h-1.93v-1.829h1.93v1.828zm0-3.657h-1.93v-1.829h1.93v1.829z"/></symbol><symbol id="22-bottom-crowd" viewBox="0 0 22 22"><path d="M14.158 13.068c1.31 0 2.36-1.109 2.36-2.482 0-1.373-1.05-2.48-2.36-2.48-1.31 0-2.368 1.107-2.368 2.48s1.058 2.482 2.368 2.482zm-6.316 0c1.311 0 2.361-1.109 2.361-2.482 0-1.373-1.05-2.48-2.361-2.48-1.31 0-2.369 1.107-2.369 2.48s1.059 2.482 2.369 2.482zm0 1.654c-1.84 0-5.526.968-5.526 2.895v2.067h11.053v-2.067c0-1.927-3.687-2.895-5.527-2.895zm6.316 0c-.229 0-.49.016-.766.042.916.694 1.555 1.629 1.555 2.853v2.067h4.737v-2.067c0-1.927-3.687-2.895-5.526-2.895z"/></symbol><symbol id="22-bottom-phone" viewBox="0 0 22 22"><path d="M5.809 9.832a14.617 14.617 0 0 0 6.359 6.36l2.122-2.124a.96.96 0 0 1 .985-.231c1.08.357 2.248.55 3.444.55.531 0 .965.434.965.965v3.367c0 .53-.434.965-.965.965-9.06 0-16.403-7.343-16.403-16.403 0-.531.434-.965.965-.965h3.377c.53 0 .965.434.965.965 0 1.206.193 2.364.55 3.444a.968.968 0 0 1-.241.985L5.809 9.832z"/></symbol><symbol id="22-bottom-staple" viewBox="0 0 22 22"><path d="M3.966 13.053c0-1.585 1.207-2.872 2.692-2.872h3.474V8.42H6.658c-2.397 0-4.342 2.075-4.342 4.632 0 2.556 1.945 4.631 4.342 4.631h3.474v-1.76H6.658c-1.485 0-2.692-1.287-2.692-2.871zm3.56.926h6.948v-1.853H7.526v1.853zm7.816-5.558h-3.474v1.76h3.474c1.485 0 2.692 1.288 2.692 2.872 0 1.583-1.207 2.871-2.692 2.871h-3.474v1.76h3.474c2.397 0 4.342-2.075 4.342-4.632 0-2.556-1.945-4.631-4.342-4.631z"/></symbol><symbol id="22" viewBox="0 0 16 16"><path d="M9.75 6.25V1h-3.5v5.25H1v3.5h5.25V15h3.5V9.75H15v-3.5H9.75z"/></symbol><symbol id="23" viewBox="0 0 16 16"><path d="M7.579 0L2.947 7.2h9.264L7.579 0zm0 3.072L9.204 5.6H5.945L7.58 3.072zM12.21 8.8c-2.096 0-3.789 1.608-3.789 3.6s1.693 3.6 3.79 3.6C14.306 16 16 14.392 16 12.4s-1.693-3.6-3.79-3.6zm0 5.6c-1.162 0-2.105-.896-2.105-2s.943-2 2.105-2c1.163 0 2.106.896 2.106 2s-.943 2-2.106 2zM0 15.6h6.737V9.2H0v6.4zm1.684-4.8h3.369V14H1.684v-3.2z"/></symbol><symbol id="24-3-user" viewBox="0 0 24 24"><path d="M5.704 14.033a.75.75 0 0 1-.697.8c-.442.03-.88.093-1.31.19l-.02.004c-.292.057-.577.14-.805.253-.232.116-.334.229-.373.311v.002a.625.625 0 0 0 0 .538v.001c.04.082.14.194.374.311.229.115.516.199.811.26a.75.75 0 1 1-.302 1.469 4.857 4.857 0 0 1-1.18-.387c-.39-.196-.82-.508-1.058-1.01a2.125 2.125 0 0 1 0-1.829c.24-.5.667-.813 1.059-1.008.392-.196.819-.31 1.176-.381a10.2 10.2 0 0 1 1.525-.22.75.75 0 0 1 .8.696zm12.477 0a.75.75 0 0 1 .8-.697 10.2 10.2 0 0 1 1.525.221c.357.07.784.185 1.176.38.392.196.82.508 1.059 1.01.275.578.275 1.25 0 1.828-.238.502-.667.814-1.057 1.01a4.861 4.861 0 0 1-1.181.387.75.75 0 1 1-.302-1.47 3.39 3.39 0 0 0 .811-.259c.233-.117.335-.23.375-.311a.631.631 0 0 0 0-.54l.677-.323-.677.322c-.04-.082-.143-.195-.374-.311a3.256 3.256 0 0 0-.805-.253l-.02-.004a8.68 8.68 0 0 0-1.31-.19.75.75 0 0 1-.697-.8zM6.667 17.185a.95.95 0 0 1 .274-.699c.196-.205.52-.402 1.003-.566.976-.332 2.378-.46 3.994-.46 1.607 0 3.01.124 3.99.452.485.163.81.358 1.006.562.18.186.274.4.274.693a.95.95 0 0 1-.274.698c-.196.206-.52.402-1.003.567-.975.331-2.378.46-3.993.46-1.608 0-3.012-.124-3.99-.452-.485-.163-.81-.358-1.007-.562a.937.937 0 0 1-.274-.694zm5.27-3.225c-1.649 0-3.257.125-4.475.54-.614.208-1.183.508-1.606.95a2.447 2.447 0 0 0-.689 1.735c0 .69.251 1.274.694 1.733.425.441.996.738 1.61.944 1.22.409 2.827.53 4.467.53 1.65 0 3.257-.126 4.476-.54.613-.209 1.183-.508 1.605-.951.44-.461.69-1.046.69-1.734 0-.69-.252-1.274-.695-1.734-.424-.44-.996-.737-1.61-.943-1.22-.41-2.827-.53-4.466-.53z"/><path fill="#545454" opacity=".4" fill-rule="evenodd" clip-rule="evenodd" d="M8.83 8.046a3.095 3.095 0 0 1 3.108-3.108 3.095 3.095 0 0 1 3.108 3.108 3.095 3.095 0 0 1-3.108 3.109 3.095 3.095 0 0 1-3.108-3.11zm3.108-4.608A4.595 4.595 0 0 0 7.33 8.046a4.595 4.595 0 0 0 4.608 4.609 4.595 4.595 0 0 0 4.608-4.61 4.595 4.595 0 0 0-4.608-4.607zM6.29 5.878a2.152 2.152 0 1 0 0 4.303.75.75 0 0 1 0 1.5 3.652 3.652 0 1 1 0-7.303.75.75 0 1 1 0 1.5zm10.555-.75a.75.75 0 0 1 .75-.75 3.652 3.652 0 1 1 0 7.303.75.75 0 0 1 0-1.5 2.152 2.152 0 1 0 0-4.303.75.75 0 0 1-.75-.75z"/></symbol><symbol id="24-apple-color" viewBox="0 0 24 24"><path d="M20.967 17.924c-.348.803-.76 1.543-1.236 2.223-.65.927-1.183 1.569-1.593 1.925-.636.585-1.318.885-2.047.902-.524 0-1.156-.15-1.891-.452-.738-.3-1.416-.45-2.036-.45-.65 0-1.348.15-2.094.45-.747.303-1.349.46-1.809.476-.7.03-1.397-.278-2.093-.926-.445-.387-1-1.052-1.666-1.993-.715-1.005-1.302-2.17-1.762-3.5-.493-1.435-.74-2.825-.74-4.17 0-1.542.333-2.871 1-3.985a5.867 5.867 0 0 1 2.095-2.12 5.635 5.635 0 0 1 2.832-.798c.556 0 1.285.172 2.19.51.904.339 1.484.51 1.738.51.19 0 .834-.2 1.926-.601 1.033-.372 1.905-.526 2.62-.465 1.934.156 3.388.919 4.355 2.293-1.73 1.049-2.587 2.517-2.57 4.401.016 1.468.548 2.69 1.594 3.659.475.45 1.004.798 1.593 1.045-.127.37-.262.725-.406 1.066zM16.53.46c0 1.15-.42 2.224-1.258 3.218-1.01 1.182-2.233 1.865-3.559 1.757A3.58 3.58 0 0 1 11.685 5c0-1.105.481-2.287 1.335-3.253.426-.489.968-.896 1.625-1.22.656-.32 1.277-.497 1.86-.527.017.154.024.308.024.46z"/></symbol><symbol id="24-article" viewBox="0 0 24 24"><path d="M19 3H5c-1.1 0-2 .9-2 2v14c0 1.1.9 2 2 2h14c1.1 0 2-.9 2-2V5c0-1.1-.9-2-2-2zm-5 14H7v-2h7v2zm3-4H7v-2h10v2zm0-4H7V7h10v2z"/></symbol><symbol id="24-back-tiny" viewBox="0 0 24 24"><path d="M9 19l1.41-1.41L5.83 13H22v-2H5.83l4.59-4.59L9 5l-7 7 7 7z"/></symbol><symbol id="24-bookmark" viewBox="0 0 24 24"><path fill-rule="evenodd" clip-rule="evenodd" d="M12 15.555l-4.572 2.673 1.214-5.039-4.04-3.39 5.32-.438L12 4.61l2.079 4.752 5.318.437-4.039 3.391 1.214 5.04L12 15.554zm5.421-1.695l1.96 8.14L12 17.683 4.62 22l1.959-8.14L0 8.337l8.665-.712L12 0l3.335 7.625L24 8.337l-6.579 5.523z"/></symbol><symbol id="24-bookmarked" viewBox="0 0 24 24"><path fill-rule="evenodd" clip-rule="evenodd" d="M17.421 13.86l1.96 8.14L12 17.683 4.62 22l1.959-8.14L0 8.337l8.665-.712L12 0l3.335 7.625L24 8.337l-6.579 5.523z"/></symbol><symbol id="24-calendar" viewBox="0 0 24 24"><path d="M19.2 3.818h-.9V2h-1.8v1.818h-9V2H5.7v1.818h-.9c-.99 0-1.8.818-1.8 1.818v14.546c0 1 .81 1.818 1.8 1.818h14.4c.99 0 1.8-.818 1.8-1.818V5.636c0-1-.81-1.818-1.8-1.818zm0 16.364H4.8V8.364h14.4v11.818z"/></symbol><symbol id="24-cinema" viewBox="0 0 24 24"><path d="M17.556 10.371V6.567c0-.598-.5-1.087-1.112-1.087H3.111C2.5 5.48 2 5.97 2 6.567v10.87c0 .597.5 1.086 1.111 1.086h13.333c.612 0 1.112-.489 1.112-1.087v-3.804L22 17.98V6.023l-4.444 4.348z"/></symbol><symbol id="24-download" viewBox="0 0 24 24"><path d="M12.75 3.395a.75.75 0 0 0-1.5 0v10.06l-1.276-1.443a.75.75 0 1 0-1.124.993l2.588 2.928a.75.75 0 0 0 1.124 0l2.588-2.928a.75.75 0 1 0-1.124-.993l-1.276 1.443V3.395z"/><path fill="#333" opacity=".4" fill-rule="evenodd" clip-rule="evenodd" d="M19.46 11.813c0-1.709-1.21-2.935-2.52-2.935h-.828a.75.75 0 0 1 0-1.5h.828c2.302 0 4.02 2.072 4.02 4.435v4.884c0 2.358-1.715 4.425-4.012 4.425H7.06c-2.302 0-4.021-2.072-4.021-4.435v-4.885c0-2.357 1.715-4.424 4.012-4.424h.836a.75.75 0 1 1 0 1.5h-.836c-1.306 0-2.512 1.223-2.512 2.924v4.885c0 1.707 1.21 2.935 2.52 2.935h9.888c1.306 0 2.512-1.223 2.512-2.925v-4.884z"/></symbol><symbol id="24-edit" viewBox="0 0 24 24"><path d="M13.445 5.419L5.157 15.992a.738.738 0 0 0-.138.62l.588 2.528 2.595-.033a.731.731 0 0 0 .567-.28L17.06 8.25c.231-.296.278-.589.218-.864-.064-.293-.266-.621-.627-.904l-1.39-1.09c-.36-.283-.727-.4-1.028-.393-.282.008-.556.124-.787.419zm.749-1.918c.713-.018 1.412.257 1.992.711l1.39 1.09c.579.455 1.014 1.067 1.166 1.764.157.716.003 1.465-.503 2.11L9.951 19.751a2.232 2.232 0 0 1-1.732.856"/><path opacity=".4" d="M13.7 19.898h6.377M11.303 6.936l4.794 3.758" stroke="#333" stroke-width="1.5" stroke-linecap="round" stroke-linejoin="round"/></symbol><symbol id="24-envelope" viewBox="0 0 24 24"><path d="M7.388 4.25c-2.429 0-4.138 1.958-4.138 4.544v6.528c0 2.586 1.71 4.544 4.138 4.544h9.424a4.207 4.207 0 0 0 3.034-1.35 4.267 4.267 0 0 0 1.126-3.194V8.794l.001-.044a4.267 4.267 0 0 0-1.127-3.15 4.207 4.207 0 0 0-3.035-1.35H7.388zM1.75 8.794c0-3.251 2.227-6.044 5.638-6.044h9.436a5.707 5.707 0 0 1 4.122 1.83 5.767 5.767 0 0 1 1.526 4.235v6.486a5.767 5.767 0 0 1-1.526 4.235 5.707 5.707 0 0 1-4.122 1.83H7.388c-3.411 0-5.638-2.792-5.638-6.044V8.794z"/><path fill="currentColor" d="M5.868 8.593a.75.75 0 0 1 1.054-.118l4.3 3.432c.534.417 1.28.417 1.814 0l4.261-3.43a.75.75 0 1 1 .941 1.168l-4.273 3.44a2.973 2.973 0 0 1-3.671 0l-.006-.003-4.302-3.435a.75.75 0 0 1-.118-1.054z"/></symbol><symbol id="24-gmail-color" viewBox="0 0 24 24"><path d="M3.795 19h3.023v-7.212L2.5 8.606v9.121c0 .704.58 1.273 1.295 1.273z" fill="#4285F4"/><path d="M17.182 19h3.022c.717 0 1.296-.57 1.296-1.273V8.606l-4.318 3.182" fill="#34A853"/><path d="M17.182 6.273v5.515L21.5 8.606V6.909c0-1.574-1.829-2.471-3.11-1.527" fill="#FBBC04"/><path d="M6.818 11.788V6.273L12 10.09l5.182-3.818v5.515L12 15.606" fill="#EA4335"/><path d="M2.5 6.909v1.697l4.318 3.182V6.273L5.61 5.382C4.327 4.438 2.5 5.335 2.5 6.909" fill="#C5221F"/></symbol><symbol id="24-google-color" viewBox="0 0 24 24"><path fill-rule="evenodd" clip-rule="evenodd" d="M22.08 12.239c0-.745-.067-1.46-.19-2.148H12v4.062h5.65a4.83 4.83 0 0 1-2.094 3.169v2.634h3.393c1.985-1.828 3.131-4.52 3.131-7.717z" fill="#4285F4"/><path fill-rule="evenodd" clip-rule="evenodd" d="M12 22.5c2.835 0 5.211-.94 6.949-2.544l-3.394-2.635c-.94.63-2.143 1.003-3.556 1.003-2.734 0-5.049-1.847-5.875-4.33H2.616v2.721A10.496 10.496 0 0 0 12 22.5z" fill="#34A853"/><path fill-rule="evenodd" clip-rule="evenodd" d="M6.125 13.995A6.312 6.312 0 0 1 5.795 12c0-.692.12-1.365.33-1.995v-2.72H2.617A10.496 10.496 0 0 0 1.5 12c0 1.694.406 3.298 1.117 4.715l3.508-2.72z" fill="#FBBC05"/><path fill-rule="evenodd" clip-rule="evenodd" d="M12 5.676c1.541 0 2.925.53 4.013 1.57l3.012-3.011C17.207 2.54 14.83 1.5 12 1.5a10.496 10.496 0 0 0-9.384 5.785l3.508 2.72C6.95 7.523 9.264 5.676 12 5.676z" fill="#EA4335"/></symbol><symbol id="24-heart-volume" viewBox="0 0 24 24"><path opacity=".4" fill-rule="evenodd" d="M15.218 6.835a.75.75 0 0 1 .936-.5c1.4.425 2.42 1.629 2.547 3.074a.75.75 0 1 1-1.494.132c-.072-.806-.646-1.514-1.489-1.77a.75.75 0 0 1-.5-.936z"/><path d="M6.066 2.57C2.121 3.778.35 7.9 1.682 11.836a12.689 12.689 0 0 0 3.212 4.874 37.268 37.268 0 0 0 6.476 4.791l.265.15a.75.75 0 0 0 .752-.005l.247-.146a37.237 37.237 0 0 0 6.466-4.784 12.683 12.683 0 0 0 3.213-4.863c1.338-3.95-.441-8.075-4.387-9.283l-.284-.08a7.335 7.335 0 0 0-5.592.782l-.054.033-.054-.033a7.326 7.326 0 0 0-5.876-.702zm5.494 2.242a.75.75 0 0 0 .87 0 5.823 5.823 0 0 1 5.058-.807c3.09.946 4.484 4.178 3.41 7.35a11.158 11.158 0 0 1-2.822 4.265l-.57.516a35.739 35.739 0 0 1-4.965 3.67l-.54.324.118.072a35.729 35.729 0 0 1-6.2-4.588 11.165 11.165 0 0 1-2.822-4.276c-1.069-3.158.32-6.388 3.408-7.333a5.813 5.813 0 0 1 5.055.807z"/></symbol><symbol id="24-insights-color" viewBox="0 0 24 24"><path d="M21 8c-1.45 0-2.26 1.44-1.93 2.51l-3.55 3.56c-.3-.09-.74-.09-1.04 0l-2.55-2.55C12.27 10.45 11.46 9 10 9c-1.45 0-2.27 1.44-1.93 2.52l-4.56 4.55C2.44 15.74 1 16.55 1 18c0 1.1.9 2 2 2 1.45 0 2.26-1.44 1.93-2.51l4.55-4.56c.3.09.74.09 1.04 0l2.55 2.55C12.73 16.55 13.54 18 15 18c1.45 0 2.27-1.44 1.93-2.52l3.56-3.55c1.07.33 2.51-.48 2.51-1.93 0-1.1-.9-2-2-2z" fill="url(#a)" fill-opacity=".87"/><path d="M15 9l.94-2.07L18 6l-2.06-.93L15 3l-.92 2.07L12 6l2.08.93L15 9z" fill="url(#b)" fill-opacity=".87"/><path d="M3.5 11L4 9l2-.5L4 8l-.5-2L3 8l-2 .5L3 9l.5 2z" fill="url(#c)" fill-opacity=".87"/></symbol><symbol id="24-insights" viewBox="0 0 24 24"><path d="M21 8c-1.45 0-2.26 1.44-1.93 2.51l-3.55 3.56c-.3-.09-.74-.09-1.04 0l-2.55-2.55C12.27 10.45 11.46 9 10 9c-1.45 0-2.27 1.44-1.93 2.52l-4.56 4.55C2.44 15.74 1 16.55 1 18c0 1.1.9 2 2 2 1.45 0 2.26-1.44 1.93-2.51l4.55-4.56c.3.09.74.09 1.04 0l2.55 2.55C12.73 16.55 13.54 18 15 18c1.45 0 2.27-1.44 1.93-2.52l3.56-3.55c1.07.33 2.51-.48 2.51-1.93 0-1.1-.9-2-2-2z"/><path d="M15 9l.94-2.07L18 6l-2.06-.93L15 3l-.92 2.07L12 6l2.08.93L15 9zM3.5 11L4 9l2-.5L4 8l-.5-2L3 8l-2 .5L3 9l.5 2z"/></symbol><symbol id="24-location" viewBox="0 0 24 24"><path d="M12 2C8.13 2 5 5.13 5 9c0 5.25 7 13 7 13s7-7.75 7-13c0-3.87-3.13-7-7-7zm0 9.5a2.5 2.5 0 0 1 0-5 2.5 2.5 0 0 1 0 5z"/></symbol><symbol id="24-lock" viewBox="0 0 24 24"><path d="M17.713 8.667h-.952V6.762A4.764 4.764 0 0 0 11.999 2a4.764 4.764 0 0 0-4.762 4.762v1.905h-.952A1.91 1.91 0 0 0 4.38 10.57v9.524A1.91 1.91 0 0 0 6.285 22h11.428a1.91 1.91 0 0 0 1.905-1.905v-9.524a1.91 1.91 0 0 0-1.905-1.904zM12 17.238a1.91 1.91 0 0 1-1.905-1.905A1.91 1.91 0 0 1 12 13.43a1.91 1.91 0 0 1 1.905 1.904 1.91 1.91 0 0 1-1.905 1.905zm2.952-8.571H9.047V6.762a2.955 2.955 0 0 1 2.952-2.952 2.955 2.955 0 0 1 2.952 2.952v1.905z"/></symbol><symbol id="24-picture" viewBox="0 0 24 24"><path d="M21 19V5c0-1.1-.9-2-2-2H5c-1.1 0-2 .9-2 2v14c0 1.1.9 2 2 2h14c1.1 0 2-.9 2-2zM8.5 13.5l2.5 3.01L14.5 12l4.5 6H5l3.5-4.5z"/></symbol><symbol id="24-report" viewBox="0 0 24 24"><path d="M15.73 3H8.27L3 8.27v7.46L8.27 21h7.46L21 15.73V8.27L15.73 3zM19 14.9L14.9 19H9.1L5 14.9V9.1L9.1 5h5.8L19 9.1v5.8z"/><path d="M13 7h-2v6h2V7zM12.953 15.137h-1.955v1.955h1.955v-1.954z"/><path d="M13 11.092h-2v2h2v-2z"/></symbol><symbol id="24-share" viewBox="0 0 24 24"><path d="M16 4l-1.42 1.42-1.59-1.59V15h-1.98V3.83L9.42 5.42 8 4l4-4 4 4zm4 5v11c0 1.1-.9 2-2 2H6a2 2 0 0 1-2-2V9c0-1.11.89-2 2-2h3v2H6v11h12V9h-3V7h3a2 2 0 0 1 2 2z"/></symbol><symbol id="24-staple-horizontal" viewBox="0 0 24 24"><path d="M3.148 11.997c-.003-1.948 1.557-3.532 3.481-3.532h4.5L11.125 6.3h-4.5c-3.105 0-5.62 2.552-5.614 5.697.006 3.145 2.53 5.697 5.636 5.697h4.5l-.005-2.165h-4.5c-1.923 0-3.49-1.584-3.494-3.532zm4.615 1.14h9l-.004-2.28h-9l.004 2.28zM17.875 6.3h-4.5l.004 2.165h4.5c1.924 0 3.49 1.584 3.494 3.532.004 1.948-1.557 3.532-3.48 3.532h-4.5l.004 2.165h4.5c3.105 0 5.62-2.552 5.614-5.697C23.505 8.852 20.98 6.3 17.875 6.3z"/></symbol><symbol id="24-tag" viewBox="0 0 24 24"><path d="M21.469 12.622l-8.1-8.1A1.789 1.789 0 0 0 12.1 4H5.8C4.81 4 4 4.81 4 5.8v6.3c0 .495.198.945.531 1.278l8.1 8.1c.324.324.774.522 1.269.522a1.76 1.76 0 0 0 1.269-.531l6.3-6.3A1.76 1.76 0 0 0 22 13.9c0-.495-.207-.954-.531-1.278zM7.15 8.5c-.747 0-1.35-.603-1.35-1.35 0-.747.603-1.35 1.35-1.35.747 0 1.35.603 1.35 1.35 0 .747-.603 1.35-1.35 1.35z"/></symbol><symbol id="24-ticket-star" viewBox="0 0 24 24"><path d="M3.5 17.024V14.98c1.287-.335 2.24-1.52 2.237-2.986a2.899 2.899 0 0 0-.925-2.029A2.907 2.907 0 0 0 3.5 9.26V7.142A2.647 2.647 0 0 1 6.144 4.5h11.717A2.645 2.645 0 0 1 20.5 7.146l-.001 2.045a2.996 2.996 0 0 0-2.239 2.894 2.996 2.996 0 0 0 2.24 2.893v2.048a2.646 2.646 0 0 1-2.643 2.64H6.141a2.626 2.626 0 0 1-1.868-.774 2.623 2.623 0 0 1-.773-1.867zm2.642 4.142h11.715A4.149 4.149 0 0 0 22 17.024v-2.7a.75.75 0 0 0-.75-.75 1.492 1.492 0 0 1-1.49-1.49c0-.82.669-1.487 1.49-1.487a.75.75 0 0 0 .75-.75v-2.7A4.148 4.148 0 0 0 17.856 3H6.144A4.15 4.15 0 0 0 2 7.143v2.79c0 .204.083.4.229.54.146.141.34.212.547.21a1.36 1.36 0 0 1 1.013.379c.276.258.436.606.45 1.024a1.49 1.49 0 0 1-1.489 1.489.75.75 0 0 0-.75.75v2.7c0 1.106.43 2.146 1.212 2.928a4.115 4.115 0 0 0 2.93 1.213zm4.47-9.289l-.508-.495.704-.102c.38-.055.708-.293.877-.637l.315-.639.315.638c.169.345.497.583.875.638l.705.102-.51.495a1.17 1.17 0 0 0-.335 1.032l.12.7-.625-.329a1.155 1.155 0 0 0-1.088-.002l-.63.332.12-.698a1.167 1.167 0 0 0-.334-1.035zm2.462 3.374a1.16 1.16 0 0 0 1.69-1.226l-.206-1.194.87-.848c.32-.312.433-.769.296-1.193a1.157 1.157 0 0 0-.94-.794l-1.202-.176-.538-1.088A1.157 1.157 0 0 0 12 8.082c-.448 0-.848.25-1.045.65l-.537 1.088-1.204.176a1.158 1.158 0 0 0-.94.794c-.136.425-.022.882.297 1.193l.869.846-.205 1.196c-.075.44.102.877.463 1.14.36.262.83.295 1.227.088L12 14.688l1.074.563z"/></symbol><symbol id="24-trending-down" viewBox="0 0 24 24"><path d="M16 18l2.29-2.29-4.88-4.88-4 4L2 7.41 3.41 6l6 6 4-4 6.3 6.29L22 12v6h-6z"/></symbol><symbol id="24-trending-same" viewBox="0 0 24 24"><path d="M22 14H2v-3h20v3z"/></symbol><symbol id="24-trending-up" viewBox="0 0 24 24"><path d="M16 6l2.29 2.29-4.88 4.88-4-4L2 16.59 3.41 18l6-6 4 4 6.3-6.29L22 12V6h-6z"/></symbol><symbol id="24-upload" viewBox="0 0 24 24"><path opacity=".4" d="M6.457 21.978a4.435 4.435 0 0 1-4.435-4.434v-4.875a4.435 4.435 0 0 1 4.435-4.435h.933a.75.75 0 1 1 0 1.5h-.933a2.935 2.935 0 0 0-2.935 2.935v4.875a2.935 2.935 0 0 0 2.935 2.934h11.13a2.935 2.935 0 0 0 2.934-2.934v-4.885a2.925 2.925 0 0 0-2.924-2.925h-.943a.75.75 0 0 1 0-1.5h.944a4.425 4.425 0 0 1 4.424 4.425v4.885a4.435 4.435 0 0 1-4.435 4.434H6.457z" fill="#333"/><path d="M8.575 4.59a.75.75 0 0 0 1.063 1.058l1.633-1.64v10.224a.75.75 0 0 0 1.5 0V4.007l1.635 1.641a.75.75 0 0 0 1.063-1.058l-2.902-2.914a.748.748 0 0 0-1.087-.004L8.575 4.59z"/></symbol><symbol id="24-video" viewBox="0 0 24 24"><path fill-rule="evenodd" clip-rule="evenodd" d="M6.076 5.753c.05-.002.332-.002.771-.002 1.348 0 4.167.004 6.233.007 1.494-.117 2.798.955 2.911 2.347a1691.3 1691.3 0 0 1 .007 7.465 2.486 2.486 0 0 1-.666 1.8 2.726 2.726 0 0 1-1.908.877c-.147.006-2.618.002-5.003-.002L6.41 18.24c-1.486.114-2.784-.945-2.898-2.33-.007-.238-.008-4.58-.008-7.473a2.489 2.489 0 0 1 .663-1.805 2.728 2.728 0 0 1 1.91-.88zM2.014 16.007c.174 2.125 2.018 3.745 4.132 3.744.106 0 .212-.004.318-.012l1.404.003c2.3.005 5.495.012 5.608.004a4.222 4.222 0 0 0 2.961-1.36 3.976 3.976 0 0 0 1.06-2.864v-.07l2.058 1.691a1.987 1.987 0 0 0 2.122.262 1.981 1.981 0 0 0 1.143-1.804l.012-7.349a1.982 1.982 0 0 0-1.142-1.807 1.983 1.983 0 0 0-2.122.259l-2.075 1.7a14.992 14.992 0 0 0-.005-.39c-.18-2.242-2.212-3.912-4.462-3.754l-1.116-.002c-2.31-.005-5.772-.012-5.89-.004A4.225 4.225 0 0 0 3.06 5.62a3.954 3.954 0 0 0-1.056 2.852c-.003 7.358.007 7.494.01 7.535zm15.483-5.67v3.174l3.01 2.473c.22.18.442.106.528.064a.482.482 0 0 0 .285-.449l.012-7.349a.483.483 0 0 0-.285-.45.487.487 0 0 0-.529.065l-3.021 2.473z"/></symbol><symbol id="24-write" viewBox="0 0 24 24"><path fill-rule="evenodd" clip-rule="evenodd" d="M9 14v-2.708l6.474-6.474 1.513-1.513 2.708 2.708-.57.57L11.708 14H9zM21.789 2.901a.72.72 0 0 1 0 1.018l-1.084 1.084-.238.238-2.285-2.286-.423-.422 1.322-1.322a.72.72 0 0 1 1.018 0l1.69 1.69zM19.139 17V9.397l2-2V17a4 4 0 0 1-4 4H7a4 4 0 0 1-4-4V6.818a4 4 0 0 1 4-4h7.646l-2 2H7a2 2 0 0 0-2 2V17a2 2 0 0 0 2 2h10.14a2 2 0 0 0 2-2z"/></symbol><symbol id="24" viewBox="0 0 16 16"><path fill-rule="evenodd" clip-rule="evenodd" d="M3.636 4.25H2.182V6.5H0V8h2.182v2.25h1.454V8h2.182V6.5H3.636V4.25zm1.5 6.817a2.426 2.426 0 0 0-.577.683 1.557 1.557 0 0 0-.195.75V14H16v-1.5c0-1.995-3.876-3-5.818-3-1.403 0-3.814.524-5.046 1.567zm2.182-5.536C7.561 6.935 8.75 8 10.182 8c1.607 0 2.909-1.343 2.909-3 0-1.658-1.302-3-2.91-3-1.606 0-2.908 1.342-2.908 3 0 .181.015.359.045.531zM14.5 12.5v-.002a.128.128 0 0 0-.01-.026.77.77 0 0 0-.16-.196c-.21-.2-.572-.426-1.084-.638C12.22 11.214 10.96 11 10.182 11c-.777 0-2.037.214-3.065.638-.511.212-.873.438-1.083.638a.77.77 0 0 0-.16.196.127.127 0 0 0-.01.025v.003H14.5zm-4.318-6c.736 0 1.409-.627 1.409-1.5s-.673-1.5-1.41-1.5c-.735 0-1.408.627-1.408 1.5s.673 1.5 1.409 1.5z"/></symbol><symbol id="25" viewBox="0 0 16 16"><path d="M9.75 6H1v3.5h14V6H9.75z"/></symbol><symbol id="26" viewBox="0 0 16 16"><path d="M7.579 0L2.947 7.2h9.264L7.579 0zm0 3.072L9.204 5.6H5.945L7.58 3.072zM12.21 8.8c-2.096 0-3.789 1.608-3.789 3.6s1.693 3.6 3.79 3.6C14.306 16 16 14.392 16 12.4s-1.693-3.6-3.79-3.6zm0 5.6c-1.162 0-2.105-.896-2.105-2s.943-2 2.105-2c1.163 0 2.106.896 2.106 2s-.943 2-2.106 2zM0 15.6h6.737V9.2H0v6.4zm1.684-4.8h3.369V14H1.684v-3.2zM11.67.941v1.435h4.303V.94h-4.302z"/></symbol><symbol id="27" viewBox="0 0 16 16"><path d="M8 3.5C4.364 3.5 1.258 5.78 0 9c1.258 3.22 4.364 5.5 8 5.5s6.742-2.28 8-5.5c-1.258-3.22-4.364-5.5-8-5.5zm0 9.167c-2.007 0-3.636-1.643-3.636-3.667S5.993 5.333 8 5.333 11.636 6.976 11.636 9 10.007 12.667 8 12.667zM8 6.8A2.188 2.188 0 0 0 5.818 9c0 1.217.975 2.2 2.182 2.2A2.188 2.188 0 0 0 10.182 9c0-1.217-.975-2.2-2.182-2.2zM11.4 1.5v1.524h4.571V1.5H11.4z"/></symbol><symbol id="28-media-facebook" viewBox="0 0 28 28"><path d="M13.987 0C6.271 0 0 6.271 0 14.013 0 21.729 6.271 28 13.987 28 21.73 28 28 21.729 28 14.013 28 6.27 21.729 0 13.987 0zm3.716 13.935h-2.426v8.671H11.69v-8.67H9.987V10.89h1.703V8.903c0-1.42.671-3.613 3.613-3.613h2.684v2.968h-1.935c-.336 0-.775.155-.775.826v1.806h2.736l-.31 3.045z"/></symbol><symbol id="28-media-instagram" viewBox="0 0 28 28"><path d="M13.883 16.62a2.49 2.49 0 0 0 2.504-2.504 2.49 2.49 0 0 0-2.504-2.503 2.49 2.49 0 0 0-2.503 2.503 2.49 2.49 0 0 0 2.503 2.503zm3.123-8.646h-6.245c-.929 0-1.729.284-2.22.774-.515.517-.8 1.317-.8 2.245v6.246c0 .929.285 1.729.852 2.296.568.49 1.316.8 2.22.8h6.193c.929 0 1.729-.31 2.245-.8.568-.516.852-1.316.852-2.219v-6.27c0-.93-.284-1.652-.8-2.22-.568-.568-1.316-.852-2.297-.852zm-3.123 10.013a3.866 3.866 0 0 1-3.87-3.87 3.866 3.866 0 0 1 3.87-3.872c2.117 0 3.923 1.703 3.923 3.871s-1.755 3.871-3.923 3.871zm4.052-6.993a.925.925 0 0 1-.929-.93c0-.516.413-.903.929-.903s.903.387.903.904c0 .516-.387.928-.903.928zM13.987 0C6.245 0 0 6.245 0 14.013A13.965 13.965 0 0 0 13.987 28c7.767 0 14.012-6.245 14.012-13.987C28.077 6.245 21.754 0 13.987 0zm6.219 20.542c-.8.8-1.936 1.213-3.2 1.213h-6.193c-1.265 0-2.4-.413-3.2-1.213-.852-.8-1.239-1.936-1.239-3.226v-6.27c0-2.633 1.755-4.44 4.439-4.44h6.27c1.29 0 2.375.44 3.175 1.24.8.8 1.212 1.883 1.212 3.2v6.27c0 1.29-.464 2.426-1.264 3.226z"/></symbol><symbol id="28-media-link" viewBox="0 0 28 28"><path fill-rule="evenodd" clip-rule="evenodd" d="M14 28c7.732 0 14-6.268 14-14S21.732 0 14 0 0 6.268 0 14s6.268 14 14 14zM9.103 15.025c-1.013 1.013-1.061 2.61-.108 3.564.953.953 2.55.904 3.563-.108l2.368-2.369 1.06 1.06-2.37 2.368c-1.633 1.634-4.208 1.712-5.746.174-1.538-1.538-1.46-4.113.174-5.747l2.368-2.369 1.06 1.059-2.37 2.368zm7.614-3.044l-4.737 4.737-1.115-1.114 4.737-4.737 1.115 1.114zm-5.12-1.567l2.368-2.369c1.634-1.634 4.209-1.712 5.747-.174 1.538 1.538 1.46 4.113-.174 5.747l-2.369 2.369-1.058-1.059 2.368-2.369c1.013-1.012 1.061-2.61.108-3.563-.953-.953-2.55-.904-3.563.108l-2.369 2.369-1.058-1.06z"/></symbol><symbol id="28-media-spotify" viewBox="0 0 28 28"><path d="M13.987 0C6.271 0 0 6.271 0 14.013 0 21.729 6.271 28 13.987 28 21.73 28 28 21.729 28 14.013 28 6.27 21.729 0 13.987 0zm5.703 20.62c-.232 0-.387-.078-.593-.207-2.039-1.239-4.568-1.884-7.252-1.884-1.497 0-3.02.206-4.413.49-.232.052-.542.13-.697.13a.876.876 0 0 1-.903-.878c0-.594.362-.878.774-.955 1.73-.387 3.459-.62 5.24-.62 3.07 0 5.806.697 8.154 2.117.361.206.568.413.568.929 0 .49-.413.877-.878.877zm1.523-3.717c-.31 0-.49-.129-.697-.232-2.297-1.368-5.445-2.271-8.903-2.271-1.78 0-3.303.258-4.568.593-.284.078-.439.155-.697.155a1.09 1.09 0 0 1-1.083-1.083c0-.62.283-1.007.877-1.188 1.574-.438 3.174-.748 5.522-.748 3.665 0 7.2.903 9.988 2.58.49.259.645.594.645 1.11a1.09 1.09 0 0 1-1.084 1.084zm1.729-4.31c-.284 0-.439-.077-.723-.206-2.529-1.523-6.451-2.374-10.27-2.374-1.91 0-3.82.206-5.6.67-.207.053-.465.156-.723.156-.749 0-1.316-.594-1.316-1.342 0-.749.464-1.187.98-1.342 1.987-.568 4.233-.852 6.658-.852 4.104 0 8.44.852 11.613 2.71.413.232.697.594.697 1.264 0 .775-.593 1.317-1.316 1.317z"/></symbol><symbol id="28-media-twitter" viewBox="0 0 28 28"><path d="M13.987 0C6.271 0 0 6.271 0 14.013 0 21.729 6.271 28 13.987 28 21.73 28 28 21.729 28 14.013 28 6.27 21.729 0 13.987 0zm7.071 11.174v.465c0 4.67-3.535 10.038-10.039 10.038-1.987 0-3.845-.593-5.419-1.574.284.026.568.052.852.052a7.067 7.067 0 0 0 4.387-1.523C9.29 18.606 8 17.574 7.535 16.181c.207.051.44.051.671.051.31 0 .62-.026.93-.103a3.546 3.546 0 0 1-2.84-3.484v-.026a3.8 3.8 0 0 0 1.6.44 3.552 3.552 0 0 1-1.573-2.943c0-.645.18-1.264.49-1.78a9.995 9.995 0 0 0 7.277 3.69 2.723 2.723 0 0 1-.103-.8 3.54 3.54 0 0 1 3.536-3.536c1.006 0 1.935.439 2.58 1.11a6.969 6.969 0 0 0 2.245-.852A3.557 3.557 0 0 1 20.8 9.91c.697-.104 1.393-.284 2.013-.568a6.596 6.596 0 0 1-1.755 1.832z"/></symbol><symbol id="28-media-youtube" viewBox="0 0 28 28"><path d="M8.026 15.174h1.006v5.058h.98v-5.058h1.007v-.851H8.026v.851zm6.013-4.18c.129 0 .232-.026.31-.104a.427.427 0 0 0 .128-.31V7.975a.318.318 0 0 0-.129-.258c-.077-.077-.18-.103-.31-.103-.128 0-.206.026-.283.103a.318.318 0 0 0-.13.258v2.607c0 .129.052.232.104.31.078.077.18.103.31.103zm2.167 4.825a.758.758 0 0 0-.412.104c-.13.077-.258.18-.362.31v-1.91h-.877v5.91h.877v-.336a.93.93 0 0 0 .361.284c.13.077.284.103.465.103.258 0 .439-.078.594-.258.129-.155.206-.387.206-.697v-2.426c0-.361-.077-.62-.232-.8-.155-.206-.361-.284-.62-.284zm-.051 3.381c0 .155-.026.232-.078.31-.051.051-.129.077-.232.077-.077 0-.155 0-.206-.052a.562.562 0 0 1-.207-.128V16.67c.052-.052.104-.103.18-.13.053-.025.104-.025.181-.025.104 0 .207.026.259.103.077.078.103.181.103.336V19.2zm-3.123-.026c-.103.103-.18.18-.284.233-.103.051-.18.103-.232.103-.077 0-.155-.026-.18-.078-.052-.051-.052-.129-.052-.232v-3.329h-.878v3.639c0 .258.052.438.155.593.104.13.258.18.465.18.155 0 .31-.05.49-.128a2.41 2.41 0 0 0 .516-.413v.49h.852v-4.361h-.852v3.303zM13.987 0C6.271 0 0 6.271 0 14.013 0 21.729 6.271 28 13.987 28 21.73 28 28 21.729 28 14.013 28 6.27 21.729 0 13.987 0zm3.252 6.916v3.665c0 .129.026.206.077.258.026.051.103.077.18.077.078 0 .181-.052.285-.103.103-.078.206-.155.284-.258V6.916h.98v4.774h-.98v-.516c-.155.207-.362.336-.542.439a1.256 1.256 0 0 1-.568.155c-.232 0-.413-.078-.516-.207-.13-.155-.18-.361-.18-.645v-4h.98zM12.619 8c0-.361.13-.671.413-.877.258-.233.62-.336 1.058-.336.387 0 .723.13.981.361.258.207.387.517.387.878v2.477c0 .413-.129.749-.361.98-.258.233-.62.336-1.058.336-.439 0-.774-.129-1.032-.36-.259-.233-.388-.569-.388-.982V8zM9.961 5.213l.723 2.58h.052l.696-2.58h1.11l-1.29 3.793v2.684h-1.084V9.135L8.852 5.213h1.11zM22.787 18.89c0 1.73-1.42 3.123-3.148 3.123H8.723A3.117 3.117 0 0 1 5.6 18.89v-2.529c0-1.729 1.394-3.148 3.123-3.148h10.916a3.161 3.161 0 0 1 3.148 3.148v2.53zm-3.974-3.122c-.387 0-.697.103-.93.361a1.171 1.171 0 0 0-.386.903v1.962c0 .413.129.748.335.98.232.258.542.361.93.361.438 0 .748-.103.98-.335.206-.232.31-.568.31-1.006v-.233h-.878v.207c0 .258-.026.413-.103.49-.052.078-.155.13-.284.13a.387.387 0 0 1-.31-.13c-.051-.103-.077-.258-.077-.49v-.826h1.652v-1.11c0-.413-.104-.722-.31-.929-.207-.232-.516-.335-.93-.335zM18.4 17.47v-.439c0-.18.026-.31.077-.387a.427.427 0 0 1 .31-.129c.13 0 .232.052.284.13.077.077.103.206.103.386v.439H18.4z"/></symbol><symbol id="28" viewBox="0 0 16 16"><path fill-rule="evenodd" clip-rule="evenodd" d="M7.643 5.048a1.547 1.547 0 1 0-3.095 0 1.547 1.547 0 1 0 3.095 0zm3.786 3.047V6.571H16v1.524h-4.571zM0 14.19v-1.523c0-2.027 4.061-3.048 6.095-3.048 2.035 0 6.096 1.021 6.096 3.048v1.524H0zm10.69-1.5v-.022a.148.148 0 0 0-.01-.024.814.814 0 0 0-.173-.206c-.228-.21-.616-.445-1.16-.663-1.088-.436-2.422-.656-3.252-.656-.83 0-2.164.22-3.252.656-.544.218-.931.452-1.16.663a.815.815 0 0 0-.173.206.14.14 0 0 0-.01.024v.023h9.19zM6.096 2a3.047 3.047 0 1 1 0 6.095 3.047 3.047 0 1 1 0-6.095z"/></symbol><symbol id="3" viewBox="0 0 16 16"><path d="M16 6.097l-5.752-.522L8 0 5.752 5.583 0 6.097l4.368 3.983L3.056 16 8 12.859 12.944 16l-1.304-5.92L16 6.097zm-8 5.187l-3.008 1.912.8-3.604-2.656-2.426 3.504-.32L8 3.453l1.368 3.402 3.504.32L10.216 9.6l.8 3.604L8 11.284z"/></symbol><symbol id="30-check" viewBox="0 0 30 30"><circle cx="15" cy="15" r="15" fill="#9AC796"/><path d="M12.45 18.679l-3.32-3.42L8 16.414 12.45 21 22 11.157 20.878 10l-8.429 8.679z" fill="#fff"/></symbol><symbol id="30-none" viewBox="0 0 30 30"><path d="M0 15C0 6.716 6.716 0 15 0c8.284 0 15 6.716 15 15 0 8.284-6.716 15-15 15-8.284 0-15-6.716-15-15z" fill="#E7E7E7"/><path d="M11 14.2v1.6h8v-1.6h-8zM15 7c-4.416 0-8 3.584-8 8s3.584 8 8 8 8-3.584 8-8-3.584-8-8-8zm0 14.4A6.408 6.408 0 0 1 8.6 15c0-3.528 2.872-6.4 6.4-6.4 3.528 0 6.4 2.872 6.4 6.4 0 3.528-2.872 6.4-6.4 6.4z" fill="#757575"/></symbol><symbol id="32-add-rounded" viewBox="0 0 32 32"><path fill-rule="evenodd" clip-rule="evenodd" d="M15.977 30.7c8.134 0 14.728-6.593 14.728-14.725S24.11 1.25 15.977 1.25C7.844 1.25 1.25 7.843 1.25 15.975S7.844 30.7 15.977 30.7zm0 1c8.686 0 15.728-7.04 15.728-15.725C31.705 7.29 24.663.25 15.977.25S.25 7.29.25 15.975C.25 24.66 7.291 31.7 15.977 31.7z"/><path fill-rule="evenodd" clip-rule="evenodd" d="M23.666 17.324v-2.203h-6.371V8.75h-2.204v6.37H8.75v2.204h6.341v6.342h2.204v-6.342h6.37z"/></symbol><symbol id="32-back-rounded" viewBox="0 0 32 32"><path d="M24.25 15.25H12.08l5.59-5.59-1.42-1.41-8 8 8 8 1.41-1.41-5.58-5.59h12.17v-2z"/><path fill-rule="evenodd" clip-rule="evenodd" d="M15.977 30.792c8.131 0 14.728-6.61 14.728-14.77 0-8.161-6.597-14.772-14.728-14.772-8.13 0-14.727 6.61-14.727 14.771 0 8.16 6.596 14.771 14.727 14.771zm0 1c8.686 0 15.728-7.06 15.728-15.77C31.705 7.31 24.663.25 15.977.25S.25 7.311.25 16.021s7.041 15.771 15.727 15.771z"/></symbol><symbol id="32-bell" viewBox="0 0 32 32"><path d="M15.743 29.399c1.443 0 2.623-1.203 2.623-2.672H13.12c0 1.47 1.167 2.672 2.624 2.672zm7.87-8.015v-6.68c0-4.1-2.15-7.533-5.903-8.442v-.908c0-1.109-.879-2.004-1.967-2.004-1.09 0-1.968.895-1.968 2.004v.908c-3.765.909-5.904 4.328-5.904 8.443v6.679l-2.623 2.671v1.336h20.99v-1.336l-2.624-2.671z"/></symbol><symbol id="32-crowd-full" viewBox="0 0 32 32"><path d="M21.636 14.571c2.34 0 4.213-1.914 4.213-4.285C25.85 7.914 23.976 6 21.636 6c-2.339 0-4.227 1.914-4.227 4.286 0 2.371 1.888 4.285 4.227 4.285zm-11.272 0c2.339 0 4.213-1.914 4.213-4.285C14.577 7.914 12.703 6 10.364 6c-2.34 0-4.228 1.914-4.228 4.286 0 2.371 1.889 4.285 4.228 4.285zm0 2.858C7.08 17.429.5 19.1.5 22.429V26h19.727v-3.571c0-3.329-6.58-5-9.863-5zm11.272 0c-.408 0-.873.028-1.366.071 1.634 1.2 2.776 2.814 2.776 4.929V26H31.5v-3.571c0-3.329-6.58-5-9.864-5z"/></symbol><symbol id="32-crowd" viewBox="0 0 32 32"><path d="M20.727 15.286c1.962 0 3.534-1.628 3.534-3.643C24.261 9.626 22.689 8 20.727 8c-1.96 0-3.545 1.626-3.545 3.643 0 2.015 1.584 3.643 3.546 3.643zm-9.454 0c1.962 0 3.534-1.628 3.534-3.643C14.807 9.626 13.235 8 11.273 8 9.31 8 7.727 9.626 7.727 11.643c0 2.015 1.584 3.643 3.546 3.643zm0 2.428C8.519 17.714 3 19.135 3 21.964V25h16.546v-3.035c0-2.83-5.519-4.251-8.273-4.251zm9.454 0c-.342 0-.733.025-1.146.062 1.371 1.02 2.328 2.392 2.328 4.189V25H29v-3.035c0-2.83-5.519-4.251-8.273-4.251z"/></symbol><symbol id="32-envelope" viewBox="0 0 32 32"><path d="M26.71 6.3H5.296c-1.473 0-2.664 1.09-2.664 2.422l-.013 14.53c0 1.331 1.204 2.421 2.677 2.421h21.412c1.473 0 2.677-1.09 2.677-2.422V8.721c0-1.331-1.204-2.421-2.677-2.421zm0 4.843l-10.707 6.054-10.706-6.054V8.722l10.706 6.054 10.706-6.054v2.421z"/></symbol><symbol id="32-folder-person" viewBox="0 0 32 32"><path d="M28.4 6.6H16l-3.1-3.1H3.6C1.895 3.5.515 4.895.515 6.6L.5 25.2a3.11 3.11 0 0 0 3.1 3.1h24.8a3.11 3.11 0 0 0 3.1-3.1V9.7a3.11 3.11 0 0 0-3.1-3.1zm-7.75 4.65a3.11 3.11 0 0 1 3.1 3.1 3.11 3.11 0 0 1-3.1 3.1 3.11 3.11 0 0 1-3.1-3.1 3.11 3.11 0 0 1 3.1-3.1zm6.2 12.4h-12.4V22.1c0-2.062 4.139-3.1 6.2-3.1 2.062 0 6.2 1.038 6.2 3.1v1.55z"/></symbol><symbol id="32-house" viewBox="0 0 32 32"><path d="M13.2 28v-8.118h5.6V28h7V17.177H30L16 5 2 17.177h4.2V28h7z"/></symbol><symbol id="32-long-arrow-left" viewBox="0 0 32 32"><path fill="#fff" d="M0 0h32v32H0z"/><path fill-rule="evenodd" clip-rule="evenodd" d="M6.328 12.466l-3.182 3.182a.5.5 0 0 0 0 .707l3.182 3.183a.5.5 0 1 0 .708-.708l-2.329-2.328H28.5v-1H4.707l2.329-2.328a.5.5 0 0 0-.708-.708z" fill="#000"/></symbol><symbol id="32-more" viewBox="0 0 32 32"><path d="M14 25c0 1.1.9 2 2 2s2-.9 2-2-.9-2-2-2-2 .9-2 2zm0-18c0 1.1.9 2 2 2s2-.9 2-2-.9-2-2-2-2 .9-2 2zm0 9c0 1.1.9 2 2 2s2-.9 2-2-.9-2-2-2-2 .9-2 2z"/></symbol><symbol id="32-pause-circle" viewBox="0 0 32 32"><path d="M16 2.667C8.64 2.667 2.667 8.64 2.667 16S8.64 29.333 16 29.333 29.333 23.36 29.333 16 23.36 2.667 16 2.667zm-1.333 18.666H12V10.667h2.667v10.666zm5.333 0h-2.667V10.667H20v10.666z" fill="#000"/></symbol><symbol id="32-pencil" viewBox="0 0 32 32"><path d="M5 22.417V27h4.583l13.516-13.516-4.583-4.583L5 22.417zM26.642 9.94a1.217 1.217 0 0 0 0-1.723l-2.86-2.86a1.217 1.217 0 0 0-1.722 0l-2.236 2.237 4.582 4.583 2.236-2.237z"/></symbol><symbol id="32-play-circle" viewBox="0 0 32 32"><path d="M16 2.667C8.64 2.667 2.667 8.64 2.667 16S8.64 29.333 16 29.333 29.333 23.36 29.333 16 23.36 2.667 16 2.667zM22 16l-9 5.333V10.667L22 16z" fill="#000"/></symbol><symbol id="32-play" viewBox="0 0 32 32"><path d="M29.125 16L9.437 27.367V4.633L29.125 16z"/></symbol><symbol id="32-staple" viewBox="0 0 32 32"><path d="M5.337 26.641c-2.119-2.114-2.011-5.66.24-7.906l5.266-5.255-2.354-2.35-5.266 5.255c-3.634 3.627-3.807 9.34-.387 12.753 3.42 3.412 9.144 3.24 12.778-.387l5.266-5.255-2.354-2.35-5.267 5.256c-2.25 2.246-5.803 2.354-7.922.24zm6.637-4.15l10.532-10.51-2.478-2.474-10.532 10.51 2.478 2.474zm4.414-19.244l-5.266 5.255 2.354 2.35 5.266-5.255c2.252-2.247 5.804-2.355 7.923-.24 2.119 2.114 2.011 5.66-.24 7.906l-5.266 5.256 2.354 2.35 5.266-5.256c3.634-3.627 3.807-9.34.387-12.752-3.42-3.413-9.144-3.24-12.778.386z"/></symbol><symbol id="4" viewBox="0 0 16 16"><path d="M8 0C3.584 0 0 3.584 0 8s3.584 8 8 8 8-3.584 8-8-3.584-8-8-8zm0 2.4c1.328 0 2.4 1.072 2.4 2.4 0 1.328-1.072 2.4-2.4 2.4a2.397 2.397 0 0 1-2.4-2.4c0-1.328 1.072-2.4 2.4-2.4zm0 11.36a5.76 5.76 0 0 1-4.8-2.576C3.224 9.592 6.4 8.72 8 8.72c1.592 0 4.776.872 4.8 2.464A5.76 5.76 0 0 1 8 13.76z"/></symbol><symbol id="48-vawe" viewBox="0 0 48 48"><path fill-rule="evenodd" clip-rule="evenodd" d="M15.5 48V0h2v48h-2zm15 0V10h2v38h-2zm14-22v22h2V26h-2zm-21 22V0h2v48h-2zm14-38v38h2V10h-2zm-29 38V26h2v22h-2zm-7-30v30h2V18h-2z"/></symbol><symbol id="5" viewBox="0 0 16 16"><path d="M9.143 5.048a3.047 3.047 0 1 0-6.095 0 3.047 3.047 0 1 0 6.095 0zm2.286 1.523v1.524H16V6.571h-4.571zM0 12.667v1.524h12.19v-1.524c0-2.027-4.06-3.048-6.095-3.048C4.061 9.62 0 10.64 0 12.667z"/></symbol><symbol id="7" viewBox="0 0 16 16"><path d="M11.25 2.91l-1.154 1.032-1.292-1.157v8.124H7.196V2.785L5.904 3.942 4.75 2.909 8 0l3.25 2.91zm3.25 3.635v8c0 .8-.731 1.455-1.625 1.455h-9.75c-.902 0-1.625-.655-1.625-1.454v-8c0-.808.723-1.455 1.625-1.455h2.438v1.454H3.124v8h9.75v-8h-2.438V5.091h2.438c.894 0 1.625.647 1.625 1.454z"/></symbol><symbol id="8" viewBox="0 0 16 16"><path d="M8 2.5c-3.636 0-6.742 2.322-8 5.6 1.258 3.278 4.364 5.6 8 5.6s6.742-2.322 8-5.6c-1.258-3.278-4.364-5.6-8-5.6zm0 9.333c-2.007 0-3.636-1.672-3.636-3.733 0-2.06 1.629-3.733 3.636-3.733s3.636 1.672 3.636 3.733c0 2.06-1.629 3.733-3.636 3.733zM8 5.86c-1.207 0-2.182 1-2.182 2.24 0 1.24.975 2.24 2.182 2.24 1.207 0 2.182-1 2.182-2.24 0-1.24-.975-2.24-2.182-2.24z"/></symbol><symbol id="9" viewBox="0 0 16 16"><path d="M10.182 8c1.607 0 2.909-1.343 2.909-3 0-1.658-1.302-3-2.91-3-1.606 0-2.908 1.342-2.908 3 0 1.657 1.302 3 2.909 3zM3.636 6.5V4.25H2.182V6.5H0V8h2.182v2.25h1.454V8h2.182V6.5H3.636zm6.546 3c-1.942 0-5.818 1.005-5.818 3V14H16v-1.5c0-1.995-3.876-3-5.818-3z"/></symbol><symbol id="close-square" viewBox="0 0 16 16"><path d="M2.088 2.206C2.812 1.43 3.838 1 5.04 1h5.92c1.203 0 2.23.43 2.954 1.206.719.772 1.086 1.83 1.086 3.005v5.578c0 1.175-.367 2.233-1.086 3.005C13.191 14.57 12.163 15 10.96 15H5.04c-1.203 0-2.23-.43-2.954-1.206C1.367 13.022 1 11.964 1 10.789V5.211c0-1.175.37-2.234 1.088-3.005z"/><path fill="#333" d="M1.508 1.635C2.302.782 3.43.31 4.749.31h6.502c1.321 0 2.45.472 3.244 1.325.79.847 1.193 2.01 1.193 3.3v6.125c0 1.29-.404 2.453-1.193 3.3-.794.853-1.923 1.325-3.245 1.325h-6.5c-1.322 0-2.45-.472-3.245-1.325-.789-.847-1.192-2.01-1.192-3.3V4.934c0-1.29.405-2.453 1.195-3.3zm1.097 1.022c-.487.523-.792 1.298-.792 2.277v6.126c0 .98.303 1.756.79 2.278.48.517 1.195.847 2.146.847h6.501c.951 0 1.667-.33 2.148-.847.486-.523.79-1.297.79-2.277V4.933c0-.98-.304-1.754-.79-2.277-.481-.516-1.196-.847-2.147-.847H4.749c-.947 0-1.662.33-2.144.847z"/><path fill="currentColor" d="M6.731 5.66a.75.75 0 1 0-1.06 1.06L6.938 7.99 5.672 9.255a.75.75 0 0 0 1.061 1.06L7.999 9.05l1.268 1.268a.75.75 0 1 0 1.061-1.06L9.06 7.988l1.267-1.267a.75.75 0 0 0-1.06-1.06L7.998 6.927 6.731 5.66z"/></symbol><symbol id="crowd-pushed" viewBox="0 0 20 20"><path d="M13.636 9.143c1.51 0 2.719-1.149 2.719-2.572C16.355 5.15 15.145 4 13.636 4S10.91 5.149 10.91 6.571c0 1.423 1.218 2.572 2.727 2.572zm-7.272 0c1.509 0 2.718-1.149 2.718-2.572C9.082 5.15 7.872 4 6.364 4c-1.51 0-2.728 1.149-2.728 2.571 0 1.423 1.219 2.572 2.728 2.572zm0 1.714c-2.119 0-6.364 1.003-6.364 3V16h12.727v-2.143c0-1.997-4.245-3-6.363-3zm7.272 0c-.263 0-.563.017-.881.043 1.054.72 1.79 1.689 1.79 2.957V16H20v-2.143c0-1.997-4.245-3-6.364-3z"/></symbol><symbol id="eye-almost-full" viewBox="0 0 20 20"><path d="M10 4.464c-4.167 0-7.725 2.592-9.167 6.25 1.442 3.659 5 6.25 9.167 6.25s7.725-2.591 9.167-6.25c-1.442-3.658-5-6.25-9.167-6.25zm0 10.417a4.168 4.168 0 0 1-4.167-4.167c0-2.3 1.867-4.166 4.167-4.166s4.167 1.866 4.167 4.166c0 2.3-1.867 4.167-4.167 4.167zm0-6.667a2.497 2.497 0 0 0-2.5 2.5c0 1.384 1.117 2.5 2.5 2.5s2.5-1.116 2.5-2.5c0-1.383-1.117-2.5-2.5-2.5z"/></symbol><symbol id="filter" viewBox="0 0 16 16"><path fill-rule="evenodd" clip-rule="evenodd" d="M.167 1.992c0-.987.78-1.825 1.791-1.825h12.084c1.011 0 1.791.838 1.791 1.825v1.177c0 .482-.186.95-.528 1.296h-.001l-5.088 5.16v3.866a.75.75 0 0 1-.43.678l-3.384 1.593a.75.75 0 0 1-1.07-.679V9.607l-4.69-5.17v-.001a1.843 1.843 0 0 1-.475-1.24V1.992zm1.791-.325c-.139 0-.291.122-.291.325v1.204c0 .091.033.173.086.231l4.885 5.387a.75.75 0 0 1 .195.504V13.9l1.883-.886V9.318a.75.75 0 0 1 .216-.527l5.305-5.38.002-.002a.34.34 0 0 0 .094-.24V1.992c0-.203-.152-.325-.291-.325H1.958z"/></symbol><symbol id="google-color" viewBox="0 0 51 17"><path fill="#fff" d="M0 0h51v17H0z"/><path d="M21.703 8.718c0 2.36-1.873 4.099-4.172 4.099-2.298 0-4.172-1.74-4.172-4.099 0-2.376 1.874-4.098 4.172-4.098 2.3 0 4.172 1.722 4.172 4.098zm-1.826 0c0-1.474-1.086-2.483-2.346-2.483s-2.345 1.009-2.345 2.483c0 1.46 1.085 2.484 2.345 2.484 1.26 0 2.346-1.026 2.346-2.484zM30.703 8.718c0 2.36-1.873 4.099-4.172 4.099-2.299 0-4.172-1.74-4.172-4.099 0-2.374 1.873-4.098 4.172-4.098 2.299 0 4.172 1.722 4.172 4.098zm-1.826 0c0-1.474-1.086-2.483-2.346-2.483s-2.345 1.009-2.345 2.483c0 1.46 1.085 2.484 2.345 2.484 1.26 0 2.346-1.026 2.346-2.484zM39.328 4.867v7.358c0 3.027-1.811 4.263-3.952 4.263-2.016 0-3.23-1.328-3.687-2.415l1.59-.652c.283.667.977 1.454 2.095 1.454 1.37 0 2.22-.833 2.22-2.402v-.59h-.064c-.409.498-1.196.932-2.19.932-2.08 0-3.984-1.785-3.984-4.082 0-2.314 1.905-4.113 3.984-4.113.992 0 1.78.434 2.19.916h.064V4.87h1.734v-.002zm-1.605 3.866c0-1.443-.977-2.498-2.22-2.498-1.26 0-2.316 1.055-2.316 2.498 0 1.428 1.056 2.469 2.316 2.469 1.243 0 2.22-1.04 2.22-2.47zM42.188.554v12.011h-1.782V.555h1.782zM49.129 10.067l1.417.931c-.457.667-1.56 1.817-3.465 1.817-2.362 0-4.127-1.8-4.127-4.099 0-2.437 1.78-4.098 3.923-4.098 2.158 0 3.214 1.692 3.559 2.607l.189.466-5.56 2.269c.426.822 1.088 1.241 2.016 1.241.93 0 1.575-.45 2.048-1.134zm-4.363-1.475l3.716-1.52c-.204-.512-.82-.869-1.543-.869-.928 0-2.22.808-2.173 2.39zM6.617 7.652V5.913h5.945c.059.303.088.662.088 1.05 0 1.304-.361 2.917-1.528 4.067-1.134 1.164-2.583 1.785-4.503 1.785-3.56 0-6.552-2.857-6.552-6.364C.067 2.944 3.06.087 6.62.087c1.968 0 3.37.761 4.425 1.753L9.799 3.067a4.532 4.532 0 0 0-3.182-1.241A4.598 4.598 0 0 0 1.986 6.45a4.598 4.598 0 0 0 4.63 4.625c1.686 0 2.646-.667 3.261-1.273.5-.492.827-1.194.957-2.153l-4.217.002z" fill="gray"/></symbol><symbol id="play-shifted" viewBox="0 0 20 20"><path d="M18.5 9.134a1 1 0 0 1 0 1.732l-12 6.928a1 1 0 0 1-1.5-.866V3.072a1 1 0 0 1 1.5-.866l12 6.928z"/></symbol><symbol id="review-icon" viewBox="0 0 25 20"><path d="M19.5 20c-1.533 0-2.833-.55-3.9-1.65-1.067-1.166-1.6-2.719-1.6-4.66 0-2.784.433-5.05 1.3-6.797.867-1.812 1.833-3.236 2.9-4.272C19.4 1.456 20.833.583 22.5 0l1 1.553a13.6 13.6 0 0 0-3 1.845 14.744 14.744 0 0 0-2.1 2.33c-.6.842-.9 1.877-.9 3.107 0 .453.067.809.2 1.068.067.194.167.323.3.388.133-.065.333-.13.6-.194l.6-.194a3.38 3.38 0 0 1 .8-.097c1.533 0 2.733.453 3.6 1.36.933.84 1.4 2.005 1.4 3.494 0 1.489-.533 2.751-1.6 3.787C22.333 19.482 21.033 20 19.5 20zm-14 0c-1.533 0-2.833-.55-3.9-1.65C.533 17.183 0 15.63 0 13.69c0-2.784.433-5.05 1.3-6.797.867-1.812 1.833-3.236 2.9-4.272C5.4 1.456 6.833.583 8.5 0l1 1.553a13.599 13.599 0 0 0-3 1.845 14.741 14.741 0 0 0-2.1 2.33c-.6.842-.9 1.877-.9 3.107 0 .453.067.809.2 1.068.067.194.167.323.3.388.133-.065.333-.13.6-.194l.6-.194a3.38 3.38 0 0 1 .8-.097c1.533 0 2.733.453 3.6 1.36.933.84 1.4 2.005 1.4 3.494 0 1.489-.533 2.751-1.6 3.787C8.333 19.482 7.033 20 5.5 20z"/></symbol><symbol id="round-check" viewBox="0 0 16 16"><path fill-rule="evenodd" clip-rule="evenodd" d="M8 16A8 8 0 1 0 8 0a8 8 0 0 0 0 16zM4.106 8.27l2.21 2.112 5.58-5.33.736.705-3.158 3.016-3.158 3.017L3.37 8.974l.737-.704z"/></symbol><symbol id="round-cross" viewBox="0 0 16 16"><path d="M8 0C3.576 0 0 3.576 0 8c0 4.424 3.576 8 8 8 4.424 0 8-3.576 8-8 0-4.424-3.576-8-8-8zm4 10.872L10.872 12 8 9.128 5.128 12 4 10.872 6.872 8 4 5.128 5.128 4 8 6.872 10.872 4 12 5.128 9.128 8 12 10.872z"/></symbol><symbol id="round-info" viewBox="0 0 16 16"><path d="M8 0C3.584 0 0 3.584 0 8s3.584 8 8 8 8-3.584 8-8-3.584-8-8-8zm.8 12H7.2V7.2h1.6V12zm0-6.4H7.2V4h1.6v1.6z"/></symbol><symbol id="settings" viewBox="0 0 16 16"><path opacity=".4" fill-rule="evenodd" d="M.792 12.24a.75.75 0 0 1 .75-.75h5.124a.75.75 0 0 1 0 1.5H1.542a.75.75 0 0 1-.75-.75z"/><path fill-rule="evenodd" d="M12.418 10.95a1.29 1.29 0 1 0 0 2.58 1.29 1.29 0 0 0 0-2.58zm-2.79 1.29a2.79 2.79 0 1 1 5.58 0 2.79 2.79 0 0 1-5.58 0z"/><path opacity=".4" fill-rule="evenodd" d="M8.584 3.936a.75.75 0 0 1 .75-.75h5.125a.75.75 0 0 1 0 1.5H9.334a.75.75 0 0 1-.75-.75z"/><path fill-rule="evenodd" d="M.792 3.936a2.79 2.79 0 1 1 5.58 0 2.79 2.79 0 0 1-5.58 0zm2.79-1.29a1.29 1.29 0 1 0 0 2.58 1.29 1.29 0 0 0 0-2.58z"/></symbol><symbol id="sparkle-full" viewBox="0 0 20 20"><path d="M16.364 7.273l1.136-2.5L20 3.636 17.5 2.5 16.364 0l-1.137 2.5-2.5 1.136 2.5 1.137 1.137 2.5zm-6.819.454l-2.272-5-2.273 5L0 10l5 2.273 2.273 5 2.272-5 5-2.273-5-2.273zm6.819 5l-1.137 2.5-2.5 1.137 2.5 1.136 1.137 2.5 1.136-2.5 2.5-1.136-2.5-1.137-1.136-2.5z"/></symbol><symbol id="verified" viewBox="0 0 16 16"><path fill="#fff" d="M0 0h16v16H0z"/><circle cx="8" cy="8" r="8" fill="#1877F2"/><path d="M6.764 9.366L5.076 7.672 4 8.755l2.764 2.771 5.338-5.352-1.077-1.084-4.261 4.276z" fill="#fff"/></symbol></svg>