<?xml version="1.0" encoding="UTF-8"?><!DOCTYPE svg PUBLIC "-//W3C//DTD SVG 1.1//EN" "http://www.w3.org/Graphics/SVG/1.1/DTD/svg11.dtd"><svg xmlns="http://www.w3.org/2000/svg"><symbol id="16-left" viewBox="0 0 16 16"><path d="M15.467 7.067H4.817L9.71 1.849 8.467.533 1.467 8l7 7.467L9.7 14.15 4.818 8.933h10.649V7.067z"/></symbol><symbol id="16-pencil" viewBox="0 0 16 16"><path d="M1.024 12.668v3.124h2.917l8.6-9.215-2.916-3.125-8.6 9.216zM14.797 4.16a.872.872 0 0 0 0-1.175l-1.82-1.95a.739.739 0 0 0-1.096 0l-1.424 1.525 2.917 3.124 1.423-1.524z" fill="#000"/></symbol><symbol id="16-plus" viewBox="0 0 16 16"><path d="M8.585 7.41h6.37v1.204h-6.37v6.342H7.381V8.614H1.04V7.411h6.341V1.04h1.204v6.37z" fill="#000"/></symbol><symbol id="24-location" viewBox="0 0 24 24"><path d="M12 2C8.13 2 5 5.13 5 9c0 5.25 7 13 7 13s7-7.75 7-13c0-3.87-3.13-7-7-7zm0 9.5a2.5 2.5 0 0 1 0-5 2.5 2.5 0 0 1 0 5z"/></symbol><symbol id="28-media-facebook" viewBox="0 0 28 28"><path d="M13.987 0C6.271 0 0 6.271 0 14.013 0 21.729 6.271 28 13.987 28 21.73 28 28 21.729 28 14.013 28 6.27 21.729 0 13.987 0zm3.716 13.935h-2.426v8.671H11.69v-8.67H9.987V10.89h1.703V8.903c0-1.42.671-3.613 3.613-3.613h2.684v2.968h-1.935c-.336 0-.775.155-.775.826v1.806h2.736l-.31 3.045z"/></symbol><symbol id="28-media-instagram" viewBox="0 0 28 28"><path d="M13.883 16.62a2.49 2.49 0 0 0 2.504-2.504 2.49 2.49 0 0 0-2.504-2.503 2.49 2.49 0 0 0-2.503 2.503 2.49 2.49 0 0 0 2.503 2.503zm3.123-8.646h-6.245c-.929 0-1.729.284-2.22.774-.515.517-.8 1.317-.8 2.245v6.246c0 .929.285 1.729.852 2.296.568.49 1.316.8 2.22.8h6.193c.929 0 1.729-.31 2.245-.8.568-.516.852-1.316.852-2.219v-6.27c0-.93-.284-1.652-.8-2.22-.568-.568-1.316-.852-2.297-.852zm-3.123 10.013a3.866 3.866 0 0 1-3.87-3.87 3.866 3.866 0 0 1 3.87-3.872c2.117 0 3.923 1.703 3.923 3.871s-1.755 3.871-3.923 3.871zm4.052-6.993a.925.925 0 0 1-.929-.93c0-.516.413-.903.929-.903s.903.387.903.904c0 .516-.387.928-.903.928zM13.987 0C6.245 0 0 6.245 0 14.013A13.965 13.965 0 0 0 13.987 28c7.767 0 14.012-6.245 14.012-13.987C28.077 6.245 21.754 0 13.987 0zm6.219 20.542c-.8.8-1.936 1.213-3.2 1.213h-6.193c-1.265 0-2.4-.413-3.2-1.213-.852-.8-1.239-1.936-1.239-3.226v-6.27c0-2.633 1.755-4.44 4.439-4.44h6.27c1.29 0 2.375.44 3.175 1.24.8.8 1.212 1.883 1.212 3.2v6.27c0 1.29-.464 2.426-1.264 3.226z"/></symbol><symbol id="28-media-link" viewBox="0 0 28 28"><path fill-rule="evenodd" clip-rule="evenodd" d="M14 28c7.732 0 14-6.268 14-14S21.732 0 14 0 0 6.268 0 14s6.268 14 14 14zM9.103 15.025c-1.013 1.013-1.061 2.61-.108 3.564.953.953 2.55.904 3.563-.108l2.368-2.369 1.06 1.06-2.37 2.368c-1.633 1.634-4.208 1.712-5.746.174-1.538-1.538-1.46-4.113.174-5.747l2.368-2.369 1.06 1.059-2.37 2.368zm7.614-3.044l-4.737 4.737-1.115-1.114 4.737-4.737 1.115 1.114zm-5.12-1.567l2.368-2.369c1.634-1.634 4.209-1.712 5.747-.174 1.538 1.538 1.46 4.113-.174 5.747l-2.369 2.369-1.058-1.059 2.368-2.369c1.013-1.012 1.061-2.61.108-3.563-.953-.953-2.55-.904-3.563.108l-2.369 2.369-1.058-1.06z"/></symbol><symbol id="28-media-twitter" viewBox="0 0 28 28"><path d="M13.987 0C6.271 0 0 6.271 0 14.013 0 21.729 6.271 28 13.987 28 21.73 28 28 21.729 28 14.013 28 6.27 21.729 0 13.987 0zm7.071 11.174v.465c0 4.67-3.535 10.038-10.039 10.038-1.987 0-3.845-.593-5.419-1.574.284.026.568.052.852.052a7.067 7.067 0 0 0 4.387-1.523C9.29 18.606 8 17.574 7.535 16.181c.207.051.44.051.671.051.31 0 .62-.026.93-.103a3.546 3.546 0 0 1-2.84-3.484v-.026a3.8 3.8 0 0 0 1.6.44 3.552 3.552 0 0 1-1.573-2.943c0-.645.18-1.264.49-1.78a9.995 9.995 0 0 0 7.277 3.69 2.723 2.723 0 0 1-.103-.8 3.54 3.54 0 0 1 3.536-3.536c1.006 0 1.935.439 2.58 1.11a6.969 6.969 0 0 0 2.245-.852A3.557 3.557 0 0 1 20.8 9.91c.697-.104 1.393-.284 2.013-.568a6.596 6.596 0 0 1-1.755 1.832z"/></symbol><symbol id="32-crowd" viewBox="0 0 32 32"><path d="M20.727 15.286c1.962 0 3.534-1.628 3.534-3.643C24.261 9.626 22.689 8 20.727 8c-1.96 0-3.545 1.626-3.545 3.643 0 2.015 1.584 3.643 3.546 3.643zm-9.454 0c1.962 0 3.534-1.628 3.534-3.643C14.807 9.626 13.235 8 11.273 8 9.31 8 7.727 9.626 7.727 11.643c0 2.015 1.584 3.643 3.546 3.643zm0 2.428C8.519 17.714 3 19.135 3 21.964V25h16.546v-3.035c0-2.83-5.519-4.251-8.273-4.251zm9.454 0c-.342 0-.733.025-1.146.062 1.371 1.02 2.328 2.392 2.328 4.189V25H29v-3.035c0-2.83-5.519-4.251-8.273-4.251z" fill="#000"/></symbol></svg>