<?xml version="1.0" encoding="UTF-8"?><!DOCTYPE svg PUBLIC "-//W3C//DTD SVG 1.1//EN" "http://www.w3.org/Graphics/SVG/1.1/DTD/svg11.dtd"><svg xmlns="http://www.w3.org/2000/svg"><symbol id="16-add-member" viewBox="0 0 16 16"><path d="M10.273 8c1.306 0 2.363-1.119 2.363-2.5S11.58 3 10.273 3 7.909 4.119 7.909 5.5 8.967 8 10.273 8zM4.955 6.75V4.875H3.773V6.75H2V8h1.773v1.875h1.182V8h1.772V6.75H4.955zm5.318 2.5c-1.578 0-4.728.838-4.728 2.5V13H15v-1.25c0-1.662-3.15-2.5-4.727-2.5z"/></symbol><symbol id="16-angle-down" viewBox="0 0 16 16"><path d="M11.443 6L8 9.634 4.558 6 3.5 7.116l4.5 4.75 4.5-4.75L11.443 6z"/></symbol><symbol id="16-backward" viewBox="0 0 16 16"><path d="M12.915 11.443L9.28 8l3.634-3.442L11.798 3.5 7.048 8l4.75 4.5 1.117-1.057zM3.09 3.5h1.583v9H3.09v-9z"/></symbol><symbol id="16-bookmark" viewBox="0 0 16 16"><path fill-rule="evenodd" clip-rule="evenodd" d="M8 9.756l-2.472 1.458.656-2.748L4 6.616l2.876-.238L8 3.786l1.124 2.592L12 6.616l-2.184 1.85.656 2.748L8 9.756zm2.931-.924l1.06 4.44L8 10.916l-3.991 2.354 1.06-4.44L1.51 5.82l4.686-.388L8 1.272l1.803 4.159 4.686.388-3.558 3.013z"/></symbol><symbol id="16-bookmarked" viewBox="0 0 16 16"><path fill-rule="evenodd" clip-rule="evenodd" d="M10.931 8.832l1.06 4.44L8 10.916l-3.991 2.354 1.06-4.44L1.51 5.82l4.686-.388L8 1.272l1.803 4.159 4.686.388-3.558 3.013z"/></symbol><symbol id="16-cinema" viewBox="0 0 16 16"><path d="M12.444 6.66V3.533c0-.491-.4-.893-.888-.893H.889A.894.894 0 0 0 0 3.533v8.934c0 .491.4.893.889.893h10.667a.894.894 0 0 0 .888-.893V9.34L16 12.914V3.087L12.444 6.66z"/></symbol><symbol id="16-city" viewBox="0 0 16 16"><path d="M10 7.333v-4l-2-2-2 2v1.334H2V14h12V7.333h-4zm-5.333 5.334H3.333v-1.334h1.334v1.334zm0-2.667H3.333V8.667h1.334V10zm0-2.667H3.333V6h1.334v1.333zm4 5.334H7.333v-1.334h1.334v1.334zm0-2.667H7.333V8.667h1.334V10zm0-2.667H7.333V6h1.334v1.333zm0-2.666H7.333V3.333h1.334v1.334zm4 8h-1.334v-1.334h1.334v1.334zm0-2.667h-1.334V8.667h1.334V10z"/></symbol><symbol id="16-cog" viewBox="0 0 16 16"><path d="M13.091 8.702c.029-.205.043-.417.043-.643 0-.218-.014-.437-.05-.642l1.428-1.08a.329.329 0 0 0 .085-.416l-1.35-2.269c-.085-.15-.261-.198-.416-.15l-1.681.656a5.007 5.007 0 0 0-1.14-.642L9.757 1.78a.337.337 0 0 0-.338-.28h-2.7a.33.33 0 0 0-.331.28l-.254 1.736c-.415.164-.795.39-1.14.642l-1.68-.656a.34.34 0 0 0-.416.15L1.555 5.921c-.085.143-.056.32.084.416l1.428 1.08c-.035.205-.063.43-.063.642 0 .212.014.438.05.643l-1.429 1.08a.329.329 0 0 0-.084.416l1.35 2.268c.085.15.26.198.415.15l1.682-.655c.351.26.724.478 1.14.642l.253 1.735c.035.164.168.28.337.28H9.42c.17 0 .31-.116.331-.28l.253-1.735a4.857 4.857 0 0 0 1.14-.642l1.681.656a.34.34 0 0 0 .415-.15l1.35-2.27a.31.31 0 0 0-.084-.416l-1.414-1.08zM8.07 10.519c-1.393 0-2.533-1.107-2.533-2.46S6.676 5.6 8.07 5.6 10.6 6.707 10.6 8.06s-1.14 2.46-2.532 2.46z"/></symbol><symbol id="16-cross-airy" viewBox="0 0 16 16"><path d="M13 4.007L11.993 3 8 6.993 4.007 3 3 4.007 6.993 8 3 11.993 4.007 13 8 9.007 11.993 13 13 11.993 9.007 8 13 4.007z"/></symbol><symbol id="16-cross" viewBox="0 0 16 16"><path d="M15.293 2.179L13.825.71 8.002 6.533 2.179.71.71 2.179l5.823 5.823L.71 13.825l1.469 1.468L8.002 9.47l5.823 5.823 1.468-1.468L9.47 8.002l5.823-5.823z"/></symbol><symbol id="16-crowd-outline" viewBox="0 0 16 16"><path d="M11.273 8.877c-.873 0-2.233.25-3.273.734-1.04-.492-2.4-.734-3.273-.734C3.15 8.877 0 9.67 0 11.264v2.02h16v-2.02c0-1.594-3.15-2.387-4.727-2.387zm-2.91 3.305H1.092v-.918c0-.396 1.862-1.285 3.636-1.285 1.775 0 3.637.889 3.637 1.285v.918zm6.546 0H9.455v-.918c0-.338-.146-.631-.379-.896.64-.22 1.426-.39 2.197-.39 1.774 0 3.636.89 3.636 1.286v.918zM4.727 8.142c1.404 0 2.546-1.153 2.546-2.57C7.273 4.152 6.13 3 4.727 3 3.324 3 2.182 4.153 2.182 5.571c0 1.418 1.142 2.571 2.545 2.571zm0-4.04c.8 0 1.455.661 1.455 1.47 0 .807-.655 1.468-1.455 1.468s-1.454-.66-1.454-1.469c0-.808.654-1.47 1.454-1.47zm6.546 4.04c1.403 0 2.545-1.153 2.545-2.57C13.818 4.152 12.676 3 11.273 3 9.869 3 8.727 4.153 8.727 5.571c0 1.418 1.142 2.571 2.546 2.571zm0-4.04c.8 0 1.454.661 1.454 1.47 0 .807-.654 1.468-1.454 1.468-.8 0-1.455-.66-1.455-1.469 0-.808.655-1.47 1.455-1.47z"/></symbol><symbol id="16-crowd" viewBox="0 0 16 16"><path d="M10.182 7.521c.905 0 1.63-.744 1.63-1.665 0-.922-.725-1.666-1.63-1.666-.905 0-1.636.744-1.636 1.666 0 .921.73 1.665 1.636 1.665zm-4.364 0c.906 0 1.631-.744 1.631-1.665 0-.922-.725-1.666-1.63-1.666-.906 0-1.637.744-1.637 1.666 0 .921.73 1.665 1.636 1.665zm0 1.11c-1.27 0-3.818.65-3.818 1.943v1.388h7.637v-1.388c0-1.293-2.548-1.943-3.819-1.943zm4.364 0c-.158 0-.338.011-.53.028.634.467 1.075 1.094 1.075 1.915v1.388H14v-1.388c0-1.293-2.547-1.943-3.818-1.943z"/></symbol><symbol id="16-down" viewBox="0 0 16 16"><path d="M14.337 8.333L13.22 7.217l-4.425 4.418V2H7.212v9.635L2.794 7.209 1.67 8.333l6.333 6.334 6.334-6.334z"/></symbol><symbol id="16-envelope-outline" viewBox="0 0 16 16"><path d="M13.75 2.5H2.417c-.78 0-1.41.638-1.41 1.417L1 12.417c0 .779.637 1.416 1.417 1.416H13.75a1.42 1.42 0 0 0 1.417-1.416v-8.5A1.42 1.42 0 0 0 13.75 2.5zm0 9.917H2.417V5.333l5.666 3.542 5.667-3.542v7.084zM8.083 7.458L2.417 3.917H13.75L8.083 7.458z"/></symbol><symbol id="16-envelope" viewBox="0 0 16 16"><path d="M12.665 3.33H3.332c-.642 0-1.161.525-1.161 1.167l-.006 7a1.17 1.17 0 0 0 1.167 1.166h9.333a1.17 1.17 0 0 0 1.167-1.166v-7a1.17 1.17 0 0 0-1.167-1.167zm0 2.333L7.998 8.58 3.332 5.663V4.497l4.666 2.916 4.667-2.916v1.166z"/></symbol><symbol id="16-eye" viewBox="0 0 16 16"><path fill="#fff" d="M0 0h16v16H0z"/><path d="M8 3.624a6.899 6.899 0 0 0-6.417 4.375A6.899 6.899 0 0 0 8 12.374a6.899 6.899 0 0 0 6.417-4.375A6.899 6.899 0 0 0 8 3.624zm0 7.292a2.918 2.918 0 0 1 0-5.834 2.918 2.918 0 0 1 0 5.834zm0-4.667c-.968 0-1.75.782-1.75 1.75s.782 1.75 1.75 1.75 1.75-.782 1.75-1.75-.782-1.75-1.75-1.75z" fill="#000"/></symbol><symbol id="16-forward" viewBox="0 0 16 16"><path d="M3.09 4.558L6.724 8 3.09 11.443 4.206 12.5 8.956 8l-4.75-4.5L3.09 4.558zM11.331 3.5h1.584v9H11.33v-9z"/></symbol><symbol id="16-geo" viewBox="0 0 16 16"><path d="M8 2C5.789 2 4 3.878 4 6.2 4 9.35 8 14 8 14s4-4.65 4-7.8C12 3.878 10.211 2 8 2zm0 5.7c-.789 0-1.429-.672-1.429-1.5S7.211 4.7 8 4.7s1.429.672 1.429 1.5S8.789 7.7 8 7.7z"/></symbol><symbol id="16-globe-full" viewBox="0 0 16 16"><path d="M8 0C3.584 0 0 3.584 0 8s3.584 8 8 8 8-3.584 8-8-3.584-8-8-8zm-.8 14.344A6.39 6.39 0 0 1 1.6 8c0-.496.064-.968.168-1.432L5.6 10.4v.8c0 .88.72 1.6 1.6 1.6v1.544zm5.52-2.032A1.587 1.587 0 0 0 11.2 11.2h-.8V8.8c0-.44-.36-.8-.8-.8H4.8V6.4h1.6c.44 0 .8-.36.8-.8V4h1.6c.88 0 1.6-.72 1.6-1.6v-.328c2.344.952 4 3.248 4 5.928 0 1.664-.64 3.176-1.68 4.312z"/></symbol><symbol id="16-globe-half" viewBox="0 0 16 16"><path d="M8 1.5A6.502 6.502 0 0 0 1.5 8c0 3.588 2.912 6.5 6.5 6.5s6.5-2.912 6.5-6.5S11.588 1.5 8 1.5zm-.65 11.655A5.192 5.192 0 0 1 2.8 8c0-.403.052-.787.137-1.163L6.05 9.95v.65c0 .715.585 1.3 1.3 1.3v1.255zm4.485-1.651A1.29 1.29 0 0 0 10.6 10.6h-.65V8.65A.652.652 0 0 0 9.3 8H5.4V6.7h1.3c.357 0 .65-.293.65-.65v-1.3h1.3c.715 0 1.3-.585 1.3-1.3v-.267A5.203 5.203 0 0 1 13.2 8c0 1.352-.52 2.58-1.365 3.504z"/></symbol><symbol id="16-globe" viewBox="0 0 16 16"><path d="M8 3C5.24 3 3 5.24 3 8s2.24 5 5 5 5-2.24 5-5-2.24-5-5-5zm-.5 8.965A3.994 3.994 0 0 1 4 8c0-.31.04-.605.105-.895L6.5 9.5v.5c0 .55.45 1 1 1v.965zm3.45-1.27A.992.992 0 0 0 10 10h-.5V8.5c0-.275-.225-.5-.5-.5H6V7h1c.275 0 .5-.225.5-.5v-1h1c.55 0 1-.45 1-1v-.205A4.002 4.002 0 0 1 12 8c0 1.04-.4 1.985-1.05 2.695z"/></symbol><symbol id="16-grid" viewBox="0 0 16 16"><path fill-rule="evenodd" clip-rule="evenodd" d="M1.25 1.25v6h6v-6h-6zm4.5 4.5h-3v-3h3v3zm-4.5 3v6h6v-6h-6zm4.5 4.5h-3v-3h3v3zm3-12v6h6v-6h-6zm4.5 4.5h-3v-3h3v3zm-4.5 3v6h6v-6h-6zm4.5 4.5h-3v-3h3v3z"/></symbol><symbol id="16-house" viewBox="0 0 16 16"><path d="M6.8 12V8.47h2.4V12h3V7.294H14L8 2 2 7.294h1.8V12h3z"/></symbol><symbol id="16-left" viewBox="0 0 16 16"><path d="M15.467 7.067H4.817L9.71 1.849 8.467.533 1.467 8l7 7.467L9.7 14.15 4.818 8.933h10.649V7.067z"/></symbol><symbol id="16-logout" viewBox="0 0 16 16"><path d="M11 4.944l-.846.862 1.548 1.583H5.6V8.61h6.102l-1.548 1.577.846.868L14 8l-3-3.056zM3.2 3.722H8V2.5H3.2c-.66 0-1.2.55-1.2 1.222v8.556c0 .672.54 1.222 1.2 1.222H8v-1.222H3.2V3.722z"/></symbol><symbol id="16-magnifier" viewBox="0 0 16 16"><path d="M11.232 10.032a.773.773 0 0 0-.547-.227h-.218a.23.23 0 0 1-.16-.065.239.239 0 0 1-.02-.32 5.177 5.177 0 0 0 1.119-3.217 5.203 5.203 0 1 0-5.203 5.203c1.21 0 2.33-.417 3.218-1.118a.239.239 0 0 1 .32.018.23.23 0 0 1 .064.16v.22c0 .204.082.401.227.546l3.178 3.172a.844.844 0 0 0 1.194-1.194l-3.172-3.178zm-5.029-.227a3.597 3.597 0 0 1-3.602-3.602 3.597 3.597 0 0 1 3.602-3.602 3.597 3.597 0 0 1 3.602 3.602 3.597 3.597 0 0 1-3.602 3.602z"/></symbol><symbol id="16-pause" viewBox="0 0 16 16"><path d="M5 15H4a1 1 0 0 1-1-1V2a1 1 0 0 1 1-1h1a1 1 0 0 1 1 1v12a1 1 0 0 1-1 1zm5-1V2a1 1 0 0 1 1-1h1a1 1 0 0 1 1 1v12a1 1 0 0 1-1 1h-1a1 1 0 0 1-1-1z"/></symbol><symbol id="16-pencil-tiny" viewBox="0 0 16 16"><path d="M2 11.5V14h2.5l7.372-7.372-2.5-2.5L2 11.5zm11.805-6.805c.26-.26.26-.68 0-.94l-1.56-1.56a.664.664 0 0 0-.94 0l-1.22 1.22 2.5 2.5 1.22-1.22z"/></symbol><symbol id="16-pencil" viewBox="0 0 16 16"><path d="M1.024 12.668v3.124h2.917l8.6-9.215-2.916-3.125-8.6 9.216zM14.797 4.16a.872.872 0 0 0 0-1.175l-1.82-1.95a.739.739 0 0 0-1.096 0l-1.424 1.525 2.917 3.124 1.423-1.524z"/></symbol><symbol id="16-play" viewBox="0 0 16 16"><path d="M14 7.134a1 1 0 0 1 0 1.732l-9.75 5.63a1 1 0 0 1-1.5-.867V2.371a1 1 0 0 1 1.5-.866L14 7.134z"/></symbol><symbol id="16-plus-micro" viewBox="0 0 16 16"><path d="M11 8.429H8.429V11H7.57V8.429H5V7.57h2.571V5h.858v2.571H11v.858z"/></symbol><symbol id="16-plus-tiny" viewBox="0 0 16 16"><path d="M8.585 7.41h6.37v1.204h-6.37v6.342H7.381V8.614H1.04V7.411h6.341V1.04h1.204v6.37z"/></symbol><symbol id="16-plus" viewBox="0 0 16 16"><path d="M15.045 9.026h-6.02v6.02H7.02v-6.02H1V7.019h6.02V1h2.006v6.02h6.02v2.006z"/></symbol><symbol id="16-question-spot" viewBox="0 0 16 16"><path d="M8 1.5A6.502 6.502 0 0 0 1.5 8c0 3.588 2.912 6.5 6.5 6.5s6.5-2.912 6.5-6.5S11.588 1.5 8 1.5zm.65 11.05h-1.3v-1.3h1.3v1.3zm1.345-5.038l-.584.599c-.468.474-.761.864-.761 1.839h-1.3v-.325c0-.715.293-1.365.76-1.84l.806-.819A1.27 1.27 0 0 0 9.3 6.05c0-.715-.585-1.3-1.3-1.3-.715 0-1.3.585-1.3 1.3H5.4a2.6 2.6 0 1 1 5.2 0c0 .572-.234 1.092-.604 1.463z"/></symbol><symbol id="16-right" viewBox="0 0 16 16"><path d="M.533 7.067h10.65L6.29 1.849 7.533.533l7 7.467-7 7.467L6.3 14.15l4.882-5.218H.533V7.067z"/></symbol><symbol id="16-shuffle" viewBox="0 0 16 16"><path d="M7.174 6.346L4.152 3.33l-.822.822 3.016 3.016.828-.822zM9.455 3.33l1.19 1.19-7.315 7.32.822.823 7.321-7.315 1.19 1.19V3.33H9.455zm.193 5.49l-.823.822 1.826 1.825-1.196 1.196h3.208V9.455l-1.19 1.19-1.825-1.826z"/></symbol><symbol id="16-shuffled" viewBox="0 0 16 16"><path d="M7.174 6.346L4.152 3.33l-.822.822 3.016 3.016.828-.822zM9.455 3.33l1.19 1.19-7.315 7.32.822.823 7.321-7.315 1.19 1.19V3.33H9.455zm.193 5.49l-.823.822 1.826 1.825-1.196 1.196h3.208V9.455l-1.19 1.19-1.825-1.826z"/><circle cx="7.75" cy="15.25" r=".75"/></symbol><symbol id="16-sparkle" viewBox="0 0 16 16"><path d="M12.375 6.125l.781-1.719 1.719-.781-1.719-.781-.781-1.719-.781 1.719-1.719.781 1.719.781.781 1.719zm-4.688.313L6.125 3 4.562 6.438 1.126 8l3.438 1.563L6.125 13l1.563-3.438L11.124 8 7.687 6.437zm4.688 3.437l-.781 1.719-1.719.781 1.719.781.781 1.719.781-1.719 1.719-.781-1.719-.781-.781-1.719z"/></symbol><symbol id="16-stagetime" viewBox="0 0 16 16"><path d="M8.089 9.502l.278 5.564h-.732l.279-5.564h.175zM6.5 7.914L.935 7.635v.732L6.5 8.089v-.175zM8.09 6.5L8.366.935h-.73L7.913 6.5h.175zm1.413 1.414v.175l5.564.278v-.732l-5.564.279zm-4.59 2.763l.399.398 2.05-2.326-.123-.123-2.326 2.05zm0-5.38L7.238 7.35l.124-.124L5.31 4.898l-.398.4zm6.177 0l-.398-.397L8.64 7.225l.124.124 2.325-2.051zM8.64 8.752l2.052 2.326.398-.399-2.326-2.05-.123.123z"/></symbol><symbol id="16-swap" viewBox="0 0 16 16"><path d="M11.75 3.31l-2.5 2.5h1.875v4.375c0 .688-.563 1.25-1.25 1.25-.688 0-1.25-.563-1.25-1.25V5.81a2.5 2.5 0 1 0-5 0v4.375H1.75l2.5 2.5 2.5-2.5H4.875V5.81c0-.688.563-1.25 1.25-1.25.688 0 1.25.563 1.25 1.25v4.375a2.5 2.5 0 1 0 5 0V5.81h1.875l-2.5-2.5z"/></symbol><symbol id="16-wave" viewBox="0 0 16 16"><path d="M4.106 12.699h1.558V3.287H4.106V12.7zm3.116 3.137h1.557V.15H7.222v15.686zM.99 9.562h1.558V6.425H.99v3.137zm9.347 3.137h1.558V3.287h-1.558V12.7zm3.116-6.274v3.137h1.558V6.425h-1.558z"/></symbol><symbol id="20-rounded-cross" viewBox="0 0 20 20"><path d="M12.158 6.667L10 8.825 7.842 6.667 6.667 7.842 8.825 10l-2.158 2.158 1.175 1.175L10 11.175l2.158 2.158 1.175-1.175L11.175 10l2.158-2.158-1.175-1.175zm-2.158-5A8.326 8.326 0 0 0 1.667 10 8.326 8.326 0 0 0 10 18.333 8.326 8.326 0 0 0 18.333 10 8.326 8.326 0 0 0 10 1.667zm0 15A6.675 6.675 0 0 1 3.333 10 6.676 6.676 0 0 1 10 3.333 6.675 6.675 0 0 1 16.667 10 6.675 6.675 0 0 1 10 16.667z"/></symbol><symbol id="22-bottom-buildings" viewBox="0 0 22 22"><path d="M13.895 10.527V5.042L11 2.3 8.105 5.042v1.829h-5.79v12.798h17.37v-9.142h-5.79zm-7.72 7.313h-1.93v-1.828h1.93v1.828zm0-3.656h-1.93v-1.829h1.93v1.829zm0-3.657h-1.93V8.7h1.93v1.828zm5.79 7.313h-1.93v-1.828h1.93v1.828zm0-3.656h-1.93v-1.829h1.93v1.829zm0-3.657h-1.93V8.7h1.93v1.828zm0-3.656h-1.93V5.042h1.93v1.829zm5.79 10.97h-1.93v-1.829h1.93v1.828zm0-3.657h-1.93v-1.829h1.93v1.829z"/></symbol><symbol id="22-bottom-crowd" viewBox="0 0 22 22"><path d="M14.158 13.068c1.31 0 2.36-1.109 2.36-2.482 0-1.373-1.05-2.48-2.36-2.48-1.31 0-2.368 1.107-2.368 2.48s1.058 2.482 2.368 2.482zm-6.316 0c1.311 0 2.361-1.109 2.361-2.482 0-1.373-1.05-2.48-2.361-2.48-1.31 0-2.369 1.107-2.369 2.48s1.059 2.482 2.369 2.482zm0 1.654c-1.84 0-5.526.968-5.526 2.895v2.067h11.053v-2.067c0-1.927-3.687-2.895-5.527-2.895zm6.316 0c-.229 0-.49.016-.766.042.916.694 1.555 1.629 1.555 2.853v2.067h4.737v-2.067c0-1.927-3.687-2.895-5.526-2.895z"/></symbol><symbol id="22-bottom-phone" viewBox="0 0 22 22"><path d="M5.809 9.832a14.617 14.617 0 0 0 6.359 6.36l2.122-2.124a.96.96 0 0 1 .985-.231c1.08.357 2.248.55 3.444.55.531 0 .965.434.965.965v3.367c0 .53-.434.965-.965.965-9.06 0-16.403-7.343-16.403-16.403 0-.531.434-.965.965-.965h3.377c.53 0 .965.434.965.965 0 1.206.193 2.364.55 3.444a.968.968 0 0 1-.241.985L5.809 9.832z"/></symbol><symbol id="22-bottom-staple" viewBox="0 0 22 22"><path d="M3.966 13.053c0-1.585 1.207-2.872 2.692-2.872h3.474V8.42H6.658c-2.397 0-4.342 2.075-4.342 4.632 0 2.556 1.945 4.631 4.342 4.631h3.474v-1.76H6.658c-1.485 0-2.692-1.287-2.692-2.871zm3.56.926h6.948v-1.853H7.526v1.853zm7.816-5.558h-3.474v1.76h3.474c1.485 0 2.692 1.288 2.692 2.872 0 1.583-1.207 2.871-2.692 2.871h-3.474v1.76h3.474c2.397 0 4.342-2.075 4.342-4.632 0-2.556-1.945-4.631-4.342-4.631z"/></symbol><symbol id="24-article" viewBox="0 0 24 24"><path d="M19 3H5c-1.1 0-2 .9-2 2v14c0 1.1.9 2 2 2h14c1.1 0 2-.9 2-2V5c0-1.1-.9-2-2-2zm-5 14H7v-2h7v2zm3-4H7v-2h10v2zm0-4H7V7h10v2z"/></symbol><symbol id="24-bookmark" viewBox="0 0 24 24"><path fill-rule="evenodd" clip-rule="evenodd" d="M12 15.555l-4.572 2.673 1.214-5.039-4.04-3.39 5.32-.438L12 4.61l2.079 4.752 5.318.437-4.039 3.391 1.214 5.04L12 15.554zm5.421-1.695l1.96 8.14L12 17.683 4.62 22l1.959-8.14L0 8.337l8.665-.712L12 0l3.335 7.625L24 8.337l-6.579 5.523z"/></symbol><symbol id="24-bookmarked" viewBox="0 0 24 24"><path fill-rule="evenodd" clip-rule="evenodd" d="M17.421 13.86l1.96 8.14L12 17.683 4.62 22l1.959-8.14L0 8.337l8.665-.712L12 0l3.335 7.625L24 8.337l-6.579 5.523z"/></symbol><symbol id="24-calendar" viewBox="0 0 24 24"><path d="M19.2 3.818h-.9V2h-1.8v1.818h-9V2H5.7v1.818h-.9c-.99 0-1.8.818-1.8 1.818v14.546c0 1 .81 1.818 1.8 1.818h14.4c.99 0 1.8-.818 1.8-1.818V5.636c0-1-.81-1.818-1.8-1.818zm0 16.364H4.8V8.364h14.4v11.818z"/></symbol><symbol id="24-cinema" viewBox="0 0 24 24"><path d="M17.556 10.371V6.567c0-.598-.5-1.087-1.112-1.087H3.111C2.5 5.48 2 5.97 2 6.567v10.87c0 .597.5 1.086 1.111 1.086h13.333c.612 0 1.112-.489 1.112-1.087v-3.804L22 17.98V6.023l-4.444 4.348z"/></symbol><symbol id="24-location" viewBox="0 0 24 24"><path d="M12 2C8.13 2 5 5.13 5 9c0 5.25 7 13 7 13s7-7.75 7-13c0-3.87-3.13-7-7-7zm0 9.5a2.5 2.5 0 0 1 0-5 2.5 2.5 0 0 1 0 5z"/></symbol><symbol id="24-lock" viewBox="0 0 24 24"><path d="M17.713 8.667h-.952V6.762A4.764 4.764 0 0 0 11.999 2a4.764 4.764 0 0 0-4.762 4.762v1.905h-.952A1.91 1.91 0 0 0 4.38 10.57v9.524A1.91 1.91 0 0 0 6.285 22h11.428a1.91 1.91 0 0 0 1.905-1.905v-9.524a1.91 1.91 0 0 0-1.905-1.904zM12 17.238a1.91 1.91 0 0 1-1.905-1.905A1.91 1.91 0 0 1 12 13.43a1.91 1.91 0 0 1 1.905 1.904 1.91 1.91 0 0 1-1.905 1.905zm2.952-8.571H9.047V6.762a2.955 2.955 0 0 1 2.952-2.952 2.955 2.955 0 0 1 2.952 2.952v1.905z"/></symbol><symbol id="24-picture" viewBox="0 0 24 24"><path d="M21 19V5c0-1.1-.9-2-2-2H5c-1.1 0-2 .9-2 2v14c0 1.1.9 2 2 2h14c1.1 0 2-.9 2-2zM8.5 13.5l2.5 3.01L14.5 12l4.5 6H5l3.5-4.5z"/></symbol><symbol id="24-report" viewBox="0 0 24 24"><path d="M15.73 3H8.27L3 8.27v7.46L8.27 21h7.46L21 15.73V8.27L15.73 3zM19 14.9L14.9 19H9.1L5 14.9V9.1L9.1 5h5.8L19 9.1v5.8z"/><path d="M13 7h-2v6h2V7zM12.953 15.137h-1.955v1.955h1.955v-1.954z"/><path d="M13 11.092h-2v2h2v-2z"/></symbol><symbol id="24-share" viewBox="0 0 24 24"><path d="M16 4l-1.42 1.42-1.59-1.59V15h-1.98V3.83L9.42 5.42 8 4l4-4 4 4zm4 5v11c0 1.1-.9 2-2 2H6a2 2 0 0 1-2-2V9c0-1.11.89-2 2-2h3v2H6v11h12V9h-3V7h3a2 2 0 0 1 2 2z"/></symbol><symbol id="24-staple-horizontal" viewBox="0 0 24 24"><path d="M3.148 11.997c-.003-1.948 1.557-3.532 3.481-3.532h4.5L11.125 6.3h-4.5c-3.105 0-5.62 2.552-5.614 5.697.006 3.145 2.53 5.697 5.636 5.697h4.5l-.005-2.165h-4.5c-1.923 0-3.49-1.584-3.494-3.532zm4.615 1.14h9l-.004-2.28h-9l.004 2.28zM17.875 6.3h-4.5l.004 2.165h4.5c1.924 0 3.49 1.584 3.494 3.532.004 1.948-1.557 3.532-3.48 3.532h-4.5l.004 2.165h4.5c3.105 0 5.62-2.552 5.614-5.697C23.505 8.852 20.98 6.3 17.875 6.3z"/></symbol><symbol id="24-tag" viewBox="0 0 24 24"><path d="M21.469 12.622l-8.1-8.1A1.789 1.789 0 0 0 12.1 4H5.8C4.81 4 4 4.81 4 5.8v6.3c0 .495.198.945.531 1.278l8.1 8.1c.324.324.774.522 1.269.522a1.76 1.76 0 0 0 1.269-.531l6.3-6.3A1.76 1.76 0 0 0 22 13.9c0-.495-.207-.954-.531-1.278zM7.15 8.5c-.747 0-1.35-.603-1.35-1.35 0-.747.603-1.35 1.35-1.35.747 0 1.35.603 1.35 1.35 0 .747-.603 1.35-1.35 1.35z"/></symbol><symbol id="28-media-facebook" viewBox="0 0 28 28"><path d="M13.987 0C6.271 0 0 6.271 0 14.013 0 21.729 6.271 28 13.987 28 21.73 28 28 21.729 28 14.013 28 6.27 21.729 0 13.987 0zm3.716 13.935h-2.426v8.671H11.69v-8.67H9.987V10.89h1.703V8.903c0-1.42.671-3.613 3.613-3.613h2.684v2.968h-1.935c-.336 0-.775.155-.775.826v1.806h2.736l-.31 3.045z"/></symbol><symbol id="28-media-instagram" viewBox="0 0 28 28"><path d="M13.883 16.62a2.49 2.49 0 0 0 2.504-2.504 2.49 2.49 0 0 0-2.504-2.503 2.49 2.49 0 0 0-2.503 2.503 2.49 2.49 0 0 0 2.503 2.503zm3.123-8.646h-6.245c-.929 0-1.729.284-2.22.774-.515.517-.8 1.317-.8 2.245v6.246c0 .929.285 1.729.852 2.296.568.49 1.316.8 2.22.8h6.193c.929 0 1.729-.31 2.245-.8.568-.516.852-1.316.852-2.219v-6.27c0-.93-.284-1.652-.8-2.22-.568-.568-1.316-.852-2.297-.852zm-3.123 10.013a3.866 3.866 0 0 1-3.87-3.87 3.866 3.866 0 0 1 3.87-3.872c2.117 0 3.923 1.703 3.923 3.871s-1.755 3.871-3.923 3.871zm4.052-6.993a.925.925 0 0 1-.929-.93c0-.516.413-.903.929-.903s.903.387.903.904c0 .516-.387.928-.903.928zM13.987 0C6.245 0 0 6.245 0 14.013A13.965 13.965 0 0 0 13.987 28c7.767 0 14.012-6.245 14.012-13.987C28.077 6.245 21.754 0 13.987 0zm6.219 20.542c-.8.8-1.936 1.213-3.2 1.213h-6.193c-1.265 0-2.4-.413-3.2-1.213-.852-.8-1.239-1.936-1.239-3.226v-6.27c0-2.633 1.755-4.44 4.439-4.44h6.27c1.29 0 2.375.44 3.175 1.24.8.8 1.212 1.883 1.212 3.2v6.27c0 1.29-.464 2.426-1.264 3.226z"/></symbol><symbol id="28-media-link" viewBox="0 0 28 28"><path fill-rule="evenodd" clip-rule="evenodd" d="M14 28c7.732 0 14-6.268 14-14S21.732 0 14 0 0 6.268 0 14s6.268 14 14 14zM9.103 15.025c-1.013 1.013-1.061 2.61-.108 3.564.953.953 2.55.904 3.563-.108l2.368-2.369 1.06 1.06-2.37 2.368c-1.633 1.634-4.208 1.712-5.746.174-1.538-1.538-1.46-4.113.174-5.747l2.368-2.369 1.06 1.059-2.37 2.368zm7.614-3.044l-4.737 4.737-1.115-1.114 4.737-4.737 1.115 1.114zm-5.12-1.567l2.368-2.369c1.634-1.634 4.209-1.712 5.747-.174 1.538 1.538 1.46 4.113-.174 5.747l-2.369 2.369-1.058-1.059 2.368-2.369c1.013-1.012 1.061-2.61.108-3.563-.953-.953-2.55-.904-3.563.108l-2.369 2.369-1.058-1.06z"/></symbol><symbol id="28-media-twitter" viewBox="0 0 28 28"><path d="M13.987 0C6.271 0 0 6.271 0 14.013 0 21.729 6.271 28 13.987 28 21.73 28 28 21.729 28 14.013 28 6.27 21.729 0 13.987 0zm7.071 11.174v.465c0 4.67-3.535 10.038-10.039 10.038-1.987 0-3.845-.593-5.419-1.574.284.026.568.052.852.052a7.067 7.067 0 0 0 4.387-1.523C9.29 18.606 8 17.574 7.535 16.181c.207.051.44.051.671.051.31 0 .62-.026.93-.103a3.546 3.546 0 0 1-2.84-3.484v-.026a3.8 3.8 0 0 0 1.6.44 3.552 3.552 0 0 1-1.573-2.943c0-.645.18-1.264.49-1.78a9.995 9.995 0 0 0 7.277 3.69 2.723 2.723 0 0 1-.103-.8 3.54 3.54 0 0 1 3.536-3.536c1.006 0 1.935.439 2.58 1.11a6.969 6.969 0 0 0 2.245-.852A3.557 3.557 0 0 1 20.8 9.91c.697-.104 1.393-.284 2.013-.568a6.596 6.596 0 0 1-1.755 1.832z"/></symbol><symbol id="32-bell" viewBox="0 0 32 32"><path d="M15.743 29.399c1.443 0 2.623-1.203 2.623-2.672H13.12c0 1.47 1.167 2.672 2.624 2.672zm7.87-8.015v-6.68c0-4.1-2.15-7.533-5.903-8.442v-.908c0-1.109-.879-2.004-1.967-2.004-1.09 0-1.968.895-1.968 2.004v.908c-3.765.909-5.904 4.328-5.904 8.443v6.679l-2.623 2.671v1.336h20.99v-1.336l-2.624-2.671z"/></symbol><symbol id="32-crowd" viewBox="0 0 32 32"><path d="M20.727 15.286c1.962 0 3.534-1.628 3.534-3.643C24.261 9.626 22.689 8 20.727 8c-1.96 0-3.545 1.626-3.545 3.643 0 2.015 1.584 3.643 3.546 3.643zm-9.454 0c1.962 0 3.534-1.628 3.534-3.643C14.807 9.626 13.235 8 11.273 8 9.31 8 7.727 9.626 7.727 11.643c0 2.015 1.584 3.643 3.546 3.643zm0 2.428C8.519 17.714 3 19.135 3 21.964V25h16.546v-3.035c0-2.83-5.519-4.251-8.273-4.251zm9.454 0c-.342 0-.733.025-1.146.062 1.371 1.02 2.328 2.392 2.328 4.189V25H29v-3.035c0-2.83-5.519-4.251-8.273-4.251z"/></symbol><symbol id="32-envelope" viewBox="0 0 32 32"><path d="M26.71 6.3H5.296c-1.473 0-2.664 1.09-2.664 2.422l-.013 14.53c0 1.331 1.204 2.421 2.677 2.421h21.412c1.473 0 2.677-1.09 2.677-2.422V8.721c0-1.331-1.204-2.421-2.677-2.421zm0 4.843l-10.707 6.054-10.706-6.054V8.722l10.706 6.054 10.706-6.054v2.421z"/></symbol><symbol id="32-long-arrow-left" viewBox="0 0 32 32"><path fill="#fff" d="M0 0h32v32H0z"/><path fill-rule="evenodd" clip-rule="evenodd" d="M6.328 12.466l-3.182 3.182a.5.5 0 0 0 0 .707l3.182 3.183a.5.5 0 1 0 .708-.708l-2.329-2.328H28.5v-1H4.707l2.329-2.328a.5.5 0 0 0-.708-.708z" fill="#000"/></symbol><symbol id="32-more" viewBox="0 0 32 32"><path d="M14 25c0 1.1.9 2 2 2s2-.9 2-2-.9-2-2-2-2 .9-2 2zm0-18c0 1.1.9 2 2 2s2-.9 2-2-.9-2-2-2-2 .9-2 2zm0 9c0 1.1.9 2 2 2s2-.9 2-2-.9-2-2-2-2 .9-2 2z"/></symbol><symbol id="32-play" viewBox="0 0 32 32"><path d="M29.125 16L9.437 27.367V4.633L29.125 16z"/></symbol><symbol id="32-staple" viewBox="0 0 32 32"><path d="M5.337 26.641c-2.119-2.114-2.011-5.66.24-7.906l5.266-5.255-2.354-2.35-5.266 5.255c-3.634 3.627-3.807 9.34-.387 12.753 3.42 3.412 9.144 3.24 12.778-.387l5.266-5.255-2.354-2.35-5.267 5.256c-2.25 2.246-5.803 2.354-7.922.24zm6.637-4.15l10.532-10.51-2.478-2.474-10.532 10.51 2.478 2.474zm4.414-19.244l-5.266 5.255 2.354 2.35 5.266-5.255c2.252-2.247 5.804-2.355 7.923-.24 2.119 2.114 2.011 5.66-.24 7.906l-5.266 5.256 2.354 2.35 5.266-5.256c3.634-3.627 3.807-9.34.387-12.752-3.42-3.413-9.144-3.24-12.778.386z"/></symbol><symbol id="google-auth" viewBox="0 0 20 20"><path d="M18.502 10.196a9.81 9.81 0 0 0-.15-1.727h-8.18v3.273h4.684a3.93 3.93 0 0 1-1.733 2.583v2.124h2.794c1.641-1.48 2.585-3.667 2.585-6.253z"/><path d="M10.172 18.5c2.339 0 4.311-.752 5.749-2.051l-2.795-2.124c-.777.518-1.781.812-2.95.812-2.263 0-4.181-1.496-4.87-3.508H2.423v2.19c1.472 2.87 4.47 4.682 7.75 4.682z"/><path d="M5.303 11.63a4.996 4.996 0 0 1 0-3.255v-2.19h-2.88a8.357 8.357 0 0 0 0 7.634l2.88-2.19z"/><path d="M10.172 4.864A4.765 4.765 0 0 1 13.5 6.14l2.476-2.427A8.429 8.429 0 0 0 10.172 1.5c-3.279 0-6.277 1.811-7.75 4.685l2.881 2.189c.685-2.015 2.607-3.51 4.87-3.51z"/></symbol></svg>