<svg width="32" height="32" viewBox="0 0 32 32" fill="none" xmlns="http://www.w3.org/2000/svg">
<path d="M31.2297 16.0011C31.2297 24.4364 24.4109 31.2722 16.0023 31.2722C7.59382 31.2722 0.775002 24.4364 0.775002 16.0011C0.775002 7.56577 7.59382 0.72998 16.0023 0.72998C24.4109 0.72998 31.2297 7.56577 31.2297 16.0011Z" stroke="#8B8B8B"/>
<path d="M9.02441 20.6677V23.7922H11.9407L20.5417 14.5768L17.6254 11.4523L9.02441 20.6677ZM22.7969 12.1605C23.1002 11.8356 23.1002 11.3106 22.7969 10.9857L20.9772 9.03595C20.6739 8.711 20.184 8.711 19.8807 9.03595L18.4575 10.5607L21.3738 13.6853L22.7969 12.1605V12.1605Z" fill="#8B8B8B"/>
</svg>
