<svg width="1000" height="1000" viewBox="0 0 1000 1000" fill="none" xmlns="http://www.w3.org/2000/svg">
<path d="M774.865 385.305C770.688 388.55 696.943 430.159 696.943 522.679C696.943 629.695 790.781 667.554 793.59 668.492C793.158 670.799 778.682 720.341 744.114 770.82C713.29 815.241 681.099 859.59 632.127 859.59C583.155 859.59 570.552 831.106 514.019 831.106C458.926 831.106 439.337 860.528 394.542 860.528C349.747 860.528 318.492 819.424 282.555 768.945C240.929 709.668 207.297 617.58 207.297 530.179C207.297 389.992 298.327 315.644 387.917 315.644C435.52 315.644 475.201 346.941 505.089 346.941C533.535 346.941 577.898 313.769 632.055 313.769C652.58 313.769 726.326 315.644 774.865 385.305ZM606.345 254.42C628.742 227.81 644.586 190.888 644.586 153.967C644.586 148.847 644.154 143.655 643.218 139.472C606.777 140.842 563.423 163.774 537.28 194.133C516.755 217.498 497.599 254.42 497.599 291.846C497.599 297.471 498.535 303.096 498.967 304.899C501.272 305.331 505.017 305.836 508.761 305.836C541.457 305.836 582.579 283.914 606.345 254.42Z" fill="black"/>
</svg>
